<svg xmlns="http://www.w3.org/2000/svg" width="210mm" height="297mm" viewBox="0 0 210 297" font-family="system-ui, -apple-system, sans-serif">
  <rect width="210" height="297" fill="#fff"/>
  <text x="14" y="20" font-size="6.5" font-weight="600" fill="#111">Nyilas tábla</text>
  <text x="196" y="20" font-size="3.6" fill="#888" text-anchor="end">Bence  ·  2026. júl. 15.</text>
  <text x="14" y="28" font-size="4.2" fill="#444">Tedd ki a falra! Mondd ki hangosan és gyorsan a nyilak irányát!</text>
  <line x1="14" y1="32" x2="196" y2="32" stroke="#e5e5e5" stroke-width="0.3"/>
  
  <g transform="translate(14.00 40.00) scale(1.1375)"><g ><g transform="translate(20.00 20.00) rotate(90)"><path d="M -11 0 L 11 0 M 3.96 -4.928 L 11 0 L 3.96 4.928" fill="none" stroke="#111" stroke-width="1.60" stroke-linecap="round" stroke-linejoin="round"/></g><g transform="translate(60.00 20.00) rotate(45)"><path d="M -11 0 L 11 0 M 3.96 -4.928 L 11 0 L 3.96 4.928" fill="none" stroke="#111" stroke-width="1.60" stroke-linecap="round" stroke-linejoin="round"/></g><g transform="translate(100.00 20.00) rotate(315)"><path d="M -11 0 L 11 0 M 3.96 -4.928 L 11 0 L 3.96 4.928" fill="none" stroke="#111" stroke-width="1.60" stroke-linecap="round" stroke-linejoin="round"/></g><g transform="translate(140.00 20.00) rotate(45)"><path d="M -11 0 L 11 0 M 3.96 -4.928 L 11 0 L 3.96 4.928" fill="none" stroke="#111" stroke-width="1.60" stroke-linecap="round" stroke-linejoin="round"/></g><g transform="translate(20.00 60.00) rotate(90)"><path d="M -11 0 L 11 0 M 3.96 -4.928 L 11 0 L 3.96 4.928" fill="none" stroke="#111" stroke-width="1.60" stroke-linecap="round" stroke-linejoin="round"/></g><g transform="translate(60.00 60.00) rotate(225)"><path d="M -11 0 L 11 0 M 3.96 -4.928 L 11 0 L 3.96 4.928" fill="none" stroke="#111" stroke-width="1.60" stroke-linecap="round" stroke-linejoin="round"/></g><g transform="translate(100.00 60.00) rotate(45)"><path d="M -11 0 L 11 0 M 3.96 -4.928 L 11 0 L 3.96 4.928" fill="none" stroke="#111" stroke-width="1.60" stroke-linecap="round" stroke-linejoin="round"/></g><g transform="translate(140.00 60.00) rotate(135)"><path d="M -11 0 L 11 0 M 3.96 -4.928 L 11 0 L 3.96 4.928" fill="none" stroke="#111" stroke-width="1.60" stroke-linecap="round" stroke-linejoin="round"/></g><g transform="translate(20.00 100.00) rotate(270)"><path d="M -11 0 L 11 0 M 3.96 -4.928 L 11 0 L 3.96 4.928" fill="none" stroke="#111" stroke-width="1.60" stroke-linecap="round" stroke-linejoin="round"/></g><g transform="translate(60.00 100.00) rotate(0)"><path d="M -11 0 L 11 0 M 3.96 -4.928 L 11 0 L 3.96 4.928" fill="none" stroke="#111" stroke-width="1.60" stroke-linecap="round" stroke-linejoin="round"/></g><g transform="translate(100.00 100.00) rotate(135)"><path d="M -11 0 L 11 0 M 3.96 -4.928 L 11 0 L 3.96 4.928" fill="none" stroke="#111" stroke-width="1.60" stroke-linecap="round" stroke-linejoin="round"/></g><g transform="translate(140.00 100.00) rotate(180)"><path d="M -11 0 L 11 0 M 3.96 -4.928 L 11 0 L 3.96 4.928" fill="none" stroke="#111" stroke-width="1.60" stroke-linecap="round" stroke-linejoin="round"/></g><g transform="translate(20.00 140.00) rotate(315)"><path d="M -11 0 L 11 0 M 3.96 -4.928 L 11 0 L 3.96 4.928" fill="none" stroke="#111" stroke-width="1.60" stroke-linecap="round" stroke-linejoin="round"/></g><g transform="translate(60.00 140.00) rotate(0)"><path d="M -11 0 L 11 0 M 3.96 -4.928 L 11 0 L 3.96 4.928" fill="none" stroke="#111" stroke-width="1.60" stroke-linecap="round" stroke-linejoin="round"/></g><g transform="translate(100.00 140.00) rotate(180)"><path d="M -11 0 L 11 0 M 3.96 -4.928 L 11 0 L 3.96 4.928" fill="none" stroke="#111" stroke-width="1.60" stroke-linecap="round" stroke-linejoin="round"/></g><g transform="translate(140.00 140.00) rotate(135)"><path d="M -11 0 L 11 0 M 3.96 -4.928 L 11 0 L 3.96 4.928" fill="none" stroke="#111" stroke-width="1.60" stroke-linecap="round" stroke-linejoin="round"/></g><g transform="translate(20.00 180.00) rotate(270)"><path d="M -11 0 L 11 0 M 3.96 -4.928 L 11 0 L 3.96 4.928" fill="none" stroke="#111" stroke-width="1.60" stroke-linecap="round" stroke-linejoin="round"/></g><g transform="translate(60.00 180.00) rotate(225)"><path d="M -11 0 L 11 0 M 3.96 -4.928 L 11 0 L 3.96 4.928" fill="none" stroke="#111" stroke-width="1.60" stroke-linecap="round" stroke-linejoin="round"/></g><g transform="translate(100.00 180.00) rotate(315)"><path d="M -11 0 L 11 0 M 3.96 -4.928 L 11 0 L 3.96 4.928" fill="none" stroke="#111" stroke-width="1.60" stroke-linecap="round" stroke-linejoin="round"/></g><g transform="translate(140.00 180.00) rotate(270)"><path d="M -11 0 L 11 0 M 3.96 -4.928 L 11 0 L 3.96 4.928" fill="none" stroke="#111" stroke-width="1.60" stroke-linecap="round" stroke-linejoin="round"/></g><rect x="1" y="1" width="158" height="198" fill="none" stroke="#ddd" stroke-width="0.40" rx="3"/></g></g>
  <text x="105" y="291" font-size="3" fill="#bbb" text-anchor="middle">BrainForge Kids · e84c2204</text>
</svg>