<svg xmlns="http://www.w3.org/2000/svg" width="210mm" height="297mm" viewBox="0 0 210 297" font-family="system-ui, -apple-system, sans-serif">
  <rect width="210" height="297" fill="#fff"/>
  <text x="14" y="20" font-size="6.5" font-weight="600" fill="#111">Színezz szám szerint</text>
  <text x="196" y="20" font-size="3.6" fill="#888" text-anchor="end">Lili  ·  2026. jan. 1.</text>
  <text x="14" y="28" font-size="4.2" fill="#444">Színezd ki a mezőket a fenti számkód szerint!</text>
  <line x1="14" y1="32" x2="196" y2="32" stroke="#e5e5e5" stroke-width="0.3"/>
  
  <g transform="translate(14.00 40.00) scale(1.0706)"><g ><text x="3" y="11" font-size="6" font-weight="700" fill="#111">1 =</text><rect x="14" y="4.50" width="7" height="7" fill="#e23b3b" stroke="#111" stroke-width="0.30" rx="1"/><text x="24" y="11" font-size="6" fill="#111">piros</text><text x="45.50" y="11" font-size="6" font-weight="700" fill="#111">2 =</text><rect x="56.50" y="4.50" width="7" height="7" fill="#2f6fd0" stroke="#111" stroke-width="0.30" rx="1"/><text x="66.50" y="11" font-size="6" fill="#111">kék</text><text x="88" y="11" font-size="6" font-weight="700" fill="#111">3 =</text><rect x="99" y="4.50" width="7" height="7" fill="#3a9d4a" stroke="#111" stroke-width="0.30" rx="1"/><text x="109" y="11" font-size="6" fill="#111">zöld</text><text x="130.50" y="11" font-size="6" font-weight="700" fill="#111">4 =</text><rect x="141.50" y="4.50" width="7" height="7" fill="#e8b800" stroke="#111" stroke-width="0.30" rx="1"/><text x="151.50" y="11" font-size="6" fill="#111">sárga</text><rect x="0.50" y="16.50" width="169" height="189" fill="none" stroke="#111" stroke-width="1.10"/><line x1="33.96" y1="206" x2="0" y2="96.02" stroke="#111" stroke-width="1.10" stroke-linecap="round"/><line x1="0" y1="125.35" x2="29.88" y2="206" stroke="#111" stroke-width="1.10" stroke-linecap="round"/><line x1="158.07" y1="16" x2="170" y2="153.22" stroke="#111" stroke-width="1.10" stroke-linecap="round"/><line x1="111.30" y1="206" x2="0" y2="84.85" stroke="#111" stroke-width="1.10" stroke-linecap="round"/><text x="165.58" y="61.26" font-size="7" font-weight="700" text-anchor="middle" fill="#555">3</text><text x="95.21" y="99.84" font-size="7" font-weight="700" text-anchor="middle" fill="#555">1</text><text x="13.71" y="153.62" font-size="7" font-weight="700" text-anchor="middle" fill="#555">2</text><text x="46.67" y="166.06" font-size="7" font-weight="700" text-anchor="middle" fill="#555">4</text><text x="9.88" y="181.00" font-size="7" font-weight="700" text-anchor="middle" fill="#555">4</text></g></g>
  <text x="105" y="291" font-size="3" fill="#bbb" text-anchor="middle">Kalmo Kids · demo-col</text>
</svg>