<svg xmlns="http://www.w3.org/2000/svg" width="210mm" height="297mm" viewBox="0 0 210 297" font-family="system-ui, -apple-system, sans-serif">
  <rect width="210" height="297" fill="#fff"/>
  <text x="14" y="20" font-size="6.5" font-weight="600" fill="#111">Pontösszekötő</text>
  <text x="196" y="20" font-size="3.6" fill="#888" text-anchor="end">Lili  ·  2026. jan. 1.</text>
  <text x="14" y="28" font-size="4.2" fill="#444">Kösd össze a pontokat 1-től sorban! Mit látsz?</text>
  <line x1="14" y1="32" x2="196" y2="32" stroke="#e5e5e5" stroke-width="0.3"/>
  
  <g transform="translate(14.00 40.00) scale(1.1375)"><g ><circle cx="147.93" cy="92.28" r="1.30" fill="#111"/><text x="153.29" y="95.08" font-size="4.50" font-weight="600" text-anchor="middle" fill="#111">1</text><circle cx="147.08" cy="119.25" r="1.30" fill="#111"/><text x="151.73" y="123.77" font-size="4.50" font-weight="600" text-anchor="middle" fill="#111">2</text><circle cx="122.86" cy="128.92" r="1.30" fill="#111"/><text x="126.35" y="134.74" font-size="4.50" font-weight="600" text-anchor="middle" fill="#111">3</text><circle cx="97.04" cy="130.34" r="1.30" fill="#111"/><text x="98.71" y="137.15" font-size="4.50" font-weight="600" text-anchor="middle" fill="#111">4</text><circle cx="79.76" cy="129.22" r="1.30" fill="#111"/><text x="79.74" y="136.29" font-size="4.50" font-weight="600" text-anchor="middle" fill="#111">5</text><circle cx="61.86" cy="144.52" r="1.30" fill="#111"/><text x="60.44" y="151.41" font-size="4.50" font-weight="600" text-anchor="middle" fill="#111">6</text><circle cx="46.64" cy="130.19" r="1.30" fill="#111"/><text x="43.73" y="136.43" font-size="4.50" font-weight="600" text-anchor="middle" fill="#111">7</text><circle cx="26.43" cy="129.87" r="1.30" fill="#111"/><text x="22.53" y="135.32" font-size="4.50" font-weight="600" text-anchor="middle" fill="#111">8</text><circle cx="26.65" cy="106.43" r="1.30" fill="#111"/><text x="21.85" y="110.67" font-size="4.50" font-weight="600" text-anchor="middle" fill="#111">9</text><circle cx="9.10" cy="89.35" r="1.30" fill="#111"/><text x="3.68" y="91.89" font-size="4.50" font-weight="600" text-anchor="middle" fill="#111">10</text><circle cx="25.52" cy="72.68" r="1.30" fill="#111"/><text x="20.04" y="73.84" font-size="4.50" font-weight="600" text-anchor="middle" fill="#111">11</text><circle cx="37.61" cy="61.62" r="1.30" fill="#111"/><text x="32.43" y="61.34" font-size="4.50" font-weight="600" text-anchor="middle" fill="#111">12</text><circle cx="41.04" cy="39.44" r="1.30" fill="#111"/><text x="37.07" y="37.21" font-size="4.50" font-weight="600" text-anchor="middle" fill="#111">13</text><circle cx="49.20" cy="21.53" r="1.30" fill="#111"/><text x="46.52" y="18.30" font-size="4.50" font-weight="600" text-anchor="middle" fill="#111">14</text><circle cx="74.27" cy="21.14" r="1.30" fill="#111"/><text x="73.71" y="17.25" font-size="4.50" font-weight="600" text-anchor="middle" fill="#111">15</text><circle cx="90.85" cy="9.10" r="1.30" fill="#111"/><text x="91.72" y="5.24" font-size="4.50" font-weight="600" text-anchor="middle" fill="#111">16</text><circle cx="119.38" cy="13.89" r="1.30" fill="#111"/><text x="122.30" y="10.80" font-size="4.50" font-weight="600" text-anchor="middle" fill="#111">17</text><circle cx="141.29" cy="36.15" r="1.30" fill="#111"/><text x="145.87" y="34.68" font-size="4.50" font-weight="600" text-anchor="middle" fill="#111">18</text><circle cx="150.90" cy="61.05" r="1.30" fill="#111"/><text x="156.27" y="61.43" font-size="4.50" font-weight="600" text-anchor="middle" fill="#111">19</text><circle cx="147.93" cy="92.28" r="2.60" fill="none" stroke="#111" stroke-width="0.50"/></g></g>
  <text x="105" y="291" font-size="3" fill="#bbb" text-anchor="middle">Kalmo Kids · demo-con</text>
</svg>