<svg xmlns="http://www.w3.org/2000/svg" width="210mm" height="297mm" viewBox="0 0 210 297" font-family="system-ui, -apple-system, sans-serif">
  <rect width="210" height="297" fill="#fff"/>
  <text x="14" y="20" font-size="6.5" font-weight="600" fill="#111">Pontösszekötő</text>
  <text x="196" y="20" font-size="3.6" fill="#888" text-anchor="end">Lili  ·  2026. júl. 15.</text>
  <text x="14" y="28" font-size="4.2" fill="#444">Kösd össze a pontokat 1-től sorban! Mit látsz?</text>
  <line x1="14" y1="32" x2="196" y2="32" stroke="#e5e5e5" stroke-width="0.3"/>
  
  <g transform="translate(14.00 40.00) scale(1.1375)"><g ><circle cx="139.66" cy="93.38" r="1.30" fill="#111"/><text x="145.15" y="95.26" font-size="4.50" font-weight="600" text-anchor="middle" fill="#111">1</text><circle cx="141.41" cy="112.91" r="1.30" fill="#111"/><text x="146.56" y="116.41" font-size="4.50" font-weight="600" text-anchor="middle" fill="#111">2</text><circle cx="128.39" cy="135.24" r="1.30" fill="#111"/><text x="132.40" y="140.57" font-size="4.50" font-weight="600" text-anchor="middle" fill="#111">3</text><circle cx="113.79" cy="146.97" r="1.30" fill="#111"/><text x="116.60" y="153.28" font-size="4.50" font-weight="600" text-anchor="middle" fill="#111">4</text><circle cx="87.98" cy="154.84" r="1.30" fill="#111"/><text x="88.66" y="161.88" font-size="4.50" font-weight="600" text-anchor="middle" fill="#111">5</text><circle cx="68.73" cy="153.39" r="1.30" fill="#111"/><text x="67.77" y="160.38" font-size="4.50" font-weight="600" text-anchor="middle" fill="#111">6</text><circle cx="51.83" cy="135.91" r="1.30" fill="#111"/><text x="48.96" y="142.18" font-size="4.50" font-weight="600" text-anchor="middle" fill="#111">7</text><circle cx="32.92" cy="129.80" r="1.30" fill="#111"/><text x="28.72" y="134.93" font-size="4.50" font-weight="600" text-anchor="middle" fill="#111">8</text><circle cx="20.88" cy="119.87" r="1.30" fill="#111"/><text x="15.97" y="123.93" font-size="4.50" font-weight="600" text-anchor="middle" fill="#111">9</text><circle cx="14.56" cy="100.28" r="1.30" fill="#111"/><text x="9.13" y="102.71" font-size="4.50" font-weight="600" text-anchor="middle" fill="#111">10</text><circle cx="16.77" cy="75.54" r="1.30" fill="#111"/><text x="11.41" y="75.88" font-size="4.50" font-weight="600" text-anchor="middle" fill="#111">11</text><circle cx="22.43" cy="57.23" r="1.30" fill="#111"/><text x="17.65" y="56.08" font-size="4.50" font-weight="600" text-anchor="middle" fill="#111">12</text><circle cx="36.00" cy="40.56" r="1.30" fill="#111"/><text x="32.34" y="38.03" font-size="4.50" font-weight="600" text-anchor="middle" fill="#111">13</text><circle cx="55.26" cy="28.55" r="1.30" fill="#111"/><text x="53.21" y="25.02" font-size="4.50" font-weight="600" text-anchor="middle" fill="#111">14</text><circle cx="82.27" cy="25.24" r="1.30" fill="#111"/><text x="82.46" y="21.32" font-size="4.50" font-weight="600" text-anchor="middle" fill="#111">15</text><circle cx="99.90" cy="26.82" r="1.30" fill="#111"/><text x="101.55" y="23.15" font-size="4.50" font-weight="600" text-anchor="middle" fill="#111">16</text><circle cx="118.77" cy="36.29" r="1.30" fill="#111"/><text x="121.99" y="33.40" font-size="4.50" font-weight="600" text-anchor="middle" fill="#111">17</text><circle cx="132.35" cy="49.41" r="1.30" fill="#111"/><text x="136.69" y="47.62" font-size="4.50" font-weight="600" text-anchor="middle" fill="#111">18</text><circle cx="135.49" cy="77.59" r="1.30" fill="#111"/><text x="140.86" y="77.96" font-size="4.50" font-weight="600" text-anchor="middle" fill="#111">19</text><circle cx="139.66" cy="93.38" r="2.60" fill="none" stroke="#111" stroke-width="0.50"/></g></g>
  <text x="105" y="291" font-size="3" fill="#bbb" text-anchor="middle">BrainForge Kids · 154d1e8a</text>
</svg>