<svg xmlns="http://www.w3.org/2000/svg" width="210mm" height="297mm" viewBox="0 0 210 297" font-family="system-ui, -apple-system, sans-serif">
  <rect width="210" height="297" fill="#fff"/>
  <text x="14" y="20" font-size="6.5" font-weight="600" fill="#111">Pontösszekötő</text>
  <text x="196" y="20" font-size="3.6" fill="#888" text-anchor="end">Lili  ·  2026. jan. 1.</text>
  <text x="14" y="28" font-size="4.2" fill="#444">Kösd össze a pontokat 1-től sorban! Mit látsz?</text>
  <line x1="14" y1="32" x2="196" y2="32" stroke="#e5e5e5" stroke-width="0.3"/>
  <text x="196" y="28" font-size="4" fill="#d33" text-anchor="end">Megoldókulcs</text>
  <g transform="translate(14.00 40.00) scale(1.1375)"><g ><circle cx="140.30" cy="97.52" r="1.30" fill="#111"/><text x="145.75" y="99.78" font-size="4.50" font-weight="600" text-anchor="middle" fill="#111">1</text><circle cx="139.63" cy="118.84" r="1.30" fill="#111"/><text x="144.58" y="122.81" font-size="4.50" font-weight="600" text-anchor="middle" fill="#111">2</text><circle cx="120.48" cy="126.49" r="1.30" fill="#111"/><text x="124.56" y="131.74" font-size="4.50" font-weight="600" text-anchor="middle" fill="#111">3</text><circle cx="100.07" cy="127.61" r="1.30" fill="#111"/><text x="102.66" y="134.04" font-size="4.50" font-weight="600" text-anchor="middle" fill="#111">4</text><circle cx="86.41" cy="126.72" r="1.30" fill="#111"/><text x="87.36" y="133.72" font-size="4.50" font-weight="600" text-anchor="middle" fill="#111">5</text><circle cx="72.26" cy="138.82" r="1.30" fill="#111"/><text x="71.40" y="145.83" font-size="4.50" font-weight="600" text-anchor="middle" fill="#111">6</text><circle cx="60.23" cy="127.49" r="1.30" fill="#111"/><text x="57.66" y="133.93" font-size="4.50" font-weight="600" text-anchor="middle" fill="#111">7</text><circle cx="44.26" cy="127.24" r="1.30" fill="#111"/><text x="40.45" y="132.78" font-size="4.50" font-weight="600" text-anchor="middle" fill="#111">8</text><circle cx="44.43" cy="108.71" r="1.30" fill="#111"/><text x="39.56" y="112.84" font-size="4.50" font-weight="600" text-anchor="middle" fill="#111">9</text><circle cx="30.55" cy="95.21" r="1.30" fill="#111"/><text x="25.09" y="97.36" font-size="4.50" font-weight="600" text-anchor="middle" fill="#111">10</text><circle cx="43.54" cy="82.03" r="1.30" fill="#111"/><text x="38.16" y="82.43" font-size="4.50" font-weight="600" text-anchor="middle" fill="#111">11</text><circle cx="53.09" cy="73.29" r="1.30" fill="#111"/><text x="48.42" y="71.96" font-size="4.50" font-weight="600" text-anchor="middle" fill="#111">12</text><circle cx="55.80" cy="55.76" r="1.30" fill="#111"/><text x="52.63" y="52.84" font-size="4.50" font-weight="600" text-anchor="middle" fill="#111">13</text><circle cx="62.25" cy="41.60" r="1.30" fill="#111"/><text x="60.36" y="38.01" font-size="4.50" font-weight="600" text-anchor="middle" fill="#111">14</text><circle cx="82.07" cy="41.29" r="1.30" fill="#111"/><text x="82.31" y="37.37" font-size="4.50" font-weight="600" text-anchor="middle" fill="#111">15</text><circle cx="95.18" cy="31.77" r="1.30" fill="#111"/><text x="96.56" y="28.03" font-size="4.50" font-weight="600" text-anchor="middle" fill="#111">16</text><circle cx="117.73" cy="35.56" r="1.30" fill="#111"/><text x="120.86" y="32.61" font-size="4.50" font-weight="600" text-anchor="middle" fill="#111">17</text><circle cx="135.05" cy="53.15" r="1.30" fill="#111"/><text x="139.62" y="51.67" font-size="4.50" font-weight="600" text-anchor="middle" fill="#111">18</text><circle cx="142.65" cy="72.84" r="1.30" fill="#111"/><text x="147.95" y="72.96" font-size="4.50" font-weight="600" text-anchor="middle" fill="#111">19</text><circle cx="140.30" cy="97.52" r="2.60" fill="none" stroke="#111" stroke-width="0.50"/><path d="M 140.30 97.52 L 139.63 118.84 L 120.48 126.49 L 100.07 127.61 L 86.41 126.72 L 72.26 138.82 L 60.23 127.49 L 44.26 127.24 L 44.43 108.71 L 30.55 95.21 L 43.54 82.03 L 53.09 73.29 L 55.80 55.76 L 62.25 41.60 L 82.07 41.29 L 95.18 31.77 L 117.73 35.56 L 135.05 53.15 L 142.65 72.84 Z" fill="none" stroke="#d33" stroke-width="0.90" stroke-dasharray="2 1.5" stroke-linejoin="round"/></g></g>
  <text x="105" y="291" font-size="3" fill="#bbb" text-anchor="middle">BrainForge Kids · demo-con</text>
</svg>