<svg xmlns="http://www.w3.org/2000/svg" width="210mm" height="297mm" viewBox="0 0 210 297" font-family="system-ui, -apple-system, sans-serif">
  <rect width="210" height="297" fill="#fff"/>
  <text x="14" y="20" font-size="6.5" font-weight="600" fill="#111">Számolás</text>
  <text x="196" y="20" font-size="3.6" fill="#888" text-anchor="end">Bence  ·  2026. jan. 1.</text>
  <text x="14" y="28" font-size="4.2" fill="#444">Számold meg a formákat minden sorban, és írd a számot a dobozba!</text>
  <line x1="14" y1="32" x2="196" y2="32" stroke="#e5e5e5" stroke-width="0.3"/>
  
  <g transform="translate(14.00 40.00) scale(1.1375)"><g ><path d="M 17.8 17.875 C 9.400000000000002 11.275, 13.600000000000001 5.2749999999999995, 17.8 9.775 C 22 5.2749999999999995, 26.2 11.275, 17.8 17.875 Z" fill="none" stroke="#111" stroke-width="0.90" stroke-linejoin="round" stroke-linecap="round"/><path d="M 38.400000000000006 20.875 C 30.000000000000007 14.275, 34.2 8.274999999999999, 38.400000000000006 12.775 C 42.60000000000001 8.274999999999999, 46.800000000000004 14.275, 38.400000000000006 20.875 Z" fill="none" stroke="#111" stroke-width="0.90" stroke-linejoin="round" stroke-linecap="round"/><path d="M 96.60000000000001 17.875 C 88.20000000000002 11.275, 92.4 5.2749999999999995, 96.60000000000001 9.775 C 100.80000000000001 5.2749999999999995, 105 11.275, 96.60000000000001 17.875 Z" fill="none" stroke="#111" stroke-width="0.90" stroke-linejoin="round" stroke-linecap="round"/><path d="M 122.2 37.625 C 113.80000000000001 31.025, 118 25.025, 122.2 29.525 C 126.4 25.025, 130.6 31.025, 122.2 37.625 Z" fill="none" stroke="#111" stroke-width="0.90" stroke-linejoin="round" stroke-linecap="round"/><path d="M 15.8 40.625 C 7.400000000000002 34.025, 11.600000000000001 28.025, 15.8 32.525 C 20 28.025, 24.2 34.025, 15.8 40.625 Z" fill="none" stroke="#111" stroke-width="0.90" stroke-linejoin="round" stroke-linecap="round"/><path d="M 68 41.625 C 59.6 35.025, 63.8 29.025, 68 33.525 C 72.2 29.025, 76.4 35.025, 68 41.625 Z" fill="none" stroke="#111" stroke-width="0.90" stroke-linejoin="round" stroke-linecap="round"/><path d="M 93.60000000000001 41.625 C 85.20000000000002 35.025, 89.4 29.025, 93.60000000000001 33.525 C 97.80000000000001 29.025, 102 35.025, 93.60000000000001 41.625 Z" fill="none" stroke="#111" stroke-width="0.90" stroke-linejoin="round" stroke-linecap="round"/><path d="M 66 18.875 C 57.6 12.275, 61.8 6.2749999999999995, 66 10.775 C 70.2 6.2749999999999995, 74.4 12.275, 66 18.875 Z" fill="none" stroke="#111" stroke-width="0.90" stroke-linejoin="round" stroke-linecap="round"/><rect x="138" y="12.75" width="22" height="22" fill="none" stroke="#111" stroke-width="0.80" rx="2.50"/><path d="M 54.00,70.25 L 55.59,74.07 L 59.71,74.40 L 56.57,77.08 L 57.53,81.10 L 54.00,78.95 L 50.47,81.10 L 51.43,77.08 L 48.29,74.40 L 52.41,74.07 Z" fill="none" stroke="#111" stroke-width="0.90" stroke-linejoin="round" stroke-linecap="round"/><path d="M 21.00,62.25 L 22.59,66.07 L 26.71,66.40 L 23.57,69.08 L 24.53,73.10 L 21.00,70.95 L 17.47,73.10 L 18.43,69.08 L 15.29,66.40 L 19.41,66.07 Z" fill="none" stroke="#111" stroke-width="0.90" stroke-linejoin="round" stroke-linecap="round"/><path d="M 116.00,62.25 L 117.59,66.07 L 121.71,66.40 L 118.57,69.08 L 119.53,73.10 L 116.00,70.95 L 112.47,73.10 L 113.43,69.08 L 110.29,66.40 L 114.41,66.07 Z" fill="none" stroke="#111" stroke-width="0.90" stroke-linejoin="round" stroke-linecap="round"/><path d="M 88.00,67.25 L 89.59,71.07 L 93.71,71.40 L 90.57,74.08 L 91.53,78.10 L 88.00,75.95 L 84.47,78.10 L 85.43,74.08 L 82.29,71.40 L 86.41,71.07 Z" fill="none" stroke="#111" stroke-width="0.90" stroke-linejoin="round" stroke-linecap="round"/><rect x="138" y="60.25" width="22" height="22" fill="none" stroke="#111" stroke-width="0.80" rx="2.50"/><path d="M 2 47.5 L 158 47.5" stroke="#e5e5e0" stroke-width="0.30" fill="none"/><path d="M 69 120.625 L 75 131.425 L 63 131.425 Z" fill="none" stroke="#111" stroke-width="0.90" stroke-linejoin="round" stroke-linecap="round"/><path d="M 93.60000000000001 101.875 L 99.60000000000001 112.675 L 87.60000000000001 112.675 Z" fill="none" stroke="#111" stroke-width="0.90" stroke-linejoin="round" stroke-linecap="round"/><path d="M 96.60000000000001 120.625 L 102.60000000000001 131.425 L 90.60000000000001 131.425 Z" fill="none" stroke="#111" stroke-width="0.90" stroke-linejoin="round" stroke-linecap="round"/><path d="M 40.400000000000006 104.875 L 46.400000000000006 115.675 L 34.400000000000006 115.675 Z" fill="none" stroke="#111" stroke-width="0.90" stroke-linejoin="round" stroke-linecap="round"/><path d="M 38.400000000000006 120.625 L 44.400000000000006 131.425 L 32.400000000000006 131.425 Z" fill="none" stroke="#111" stroke-width="0.90" stroke-linejoin="round" stroke-linecap="round"/><path d="M 122.2 101.875 L 128.2 112.675 L 116.2 112.675 Z" fill="none" stroke="#111" stroke-width="0.90" stroke-linejoin="round" stroke-linecap="round"/><path d="M 115.2 121.625 L 121.2 132.425 L 109.2 132.425 Z" fill="none" stroke="#111" stroke-width="0.90" stroke-linejoin="round" stroke-linecap="round"/><path d="M 12.8 100.875 L 18.8 111.675 L 6.800000000000001 111.675 Z" fill="none" stroke="#111" stroke-width="0.90" stroke-linejoin="round" stroke-linecap="round"/><path d="M 20.8 123.625 L 26.8 134.425 L 14.8 134.425 Z" fill="none" stroke="#111" stroke-width="0.90" stroke-linejoin="round" stroke-linecap="round"/><rect x="138" y="107.75" width="22" height="22" fill="none" stroke="#111" stroke-width="0.80" rx="2.50"/><path d="M 2 95 L 158 95" stroke="#e5e5e0" stroke-width="0.30" fill="none"/><path d="M 45.400000000000006 170.125 L 51.400000000000006 180.925 L 39.400000000000006 180.925 Z" fill="none" stroke="#111" stroke-width="0.90" stroke-linejoin="round" stroke-linecap="round"/><path d="M 92.60000000000001 151.375 L 98.60000000000001 162.175 L 86.60000000000001 162.175 Z" fill="none" stroke="#111" stroke-width="0.90" stroke-linejoin="round" stroke-linecap="round"/><path d="M 91.60000000000001 169.125 L 97.60000000000001 179.925 L 85.60000000000001 179.925 Z" fill="none" stroke="#111" stroke-width="0.90" stroke-linejoin="round" stroke-linecap="round"/><path d="M 115.2 152.375 L 121.2 163.175 L 109.2 163.175 Z" fill="none" stroke="#111" stroke-width="0.90" stroke-linejoin="round" stroke-linecap="round"/><path d="M 44.400000000000006 148.375 L 50.400000000000006 159.175 L 38.400000000000006 159.175 Z" fill="none" stroke="#111" stroke-width="0.90" stroke-linejoin="round" stroke-linecap="round"/><path d="M 69 150.375 L 75 161.175 L 63 161.175 Z" fill="none" stroke="#111" stroke-width="0.90" stroke-linejoin="round" stroke-linecap="round"/><path d="M 121.2 172.125 L 127.2 182.925 L 115.2 182.925 Z" fill="none" stroke="#111" stroke-width="0.90" stroke-linejoin="round" stroke-linecap="round"/><rect x="138" y="155.25" width="22" height="22" fill="none" stroke="#111" stroke-width="0.80" rx="2.50"/><path d="M 2 142.5 L 158 142.5" stroke="#e5e5e0" stroke-width="0.30" fill="none"/></g></g>
  <text x="105" y="291" font-size="3" fill="#bbb" text-anchor="middle">BrainForge Kids · demo-cou</text>
</svg>