<svg xmlns="http://www.w3.org/2000/svg" width="210mm" height="297mm" viewBox="0 0 210 297" font-family="system-ui, -apple-system, sans-serif">
  <rect width="210" height="297" fill="#fff"/>
  <text x="14" y="20" font-size="6.5" font-weight="600" fill="#111">Számolás</text>
  <text x="196" y="20" font-size="3.6" fill="#888" text-anchor="end">Bence  ·  2026. júl. 15.</text>
  <text x="14" y="28" font-size="4.2" fill="#444">Számold meg a formákat minden sorban, és írd a számot a dobozba!</text>
  <line x1="14" y1="32" x2="196" y2="32" stroke="#e5e5e5" stroke-width="0.3"/>
  <text x="196" y="28" font-size="4" fill="#d33" text-anchor="end">Megoldókulcs</text>
  <g transform="translate(14.00 40.00) scale(1.1375)"><g ><path d="M 91.60,28.63 L 93.19,32.44 L 97.31,32.77 L 94.17,35.46 L 95.13,39.48 L 91.60,37.33 L 88.07,39.48 L 89.03,35.46 L 85.89,32.77 L 90.01,32.44 Z" fill="none" stroke="#111" stroke-width="0.90" stroke-linejoin="round" stroke-linecap="round"/><path d="M 72.00,29.63 L 73.59,33.44 L 77.71,33.77 L 74.57,36.46 L 75.53,40.48 L 72.00,38.33 L 68.47,40.48 L 69.43,36.46 L 66.29,33.77 L 70.41,33.44 Z" fill="none" stroke="#111" stroke-width="0.90" stroke-linejoin="round" stroke-linecap="round"/><path d="M 66.00,8.88 L 67.59,12.69 L 71.71,13.02 L 68.57,15.71 L 69.53,19.73 L 66.00,17.57 L 62.47,19.73 L 63.43,15.71 L 60.29,13.02 L 64.41,12.69 Z" fill="none" stroke="#111" stroke-width="0.90" stroke-linejoin="round" stroke-linecap="round"/><path d="M 115.20,25.63 L 116.79,29.44 L 120.91,29.77 L 117.77,32.46 L 118.73,36.48 L 115.20,34.33 L 111.67,36.48 L 112.63,32.46 L 109.49,29.77 L 113.61,29.44 Z" fill="none" stroke="#111" stroke-width="0.90" stroke-linejoin="round" stroke-linecap="round"/><path d="M 90.60,8.88 L 92.19,12.69 L 96.31,13.02 L 93.17,15.71 L 94.13,19.73 L 90.60,17.57 L 87.07,19.73 L 88.03,15.71 L 84.89,13.02 L 89.01,12.69 Z" fill="none" stroke="#111" stroke-width="0.90" stroke-linejoin="round" stroke-linecap="round"/><path d="M 43.40,7.88 L 44.99,11.69 L 49.11,12.02 L 45.97,14.71 L 46.93,18.73 L 43.40,16.57 L 39.87,18.73 L 40.83,14.71 L 37.69,12.02 L 41.81,11.69 Z" fill="none" stroke="#111" stroke-width="0.90" stroke-linejoin="round" stroke-linecap="round"/><rect x="138" y="12.75" width="22" height="22" fill="none" stroke="#111" stroke-width="0.80" rx="2.50"/><circle cx="93.60" cy="62.88" r="4.50" fill="none" stroke="#111" stroke-width="0.90" stroke-linejoin="round" stroke-linecap="round"/><path d="M 93.60000000000001 58.375 L 96.30000000000001 55.375" fill="none" stroke="#111" stroke-width="0.90" stroke-linejoin="round" stroke-linecap="round"/><circle cx="16.80" cy="60.88" r="4.50" fill="none" stroke="#111" stroke-width="0.90" stroke-linejoin="round" stroke-linecap="round"/><path d="M 16.8 56.375 L 19.5 53.375" fill="none" stroke="#111" stroke-width="0.90" stroke-linejoin="round" stroke-linecap="round"/><circle cx="70" cy="63.88" r="4.50" fill="none" stroke="#111" stroke-width="0.90" stroke-linejoin="round" stroke-linecap="round"/><path d="M 70 59.375 L 72.7 56.375" fill="none" stroke="#111" stroke-width="0.90" stroke-linejoin="round" stroke-linecap="round"/><circle cx="70" cy="81.63" r="4.50" fill="none" stroke="#111" stroke-width="0.90" stroke-linejoin="round" stroke-linecap="round"/><path d="M 70 77.125 L 72.7 74.125" fill="none" stroke="#111" stroke-width="0.90" stroke-linejoin="round" stroke-linecap="round"/><circle cx="90.60" cy="84.63" r="4.50" fill="none" stroke="#111" stroke-width="0.90" stroke-linejoin="round" stroke-linecap="round"/><path d="M 90.60000000000001 80.125 L 93.30000000000001 77.125" fill="none" stroke="#111" stroke-width="0.90" stroke-linejoin="round" stroke-linecap="round"/><circle cx="115.20" cy="81.63" r="4.50" fill="none" stroke="#111" stroke-width="0.90" stroke-linejoin="round" stroke-linecap="round"/><path d="M 115.2 77.125 L 117.9 74.125" fill="none" stroke="#111" stroke-width="0.90" stroke-linejoin="round" stroke-linecap="round"/><circle cx="46.40" cy="81.63" r="4.50" fill="none" stroke="#111" stroke-width="0.90" stroke-linejoin="round" stroke-linecap="round"/><path d="M 46.400000000000006 77.125 L 49.10000000000001 74.125" fill="none" stroke="#111" stroke-width="0.90" stroke-linejoin="round" stroke-linecap="round"/><circle cx="39.40" cy="60.88" r="4.50" fill="none" stroke="#111" stroke-width="0.90" stroke-linejoin="round" stroke-linecap="round"/><path d="M 39.400000000000006 56.375 L 42.10000000000001 53.375" fill="none" stroke="#111" stroke-width="0.90" stroke-linejoin="round" stroke-linecap="round"/><rect x="138" y="60.25" width="22" height="22" fill="none" stroke="#111" stroke-width="0.80" rx="2.50"/><path d="M 2 47.5 L 158 47.5" stroke="#e5e5e0" stroke-width="0.30" fill="none"/><path d="M 65 101.875 L 71 112.675 L 59 112.675 Z" fill="none" stroke="#111" stroke-width="0.90" stroke-linejoin="round" stroke-linecap="round"/><path d="M 17.8 101.875 L 23.8 112.675 L 11.8 112.675 Z" fill="none" stroke="#111" stroke-width="0.90" stroke-linejoin="round" stroke-linecap="round"/><path d="M 117.2 122.625 L 123.2 133.425 L 111.2 133.425 Z" fill="none" stroke="#111" stroke-width="0.90" stroke-linejoin="round" stroke-linecap="round"/><path d="M 42.400000000000006 120.625 L 48.400000000000006 131.425 L 36.400000000000006 131.425 Z" fill="none" stroke="#111" stroke-width="0.90" stroke-linejoin="round" stroke-linecap="round"/><path d="M 64 124.625 L 70 135.425 L 58 135.425 Z" fill="none" stroke="#111" stroke-width="0.90" stroke-linejoin="round" stroke-linecap="round"/><path d="M 44.400000000000006 102.875 L 50.400000000000006 113.675 L 38.400000000000006 113.675 Z" fill="none" stroke="#111" stroke-width="0.90" stroke-linejoin="round" stroke-linecap="round"/><path d="M 117.2 100.875 L 123.2 111.675 L 111.2 111.675 Z" fill="none" stroke="#111" stroke-width="0.90" stroke-linejoin="round" stroke-linecap="round"/><path d="M 96.60000000000001 121.625 L 102.60000000000001 132.425 L 90.60000000000001 132.425 Z" fill="none" stroke="#111" stroke-width="0.90" stroke-linejoin="round" stroke-linecap="round"/><path d="M 95.60000000000001 101.875 L 101.60000000000001 112.675 L 89.60000000000001 112.675 Z" fill="none" stroke="#111" stroke-width="0.90" stroke-linejoin="round" stroke-linecap="round"/><rect x="138" y="107.75" width="22" height="22" fill="none" stroke="#111" stroke-width="0.80" rx="2.50"/><path d="M 2 95 L 158 95" stroke="#e5e5e0" stroke-width="0.30" fill="none"/><path d="M 84.00,155.25 L 85.59,159.07 L 89.71,159.40 L 86.57,162.08 L 87.53,166.10 L 84.00,163.95 L 80.47,166.10 L 81.43,162.08 L 78.29,159.40 L 82.41,159.07 Z" fill="none" stroke="#111" stroke-width="0.90" stroke-linejoin="round" stroke-linecap="round"/><path d="M 111.00,159.25 L 112.59,163.07 L 116.71,163.40 L 113.57,166.08 L 114.53,170.10 L 111.00,167.95 L 107.47,170.10 L 108.43,166.08 L 105.29,163.40 L 109.41,163.07 Z" fill="none" stroke="#111" stroke-width="0.90" stroke-linejoin="round" stroke-linecap="round"/><path d="M 18.00,158.25 L 19.59,162.07 L 23.71,162.40 L 20.57,165.08 L 21.53,169.10 L 18.00,166.95 L 14.47,169.10 L 15.43,165.08 L 12.29,162.40 L 16.41,162.07 Z" fill="none" stroke="#111" stroke-width="0.90" stroke-linejoin="round" stroke-linecap="round"/><path d="M 55.00,157.25 L 56.59,161.07 L 60.71,161.40 L 57.57,164.08 L 58.53,168.10 L 55.00,165.95 L 51.47,168.10 L 52.43,164.08 L 49.29,161.40 L 53.41,161.07 Z" fill="none" stroke="#111" stroke-width="0.90" stroke-linejoin="round" stroke-linecap="round"/><rect x="138" y="155.25" width="22" height="22" fill="none" stroke="#111" stroke-width="0.80" rx="2.50"/><path d="M 2 142.5 L 158 142.5" stroke="#e5e5e0" stroke-width="0.30" fill="none"/><text x="149" y="27.71" font-size="12.10" font-weight="700" text-anchor="middle" fill="#d33">6</text><text x="149" y="75.21" font-size="12.10" font-weight="700" text-anchor="middle" fill="#d33">8</text><text x="149" y="122.71" font-size="12.10" font-weight="700" text-anchor="middle" fill="#d33">9</text><text x="149" y="170.21" font-size="12.10" font-weight="700" text-anchor="middle" fill="#d33">4</text></g></g>
  <text x="105" y="291" font-size="3" fill="#bbb" text-anchor="middle">BrainForge Kids · a3be44ed</text>
</svg>