<svg xmlns="http://www.w3.org/2000/svg" width="210mm" height="297mm" viewBox="0 0 210 297" font-family="system-ui, -apple-system, sans-serif">
  <rect width="210" height="297" fill="#fff"/>
  <text x="14" y="20" font-size="6.5" font-weight="600" fill="#111">Számolás</text>
  <text x="196" y="20" font-size="3.6" fill="#888" text-anchor="end">Bence  ·  2026. jan. 1.</text>
  <text x="14" y="28" font-size="4.2" fill="#444">Számold meg a formákat minden sorban, és írd a számot a dobozba!</text>
  <line x1="14" y1="32" x2="196" y2="32" stroke="#e5e5e5" stroke-width="0.3"/>
  <text x="196" y="28" font-size="4" fill="#d33" text-anchor="end">Megoldókulcs</text>
  <g transform="translate(14.00 40.00) scale(1.1375)"><g ><path d="M 17.80 5.88 L 23.80 16.68 L 11.80 16.68 Z" fill="none" stroke="#111" stroke-width="0.90" stroke-linejoin="round" stroke-linecap="round"/><path d="M 38.40 8.88 L 44.40 19.68 L 32.40 19.68 Z" fill="none" stroke="#111" stroke-width="0.90" stroke-linejoin="round" stroke-linecap="round"/><path d="M 96.60 5.88 L 102.60 16.68 L 90.60 16.68 Z" fill="none" stroke="#111" stroke-width="0.90" stroke-linejoin="round" stroke-linecap="round"/><path d="M 122.20 25.63 L 128.20 36.42 L 116.20 36.42 Z" fill="none" stroke="#111" stroke-width="0.90" stroke-linejoin="round" stroke-linecap="round"/><path d="M 15.80 28.63 L 21.80 39.42 L 9.80 39.42 Z" fill="none" stroke="#111" stroke-width="0.90" stroke-linejoin="round" stroke-linecap="round"/><path d="M 68 29.63 L 74 40.42 L 62 40.42 Z" fill="none" stroke="#111" stroke-width="0.90" stroke-linejoin="round" stroke-linecap="round"/><path d="M 93.60 29.63 L 99.60 40.42 L 87.60 40.42 Z" fill="none" stroke="#111" stroke-width="0.90" stroke-linejoin="round" stroke-linecap="round"/><path d="M 66 6.88 L 72 17.68 L 60 17.68 Z" fill="none" stroke="#111" stroke-width="0.90" stroke-linejoin="round" stroke-linecap="round"/><rect x="138" y="12.75" width="22" height="22" fill="none" stroke="#111" stroke-width="0.80" rx="2.50"/><circle cx="54" cy="76.25" r="3.72" fill="none" stroke="#111" stroke-width="0.90" stroke-linejoin="round" stroke-linecap="round"/><path d="M 48 77.57 Q 54 80.57 60 77.57 Q 54 74.57 48 77.57 Z" fill="none" stroke="#111" stroke-width="0.90" stroke-linejoin="round" stroke-linecap="round"/><circle cx="21" cy="68.25" r="3.72" fill="none" stroke="#111" stroke-width="0.90" stroke-linejoin="round" stroke-linecap="round"/><path d="M 15 69.57 Q 21 72.57 27 69.57 Q 21 66.57 15 69.57 Z" fill="none" stroke="#111" stroke-width="0.90" stroke-linejoin="round" stroke-linecap="round"/><circle cx="116" cy="68.25" r="3.72" fill="none" stroke="#111" stroke-width="0.90" stroke-linejoin="round" stroke-linecap="round"/><path d="M 110 69.57 Q 116 72.57 122 69.57 Q 116 66.57 110 69.57 Z" fill="none" stroke="#111" stroke-width="0.90" stroke-linejoin="round" stroke-linecap="round"/><circle cx="88" cy="73.25" r="3.72" fill="none" stroke="#111" stroke-width="0.90" stroke-linejoin="round" stroke-linecap="round"/><path d="M 82 74.57 Q 88 77.57 94 74.57 Q 88 71.57 82 74.57 Z" fill="none" stroke="#111" stroke-width="0.90" stroke-linejoin="round" stroke-linecap="round"/><rect x="138" y="60.25" width="22" height="22" fill="none" stroke="#111" stroke-width="0.80" rx="2.50"/><path d="M 2 47.5 L 158 47.5" stroke="#e5e5e0" stroke-width="0.30" fill="none"/><circle cx="69" cy="126.63" r="6" fill="none" stroke="#111" stroke-width="0.90" stroke-linejoin="round" stroke-linecap="round"/><circle cx="93.60" cy="107.88" r="6" fill="none" stroke="#111" stroke-width="0.90" stroke-linejoin="round" stroke-linecap="round"/><circle cx="96.60" cy="126.63" r="6" fill="none" stroke="#111" stroke-width="0.90" stroke-linejoin="round" stroke-linecap="round"/><circle cx="40.40" cy="110.88" r="6" fill="none" stroke="#111" stroke-width="0.90" stroke-linejoin="round" stroke-linecap="round"/><circle cx="38.40" cy="126.63" r="6" fill="none" stroke="#111" stroke-width="0.90" stroke-linejoin="round" stroke-linecap="round"/><circle cx="122.20" cy="107.88" r="6" fill="none" stroke="#111" stroke-width="0.90" stroke-linejoin="round" stroke-linecap="round"/><circle cx="115.20" cy="127.63" r="6" fill="none" stroke="#111" stroke-width="0.90" stroke-linejoin="round" stroke-linecap="round"/><circle cx="12.80" cy="106.88" r="6" fill="none" stroke="#111" stroke-width="0.90" stroke-linejoin="round" stroke-linecap="round"/><circle cx="20.80" cy="129.63" r="6" fill="none" stroke="#111" stroke-width="0.90" stroke-linejoin="round" stroke-linecap="round"/><rect x="138" y="107.75" width="22" height="22" fill="none" stroke="#111" stroke-width="0.80" rx="2.50"/><path d="M 2 95 L 158 95" stroke="#e5e5e0" stroke-width="0.30" fill="none"/><circle cx="45.40" cy="176.13" r="3.72" fill="none" stroke="#111" stroke-width="0.90" stroke-linejoin="round" stroke-linecap="round"/><path d="M 39.40 177.44 Q 45.40 180.44 51.40 177.44 Q 45.40 174.44 39.40 177.44 Z" fill="none" stroke="#111" stroke-width="0.90" stroke-linejoin="round" stroke-linecap="round"/><circle cx="92.60" cy="157.38" r="3.72" fill="none" stroke="#111" stroke-width="0.90" stroke-linejoin="round" stroke-linecap="round"/><path d="M 86.60 158.69 Q 92.60 161.69 98.60 158.69 Q 92.60 155.69 86.60 158.69 Z" fill="none" stroke="#111" stroke-width="0.90" stroke-linejoin="round" stroke-linecap="round"/><circle cx="91.60" cy="175.13" r="3.72" fill="none" stroke="#111" stroke-width="0.90" stroke-linejoin="round" stroke-linecap="round"/><path d="M 85.60 176.44 Q 91.60 179.44 97.60 176.44 Q 91.60 173.44 85.60 176.44 Z" fill="none" stroke="#111" stroke-width="0.90" stroke-linejoin="round" stroke-linecap="round"/><circle cx="115.20" cy="158.38" r="3.72" fill="none" stroke="#111" stroke-width="0.90" stroke-linejoin="round" stroke-linecap="round"/><path d="M 109.20 159.69 Q 115.20 162.69 121.20 159.69 Q 115.20 156.69 109.20 159.69 Z" fill="none" stroke="#111" stroke-width="0.90" stroke-linejoin="round" stroke-linecap="round"/><circle cx="44.40" cy="154.38" r="3.72" fill="none" stroke="#111" stroke-width="0.90" stroke-linejoin="round" stroke-linecap="round"/><path d="M 38.40 155.69 Q 44.40 158.69 50.40 155.69 Q 44.40 152.69 38.40 155.69 Z" fill="none" stroke="#111" stroke-width="0.90" stroke-linejoin="round" stroke-linecap="round"/><circle cx="69" cy="156.38" r="3.72" fill="none" stroke="#111" stroke-width="0.90" stroke-linejoin="round" stroke-linecap="round"/><path d="M 63 157.69 Q 69 160.69 75 157.69 Q 69 154.69 63 157.69 Z" fill="none" stroke="#111" stroke-width="0.90" stroke-linejoin="round" stroke-linecap="round"/><circle cx="121.20" cy="178.13" r="3.72" fill="none" stroke="#111" stroke-width="0.90" stroke-linejoin="round" stroke-linecap="round"/><path d="M 115.20 179.44 Q 121.20 182.44 127.20 179.44 Q 121.20 176.44 115.20 179.44 Z" fill="none" stroke="#111" stroke-width="0.90" stroke-linejoin="round" stroke-linecap="round"/><rect x="138" y="155.25" width="22" height="22" fill="none" stroke="#111" stroke-width="0.80" rx="2.50"/><path d="M 2 142.5 L 158 142.5" stroke="#e5e5e0" stroke-width="0.30" fill="none"/><text x="149" y="27.71" font-size="12.10" font-weight="700" text-anchor="middle" fill="#d33">8</text><text x="149" y="75.21" font-size="12.10" font-weight="700" text-anchor="middle" fill="#d33">4</text><text x="149" y="122.71" font-size="12.10" font-weight="700" text-anchor="middle" fill="#d33">9</text><text x="149" y="170.21" font-size="12.10" font-weight="700" text-anchor="middle" fill="#d33">7</text></g></g>
  <text x="105" y="291" font-size="3" fill="#bbb" text-anchor="middle">Kalmo Kids · demo-cou</text>
</svg>