<svg xmlns="http://www.w3.org/2000/svg" width="210mm" height="297mm" viewBox="0 0 210 297" font-family="system-ui, -apple-system, sans-serif">
  <rect width="210" height="297" fill="#fff"/>
  <text x="14" y="20" font-size="6.5" font-weight="600" fill="#111">Vágd és ragaszd</text>
  <text x="196" y="20" font-size="3.6" fill="#888" text-anchor="end">Lili  ·  2026. júl. 15.</text>
  <text x="14" y="28" font-size="4.2" fill="#444">Vágd ki az alsó darabokat, és ragaszd a helyükre!</text>
  <line x1="14" y1="32" x2="196" y2="32" stroke="#e5e5e5" stroke-width="0.3"/>
  <text x="196" y="28" font-size="4" fill="#d33" text-anchor="end">Megoldókulcs</text>
  <g transform="translate(14.00 40.00) scale(1.0706)"><g ><rect x="2" y="2" width="24.33" height="24.33" fill="none" stroke="#111" stroke-width="0.60" stroke-dasharray="2 1.5" rx="2"/><rect x="30.33" y="2" width="24.33" height="24.33" fill="none" stroke="#eee" stroke-width="0.40" rx="2"/><path d="M 34 18.416666666666664 a 4.25 4.25 0 0 1 1.275 -8.075 a 4.675000000000001 4.675000000000001 0 0 1 8.075 -0.8500000000000001 a 4.25 4.25 0 0 1 7.65 4.675000000000001 a 3.4000000000000004 3.4000000000000004 0 0 1 -1.7000000000000002 4.25 Z" fill="none" stroke="#111" stroke-width="1.10" stroke-linejoin="round" stroke-linecap="round"/><rect x="58.67" y="2" width="24.33" height="24.33" fill="none" stroke="#eee" stroke-width="0.40" rx="2"/><path d="M 62.33333333333333 5.666666666666666 h 17 v 17 h -17 Z" fill="none" stroke="#111" stroke-width="1.10" stroke-linejoin="round" stroke-linecap="round" rx="1.36"/><rect x="87" y="2" width="24.33" height="24.33" fill="none" stroke="#eee" stroke-width="0.40" rx="2"/><path d="M 99.16666666666667 22.666666666666664 C 87.26666666666668 13.316666666666666, 93.21666666666667 4.816666666666665, 99.16666666666667 11.191666666666666 C 105.11666666666667 4.816666666666665, 111.06666666666666 13.316666666666666, 99.16666666666667 22.666666666666664 Z" fill="none" stroke="#111" stroke-width="1.10" stroke-linejoin="round" stroke-linecap="round"/><rect x="115.33" y="2" width="24.33" height="24.33" fill="none" stroke="#111" stroke-width="0.60" stroke-dasharray="2 1.5" rx="2"/><rect x="143.67" y="2" width="24.33" height="24.33" fill="none" stroke="#111" stroke-width="0.60" stroke-dasharray="2 1.5" rx="2"/><rect x="2" y="30.33" width="24.33" height="24.33" fill="none" stroke="#eee" stroke-width="0.40" rx="2"/><circle cx="14.17" cy="42.50" r="8.50" fill="none" stroke="#111" stroke-width="1.10" stroke-linejoin="round" stroke-linecap="round"/><rect x="30.33" y="30.33" width="24.33" height="24.33" fill="none" stroke="#111" stroke-width="0.60" stroke-dasharray="2 1.5" rx="2"/><rect x="58.67" y="30.33" width="24.33" height="24.33" fill="none" stroke="#eee" stroke-width="0.40" rx="2"/><path d="M 70.83333333333333 34 L 79.33333333333333 42.5 L 70.83333333333333 51 L 62.33333333333333 42.5 Z" fill="none" stroke="#111" stroke-width="1.10" stroke-linejoin="round" stroke-linecap="round"/><rect x="87" y="30.33" width="24.33" height="24.33" fill="none" stroke="#eee" stroke-width="0.40" rx="2"/><circle cx="99.17" cy="42.50" r="8.50" fill="none" stroke="#111" stroke-width="1.10" stroke-linejoin="round" stroke-linecap="round"/><rect x="115.33" y="30.33" width="24.33" height="24.33" fill="none" stroke="#eee" stroke-width="0.40" rx="2"/><path d="M 119 42.5 C 123.25 36.125, 131.75 36.125, 132.6 42.5 C 131.75 48.875, 123.25 48.875, 119 42.5 Z" fill="none" stroke="#111" stroke-width="1.10" stroke-linejoin="round" stroke-linecap="round"/><path d="M 132.175 42.5 L 136 38.25 L 136 46.75 Z" fill="none" stroke="#111" stroke-width="1.10" stroke-linejoin="round" stroke-linecap="round"/><rect x="143.67" y="30.33" width="24.33" height="24.33" fill="none" stroke="#eee" stroke-width="0.40" rx="2"/><path d="M 155.83333333333331 34 L 164.33333333333331 42.5 L 155.83333333333331 51 L 147.33333333333331 42.5 Z" fill="none" stroke="#111" stroke-width="1.10" stroke-linejoin="round" stroke-linecap="round"/><path d="M 14.166666666666666 22.666666666666664 C 2.2666666666666675 13.316666666666666, 8.216666666666667 4.816666666666665, 14.166666666666666 11.191666666666666 C 20.116666666666667 4.816666666666665, 26.066666666666663 13.316666666666666, 14.166666666666666 22.666666666666664 Z" fill="none" stroke="#d33" stroke-width="1.10" stroke-linejoin="round" stroke-linecap="round"/><path d="M 119 18.416666666666664 a 4.25 4.25 0 0 1 1.275 -8.075 a 4.675000000000001 4.675000000000001 0 0 1 8.075 -0.8500000000000001 a 4.25 4.25 0 0 1 7.65 4.675000000000001 a 3.4000000000000004 3.4000000000000004 0 0 1 -1.7000000000000002 4.25 Z" fill="none" stroke="#d33" stroke-width="1.10" stroke-linejoin="round" stroke-linecap="round"/><path d="M 147.33333333333331 5.666666666666666 h 17 v 17 h -17 Z" fill="none" stroke="#d33" stroke-width="1.10" stroke-linejoin="round" stroke-linecap="round" rx="1.36"/><path d="M 34 42.5 C 38.25 36.125, 46.75 36.125, 47.6 42.5 C 46.75 48.875, 38.25 48.875, 34 42.5 Z" fill="none" stroke="#d33" stroke-width="1.10" stroke-linejoin="round" stroke-linecap="round"/><path d="M 47.175 42.5 L 51 38.25 L 51 46.75 Z" fill="none" stroke="#d33" stroke-width="1.10" stroke-linejoin="round" stroke-linecap="round"/><line x1="6" y1="64.67" x2="170" y2="64.67" stroke="#111" stroke-width="0.50" stroke-dasharray="3 2"/><circle cx="0.80" cy="67.27" r="1.50" fill="none" stroke="#111" stroke-width="0.70" stroke-linejoin="round" stroke-linecap="round"/><circle cx="5.20" cy="67.27" r="1.50" fill="none" stroke="#111" stroke-width="0.70" stroke-linejoin="round" stroke-linecap="round"/><path d="M 1.6 66.26666666666665 L 6.2 60.66666666666666" fill="none" stroke="#111" stroke-width="0.70" stroke-linejoin="round" stroke-linecap="round"/><path d="M 4.4 66.26666666666665 L -0.20000000000000018 60.66666666666666" fill="none" stroke="#111" stroke-width="0.70" stroke-linejoin="round" stroke-linecap="round"/><circle cx="3" cy="65.27" r="0.50" fill="#111"/><rect x="12.93" y="72.67" width="26.33" height="26.33" fill="none" stroke="#111" stroke-width="0.50" stroke-dasharray="2 1.5" rx="2"/><path d="M 18.200000000000003 89.78333333333333 a 3.9499999999999997 3.9499999999999997 0 0 1 1.1849999999999998 -7.504999999999999 a 4.345 4.345 0 0 1 7.504999999999999 -0.79 a 3.9499999999999997 3.9499999999999997 0 0 1 7.109999999999999 4.345 a 3.16 3.16 0 0 1 -1.58 3.9499999999999997 Z" fill="none" stroke="#111" stroke-width="1.10" stroke-linejoin="round" stroke-linecap="round"/><rect x="52.20" y="72.67" width="26.33" height="26.33" fill="none" stroke="#111" stroke-width="0.50" stroke-dasharray="2 1.5" rx="2"/><path d="M 65.36666666666667 93.73333333333333 C 54.30666666666667 85.04333333333332, 59.83666666666667 77.14333333333333, 65.36666666666667 83.06833333333333 C 70.89666666666668 77.14333333333333, 76.42666666666668 85.04333333333332, 65.36666666666667 93.73333333333333 Z" fill="none" stroke="#111" stroke-width="1.10" stroke-linejoin="round" stroke-linecap="round"/><rect x="91.47" y="72.67" width="26.33" height="26.33" fill="none" stroke="#111" stroke-width="0.50" stroke-dasharray="2 1.5" rx="2"/><path d="M 96.73333333333333 85.83333333333333 C 100.68333333333334 79.90833333333333, 108.58333333333334 79.90833333333333, 109.37333333333333 85.83333333333333 C 108.58333333333334 91.75833333333333, 100.68333333333334 91.75833333333333, 96.73333333333333 85.83333333333333 Z" fill="none" stroke="#111" stroke-width="1.10" stroke-linejoin="round" stroke-linecap="round"/><path d="M 108.97833333333334 85.83333333333333 L 112.53333333333335 81.88333333333333 L 112.53333333333335 89.78333333333333 Z" fill="none" stroke="#111" stroke-width="1.10" stroke-linejoin="round" stroke-linecap="round"/><rect x="130.73" y="72.67" width="26.33" height="26.33" fill="none" stroke="#111" stroke-width="0.50" stroke-dasharray="2 1.5" rx="2"/><path d="M 135.99999999999997 77.93333333333332 h 15.799999999999999 v 15.799999999999999 h -15.799999999999999 Z" fill="none" stroke="#111" stroke-width="1.10" stroke-linejoin="round" stroke-linecap="round" rx="1.26"/></g></g>
  <text x="105" y="291" font-size="3" fill="#bbb" text-anchor="middle">BrainForge Kids · f11aee3e</text>
</svg>