<svg xmlns="http://www.w3.org/2000/svg" width="210mm" height="297mm" viewBox="0 0 210 297" font-family="system-ui, -apple-system, sans-serif">
  <rect width="210" height="297" fill="#fff"/>
  <text x="14" y="20" font-size="6.5" font-weight="600" fill="#111">Vágd és ragaszd</text>
  <text x="196" y="20" font-size="3.6" fill="#888" text-anchor="end">Lili  ·  2026. jan. 1.</text>
  <text x="14" y="28" font-size="4.2" fill="#444">Vágd ki az alsó darabokat, és ragaszd a helyükre!</text>
  <line x1="14" y1="32" x2="196" y2="32" stroke="#e5e5e5" stroke-width="0.3"/>
  <text x="196" y="28" font-size="4" fill="#d33" text-anchor="end">Megoldókulcs</text>
  <g transform="translate(14.00 40.00) scale(1.0706)"><g ><rect x="2" y="2" width="24.33" height="24.33" fill="none" stroke="#111" stroke-width="0.60" stroke-dasharray="2 1.5" rx="2"/><rect x="30.33" y="2" width="24.33" height="24.33" fill="none" stroke="#eee" stroke-width="0.40" rx="2"/><path d="M 34 5.666666666666666 h 17 v 17 h -17 Z" fill="none" stroke="#111" stroke-width="1.10" stroke-linejoin="round" stroke-linecap="round" rx="1.36"/><rect x="58.67" y="2" width="24.33" height="24.33" fill="none" stroke="#eee" stroke-width="0.40" rx="2"/><path d="M 70.83,5.67 L 73.08,11.07 L 78.92,11.54 L 74.47,15.35 L 75.83,21.04 L 70.83,17.99 L 65.84,21.04 L 67.20,15.35 L 62.75,11.54 L 68.59,11.07 Z" fill="none" stroke="#111" stroke-width="1.10" stroke-linejoin="round" stroke-linecap="round"/><rect x="87" y="2" width="24.33" height="24.33" fill="none" stroke="#eee" stroke-width="0.40" rx="2"/><path d="M 99.16666666666667 5.666666666666666 L 107.66666666666667 14.166666666666666 L 99.16666666666667 22.666666666666664 L 90.66666666666667 14.166666666666666 Z" fill="none" stroke="#111" stroke-width="1.10" stroke-linejoin="round" stroke-linecap="round"/><rect x="115.33" y="2" width="24.33" height="24.33" fill="none" stroke="#111" stroke-width="0.60" stroke-dasharray="2 1.5" rx="2"/><rect x="143.67" y="2" width="24.33" height="24.33" fill="none" stroke="#111" stroke-width="0.60" stroke-dasharray="2 1.5" rx="2"/><rect x="2" y="30.33" width="24.33" height="24.33" fill="none" stroke="#eee" stroke-width="0.40" rx="2"/><circle cx="14.17" cy="42.50" r="8.50" fill="none" stroke="#111" stroke-width="1.10" stroke-linejoin="round" stroke-linecap="round"/><rect x="30.33" y="30.33" width="24.33" height="24.33" fill="none" stroke="#eee" stroke-width="0.40" rx="2"/><circle cx="47.60" cy="42.50" r="3.57" fill="none" stroke="#111" stroke-width="1.10" stroke-linejoin="round" stroke-linecap="round"/><circle cx="45.05" cy="46.92" r="3.57" fill="none" stroke="#111" stroke-width="1.10" stroke-linejoin="round" stroke-linecap="round"/><circle cx="39.95" cy="46.92" r="3.57" fill="none" stroke="#111" stroke-width="1.10" stroke-linejoin="round" stroke-linecap="round"/><circle cx="37.40" cy="42.50" r="3.57" fill="none" stroke="#111" stroke-width="1.10" stroke-linejoin="round" stroke-linecap="round"/><circle cx="39.95" cy="38.08" r="3.57" fill="none" stroke="#111" stroke-width="1.10" stroke-linejoin="round" stroke-linecap="round"/><circle cx="45.05" cy="38.08" r="3.57" fill="none" stroke="#111" stroke-width="1.10" stroke-linejoin="round" stroke-linecap="round"/><circle cx="42.50" cy="42.50" r="2.89" fill="none" stroke="#111" stroke-width="1.10" stroke-linejoin="round" stroke-linecap="round"/><rect x="58.67" y="30.33" width="24.33" height="24.33" fill="none" stroke="#eee" stroke-width="0.40" rx="2"/><path d="M 70.83333333333333 51 C 58.93333333333333 41.65, 64.88333333333333 33.15, 70.83333333333333 39.525 C 76.78333333333333 33.15, 82.73333333333332 41.65, 70.83333333333333 51 Z" fill="none" stroke="#111" stroke-width="1.10" stroke-linejoin="round" stroke-linecap="round"/><rect x="87" y="30.33" width="24.33" height="24.33" fill="none" stroke="#111" stroke-width="0.60" stroke-dasharray="2 1.5" rx="2"/><rect x="115.33" y="30.33" width="24.33" height="24.33" fill="none" stroke="#eee" stroke-width="0.40" rx="2"/><circle cx="132.60" cy="42.50" r="3.57" fill="none" stroke="#111" stroke-width="1.10" stroke-linejoin="round" stroke-linecap="round"/><circle cx="130.05" cy="46.92" r="3.57" fill="none" stroke="#111" stroke-width="1.10" stroke-linejoin="round" stroke-linecap="round"/><circle cx="124.95" cy="46.92" r="3.57" fill="none" stroke="#111" stroke-width="1.10" stroke-linejoin="round" stroke-linecap="round"/><circle cx="122.40" cy="42.50" r="3.57" fill="none" stroke="#111" stroke-width="1.10" stroke-linejoin="round" stroke-linecap="round"/><circle cx="124.95" cy="38.08" r="3.57" fill="none" stroke="#111" stroke-width="1.10" stroke-linejoin="round" stroke-linecap="round"/><circle cx="130.05" cy="38.08" r="3.57" fill="none" stroke="#111" stroke-width="1.10" stroke-linejoin="round" stroke-linecap="round"/><circle cx="127.50" cy="42.50" r="2.89" fill="none" stroke="#111" stroke-width="1.10" stroke-linejoin="round" stroke-linecap="round"/><rect x="143.67" y="30.33" width="24.33" height="24.33" fill="none" stroke="#eee" stroke-width="0.40" rx="2"/><path d="M 155.83333333333331 51 C 143.9333333333333 41.65, 149.88333333333333 33.15, 155.83333333333331 39.525 C 161.7833333333333 33.15, 167.73333333333332 41.65, 155.83333333333331 51 Z" fill="none" stroke="#111" stroke-width="1.10" stroke-linejoin="round" stroke-linecap="round"/><path d="M 14.166666666666666 5.666666666666666 L 22.666666666666664 14.166666666666666 L 14.166666666666666 22.666666666666664 L 5.666666666666666 14.166666666666666 Z" fill="none" stroke="#d33" stroke-width="1.10" stroke-linejoin="round" stroke-linecap="round"/><path d="M 119 5.666666666666666 h 17 v 17 h -17 Z" fill="none" stroke="#d33" stroke-width="1.10" stroke-linejoin="round" stroke-linecap="round" rx="1.36"/><path d="M 155.83,5.67 L 158.08,11.07 L 163.92,11.54 L 159.47,15.35 L 160.83,21.04 L 155.83,17.99 L 150.84,21.04 L 152.20,15.35 L 147.75,11.54 L 153.59,11.07 Z" fill="none" stroke="#d33" stroke-width="1.10" stroke-linejoin="round" stroke-linecap="round"/><circle cx="99.17" cy="42.50" r="8.50" fill="none" stroke="#d33" stroke-width="1.10" stroke-linejoin="round" stroke-linecap="round"/><line x1="6" y1="64.67" x2="170" y2="64.67" stroke="#111" stroke-width="0.50" stroke-dasharray="3 2"/><circle cx="0.80" cy="67.27" r="1.50" fill="none" stroke="#111" stroke-width="0.70" stroke-linejoin="round" stroke-linecap="round"/><circle cx="5.20" cy="67.27" r="1.50" fill="none" stroke="#111" stroke-width="0.70" stroke-linejoin="round" stroke-linecap="round"/><path d="M 1.6 66.26666666666665 L 6.2 60.66666666666666" fill="none" stroke="#111" stroke-width="0.70" stroke-linejoin="round" stroke-linecap="round"/><path d="M 4.4 66.26666666666665 L -0.20000000000000018 60.66666666666666" fill="none" stroke="#111" stroke-width="0.70" stroke-linejoin="round" stroke-linecap="round"/><circle cx="3" cy="65.27" r="0.50" fill="#111"/><rect x="12.93" y="72.67" width="26.33" height="26.33" fill="none" stroke="#111" stroke-width="0.50" stroke-dasharray="2 1.5" rx="2"/><circle cx="26.10" cy="85.83" r="7.90" fill="none" stroke="#111" stroke-width="1.10" stroke-linejoin="round" stroke-linecap="round"/><rect x="52.20" y="72.67" width="26.33" height="26.33" fill="none" stroke="#111" stroke-width="0.50" stroke-dasharray="2 1.5" rx="2"/><path d="M 65.37,77.93 L 67.46,82.96 L 72.88,83.39 L 68.75,86.93 L 70.01,92.22 L 65.37,89.39 L 60.72,92.22 L 61.99,86.93 L 57.85,83.39 L 63.28,82.96 Z" fill="none" stroke="#111" stroke-width="1.10" stroke-linejoin="round" stroke-linecap="round"/><rect x="91.47" y="72.67" width="26.33" height="26.33" fill="none" stroke="#111" stroke-width="0.50" stroke-dasharray="2 1.5" rx="2"/><path d="M 104.63333333333334 77.93333333333332 L 112.53333333333335 85.83333333333333 L 104.63333333333334 93.73333333333333 L 96.73333333333333 85.83333333333333 Z" fill="none" stroke="#111" stroke-width="1.10" stroke-linejoin="round" stroke-linecap="round"/><rect x="130.73" y="72.67" width="26.33" height="26.33" fill="none" stroke="#111" stroke-width="0.50" stroke-dasharray="2 1.5" rx="2"/><path d="M 135.99999999999997 77.93333333333332 h 15.799999999999999 v 15.799999999999999 h -15.799999999999999 Z" fill="none" stroke="#111" stroke-width="1.10" stroke-linejoin="round" stroke-linecap="round" rx="1.26"/></g></g>
  <text x="105" y="291" font-size="3" fill="#bbb" text-anchor="middle">BrainForge Kids · demo-cut</text>
</svg>