<svg xmlns="http://www.w3.org/2000/svg" width="210mm" height="297mm" viewBox="0 0 210 297" font-family="system-ui, -apple-system, sans-serif">
  <rect width="210" height="297" fill="#fff"/>
  <text x="14" y="20" font-size="6.5" font-weight="600" fill="#111">Kétkezes kereső</text>
  <text x="196" y="20" font-size="3.6" fill="#888" text-anchor="end">Bence  ·  2026. jan. 1.</text>
  <text x="14" y="28" font-size="4.2" fill="#444">Bal kézzel a formát, jobb kézzel a számot karikázd be — egyszerre!</text>
  <line x1="14" y1="32" x2="196" y2="32" stroke="#e5e5e5" stroke-width="0.3"/>
  
  <g transform="translate(14.00 40.00) scale(1.1375)"><g ><path d="M 7.38,9.44 L 8.47,12.07 L 11.30,12.30 L 9.14,14.15 L 9.80,16.91 L 7.38,15.43 L 4.95,16.91 L 5.61,14.15 L 3.45,12.30 L 6.28,12.07 Z" fill="#1b3a6b" stroke="none"/><rect x="18.61" y="10.06" width="7.02" height="7.02" fill="#1b3a6b" stroke="none"/><rect x="33.36" y="10.06" width="7.02" height="7.02" fill="#1b3a6b" stroke="none"/><path d="M 51.63,9.44 L 52.72,12.07 L 55.55,12.30 L 53.39,14.15 L 54.05,16.91 L 51.63,15.43 L 49.20,16.91 L 49.86,14.15 L 47.70,12.30 L 50.53,12.07 Z" fill="#1b3a6b" stroke="none"/><rect x="3.86" y="37.20" width="7.02" height="7.02" fill="#1b3a6b" stroke="none"/><path d="M 22.125 44.84428571428572 C 16.343 40.30128571428572, 19.233999999999998 36.171285714285716, 22.125 39.26878571428571 C 25.016000000000002 36.171285714285716, 27.907 40.30128571428572, 22.125 44.84428571428572 Z" fill="#1b3a6b" stroke="none"/><circle cx="36.88" cy="40.71" r="3.30" fill="#1b3a6b" stroke="none"/><path d="M 51.625 44.84428571428572 C 45.842999999999996 40.30128571428572, 48.734 36.171285714285716, 51.625 39.26878571428571 C 54.516 36.171285714285716, 57.407000000000004 40.30128571428572, 51.625 44.84428571428572 Z" fill="#1b3a6b" stroke="none"/><circle cx="7.38" cy="67.86" r="3.30" fill="#1b3a6b" stroke="none"/><rect x="18.61" y="64.35" width="7.02" height="7.02" fill="#1b3a6b" stroke="none"/><path d="M 36.875 63.72714285714286 L 41.005 71.16114285714286 L 32.745 71.16114285714286 Z" fill="#1b3a6b" stroke="none"/><circle cx="51.63" cy="67.86" r="3.30" fill="#1b3a6b" stroke="none"/><path d="M 7.375 90.87 L 11.505 98.304 L 3.244999999999999 98.304 Z" fill="#1b3a6b" stroke="none"/><path d="M 22.125 90.87 L 26.255000000000003 98.304 L 17.994999999999997 98.304 Z" fill="#1b3a6b" stroke="none"/><circle cx="36.88" cy="95" r="3.30" fill="#1b3a6b" stroke="none"/><path d="M 51.625 99.13 C 45.842999999999996 94.587, 48.734 90.457, 51.625 93.5545 C 54.516 90.457, 57.407000000000004 94.587, 51.625 99.13 Z" fill="#1b3a6b" stroke="none"/><path d="M 7.38,118.01 L 8.47,120.64 L 11.30,120.87 L 9.14,122.72 L 9.80,125.48 L 7.38,124.00 L 4.95,125.48 L 5.61,122.72 L 3.45,120.87 L 6.28,120.64 Z" fill="#1b3a6b" stroke="none"/><path d="M 22.125 126.27285714285713 C 16.343 121.72985714285714, 19.233999999999998 117.59985714285713, 22.125 120.69735714285714 C 25.016000000000002 117.59985714285713, 27.907 121.72985714285714, 22.125 126.27285714285713 Z" fill="#1b3a6b" stroke="none"/><path d="M 36.88,118.01 L 37.97,120.64 L 40.80,120.87 L 38.64,122.72 L 39.30,125.48 L 36.88,124.00 L 34.45,125.48 L 35.11,122.72 L 32.95,120.87 L 35.78,120.64 Z" fill="#1b3a6b" stroke="none"/><path d="M 51.625 126.27285714285713 C 45.842999999999996 121.72985714285714, 48.734 117.59985714285713, 51.625 120.69735714285714 C 54.516 117.59985714285713, 57.407000000000004 121.72985714285714, 51.625 126.27285714285713 Z" fill="#1b3a6b" stroke="none"/><circle cx="7.38" cy="149.29" r="3.30" fill="#1b3a6b" stroke="none"/><path d="M 22.13,145.16 L 23.22,147.78 L 26.05,148.01 L 23.89,149.86 L 24.55,152.63 L 22.13,151.14 L 19.70,152.63 L 20.36,149.86 L 18.20,148.01 L 21.03,147.78 Z" fill="#1b3a6b" stroke="none"/><path d="M 36.875 145.1557142857143 L 41.005 152.5897142857143 L 32.745 152.5897142857143 Z" fill="#1b3a6b" stroke="none"/><path d="M 51.625 145.1557142857143 L 55.755 152.5897142857143 L 47.495 152.5897142857143 Z" fill="#1b3a6b" stroke="none"/><path d="M 7.38,172.30 L 8.47,174.93 L 11.30,175.15 L 9.14,177.00 L 9.80,179.77 L 7.38,178.29 L 4.95,179.77 L 5.61,177.00 L 3.45,175.15 L 6.28,174.93 Z" fill="#1b3a6b" stroke="none"/><path d="M 22.125 180.55857142857144 C 16.343 176.01557142857143, 19.233999999999998 171.88557142857144, 22.125 174.98307142857144 C 25.016000000000002 171.88557142857144, 27.907 176.01557142857143, 22.125 180.55857142857144 Z" fill="#1b3a6b" stroke="none"/><path d="M 36.875 172.29857142857145 L 41.005 179.73257142857145 L 32.745 179.73257142857145 Z" fill="#1b3a6b" stroke="none"/><path d="M 51.625 180.55857142857144 C 45.842999999999996 176.01557142857143, 48.734 171.88557142857144, 51.625 174.98307142857144 C 54.516 171.88557142857144, 57.407000000000004 176.01557142857143, 51.625 180.55857142857144 Z" fill="#1b3a6b" stroke="none"/><text x="108.38" y="16.05" font-size="8.67" font-weight="700" text-anchor="middle" fill="#8c2f2f">3</text><text x="123.13" y="16.05" font-size="8.67" font-weight="700" text-anchor="middle" fill="#8c2f2f">3</text><text x="137.88" y="16.05" font-size="8.67" font-weight="700" text-anchor="middle" fill="#8c2f2f">1</text><text x="152.63" y="16.05" font-size="8.67" font-weight="700" text-anchor="middle" fill="#8c2f2f">4</text><text x="108.38" y="43.19" font-size="8.67" font-weight="700" text-anchor="middle" fill="#8c2f2f">2</text><text x="123.13" y="43.19" font-size="8.67" font-weight="700" text-anchor="middle" fill="#8c2f2f">2</text><text x="137.88" y="43.19" font-size="8.67" font-weight="700" text-anchor="middle" fill="#8c2f2f">4</text><text x="152.63" y="43.19" font-size="8.67" font-weight="700" text-anchor="middle" fill="#8c2f2f">2</text><text x="108.38" y="70.34" font-size="8.67" font-weight="700" text-anchor="middle" fill="#8c2f2f">1</text><text x="123.13" y="70.34" font-size="8.67" font-weight="700" text-anchor="middle" fill="#8c2f2f">1</text><text x="137.88" y="70.34" font-size="8.67" font-weight="700" text-anchor="middle" fill="#8c2f2f">4</text><text x="152.63" y="70.34" font-size="8.67" font-weight="700" text-anchor="middle" fill="#8c2f2f">2</text><text x="108.38" y="97.48" font-size="8.67" font-weight="700" text-anchor="middle" fill="#8c2f2f">4</text><text x="123.13" y="97.48" font-size="8.67" font-weight="700" text-anchor="middle" fill="#8c2f2f">3</text><text x="137.88" y="97.48" font-size="8.67" font-weight="700" text-anchor="middle" fill="#8c2f2f">2</text><text x="152.63" y="97.48" font-size="8.67" font-weight="700" text-anchor="middle" fill="#8c2f2f">4</text><text x="108.38" y="124.62" font-size="8.67" font-weight="700" text-anchor="middle" fill="#8c2f2f">2</text><text x="123.13" y="124.62" font-size="8.67" font-weight="700" text-anchor="middle" fill="#8c2f2f">2</text><text x="137.88" y="124.62" font-size="8.67" font-weight="700" text-anchor="middle" fill="#8c2f2f">1</text><text x="152.63" y="124.62" font-size="8.67" font-weight="700" text-anchor="middle" fill="#8c2f2f">3</text><text x="108.38" y="151.76" font-size="8.67" font-weight="700" text-anchor="middle" fill="#8c2f2f">4</text><text x="123.13" y="151.76" font-size="8.67" font-weight="700" text-anchor="middle" fill="#8c2f2f">2</text><text x="137.88" y="151.76" font-size="8.67" font-weight="700" text-anchor="middle" fill="#8c2f2f">2</text><text x="152.63" y="151.76" font-size="8.67" font-weight="700" text-anchor="middle" fill="#8c2f2f">2</text><text x="108.38" y="178.91" font-size="8.67" font-weight="700" text-anchor="middle" fill="#8c2f2f">1</text><text x="123.13" y="178.91" font-size="8.67" font-weight="700" text-anchor="middle" fill="#8c2f2f">1</text><text x="137.88" y="178.91" font-size="8.67" font-weight="700" text-anchor="middle" fill="#8c2f2f">1</text><text x="152.63" y="178.91" font-size="8.67" font-weight="700" text-anchor="middle" fill="#8c2f2f">2</text><path d="M 63 0 L 63 190 M 97 0 L 97 190" stroke="#111" stroke-width="0.45" fill="none"/><circle cx="74.50" cy="15.83" r="4.60" fill="none" stroke="#111" stroke-width="0.70"/><circle cx="85.50" cy="15.83" r="4.60" fill="none" stroke="#111" stroke-width="0.70"/><circle cx="74.50" cy="15.83" r="2.08" fill="#1b3a6b" stroke="none"/><text x="85.50" y="17.83" font-size="5.60" font-weight="700" text-anchor="middle" fill="#8c2f2f">4</text><g opacity="0.55"><path d="M 69.7 27.1 Q 70.1 22.900000000000002 68.3 22.500000000000004 Q 65.9 22.1 65.3 24.1 Q 65 26.300000000000004 66.9 27.300000000000004 Z" fill="none" stroke="#c05050" stroke-width="0.45"/><path d="M 68.3 22.500000000000004 L 67.9 21.300000000000004" fill="none" stroke="#c05050" stroke-width="0.45" stroke-linecap="round"/></g><g opacity="0.55"><path d="M 90.3 27.1 Q 89.9 22.900000000000002 91.7 22.500000000000004 Q 94.1 22.1 94.7 24.1 Q 95 26.300000000000004 93.1 27.300000000000004 Z" fill="none" stroke="#1b3a6b" stroke-width="0.45"/><path d="M 91.7 22.500000000000004 L 92.1 21.300000000000004" fill="none" stroke="#1b3a6b" stroke-width="0.45" stroke-linecap="round"/></g><circle cx="74.50" cy="47.50" r="4.60" fill="none" stroke="#111" stroke-width="0.70"/><circle cx="85.50" cy="47.50" r="4.60" fill="none" stroke="#111" stroke-width="0.70"/><path d="M 74.50,44.90 L 75.19,46.55 L 76.97,46.70 L 75.61,47.86 L 76.03,49.60 L 74.50,48.67 L 72.97,49.60 L 73.39,47.86 L 72.03,46.70 L 73.81,46.55 Z" fill="#1b3a6b" stroke="none"/><text x="85.50" y="49.50" font-size="5.60" font-weight="700" text-anchor="middle" fill="#8c2f2f">2</text><g opacity="0.55"><path d="M 69.7 58.766666666666666 Q 70.1 54.56666666666667 68.3 54.166666666666664 Q 65.9 53.766666666666666 65.3 55.766666666666666 Q 65 57.96666666666667 66.9 58.96666666666667 Z" fill="none" stroke="#c05050" stroke-width="0.45"/><path d="M 68.3 54.166666666666664 L 67.9 52.96666666666667" fill="none" stroke="#c05050" stroke-width="0.45" stroke-linecap="round"/></g><g opacity="0.55"><path d="M 90.3 58.766666666666666 Q 89.9 54.56666666666667 91.7 54.166666666666664 Q 94.1 53.766666666666666 94.7 55.766666666666666 Q 95 57.96666666666667 93.1 58.96666666666667 Z" fill="none" stroke="#1b3a6b" stroke-width="0.45"/><path d="M 91.7 54.166666666666664 L 92.1 52.96666666666667" fill="none" stroke="#1b3a6b" stroke-width="0.45" stroke-linecap="round"/></g><path d="M 65 31.666666666666668 L 95 31.666666666666668" stroke="#e5e5e0" stroke-width="0.30" fill="none"/><circle cx="74.50" cy="79.17" r="4.60" fill="none" stroke="#111" stroke-width="0.70"/><circle cx="85.50" cy="79.17" r="4.60" fill="none" stroke="#111" stroke-width="0.70"/><rect x="72.29" y="76.96" width="4.42" height="4.42" fill="#1b3a6b" stroke="none"/><text x="85.50" y="81.17" font-size="5.60" font-weight="700" text-anchor="middle" fill="#8c2f2f">4</text><g opacity="0.55"><path d="M 69.7 90.43333333333334 Q 70.1 86.23333333333333 68.3 85.83333333333333 Q 65.9 85.43333333333334 65.3 87.43333333333334 Q 65 89.63333333333333 66.9 90.63333333333333 Z" fill="none" stroke="#c05050" stroke-width="0.45"/><path d="M 68.3 85.83333333333333 L 67.9 84.63333333333333" fill="none" stroke="#c05050" stroke-width="0.45" stroke-linecap="round"/></g><g opacity="0.55"><path d="M 90.3 90.43333333333334 Q 89.9 86.23333333333333 91.7 85.83333333333333 Q 94.1 85.43333333333334 94.7 87.43333333333334 Q 95 89.63333333333333 93.1 90.63333333333333 Z" fill="none" stroke="#1b3a6b" stroke-width="0.45"/><path d="M 91.7 85.83333333333333 L 92.1 84.63333333333333" fill="none" stroke="#1b3a6b" stroke-width="0.45" stroke-linecap="round"/></g><path d="M 65 63.333333333333336 L 95 63.333333333333336" stroke="#e5e5e0" stroke-width="0.30" fill="none"/><circle cx="74.50" cy="110.83" r="4.60" fill="none" stroke="#111" stroke-width="0.70"/><circle cx="85.50" cy="110.83" r="4.60" fill="none" stroke="#111" stroke-width="0.70"/><path d="M 74.5 113.43333333333332 C 70.86 110.57333333333332, 72.68 107.97333333333333, 74.5 109.92333333333333 C 76.32 107.97333333333333, 78.14 110.57333333333332, 74.5 113.43333333333332 Z" fill="#1b3a6b" stroke="none"/><text x="85.50" y="112.83" font-size="5.60" font-weight="700" text-anchor="middle" fill="#8c2f2f">1</text><g opacity="0.55"><path d="M 69.7 122.1 Q 70.1 117.89999999999999 68.3 117.49999999999999 Q 65.9 117.1 65.3 119.1 Q 65 121.29999999999998 66.9 122.29999999999998 Z" fill="none" stroke="#c05050" stroke-width="0.45"/><path d="M 68.3 117.49999999999999 L 67.9 116.29999999999998" fill="none" stroke="#c05050" stroke-width="0.45" stroke-linecap="round"/></g><g opacity="0.55"><path d="M 90.3 122.1 Q 89.9 117.89999999999999 91.7 117.49999999999999 Q 94.1 117.1 94.7 119.1 Q 95 121.29999999999998 93.1 122.29999999999998 Z" fill="none" stroke="#1b3a6b" stroke-width="0.45"/><path d="M 91.7 117.49999999999999 L 92.1 116.29999999999998" fill="none" stroke="#1b3a6b" stroke-width="0.45" stroke-linecap="round"/></g><path d="M 65 95 L 95 95" stroke="#e5e5e0" stroke-width="0.30" fill="none"/><circle cx="74.50" cy="142.50" r="4.60" fill="none" stroke="#111" stroke-width="0.70"/><circle cx="85.50" cy="142.50" r="4.60" fill="none" stroke="#111" stroke-width="0.70"/><path d="M 74.5 139.9 L 77.1 144.58 L 71.9 144.58 Z" fill="#1b3a6b" stroke="none"/><text x="85.50" y="144.50" font-size="5.60" font-weight="700" text-anchor="middle" fill="#8c2f2f">2</text><g opacity="0.55"><path d="M 69.7 153.76666666666668 Q 70.1 149.56666666666666 68.3 149.16666666666669 Q 65.9 148.76666666666668 65.3 150.76666666666668 Q 65 152.96666666666667 66.9 153.96666666666667 Z" fill="none" stroke="#c05050" stroke-width="0.45"/><path d="M 68.3 149.16666666666669 L 67.9 147.96666666666667" fill="none" stroke="#c05050" stroke-width="0.45" stroke-linecap="round"/></g><g opacity="0.55"><path d="M 90.3 153.76666666666668 Q 89.9 149.56666666666666 91.7 149.16666666666669 Q 94.1 148.76666666666668 94.7 150.76666666666668 Q 95 152.96666666666667 93.1 153.96666666666667 Z" fill="none" stroke="#1b3a6b" stroke-width="0.45"/><path d="M 91.7 149.16666666666669 L 92.1 147.96666666666667" fill="none" stroke="#1b3a6b" stroke-width="0.45" stroke-linecap="round"/></g><path d="M 65 126.66666666666667 L 95 126.66666666666667" stroke="#e5e5e0" stroke-width="0.30" fill="none"/><circle cx="74.50" cy="174.17" r="4.60" fill="none" stroke="#111" stroke-width="0.70"/><circle cx="85.50" cy="174.17" r="4.60" fill="none" stroke="#111" stroke-width="0.70"/><circle cx="74.50" cy="174.17" r="2.08" fill="#1b3a6b" stroke="none"/><text x="85.50" y="176.17" font-size="5.60" font-weight="700" text-anchor="middle" fill="#8c2f2f">2</text><g opacity="0.55"><path d="M 69.7 185.43333333333337 Q 70.1 181.23333333333335 68.3 180.83333333333337 Q 65.9 180.43333333333337 65.3 182.43333333333337 Q 65 184.63333333333335 66.9 185.63333333333335 Z" fill="none" stroke="#c05050" stroke-width="0.45"/><path d="M 68.3 180.83333333333337 L 67.9 179.63333333333335" fill="none" stroke="#c05050" stroke-width="0.45" stroke-linecap="round"/></g><g opacity="0.55"><path d="M 90.3 185.43333333333337 Q 89.9 181.23333333333335 91.7 180.83333333333337 Q 94.1 180.43333333333337 94.7 182.43333333333337 Q 95 184.63333333333335 93.1 185.63333333333335 Z" fill="none" stroke="#1b3a6b" stroke-width="0.45"/><path d="M 91.7 180.83333333333337 L 92.1 179.63333333333335" fill="none" stroke="#1b3a6b" stroke-width="0.45" stroke-linecap="round"/></g><path d="M 65 158.33333333333334 L 95 158.33333333333334" stroke="#e5e5e0" stroke-width="0.30" fill="none"/></g></g>
  <text x="105" y="291" font-size="3" fill="#bbb" text-anchor="middle">Kalmo Kids · demo-dua</text>
</svg>