<svg xmlns="http://www.w3.org/2000/svg" width="210mm" height="297mm" viewBox="0 0 210 297" font-family="system-ui, -apple-system, sans-serif">
  <rect width="210" height="297" fill="#fff"/>
  <text x="14" y="20" font-size="6.5" font-weight="600" fill="#111">Kétkezes útvonal</text>
  <text x="196" y="20" font-size="3.6" fill="#888" text-anchor="end">Lili  ·  2026. júl. 15.</text>
  <text x="14" y="28" font-size="4.2" fill="#444">Mindkét kezedbe filcet! Kösd össze a színeket sorban, egyszerre mindkét oldalon.</text>
  <line x1="14" y1="32" x2="196" y2="32" stroke="#e5e5e5" stroke-width="0.3"/>
  
  <g transform="translate(14.00 40.00) scale(1.1375)"><g ><circle cx="40" cy="8" r="3.40" fill="#f5c211"/><path d="M 44.8 8 L 51.2 8 M 49.2 6.4 L 51.2 8 L 49.2 9.6" stroke="#111" stroke-width="0.60" fill="none" stroke-linecap="round"/><circle cx="56" cy="8" r="3.40" fill="#1b3a6b"/><path d="M 60.8 8 L 67.2 8 M 65.2 6.4 L 67.2 8 L 65.2 9.6" stroke="#111" stroke-width="0.60" fill="none" stroke-linecap="round"/><circle cx="72" cy="8" r="3.40" fill="#e03131"/><path d="M 76.8 8 L 83.2 8 M 81.2 6.4 L 83.2 8 L 81.2 9.6" stroke="#111" stroke-width="0.60" fill="none" stroke-linecap="round"/><circle cx="88" cy="8" r="3.40" fill="#1c7ed6"/><path d="M 92.8 8 L 99.2 8 M 97.2 6.4 L 99.2 8 L 97.2 9.6" stroke="#111" stroke-width="0.60" fill="none" stroke-linecap="round"/><circle cx="104" cy="8" r="3.40" fill="#f08c00"/><path d="M 108.8 8 L 115.2 8 M 113.2 6.4 L 115.2 8 L 113.2 9.6" stroke="#111" stroke-width="0.60" fill="none" stroke-linecap="round"/><circle cx="120" cy="8" r="3.40" fill="#7f4f24"/><path d="M 2 18 L 158 18" stroke="#e5e5e0" stroke-width="0.30" fill="none"/><path d="M 80 22 L 80 190" stroke="#111" stroke-width="0.50" fill="none"/><circle cx="64.50" cy="110" r="4.60" fill="#f5c211"/><circle cx="67.50" cy="49" r="4.60" fill="#1b3a6b"/><circle cx="42.50" cy="168" r="4.60" fill="#e03131"/><circle cx="10.50" cy="155" r="4.60" fill="#1c7ed6"/><circle cx="10.50" cy="111" r="4.60" fill="#f08c00"/><circle cx="43.50" cy="56" r="4.60" fill="#7f4f24"/><circle cx="147.50" cy="47" r="4.60" fill="#f5c211"/><circle cx="98.50" cy="102" r="4.60" fill="#1b3a6b"/><circle cx="149.50" cy="113" r="4.60" fill="#e03131"/><circle cx="147.50" cy="165" r="4.60" fill="#1c7ed6"/><circle cx="121.50" cy="156" r="4.60" fill="#f08c00"/><circle cx="117.50" cy="109" r="4.60" fill="#7f4f24"/></g></g>
  <text x="105" y="291" font-size="3" fill="#bbb" text-anchor="middle">BrainForge Kids · b4e11157</text>
</svg>