<svg xmlns="http://www.w3.org/2000/svg" width="210mm" height="297mm" viewBox="0 0 210 297" font-family="system-ui, -apple-system, sans-serif">
  <rect width="210" height="297" fill="#fff"/>
  <text x="14" y="20" font-size="6.5" font-weight="600" fill="#111">Rácsmásolás</text>
  <text x="196" y="20" font-size="3.6" fill="#888" text-anchor="end">Zoé  ·  2026. jan. 1.</text>
  <text x="14" y="28" font-size="4.2" fill="#444">Másold át a felső rácsot az alsó üres rácsba!</text>
  <line x1="14" y1="32" x2="196" y2="32" stroke="#e5e5e5" stroke-width="0.3"/>
  
  <g transform="translate(39.11 40.00) scale(1.0981)"><g ><rect x="0" y="0" width="120" height="100" fill="none" stroke="#111" stroke-width="0.90"/><path d="M 20 0 L 20 100" stroke="#111" stroke-width="0.35" fill="none"/><path d="M 40 0 L 40 100" stroke="#111" stroke-width="0.35" fill="none"/><path d="M 60 0 L 60 100" stroke="#111" stroke-width="0.35" fill="none"/><path d="M 80 0 L 80 100" stroke="#111" stroke-width="0.35" fill="none"/><path d="M 100 0 L 100 100" stroke="#111" stroke-width="0.35" fill="none"/><path d="M 0 20 L 120 20" stroke="#111" stroke-width="0.35" fill="none"/><path d="M 0 40 L 120 40" stroke="#111" stroke-width="0.35" fill="none"/><path d="M 0 60 L 120 60" stroke="#111" stroke-width="0.35" fill="none"/><path d="M 0 80 L 120 80" stroke="#111" stroke-width="0.35" fill="none"/><g ><text x="70" y="93.52" font-size="10.88" font-weight="600" text-anchor="middle" fill="#111">3</text><path d="M 44.879999999999995 11.92 L 48.08 7.4399999999999995 L 50.64 11.92 L 55.120000000000005 7.4399999999999995" fill="none" stroke="#111" stroke-width="1" stroke-linejoin="round" stroke-linecap="round"/><path d="M 4.879999999999999 71.92 L 8.08 67.44 L 10.64 71.92 L 15.120000000000001 67.44" fill="none" stroke="#111" stroke-width="1" stroke-linejoin="round" stroke-linecap="round"/><text x="110" y="93.52" font-size="10.88" font-weight="600" text-anchor="middle" fill="#111">82</text><text x="70" y="53.52" font-size="10.88" font-weight="600" text-anchor="middle" fill="#111">60</text><path d="M 64.88 31.92 L 68.08 27.439999999999998 L 70.64 31.92 L 75.12 27.439999999999998" fill="none" stroke="#111" stroke-width="1" stroke-linejoin="round" stroke-linecap="round"/><text x="90" y="53.52" font-size="10.88" font-weight="600" text-anchor="middle" fill="#111">97</text><circle cx="30" cy="50" r="4.80" fill="none" stroke="#111" stroke-width="1" stroke-linejoin="round" stroke-linecap="round"/><circle cx="28.21" cy="48.85" r="0.70" fill="#111"/><circle cx="31.79" cy="48.85" r="0.70" fill="#111"/><path d="M 27.76 51.28 Q 30 53.52 32.24 51.28" fill="none" stroke="#111" stroke-width="1" stroke-linejoin="round" stroke-linecap="round"/><circle cx="50" cy="50" r="4.48" fill="none" stroke="#111" stroke-width="1" stroke-linejoin="round" stroke-linecap="round"/><text x="90" y="33.52" font-size="10.88" font-weight="600" text-anchor="middle" fill="#111">5</text><text x="30" y="33.52" font-size="10.88" font-weight="600" text-anchor="middle" fill="#111">97</text><circle cx="87.44" cy="90" r="1" fill="#111"/><circle cx="90" cy="90" r="1" fill="#111"/><circle cx="92.56" cy="90" r="1" fill="#111"/><circle cx="27.44" cy="90" r="1" fill="#111"/><circle cx="30" cy="90" r="1" fill="#111"/><circle cx="32.56" cy="90" r="1" fill="#111"/><circle cx="10" cy="50" r="4.80" fill="none" stroke="#111" stroke-width="1" stroke-linejoin="round" stroke-linecap="round"/><circle cx="8.21" cy="48.85" r="0.70" fill="#111"/><circle cx="11.79" cy="48.85" r="0.70" fill="#111"/><path d="M 7.76 51.28 Q 10 53.52 12.24 51.28" fill="none" stroke="#111" stroke-width="1" stroke-linejoin="round" stroke-linecap="round"/><text x="110" y="53.52" font-size="10.88" font-weight="600" text-anchor="middle" fill="#111">7</text><path d="M 27.76 64.88 L 27.76 75.12 M 32.24 64.88 L 32.24 75.12 M 24.88 68.08 L 35.120000000000005 68.08 M 24.88 71.92 L 35.120000000000005 71.92" fill="none" stroke="#111" stroke-width="1" stroke-linejoin="round" stroke-linecap="round"/><path d="M 105.52 25.52 L 114.48 34.48 M 114.48 25.52 L 105.52 34.48" fill="none" stroke="#111" stroke-width="1" stroke-linejoin="round" stroke-linecap="round"/><text x="10" y="93.52" font-size="10.88" font-weight="600" text-anchor="middle" fill="#111">45</text><text x="110" y="73.52" font-size="10.88" font-weight="600" text-anchor="middle" fill="#111">75</text><path d="M 50 24.88 L 54.8 33.84 L 45.2 33.84 Z" fill="none" stroke="#111" stroke-width="1" stroke-linejoin="round" stroke-linecap="round"/><text x="10" y="13.52" font-size="10.88" font-weight="600" text-anchor="middle" fill="#111">6</text><path d="M 65.52 65.52 L 74.48 74.48 M 74.48 65.52 L 65.52 74.48" fill="none" stroke="#111" stroke-width="1" stroke-linejoin="round" stroke-linecap="round"/><text x="90" y="73.52" font-size="10.88" font-weight="600" text-anchor="middle" fill="#111">36</text></g><rect x="0" y="114" width="120" height="100" fill="none" stroke="#111" stroke-width="0.60"/><path d="M 20 114 L 20 214" stroke="#111" stroke-width="0.35" fill="none"/><path d="M 40 114 L 40 214" stroke="#111" stroke-width="0.35" fill="none"/><path d="M 60 114 L 60 214" stroke="#111" stroke-width="0.35" fill="none"/><path d="M 80 114 L 80 214" stroke="#111" stroke-width="0.35" fill="none"/><path d="M 100 114 L 100 214" stroke="#111" stroke-width="0.35" fill="none"/><path d="M 0 134 L 120 134" stroke="#111" stroke-width="0.35" fill="none"/><path d="M 0 154 L 120 154" stroke="#111" stroke-width="0.35" fill="none"/><path d="M 0 174 L 120 174" stroke="#111" stroke-width="0.35" fill="none"/><path d="M 0 194 L 120 194" stroke="#111" stroke-width="0.35" fill="none"/></g></g>
  <text x="105" y="291" font-size="3" fill="#bbb" text-anchor="middle">BrainForge Kids · demo-gri</text>
</svg>