<svg xmlns="http://www.w3.org/2000/svg" width="210mm" height="297mm" viewBox="0 0 210 297" font-family="system-ui, -apple-system, sans-serif">
  <rect width="210" height="297" fill="#fff"/>
  <text x="14" y="20" font-size="6.5" font-weight="600" fill="#111">Rácsmásolás</text>
  <text x="196" y="20" font-size="3.6" fill="#888" text-anchor="end">Zoé  ·  2026. júl. 8.</text>
  <text x="14" y="28" font-size="4.2" fill="#444">Másold át a felső rácsot az alsó üres rácsba!</text>
  <line x1="14" y1="32" x2="196" y2="32" stroke="#e5e5e5" stroke-width="0.3"/>
  <text x="196" y="28" font-size="4" fill="#d33" text-anchor="end">Megoldókulcs</text>
  <g transform="translate(17.15 40.00) scale(1.0981)"><g ><rect x="20" y="0" width="120" height="100" fill="none" stroke="#111" stroke-width="0.90"/><path d="M 40 0 L 40 100" stroke="#111" stroke-width="0.35" fill="none"/><path d="M 60 0 L 60 100" stroke="#111" stroke-width="0.35" fill="none"/><path d="M 80 0 L 80 100" stroke="#111" stroke-width="0.35" fill="none"/><path d="M 100 0 L 100 100" stroke="#111" stroke-width="0.35" fill="none"/><path d="M 120 0 L 120 100" stroke="#111" stroke-width="0.35" fill="none"/><path d="M 20 20 L 140 20" stroke="#111" stroke-width="0.35" fill="none"/><path d="M 20 40 L 140 40" stroke="#111" stroke-width="0.35" fill="none"/><path d="M 20 60 L 140 60" stroke="#111" stroke-width="0.35" fill="none"/><path d="M 20 80 L 140 80" stroke="#111" stroke-width="0.35" fill="none"/><g ><text x="50" y="53.52" font-size="10.88" font-weight="600" text-anchor="middle" fill="#111">11</text><path d="M 67.76 44.879999999999995 L 67.76 55.120000000000005 M 72.24 44.879999999999995 L 72.24 55.120000000000005 M 64.88 48.08 L 75.12 48.08 M 64.88 51.92 L 75.12 51.92" fill="none" stroke="#111" stroke-width="1" stroke-linejoin="round" stroke-linecap="round"/><path d="M 90 73.52 L 90 64.88 M 87.12 67.76 L 90 64.88 L 92.88 67.76" fill="none" stroke="#111" stroke-width="1" stroke-linejoin="round" stroke-linecap="round"/><text x="30" y="13.52" font-size="10.88" font-weight="600" text-anchor="middle" fill="#111">46</text><circle cx="50" cy="90" r="4.80" fill="none" stroke="#111" stroke-width="1" stroke-linejoin="round" stroke-linecap="round"/><circle cx="48.21" cy="88.85" r="0.70" fill="#111"/><circle cx="51.79" cy="88.85" r="0.70" fill="#111"/><path d="M 47.76 91.28 Q 50 93.52 52.24 91.28" fill="none" stroke="#111" stroke-width="1" stroke-linejoin="round" stroke-linecap="round"/><circle cx="110" cy="30" r="4.80" fill="none" stroke="#111" stroke-width="1" stroke-linejoin="round" stroke-linecap="round"/><circle cx="108.21" cy="28.85" r="0.70" fill="#111"/><circle cx="111.79" cy="28.85" r="0.70" fill="#111"/><path d="M 107.76 31.28 Q 110 33.52 112.24 31.28" fill="none" stroke="#111" stroke-width="1" stroke-linejoin="round" stroke-linecap="round"/><path d="M 107.76 64.88 L 107.76 75.12 M 112.24 64.88 L 112.24 75.12 M 104.88 68.08 L 115.12 68.08 M 104.88 71.92 L 115.12 71.92" fill="none" stroke="#111" stroke-width="1" stroke-linejoin="round" stroke-linecap="round"/><text x="90" y="53.52" font-size="10.88" font-weight="600" text-anchor="middle" fill="#111">81</text><text x="30" y="93.52" font-size="10.88" font-weight="600" text-anchor="middle" fill="#111">3</text><path d="M 105.52 85.52 L 114.48 94.48 M 114.48 85.52 L 105.52 94.48" fill="none" stroke="#111" stroke-width="1" stroke-linejoin="round" stroke-linecap="round"/><circle cx="30" cy="30" r="4.48" fill="none" stroke="#111" stroke-width="1" stroke-linejoin="round" stroke-linecap="round"/><text x="70" y="73.52" font-size="10.88" font-weight="600" text-anchor="middle" fill="#111">56</text><text x="70" y="33.52" font-size="10.88" font-weight="600" text-anchor="middle" fill="#111">5</text><text x="110" y="53.52" font-size="10.88" font-weight="600" text-anchor="middle" fill="#111">1</text><path d="M 30 73.52 L 30 64.88 M 27.12 67.76 L 30 64.88 L 32.88 67.76" fill="none" stroke="#111" stroke-width="1" stroke-linejoin="round" stroke-linecap="round"/><path d="M 125.52 65.52 L 134.48 74.48 M 134.48 65.52 L 125.52 74.48" fill="none" stroke="#111" stroke-width="1" stroke-linejoin="round" stroke-linecap="round"/><circle cx="50" cy="30" r="4.48" fill="none" stroke="#111" stroke-width="1" stroke-linejoin="round" stroke-linecap="round"/><path d="M 50 13.52 L 50 4.879999999999999 M 47.12 7.76 L 50 4.879999999999999 L 52.88 7.76" fill="none" stroke="#111" stroke-width="1" stroke-linejoin="round" stroke-linecap="round"/><text x="130" y="13.52" font-size="10.88" font-weight="600" text-anchor="middle" fill="#111">6</text><text x="90" y="93.52" font-size="10.88" font-weight="600" text-anchor="middle" fill="#111">67</text><path d="M 125.52 45.52 L 134.48 54.48 M 134.48 45.52 L 125.52 54.48" fill="none" stroke="#111" stroke-width="1" stroke-linejoin="round" stroke-linecap="round"/><path d="M 70 93.52 L 70 84.88 M 67.12 87.76 L 70 84.88 L 72.88 87.76" fill="none" stroke="#111" stroke-width="1" stroke-linejoin="round" stroke-linecap="round"/><text x="70" y="13.52" font-size="10.88" font-weight="600" text-anchor="middle" fill="#111">5</text></g><rect x="20" y="114" width="120" height="100" fill="none" stroke="#111" stroke-width="0.60"/><path d="M 40 114 L 40 214" stroke="#111" stroke-width="0.35" fill="none"/><path d="M 60 114 L 60 214" stroke="#111" stroke-width="0.35" fill="none"/><path d="M 80 114 L 80 214" stroke="#111" stroke-width="0.35" fill="none"/><path d="M 100 114 L 100 214" stroke="#111" stroke-width="0.35" fill="none"/><path d="M 120 114 L 120 214" stroke="#111" stroke-width="0.35" fill="none"/><path d="M 20 134 L 140 134" stroke="#111" stroke-width="0.35" fill="none"/><path d="M 20 154 L 140 154" stroke="#111" stroke-width="0.35" fill="none"/><path d="M 20 174 L 140 174" stroke="#111" stroke-width="0.35" fill="none"/><path d="M 20 194 L 140 194" stroke="#111" stroke-width="0.35" fill="none"/><g opacity="0.85"><g transform="translate(0 114)"><text x="50" y="53.52" font-size="10.88" font-weight="600" text-anchor="middle" fill="#d33">11</text><path d="M 67.76 44.879999999999995 L 67.76 55.120000000000005 M 72.24 44.879999999999995 L 72.24 55.120000000000005 M 64.88 48.08 L 75.12 48.08 M 64.88 51.92 L 75.12 51.92" fill="none" stroke="#d33" stroke-width="1" stroke-linejoin="round" stroke-linecap="round"/><path d="M 90 73.52 L 90 64.88 M 87.12 67.76 L 90 64.88 L 92.88 67.76" fill="none" stroke="#d33" stroke-width="1" stroke-linejoin="round" stroke-linecap="round"/><text x="30" y="13.52" font-size="10.88" font-weight="600" text-anchor="middle" fill="#d33">46</text><circle cx="50" cy="90" r="4.80" fill="none" stroke="#d33" stroke-width="1" stroke-linejoin="round" stroke-linecap="round"/><circle cx="48.21" cy="88.85" r="0.70" fill="#d33"/><circle cx="51.79" cy="88.85" r="0.70" fill="#d33"/><path d="M 47.76 91.28 Q 50 93.52 52.24 91.28" fill="none" stroke="#d33" stroke-width="1" stroke-linejoin="round" stroke-linecap="round"/><circle cx="110" cy="30" r="4.80" fill="none" stroke="#d33" stroke-width="1" stroke-linejoin="round" stroke-linecap="round"/><circle cx="108.21" cy="28.85" r="0.70" fill="#d33"/><circle cx="111.79" cy="28.85" r="0.70" fill="#d33"/><path d="M 107.76 31.28 Q 110 33.52 112.24 31.28" fill="none" stroke="#d33" stroke-width="1" stroke-linejoin="round" stroke-linecap="round"/><path d="M 107.76 64.88 L 107.76 75.12 M 112.24 64.88 L 112.24 75.12 M 104.88 68.08 L 115.12 68.08 M 104.88 71.92 L 115.12 71.92" fill="none" stroke="#d33" stroke-width="1" stroke-linejoin="round" stroke-linecap="round"/><text x="90" y="53.52" font-size="10.88" font-weight="600" text-anchor="middle" fill="#d33">81</text><text x="30" y="93.52" font-size="10.88" font-weight="600" text-anchor="middle" fill="#d33">3</text><path d="M 105.52 85.52 L 114.48 94.48 M 114.48 85.52 L 105.52 94.48" fill="none" stroke="#d33" stroke-width="1" stroke-linejoin="round" stroke-linecap="round"/><circle cx="30" cy="30" r="4.48" fill="none" stroke="#d33" stroke-width="1" stroke-linejoin="round" stroke-linecap="round"/><text x="70" y="73.52" font-size="10.88" font-weight="600" text-anchor="middle" fill="#d33">56</text><text x="70" y="33.52" font-size="10.88" font-weight="600" text-anchor="middle" fill="#d33">5</text><text x="110" y="53.52" font-size="10.88" font-weight="600" text-anchor="middle" fill="#d33">1</text><path d="M 30 73.52 L 30 64.88 M 27.12 67.76 L 30 64.88 L 32.88 67.76" fill="none" stroke="#d33" stroke-width="1" stroke-linejoin="round" stroke-linecap="round"/><path d="M 125.52 65.52 L 134.48 74.48 M 134.48 65.52 L 125.52 74.48" fill="none" stroke="#d33" stroke-width="1" stroke-linejoin="round" stroke-linecap="round"/><circle cx="50" cy="30" r="4.48" fill="none" stroke="#d33" stroke-width="1" stroke-linejoin="round" stroke-linecap="round"/><path d="M 50 13.52 L 50 4.879999999999999 M 47.12 7.76 L 50 4.879999999999999 L 52.88 7.76" fill="none" stroke="#d33" stroke-width="1" stroke-linejoin="round" stroke-linecap="round"/><text x="130" y="13.52" font-size="10.88" font-weight="600" text-anchor="middle" fill="#d33">6</text><text x="90" y="93.52" font-size="10.88" font-weight="600" text-anchor="middle" fill="#d33">67</text><path d="M 125.52 45.52 L 134.48 54.48 M 134.48 45.52 L 125.52 54.48" fill="none" stroke="#d33" stroke-width="1" stroke-linejoin="round" stroke-linecap="round"/><path d="M 70 93.52 L 70 84.88 M 67.12 87.76 L 70 84.88 L 72.88 87.76" fill="none" stroke="#d33" stroke-width="1" stroke-linejoin="round" stroke-linecap="round"/><text x="70" y="13.52" font-size="10.88" font-weight="600" text-anchor="middle" fill="#d33">5</text></g></g></g></g>
  <text x="105" y="291" font-size="3" fill="#bbb" text-anchor="middle">BrainForge Kids · 383a204e</text>
</svg>