<svg xmlns="http://www.w3.org/2000/svg" width="210mm" height="297mm" viewBox="0 0 210 297" font-family="system-ui, -apple-system, sans-serif">
  <rect width="210" height="297" fill="#fff"/>
  <text x="14" y="20" font-size="6.5" font-weight="600" fill="#111">Rácsmásolás</text>
  <text x="196" y="20" font-size="3.6" fill="#888" text-anchor="end">Zoé  ·  2026. jan. 1.</text>
  <text x="14" y="28" font-size="4.2" fill="#444">Másold át a felső rácsot az alsó üres rácsba!</text>
  <line x1="14" y1="32" x2="196" y2="32" stroke="#e5e5e5" stroke-width="0.3"/>
  
  <g transform="translate(17.15 40.00) scale(1.0981)"><g ><rect x="20" y="0" width="120" height="100" fill="none" stroke="#111" stroke-width="0.90"/><path d="M 40 0 L 40 100" stroke="#111" stroke-width="0.35" fill="none"/><path d="M 60 0 L 60 100" stroke="#111" stroke-width="0.35" fill="none"/><path d="M 80 0 L 80 100" stroke="#111" stroke-width="0.35" fill="none"/><path d="M 100 0 L 100 100" stroke="#111" stroke-width="0.35" fill="none"/><path d="M 120 0 L 120 100" stroke="#111" stroke-width="0.35" fill="none"/><path d="M 20 20 L 140 20" stroke="#111" stroke-width="0.35" fill="none"/><path d="M 20 40 L 140 40" stroke="#111" stroke-width="0.35" fill="none"/><path d="M 20 60 L 140 60" stroke="#111" stroke-width="0.35" fill="none"/><path d="M 20 80 L 140 80" stroke="#111" stroke-width="0.35" fill="none"/><g ><text x="90" y="93.52" font-size="10.88" font-weight="600" text-anchor="middle" fill="#111">3</text><path d="M 64.88 11.92 L 68.08 7.4399999999999995 L 70.64 11.92 L 75.12 7.4399999999999995" fill="none" stroke="#111" stroke-width="1" stroke-linejoin="round" stroke-linecap="round"/><path d="M 24.88 71.92 L 28.08 67.44 L 30.64 71.92 L 35.120000000000005 67.44" fill="none" stroke="#111" stroke-width="1" stroke-linejoin="round" stroke-linecap="round"/><text x="130" y="93.52" font-size="10.88" font-weight="600" text-anchor="middle" fill="#111">82</text><text x="90" y="53.52" font-size="10.88" font-weight="600" text-anchor="middle" fill="#111">60</text><path d="M 84.88 31.92 L 88.08 27.439999999999998 L 90.64 31.92 L 95.12 27.439999999999998" fill="none" stroke="#111" stroke-width="1" stroke-linejoin="round" stroke-linecap="round"/><text x="110" y="53.52" font-size="10.88" font-weight="600" text-anchor="middle" fill="#111">97</text><circle cx="50" cy="50" r="4.80" fill="none" stroke="#111" stroke-width="1" stroke-linejoin="round" stroke-linecap="round"/><circle cx="48.21" cy="48.85" r="0.70" fill="#111"/><circle cx="51.79" cy="48.85" r="0.70" fill="#111"/><path d="M 47.76 51.28 Q 50 53.52 52.24 51.28" fill="none" stroke="#111" stroke-width="1" stroke-linejoin="round" stroke-linecap="round"/><circle cx="70" cy="50" r="4.48" fill="none" stroke="#111" stroke-width="1" stroke-linejoin="round" stroke-linecap="round"/><text x="110" y="33.52" font-size="10.88" font-weight="600" text-anchor="middle" fill="#111">5</text><text x="50" y="33.52" font-size="10.88" font-weight="600" text-anchor="middle" fill="#111">97</text><circle cx="107.44" cy="90" r="1" fill="#111"/><circle cx="110" cy="90" r="1" fill="#111"/><circle cx="112.56" cy="90" r="1" fill="#111"/><circle cx="47.44" cy="90" r="1" fill="#111"/><circle cx="50" cy="90" r="1" fill="#111"/><circle cx="52.56" cy="90" r="1" fill="#111"/><circle cx="30" cy="50" r="4.80" fill="none" stroke="#111" stroke-width="1" stroke-linejoin="round" stroke-linecap="round"/><circle cx="28.21" cy="48.85" r="0.70" fill="#111"/><circle cx="31.79" cy="48.85" r="0.70" fill="#111"/><path d="M 27.76 51.28 Q 30 53.52 32.24 51.28" fill="none" stroke="#111" stroke-width="1" stroke-linejoin="round" stroke-linecap="round"/><text x="130" y="53.52" font-size="10.88" font-weight="600" text-anchor="middle" fill="#111">7</text><path d="M 47.76 64.88 L 47.76 75.12 M 52.24 64.88 L 52.24 75.12 M 44.879999999999995 68.08 L 55.120000000000005 68.08 M 44.879999999999995 71.92 L 55.120000000000005 71.92" fill="none" stroke="#111" stroke-width="1" stroke-linejoin="round" stroke-linecap="round"/><path d="M 125.52 25.52 L 134.48 34.48 M 134.48 25.52 L 125.52 34.48" fill="none" stroke="#111" stroke-width="1" stroke-linejoin="round" stroke-linecap="round"/><text x="30" y="93.52" font-size="10.88" font-weight="600" text-anchor="middle" fill="#111">45</text><text x="130" y="73.52" font-size="10.88" font-weight="600" text-anchor="middle" fill="#111">75</text><path d="M 70 24.88 L 74.8 33.84 L 65.2 33.84 Z" fill="none" stroke="#111" stroke-width="1" stroke-linejoin="round" stroke-linecap="round"/><text x="30" y="13.52" font-size="10.88" font-weight="600" text-anchor="middle" fill="#111">6</text><path d="M 85.52 65.52 L 94.48 74.48 M 94.48 65.52 L 85.52 74.48" fill="none" stroke="#111" stroke-width="1" stroke-linejoin="round" stroke-linecap="round"/><text x="110" y="73.52" font-size="10.88" font-weight="600" text-anchor="middle" fill="#111">36</text></g><rect x="20" y="114" width="120" height="100" fill="none" stroke="#111" stroke-width="0.60"/><path d="M 40 114 L 40 214" stroke="#111" stroke-width="0.35" fill="none"/><path d="M 60 114 L 60 214" stroke="#111" stroke-width="0.35" fill="none"/><path d="M 80 114 L 80 214" stroke="#111" stroke-width="0.35" fill="none"/><path d="M 100 114 L 100 214" stroke="#111" stroke-width="0.35" fill="none"/><path d="M 120 114 L 120 214" stroke="#111" stroke-width="0.35" fill="none"/><path d="M 20 134 L 140 134" stroke="#111" stroke-width="0.35" fill="none"/><path d="M 20 154 L 140 154" stroke="#111" stroke-width="0.35" fill="none"/><path d="M 20 174 L 140 174" stroke="#111" stroke-width="0.35" fill="none"/><path d="M 20 194 L 140 194" stroke="#111" stroke-width="0.35" fill="none"/></g></g>
  <text x="105" y="291" font-size="3" fill="#bbb" text-anchor="middle">BrainForge Kids · demo-gri</text>
</svg>