<svg xmlns="http://www.w3.org/2000/svg" width="210mm" height="297mm" viewBox="0 0 210 297" font-family="system-ui, -apple-system, sans-serif">
  <rect width="210" height="297" fill="#fff"/>
  <text x="14" y="20" font-size="6.5" font-weight="600" fill="#111">Rejtett formák</text>
  <text x="196" y="20" font-size="3.6" fill="#888" text-anchor="end">Bence  ·  2026. jan. 1.</text>
  <text x="14" y="28" font-size="4.2" fill="#444">Keresd meg és karikázd be a fenti formákat! Számold meg őket.</text>
  <line x1="14" y1="32" x2="196" y2="32" stroke="#e5e5e5" stroke-width="0.3"/>
  
  <g transform="translate(14.00 40.00) scale(1.0581)"><g ><path d="M 5.76 4 h 16 v 16 h -16 Z" fill="none" stroke="#111" stroke-width="1.10" stroke-linejoin="round" stroke-linecap="round" rx="1.28"/><rect x="22.36" y="5" width="14" height="14" fill="none" stroke="#111" stroke-width="0.80" rx="2"/><path d="M 56.76,4.00 L 58.88,9.09 L 64.37,9.53 L 60.18,13.11 L 61.46,18.47 L 56.76,15.60 L 52.06,18.47 L 53.34,13.11 L 49.15,9.53 L 54.64,9.09 Z" fill="none" stroke="#111" stroke-width="1.10" stroke-linejoin="round" stroke-linecap="round"/><rect x="65.36" y="5" width="14" height="14" fill="none" stroke="#111" stroke-width="0.80" rx="2"/><path d="M 91.76 16 a 4 4 0 0 1 1.2 -7.6 a 4.4 4.4 0 0 1 7.6 -0.8 a 4 4 0 0 1 7.2 4.4 a 3.2 3.2 0 0 1 -1.6 4 Z" fill="none" stroke="#111" stroke-width="1.10" stroke-linejoin="round" stroke-linecap="round"/><rect x="108.36" y="5" width="14" height="14" fill="none" stroke="#111" stroke-width="0.80" rx="2"/><path d="M 142.76 4 L 150.76 18.8 L 134.76 18.8 Z" fill="none" stroke="#111" stroke-width="1.10" stroke-linejoin="round" stroke-linecap="round"/><rect x="151.36" y="5" width="14" height="14" fill="none" stroke="#111" stroke-width="0.80" rx="2"/><line x1="0" y1="24" x2="172" y2="24" stroke="#e5e5e5" stroke-width="0.4"/><g transform="rotate(-22 128 133)"><path d="M 128 147 C 108.4 131.6, 118.2 117.6, 128 128.1 C 137.8 117.6, 147.6 131.6, 128 147 Z" fill="none" stroke="#111" stroke-width="1" stroke-linejoin="round" stroke-linecap="round"/></g><g transform="rotate(0 62 75)"><path d="M 62.00,61.00 L 65.70,69.90 L 75.31,70.67 L 67.99,76.95 L 70.23,86.33 L 62.00,81.30 L 53.77,86.33 L 56.01,76.95 L 48.69,70.67 L 58.30,69.90 Z" fill="none" stroke="#111" stroke-width="1" stroke-linejoin="round" stroke-linecap="round"/></g><g transform="rotate(24 34 95)"><path d="M 39.6 82.4 A 14 14 0 1 0 39.6 107.6 A 10.08 10.08 0 1 1 39.6 82.4 Z" fill="none" stroke="#111" stroke-width="1" stroke-linejoin="round" stroke-linecap="round"/></g><g transform="rotate(-19 150 186)"><path d="M 136 186 C 143 175.5, 157 175.5, 158.4 186 C 157 196.5, 143 196.5, 136 186 Z" fill="none" stroke="#111" stroke-width="1" stroke-linejoin="round" stroke-linecap="round"/><path d="M 157.7 186 L 164 179 L 164 193 Z" fill="none" stroke="#111" stroke-width="1" stroke-linejoin="round" stroke-linecap="round"/></g><g transform="rotate(5 17 170)"><path d="M 3 156 h 28 v 28 h -28 Z" fill="none" stroke="#111" stroke-width="1" stroke-linejoin="round" stroke-linecap="round" rx="2.24"/></g><g transform="rotate(-9 44 70)"><circle cx="44" cy="70" r="13" fill="none" stroke="#111" stroke-width="1" stroke-linejoin="round" stroke-linecap="round"/></g><g transform="rotate(-23 152 120)"><path d="M 140 126 a 6 6 0 0 1 1.7999999999999998 -11.399999999999999 a 6.6000000000000005 6.6000000000000005 0 0 1 11.399999999999999 -1.2000000000000002 a 6 6 0 0 1 10.8 6.6000000000000005 a 4.800000000000001 4.800000000000001 0 0 1 -2.4000000000000004 6 Z" fill="none" stroke="#111" stroke-width="1" stroke-linejoin="round" stroke-linecap="round"/></g><g transform="rotate(11 46 94)"><path d="M 46 80 L 60 105.9 L 32 105.9 Z" fill="none" stroke="#111" stroke-width="1" stroke-linejoin="round" stroke-linecap="round"/></g><g transform="rotate(8 71 148)"><path d="M 71 137 L 82 157.35 L 60 157.35 Z" fill="none" stroke="#111" stroke-width="1" stroke-linejoin="round" stroke-linecap="round"/></g><g transform="rotate(-9 62 66)"><path d="M 50 54 h 24 v 24 h -24 Z" fill="none" stroke="#111" stroke-width="1" stroke-linejoin="round" stroke-linecap="round" rx="1.92"/></g><g transform="rotate(8 126 68)"><path d="M 126.00,55.00 L 129.44,63.27 L 138.36,63.98 L 131.56,69.81 L 133.64,78.52 L 126.00,73.85 L 118.36,78.52 L 120.44,69.81 L 113.64,63.98 L 122.56,63.27 Z" fill="none" stroke="#111" stroke-width="1" stroke-linejoin="round" stroke-linecap="round"/></g><g transform="rotate(23 76 74)"><path d="M 76 64 L 86 82.5 L 66 82.5 Z" fill="none" stroke="#111" stroke-width="1" stroke-linejoin="round" stroke-linecap="round"/></g><g transform="rotate(22 161 64)"><path d="M 152 64 C 156.5 57.25, 165.5 57.25, 166.4 64 C 165.5 70.75, 156.5 70.75, 152 64 Z" fill="none" stroke="#111" stroke-width="1" stroke-linejoin="round" stroke-linecap="round"/><path d="M 165.95 64 L 170 59.5 L 170 68.5 Z" fill="none" stroke="#111" stroke-width="1" stroke-linejoin="round" stroke-linecap="round"/></g><g transform="rotate(15 114 118)"><path d="M 102 124 a 6 6 0 0 1 1.7999999999999998 -11.399999999999999 a 6.6000000000000005 6.6000000000000005 0 0 1 11.399999999999999 -1.2000000000000002 a 6 6 0 0 1 10.8 6.6000000000000005 a 4.800000000000001 4.800000000000001 0 0 1 -2.4000000000000004 6 Z" fill="none" stroke="#111" stroke-width="1" stroke-linejoin="round" stroke-linecap="round"/></g><g transform="rotate(24 23 49)"><circle cx="23" cy="49" r="12" fill="none" stroke="#111" stroke-width="1" stroke-linejoin="round" stroke-linecap="round"/></g><g transform="rotate(17 45 89)"><circle cx="53.40" cy="89" r="5.88" fill="none" stroke="#111" stroke-width="1" stroke-linejoin="round" stroke-linecap="round"/><circle cx="49.20" cy="96.27" r="5.88" fill="none" stroke="#111" stroke-width="1" stroke-linejoin="round" stroke-linecap="round"/><circle cx="40.80" cy="96.27" r="5.88" fill="none" stroke="#111" stroke-width="1" stroke-linejoin="round" stroke-linecap="round"/><circle cx="36.60" cy="89" r="5.88" fill="none" stroke="#111" stroke-width="1" stroke-linejoin="round" stroke-linecap="round"/><circle cx="40.80" cy="81.73" r="5.88" fill="none" stroke="#111" stroke-width="1" stroke-linejoin="round" stroke-linecap="round"/><circle cx="49.20" cy="81.73" r="5.88" fill="none" stroke="#111" stroke-width="1" stroke-linejoin="round" stroke-linecap="round"/><circle cx="45" cy="89" r="4.76" fill="none" stroke="#111" stroke-width="1" stroke-linejoin="round" stroke-linecap="round"/></g><g transform="rotate(7 60 39)"><path d="M 49 46.7 L 49 36.25 L 60 28 L 71 36.25 L 71 46.7 Z" fill="none" stroke="#111" stroke-width="1" stroke-linejoin="round" stroke-linecap="round"/></g><g transform="rotate(19 18 138)"><circle cx="18" cy="138" r="10" fill="none" stroke="#111" stroke-width="1" stroke-linejoin="round" stroke-linecap="round"/></g><g transform="rotate(25 65 45)"><path d="M 65 32 L 78 45 L 65 58 L 52 45 Z" fill="none" stroke="#111" stroke-width="1" stroke-linejoin="round" stroke-linecap="round"/></g><g transform="rotate(-19 67 147)"><path d="M 53 154 a 7 7 0 0 1 2.1 -13.299999999999999 a 7.700000000000001 7.700000000000001 0 0 1 13.299999999999999 -1.4000000000000001 a 7 7 0 0 1 12.6 7.700000000000001 a 5.6000000000000005 5.6000000000000005 0 0 1 -2.8000000000000003 7 Z" fill="none" stroke="#111" stroke-width="1" stroke-linejoin="round" stroke-linecap="round"/></g><g transform="rotate(13 46 138)"><path d="M 46.00,125.00 L 49.44,133.27 L 58.36,133.98 L 51.56,139.81 L 53.64,148.52 L 46.00,143.85 L 38.36,148.52 L 40.44,139.81 L 33.64,133.98 L 42.56,133.27 Z" fill="none" stroke="#111" stroke-width="1" stroke-linejoin="round" stroke-linecap="round"/></g><g transform="rotate(-2 19 94)"><path d="M 19 82 L 31 104.2 L 7 104.2 Z" fill="none" stroke="#111" stroke-width="1" stroke-linejoin="round" stroke-linecap="round"/></g><g transform="rotate(12 35 135)"><path d="M 21 142 a 7 7 0 0 1 2.1 -13.299999999999999 a 7.700000000000001 7.700000000000001 0 0 1 13.299999999999999 -1.4000000000000001 a 7 7 0 0 1 12.6 7.700000000000001 a 5.6000000000000005 5.6000000000000005 0 0 1 -2.8000000000000003 7 Z" fill="none" stroke="#111" stroke-width="1" stroke-linejoin="round" stroke-linecap="round"/></g><g transform="rotate(-17 100 127)"><path d="M 86 136.8 L 86 123.5 L 100 113 L 114 123.5 L 114 136.8 Z" fill="none" stroke="#111" stroke-width="1" stroke-linejoin="round" stroke-linecap="round"/></g><g transform="rotate(2 71 85)"><path d="M 71.00,72.00 L 74.44,80.27 L 83.36,80.98 L 76.56,86.81 L 78.64,95.52 L 71.00,90.85 L 63.36,95.52 L 65.44,86.81 L 58.64,80.98 L 67.56,80.27 Z" fill="none" stroke="#111" stroke-width="1" stroke-linejoin="round" stroke-linecap="round"/></g><g transform="rotate(20 103 163)"><path d="M 93 170 L 93 160.5 L 103 153 L 113 160.5 L 113 170 Z" fill="none" stroke="#111" stroke-width="1" stroke-linejoin="round" stroke-linecap="round"/></g><g transform="rotate(-25 27 151)"><path d="M 13 137 h 28 v 28 h -28 Z" fill="none" stroke="#111" stroke-width="1" stroke-linejoin="round" stroke-linecap="round" rx="2.24"/></g><g transform="rotate(11 122 88)"><path d="M 108 95 a 7 7 0 0 1 2.1 -13.299999999999999 a 7.700000000000001 7.700000000000001 0 0 1 13.299999999999999 -1.4000000000000001 a 7 7 0 0 1 12.6 7.700000000000001 a 5.6000000000000005 5.6000000000000005 0 0 1 -2.8000000000000003 7 Z" fill="none" stroke="#111" stroke-width="1" stroke-linejoin="round" stroke-linecap="round"/></g><g transform="rotate(20 21 93)"><path d="M 7 79 h 28 v 28 h -28 Z" fill="none" stroke="#111" stroke-width="1" stroke-linejoin="round" stroke-linecap="round" rx="2.24"/></g><g transform="rotate(-22 79 55)"><path d="M 79.00,42.00 L 82.44,50.27 L 91.36,50.98 L 84.56,56.81 L 86.64,65.52 L 79.00,60.85 L 71.36,65.52 L 73.44,56.81 L 66.64,50.98 L 75.56,50.27 Z" fill="none" stroke="#111" stroke-width="1" stroke-linejoin="round" stroke-linecap="round"/></g><g transform="rotate(8 29 45)"><path d="M 29 56 C 13.600000000000001 43.9, 21.3 32.9, 29 41.15 C 36.7 32.9, 44.4 43.9, 29 56 Z" fill="none" stroke="#111" stroke-width="1" stroke-linejoin="round" stroke-linecap="round"/></g><g transform="rotate(-14 154 61)"><path d="M 140 47 h 28 v 28 h -28 Z" fill="none" stroke="#111" stroke-width="1" stroke-linejoin="round" stroke-linecap="round" rx="2.24"/></g><g transform="rotate(14 75 146)"><path d="M 64 153.7 L 64 143.25 L 75 135 L 86 143.25 L 86 153.7 Z" fill="none" stroke="#111" stroke-width="1" stroke-linejoin="round" stroke-linecap="round"/></g><g transform="rotate(-14 113 153)"><path d="M 104 159.3 L 104 150.75 L 113 144 L 122 150.75 L 122 159.3 Z" fill="none" stroke="#111" stroke-width="1" stroke-linejoin="round" stroke-linecap="round"/></g><g transform="rotate(-4 132 85)"><path d="M 137.2 73.3 A 13 13 0 1 0 137.2 96.7 A 9.36 9.36 0 1 1 137.2 73.3 Z" fill="none" stroke="#111" stroke-width="1" stroke-linejoin="round" stroke-linecap="round"/></g><g transform="rotate(-7 27 108)"><path d="M 27 96 L 39 118.2 L 15 118.2 Z" fill="none" stroke="#111" stroke-width="1" stroke-linejoin="round" stroke-linecap="round"/></g><g transform="rotate(-18 54 66)"><path d="M 57.6 57.9 A 9 9 0 1 0 57.6 74.1 A 6.4799999999999995 6.4799999999999995 0 1 1 57.6 57.9 Z" fill="none" stroke="#111" stroke-width="1" stroke-linejoin="round" stroke-linecap="round"/></g><g transform="rotate(-18 58 51)"><circle cx="65.20" cy="51" r="5.04" fill="none" stroke="#111" stroke-width="1" stroke-linejoin="round" stroke-linecap="round"/><circle cx="61.60" cy="57.24" r="5.04" fill="none" stroke="#111" stroke-width="1" stroke-linejoin="round" stroke-linecap="round"/><circle cx="54.40" cy="57.24" r="5.04" fill="none" stroke="#111" stroke-width="1" stroke-linejoin="round" stroke-linecap="round"/><circle cx="50.80" cy="51" r="5.04" fill="none" stroke="#111" stroke-width="1" stroke-linejoin="round" stroke-linecap="round"/><circle cx="54.40" cy="44.76" r="5.04" fill="none" stroke="#111" stroke-width="1" stroke-linejoin="round" stroke-linecap="round"/><circle cx="61.60" cy="44.76" r="5.04" fill="none" stroke="#111" stroke-width="1" stroke-linejoin="round" stroke-linecap="round"/><circle cx="58" cy="51" r="4.08" fill="none" stroke="#111" stroke-width="1" stroke-linejoin="round" stroke-linecap="round"/></g></g></g>
  <text x="105" y="291" font-size="3" fill="#bbb" text-anchor="middle">Kalmo Kids · demo-hid</text>
</svg>