<svg xmlns="http://www.w3.org/2000/svg" width="210mm" height="297mm" viewBox="0 0 210 297" font-family="system-ui, -apple-system, sans-serif">
  <rect width="210" height="297" fill="#fff"/>
  <text x="14" y="20" font-size="6.5" font-weight="600" fill="#111">Rejtett formák</text>
  <text x="196" y="20" font-size="3.6" fill="#888" text-anchor="end">Bence  ·  2026. júl. 15.</text>
  <text x="14" y="28" font-size="4.2" fill="#444">Keresd meg és karikázd be a fenti formákat! Számold meg őket.</text>
  <line x1="14" y1="32" x2="196" y2="32" stroke="#e5e5e5" stroke-width="0.3"/>
  <text x="196" y="28" font-size="4" fill="#d33" text-anchor="end">Megoldókulcs</text>
  <g transform="translate(14.00 40.00) scale(1.0581)"><g ><path d="M 5.76 16 a 4 4 0 0 1 1.2 -7.6 a 4.4 4.4 0 0 1 7.6 -0.8 a 4 4 0 0 1 7.2 4.4 a 3.2 3.2 0 0 1 -1.6 4 Z" fill="none" stroke="#111" stroke-width="1.10" stroke-linejoin="round" stroke-linecap="round"/><rect x="22.36" y="5" width="14" height="14" fill="none" stroke="#d33" stroke-width="0.80" rx="2"/><text x="29.36" y="15.5" font-size="9" font-weight="700" text-anchor="middle" fill="#d33">5</text><circle cx="56.76" cy="12" r="4.40" fill="none" stroke="#111" stroke-width="1.10" stroke-linejoin="round" stroke-linecap="round"/><path d="M 62.36 12 L 64.75999999999999 12" fill="none" stroke="#111" stroke-width="1.10" stroke-linejoin="round" stroke-linecap="round"/><path d="M 60.71979797464466 15.959797974644665 L 62.41685424949238 17.65685424949238" fill="none" stroke="#111" stroke-width="1.10" stroke-linejoin="round" stroke-linecap="round"/><path d="M 56.76 17.6 L 56.76 20" fill="none" stroke="#111" stroke-width="1.10" stroke-linejoin="round" stroke-linecap="round"/><path d="M 52.80020202535533 15.959797974644665 L 51.10314575050762 17.65685424949238" fill="none" stroke="#111" stroke-width="1.10" stroke-linejoin="round" stroke-linecap="round"/><path d="M 51.16 12 L 48.76 12.000000000000002" fill="none" stroke="#111" stroke-width="1.10" stroke-linejoin="round" stroke-linecap="round"/><path d="M 52.80020202535533 8.040202025355335 L 51.103145750507615 6.34314575050762" fill="none" stroke="#111" stroke-width="1.10" stroke-linejoin="round" stroke-linecap="round"/><path d="M 56.76 6.4 L 56.76 4" fill="none" stroke="#111" stroke-width="1.10" stroke-linejoin="round" stroke-linecap="round"/><path d="M 60.71979797464466 8.040202025355333 L 62.416854249492374 6.3431457505076185" fill="none" stroke="#111" stroke-width="1.10" stroke-linejoin="round" stroke-linecap="round"/><rect x="65.36" y="5" width="14" height="14" fill="none" stroke="#d33" stroke-width="0.80" rx="2"/><text x="72.36" y="15.5" font-size="9" font-weight="700" text-anchor="middle" fill="#d33">5</text><path d="M 91.76 4 h 16 v 16 h -16 Z" fill="none" stroke="#111" stroke-width="1.10" stroke-linejoin="round" stroke-linecap="round" rx="1.28"/><rect x="108.36" y="5" width="14" height="14" fill="none" stroke="#d33" stroke-width="0.80" rx="2"/><text x="115.36" y="15.5" font-size="9" font-weight="700" text-anchor="middle" fill="#d33">5</text><path d="M 142.76 4 L 150.76 12 L 142.76 20 L 134.76 12 Z" fill="none" stroke="#111" stroke-width="1.10" stroke-linejoin="round" stroke-linecap="round"/><rect x="151.36" y="5" width="14" height="14" fill="none" stroke="#d33" stroke-width="0.80" rx="2"/><text x="158.36" y="15.5" font-size="9" font-weight="700" text-anchor="middle" fill="#d33">5</text><line x1="0" y1="24" x2="172" y2="24" stroke="#e5e5e5" stroke-width="0.4"/><g transform="rotate(24 13 135)"><path d="M 13 123 L 25 135 L 13 147 L 1 135 Z" fill="none" stroke="#111" stroke-width="1" stroke-linejoin="round" stroke-linecap="round"/></g><g transform="rotate(14 119 37)"><path d="M 119 48 C 103.6 35.9, 111.3 24.9, 119 33.15 C 126.7 24.9, 134.4 35.9, 119 48 Z" fill="none" stroke="#111" stroke-width="1" stroke-linejoin="round" stroke-linecap="round"/></g><g transform="rotate(11 38 127)"><path d="M 27 132.5 a 5.5 5.5 0 0 1 1.65 -10.45 a 6.050000000000001 6.050000000000001 0 0 1 10.45 -1.1 a 5.5 5.5 0 0 1 9.9 6.050000000000001 a 4.4 4.4 0 0 1 -2.2 5.5 Z" fill="none" stroke="#111" stroke-width="1" stroke-linejoin="round" stroke-linecap="round"/></g><g transform="rotate(-21 58 89)"><path d="M 58 98 C 45.4 88.1, 51.7 79.1, 58 85.85 C 64.3 79.1, 70.6 88.1, 58 98 Z" fill="none" stroke="#111" stroke-width="1" stroke-linejoin="round" stroke-linecap="round"/></g><g transform="rotate(1 113 187)"><path d="M 117.8 176.2 A 12 12 0 1 0 117.8 197.8 A 8.64 8.64 0 1 1 117.8 176.2 Z" fill="none" stroke="#111" stroke-width="1" stroke-linejoin="round" stroke-linecap="round"/></g><g transform="rotate(-1 148 107)"><circle cx="148" cy="107" r="7.15" fill="none" stroke="#111" stroke-width="1" stroke-linejoin="round" stroke-linecap="round"/><path d="M 157.1 107 L 161 107" fill="none" stroke="#111" stroke-width="1" stroke-linejoin="round" stroke-linecap="round"/><path d="M 154.4346717087976 113.43467170879758 L 157.1923881554251 116.19238815542512" fill="none" stroke="#111" stroke-width="1" stroke-linejoin="round" stroke-linecap="round"/><path d="M 148 116.1 L 148 120" fill="none" stroke="#111" stroke-width="1" stroke-linejoin="round" stroke-linecap="round"/><path d="M 141.5653282912024 113.43467170879758 L 138.8076118445749 116.19238815542512" fill="none" stroke="#111" stroke-width="1" stroke-linejoin="round" stroke-linecap="round"/><path d="M 138.9 107 L 135 107" fill="none" stroke="#111" stroke-width="1" stroke-linejoin="round" stroke-linecap="round"/><path d="M 141.5653282912024 100.56532829120242 L 138.8076118445749 97.80761184457488" fill="none" stroke="#111" stroke-width="1" stroke-linejoin="round" stroke-linecap="round"/><path d="M 148 97.9 L 148 94" fill="none" stroke="#111" stroke-width="1" stroke-linejoin="round" stroke-linecap="round"/><path d="M 154.43467170879757 100.56532829120242 L 157.1923881554251 97.80761184457488" fill="none" stroke="#111" stroke-width="1" stroke-linejoin="round" stroke-linecap="round"/></g><g transform="rotate(-3 38 65)"><path d="M 38 53 L 50 75.2 L 26 75.2 Z" fill="none" stroke="#111" stroke-width="1" stroke-linejoin="round" stroke-linecap="round"/></g><g transform="rotate(-16 89 107)"><path d="M 80 111.5 a 4.5 4.5 0 0 1 1.3499999999999999 -8.549999999999999 a 4.95 4.95 0 0 1 8.549999999999999 -0.9 a 4.5 4.5 0 0 1 8.1 4.95 a 3.6 3.6 0 0 1 -1.8 4.5 Z" fill="none" stroke="#111" stroke-width="1" stroke-linejoin="round" stroke-linecap="round"/></g><g transform="rotate(-13 138 75)"><path d="M 143.2 63.3 A 13 13 0 1 0 143.2 86.7 A 9.36 9.36 0 1 1 143.2 63.3 Z" fill="none" stroke="#111" stroke-width="1" stroke-linejoin="round" stroke-linecap="round"/></g><g transform="rotate(3 154 175)"><path d="M 154.00,161.00 L 157.70,169.90 L 167.31,170.67 L 159.99,176.95 L 162.23,186.33 L 154.00,181.30 L 145.77,186.33 L 148.01,176.95 L 140.69,170.67 L 150.30,169.90 Z" fill="none" stroke="#111" stroke-width="1" stroke-linejoin="round" stroke-linecap="round"/></g><g transform="rotate(13 22 173)"><circle cx="22" cy="173" r="6.05" fill="none" stroke="#111" stroke-width="1" stroke-linejoin="round" stroke-linecap="round"/><path d="M 29.7 173 L 33 173" fill="none" stroke="#111" stroke-width="1" stroke-linejoin="round" stroke-linecap="round"/><path d="M 27.444722215136416 178.4447222151364 L 29.77817459305202 180.77817459305203" fill="none" stroke="#111" stroke-width="1" stroke-linejoin="round" stroke-linecap="round"/><path d="M 22 180.7 L 22 184" fill="none" stroke="#111" stroke-width="1" stroke-linejoin="round" stroke-linecap="round"/><path d="M 16.555277784863584 178.4447222151364 L 14.221825406947978 180.77817459305203" fill="none" stroke="#111" stroke-width="1" stroke-linejoin="round" stroke-linecap="round"/><path d="M 14.3 173 L 11 173" fill="none" stroke="#111" stroke-width="1" stroke-linejoin="round" stroke-linecap="round"/><path d="M 16.555277784863584 167.5552777848636 L 14.221825406947975 165.22182540694797" fill="none" stroke="#111" stroke-width="1" stroke-linejoin="round" stroke-linecap="round"/><path d="M 22 165.3 L 21.999999999999996 162" fill="none" stroke="#111" stroke-width="1" stroke-linejoin="round" stroke-linecap="round"/><path d="M 27.444722215136416 167.5552777848636 L 29.77817459305202 165.22182540694797" fill="none" stroke="#111" stroke-width="1" stroke-linejoin="round" stroke-linecap="round"/></g><g transform="rotate(22 111 152)"><path d="M 97 138 h 28 v 28 h -28 Z" fill="none" stroke="#111" stroke-width="1" stroke-linejoin="round" stroke-linecap="round" rx="2.24"/></g><g transform="rotate(4 155 185)"><path d="M 145 190 a 5 5 0 0 1 1.5 -9.5 a 5.5 5.5 0 0 1 9.5 -1 a 5 5 0 0 1 9 5.5 a 4 4 0 0 1 -2 5 Z" fill="none" stroke="#111" stroke-width="1" stroke-linejoin="round" stroke-linecap="round"/></g><g transform="rotate(-15 14 186)"><path d="M 14 174 L 26 186 L 14 198 L 2 186 Z" fill="none" stroke="#111" stroke-width="1" stroke-linejoin="round" stroke-linecap="round"/></g><g transform="rotate(-24 55 83)"><path d="M 55 72 L 66 92.35 L 44 92.35 Z" fill="none" stroke="#111" stroke-width="1" stroke-linejoin="round" stroke-linecap="round"/></g><g transform="rotate(-2 149 175)"><path d="M 140 166 h 18 v 18 h -18 Z" fill="none" stroke="#111" stroke-width="1" stroke-linejoin="round" stroke-linecap="round" rx="1.44"/></g><g transform="rotate(6 116 79)"><circle cx="116" cy="79" r="14" fill="none" stroke="#111" stroke-width="1" stroke-linejoin="round" stroke-linecap="round"/></g><g transform="rotate(10 74 109)"><circle cx="74" cy="109" r="12" fill="none" stroke="#111" stroke-width="1" stroke-linejoin="round" stroke-linecap="round"/></g><g transform="rotate(-2 70 156)"><path d="M 60 161 a 5 5 0 0 1 1.5 -9.5 a 5.5 5.5 0 0 1 9.5 -1 a 5 5 0 0 1 9 5.5 a 4 4 0 0 1 -2 5 Z" fill="none" stroke="#111" stroke-width="1" stroke-linejoin="round" stroke-linecap="round"/></g><g transform="rotate(-18 88 137)"><path d="M 77 137 C 82.5 128.75, 93.5 128.75, 94.6 137 C 93.5 145.25, 82.5 145.25, 77 137 Z" fill="none" stroke="#111" stroke-width="1" stroke-linejoin="round" stroke-linecap="round"/><path d="M 94.05 137 L 99 131.5 L 99 142.5 Z" fill="none" stroke="#111" stroke-width="1" stroke-linejoin="round" stroke-linecap="round"/></g><g transform="rotate(-22 45 75)"><circle cx="45" cy="75" r="7.70" fill="none" stroke="#111" stroke-width="1" stroke-linejoin="round" stroke-linecap="round"/><path d="M 54.8 75 L 59 75" fill="none" stroke="#111" stroke-width="1" stroke-linejoin="round" stroke-linecap="round"/><path d="M 51.929646455628166 81.92964645562816 L 54.89949493661167 84.89949493661166" fill="none" stroke="#111" stroke-width="1" stroke-linejoin="round" stroke-linecap="round"/><path d="M 45 84.8 L 45 89" fill="none" stroke="#111" stroke-width="1" stroke-linejoin="round" stroke-linecap="round"/><path d="M 38.070353544371834 81.92964645562816 L 35.10050506338834 84.89949493661166" fill="none" stroke="#111" stroke-width="1" stroke-linejoin="round" stroke-linecap="round"/><path d="M 35.2 75 L 31 75" fill="none" stroke="#111" stroke-width="1" stroke-linejoin="round" stroke-linecap="round"/><path d="M 38.070353544371834 68.07035354437184 L 35.10050506338833 65.10050506338834" fill="none" stroke="#111" stroke-width="1" stroke-linejoin="round" stroke-linecap="round"/><path d="M 45 65.2 L 45 61" fill="none" stroke="#111" stroke-width="1" stroke-linejoin="round" stroke-linecap="round"/><path d="M 51.929646455628166 68.07035354437184 L 54.89949493661166 65.10050506338834" fill="none" stroke="#111" stroke-width="1" stroke-linejoin="round" stroke-linecap="round"/></g><g transform="rotate(-17 144 75)"><path d="M 133 82.7 L 133 72.25 L 144 64 L 155 72.25 L 155 82.7 Z" fill="none" stroke="#111" stroke-width="1" stroke-linejoin="round" stroke-linecap="round"/></g><g transform="rotate(-21 134 102)"><path d="M 122 90 h 24 v 24 h -24 Z" fill="none" stroke="#111" stroke-width="1" stroke-linejoin="round" stroke-linecap="round" rx="1.92"/></g><g transform="rotate(3 130 38)"><circle cx="130" cy="38" r="4.95" fill="none" stroke="#111" stroke-width="1" stroke-linejoin="round" stroke-linecap="round"/><path d="M 136.3 38 L 139 38" fill="none" stroke="#111" stroke-width="1" stroke-linejoin="round" stroke-linecap="round"/><path d="M 134.45477272147525 42.45477272147525 L 136.36396103067892 44.36396103067893" fill="none" stroke="#111" stroke-width="1" stroke-linejoin="round" stroke-linecap="round"/><path d="M 130 44.3 L 130 47" fill="none" stroke="#111" stroke-width="1" stroke-linejoin="round" stroke-linecap="round"/><path d="M 125.54522727852475 42.45477272147525 L 123.63603896932108 44.36396103067893" fill="none" stroke="#111" stroke-width="1" stroke-linejoin="round" stroke-linecap="round"/><path d="M 123.7 38 L 121 38" fill="none" stroke="#111" stroke-width="1" stroke-linejoin="round" stroke-linecap="round"/><path d="M 125.54522727852475 33.54522727852475 L 123.63603896932108 31.63603896932107" fill="none" stroke="#111" stroke-width="1" stroke-linejoin="round" stroke-linecap="round"/><path d="M 130 31.7 L 130 29" fill="none" stroke="#111" stroke-width="1" stroke-linejoin="round" stroke-linecap="round"/><path d="M 134.45477272147525 33.54522727852475 L 136.36396103067892 31.63603896932107" fill="none" stroke="#111" stroke-width="1" stroke-linejoin="round" stroke-linecap="round"/></g><g transform="rotate(-11 127 164)"><path d="M 113 173.8 L 113 160.5 L 127 150 L 141 160.5 L 141 173.8 Z" fill="none" stroke="#111" stroke-width="1" stroke-linejoin="round" stroke-linecap="round"/></g><g transform="rotate(7 81 68)"><path d="M 71 58 h 20 v 20 h -20 Z" fill="none" stroke="#111" stroke-width="1" stroke-linejoin="round" stroke-linecap="round" rx="1.60"/></g><g transform="rotate(-20 64 62)"><path d="M 64 72 C 50 61, 57 51, 64 58.5 C 71 51, 78 61, 64 72 Z" fill="none" stroke="#111" stroke-width="1" stroke-linejoin="round" stroke-linecap="round"/></g><g transform="rotate(11 15 111)"><circle cx="15" cy="111" r="7.15" fill="none" stroke="#111" stroke-width="1" stroke-linejoin="round" stroke-linecap="round"/><path d="M 24.1 111 L 28 111" fill="none" stroke="#111" stroke-width="1" stroke-linejoin="round" stroke-linecap="round"/><path d="M 21.434671708797584 117.43467170879758 L 24.19238815542512 120.19238815542512" fill="none" stroke="#111" stroke-width="1" stroke-linejoin="round" stroke-linecap="round"/><path d="M 15 120.1 L 15 124" fill="none" stroke="#111" stroke-width="1" stroke-linejoin="round" stroke-linecap="round"/><path d="M 8.565328291202418 117.43467170879758 L 5.8076118445748826 120.19238815542512" fill="none" stroke="#111" stroke-width="1" stroke-linejoin="round" stroke-linecap="round"/><path d="M 5.9 111 L 2 111" fill="none" stroke="#111" stroke-width="1" stroke-linejoin="round" stroke-linecap="round"/><path d="M 8.565328291202416 104.56532829120242 L 5.807611844574881 101.80761184457488" fill="none" stroke="#111" stroke-width="1" stroke-linejoin="round" stroke-linecap="round"/><path d="M 14.999999999999998 101.9 L 14.999999999999998 98" fill="none" stroke="#111" stroke-width="1" stroke-linejoin="round" stroke-linecap="round"/><path d="M 21.43467170879758 104.56532829120242 L 24.192388155425114 101.80761184457488" fill="none" stroke="#111" stroke-width="1" stroke-linejoin="round" stroke-linecap="round"/></g><g transform="rotate(-17 157 72)"><path d="M 157 60 L 169 82.2 L 145 82.2 Z" fill="none" stroke="#111" stroke-width="1" stroke-linejoin="round" stroke-linecap="round"/></g><g transform="rotate(-23 21 89)"><path d="M 21.00,77.00 L 24.17,84.63 L 32.41,85.29 L 26.14,90.67 L 28.05,98.71 L 21.00,94.40 L 13.95,98.71 L 15.86,90.67 L 9.59,85.29 L 17.83,84.63 Z" fill="none" stroke="#111" stroke-width="1" stroke-linejoin="round" stroke-linecap="round"/></g><g transform="rotate(-23 27 95)"><path d="M 17 95 C 22 87.5, 32 87.5, 33 95 C 32 102.5, 22 102.5, 17 95 Z" fill="none" stroke="#111" stroke-width="1" stroke-linejoin="round" stroke-linecap="round"/><path d="M 32.5 95 L 37 90 L 37 100 Z" fill="none" stroke="#111" stroke-width="1" stroke-linejoin="round" stroke-linecap="round"/></g><g transform="rotate(-10 42 173)"><circle cx="49.20" cy="173" r="5.04" fill="none" stroke="#111" stroke-width="1" stroke-linejoin="round" stroke-linecap="round"/><circle cx="45.60" cy="179.24" r="5.04" fill="none" stroke="#111" stroke-width="1" stroke-linejoin="round" stroke-linecap="round"/><circle cx="38.40" cy="179.24" r="5.04" fill="none" stroke="#111" stroke-width="1" stroke-linejoin="round" stroke-linecap="round"/><circle cx="34.80" cy="173" r="5.04" fill="none" stroke="#111" stroke-width="1" stroke-linejoin="round" stroke-linecap="round"/><circle cx="38.40" cy="166.76" r="5.04" fill="none" stroke="#111" stroke-width="1" stroke-linejoin="round" stroke-linecap="round"/><circle cx="45.60" cy="166.76" r="5.04" fill="none" stroke="#111" stroke-width="1" stroke-linejoin="round" stroke-linecap="round"/><circle cx="42" cy="173" r="4.08" fill="none" stroke="#111" stroke-width="1" stroke-linejoin="round" stroke-linecap="round"/></g><g transform="rotate(11 93 54)"><path d="M 93 45 L 102 61.65 L 84 61.65 Z" fill="none" stroke="#111" stroke-width="1" stroke-linejoin="round" stroke-linecap="round"/></g><g transform="rotate(-14 53 115)"><path d="M 53 102 L 66 115 L 53 128 L 40 115 Z" fill="none" stroke="#111" stroke-width="1" stroke-linejoin="round" stroke-linecap="round"/></g><g transform="rotate(-25 30 165)"><path d="M 20 170 a 5 5 0 0 1 1.5 -9.5 a 5.5 5.5 0 0 1 9.5 -1 a 5 5 0 0 1 9 5.5 a 4 4 0 0 1 -2 5 Z" fill="none" stroke="#111" stroke-width="1" stroke-linejoin="round" stroke-linecap="round"/></g><g transform="rotate(-25 55 40)"><path d="M 55 31 L 64 40 L 55 49 L 46 40 Z" fill="none" stroke="#111" stroke-width="1" stroke-linejoin="round" stroke-linecap="round"/></g><g transform="rotate(23 91 115)"><path d="M 80 104 h 22 v 22 h -22 Z" fill="none" stroke="#111" stroke-width="1" stroke-linejoin="round" stroke-linecap="round" rx="1.76"/></g><g transform="rotate(-20 44 161)"><path d="M 44 147 L 58 161 L 44 175 L 30 161 Z" fill="none" stroke="#111" stroke-width="1" stroke-linejoin="round" stroke-linecap="round"/></g><circle cx="30" cy="165" r="12" fill="none" stroke="#d33" stroke-width="0.70"/><circle cx="155" cy="185" r="12" fill="none" stroke="#d33" stroke-width="0.70"/><circle cx="38" cy="127" r="13" fill="none" stroke="#d33" stroke-width="0.70"/><circle cx="89" cy="107" r="11" fill="none" stroke="#d33" stroke-width="0.70"/><circle cx="70" cy="156" r="12" fill="none" stroke="#d33" stroke-width="0.70"/><circle cx="15" cy="111" r="15" fill="none" stroke="#d33" stroke-width="0.70"/><circle cx="22" cy="173" r="13" fill="none" stroke="#d33" stroke-width="0.70"/><circle cx="148" cy="107" r="15" fill="none" stroke="#d33" stroke-width="0.70"/><circle cx="130" cy="38" r="11" fill="none" stroke="#d33" stroke-width="0.70"/><circle cx="45" cy="75" r="16" fill="none" stroke="#d33" stroke-width="0.70"/><circle cx="81" cy="68" r="12" fill="none" stroke="#d33" stroke-width="0.70"/><circle cx="134" cy="102" r="14" fill="none" stroke="#d33" stroke-width="0.70"/><circle cx="149" cy="175" r="11" fill="none" stroke="#d33" stroke-width="0.70"/><circle cx="91" cy="115" r="13" fill="none" stroke="#d33" stroke-width="0.70"/><circle cx="111" cy="152" r="16" fill="none" stroke="#d33" stroke-width="0.70"/><circle cx="13" cy="135" r="14" fill="none" stroke="#d33" stroke-width="0.70"/><circle cx="55" cy="40" r="11" fill="none" stroke="#d33" stroke-width="0.70"/><circle cx="53" cy="115" r="15" fill="none" stroke="#d33" stroke-width="0.70"/><circle cx="44" cy="161" r="16" fill="none" stroke="#d33" stroke-width="0.70"/><circle cx="14" cy="186" r="14" fill="none" stroke="#d33" stroke-width="0.70"/></g></g>
  <text x="105" y="291" font-size="3" fill="#bbb" text-anchor="middle">BrainForge Kids · 6f2c63ac</text>
</svg>