<svg xmlns="http://www.w3.org/2000/svg" width="210mm" height="297mm" viewBox="0 0 210 297" font-family="system-ui, -apple-system, sans-serif">
  <rect width="210" height="297" fill="#fff"/>
  <text x="14" y="20" font-size="6.5" font-weight="600" fill="#111">Logikai rács</text>
  <text x="196" y="20" font-size="3.6" fill="#888" text-anchor="end">Bence  ·  2026. jan. 1.</text>
  <text x="14" y="28" font-size="4.2" fill="#444">Minden sorba és oszlopba minden forma egyszer kerüljön!</text>
  <line x1="14" y1="32" x2="196" y2="32" stroke="#e5e5e5" stroke-width="0.3"/>
  
  <g transform="translate(14.00 40.00) scale(1.1667)"><g ><rect x="0" y="0" width="156" height="156" fill="none" stroke="#111" stroke-width="1.20" stroke-linejoin="round" stroke-linecap="round"/><path d="M 26 0 L 26 156" fill="none" stroke="#111" stroke-width="0.50" stroke-linejoin="round" stroke-linecap="round"/><path d="M 0 26 L 156 26" fill="none" stroke="#111" stroke-width="0.50" stroke-linejoin="round" stroke-linecap="round"/><path d="M 52 0 L 52 156" fill="none" stroke="#111" stroke-width="0.50" stroke-linejoin="round" stroke-linecap="round"/><path d="M 0 52 L 156 52" fill="none" stroke="#111" stroke-width="0.50" stroke-linejoin="round" stroke-linecap="round"/><path d="M 78 0 L 78 156" fill="none" stroke="#111" stroke-width="0.50" stroke-linejoin="round" stroke-linecap="round"/><path d="M 0 78 L 156 78" fill="none" stroke="#111" stroke-width="0.50" stroke-linejoin="round" stroke-linecap="round"/><path d="M 104 0 L 104 156" fill="none" stroke="#111" stroke-width="0.50" stroke-linejoin="round" stroke-linecap="round"/><path d="M 0 104 L 156 104" fill="none" stroke="#111" stroke-width="0.50" stroke-linejoin="round" stroke-linecap="round"/><path d="M 130 0 L 130 156" fill="none" stroke="#111" stroke-width="0.50" stroke-linejoin="round" stroke-linecap="round"/><path d="M 0 130 L 156 130" fill="none" stroke="#111" stroke-width="0.50" stroke-linejoin="round" stroke-linecap="round"/><path d="M 91 5.2 L 98.8 19.63 L 83.2 19.63 Z" fill="none" stroke="#111" stroke-width="1.20" stroke-linejoin="round" stroke-linecap="round"/><circle cx="143" cy="13" r="4.29" fill="none" stroke="#111" stroke-width="1.20" stroke-linejoin="round" stroke-linecap="round"/><path d="M 148.46 13 L 150.8 13" fill="none" stroke="#111" stroke-width="1.20" stroke-linejoin="round" stroke-linecap="round"/><path d="M 146.86080302527856 16.86080302527855 L 148.51543289325508 18.51543289325507" fill="none" stroke="#111" stroke-width="1.20" stroke-linejoin="round" stroke-linecap="round"/><path d="M 143 18.46 L 143 20.8" fill="none" stroke="#111" stroke-width="1.20" stroke-linejoin="round" stroke-linecap="round"/><path d="M 139.13919697472144 16.86080302527855 L 137.48456710674492 18.51543289325507" fill="none" stroke="#111" stroke-width="1.20" stroke-linejoin="round" stroke-linecap="round"/><path d="M 137.54 13 L 135.2 13.000000000000002" fill="none" stroke="#111" stroke-width="1.20" stroke-linejoin="round" stroke-linecap="round"/><path d="M 139.13919697472144 9.13919697472145 L 137.48456710674492 7.4845671067449295" fill="none" stroke="#111" stroke-width="1.20" stroke-linejoin="round" stroke-linecap="round"/><path d="M 143 7.54 L 143 5.2" fill="none" stroke="#111" stroke-width="1.20" stroke-linejoin="round" stroke-linecap="round"/><path d="M 146.86080302527856 9.13919697472145 L 148.51543289325508 7.484567106744928" fill="none" stroke="#111" stroke-width="1.20" stroke-linejoin="round" stroke-linecap="round"/><path d="M 31.2 44.46 L 31.2 37.05 L 39 31.2 L 46.8 37.05 L 46.8 44.46 Z" fill="none" stroke="#111" stroke-width="1.20" stroke-linejoin="round" stroke-linecap="round"/><path d="M 83.2 42.9 a 3.9 3.9 0 0 1 1.17 -7.409999999999999 a 4.29 4.29 0 0 1 7.409999999999999 -0.78 a 3.9 3.9 0 0 1 7.02 4.29 a 3.12 3.12 0 0 1 -1.56 3.9 Z" fill="none" stroke="#111" stroke-width="1.20" stroke-linejoin="round" stroke-linecap="round"/><path d="M 135.2 31.2 h 15.6 v 15.6 h -15.6 Z" fill="none" stroke="#111" stroke-width="1.20" stroke-linejoin="round" stroke-linecap="round" rx="1.25"/><path d="M 13 57.2 L 20.8 71.63 L 5.2 71.63 Z" fill="none" stroke="#111" stroke-width="1.20" stroke-linejoin="round" stroke-linecap="round"/><path d="M 109.2 70.46 L 109.2 63.05 L 117 57.2 L 124.8 63.05 L 124.8 70.46 Z" fill="none" stroke="#111" stroke-width="1.20" stroke-linejoin="round" stroke-linecap="round"/><circle cx="91" cy="91" r="4.29" fill="none" stroke="#111" stroke-width="1.20" stroke-linejoin="round" stroke-linecap="round"/><path d="M 96.46 91 L 98.8 91" fill="none" stroke="#111" stroke-width="1.20" stroke-linejoin="round" stroke-linecap="round"/><path d="M 94.86080302527856 94.86080302527854 L 96.51543289325507 96.51543289325507" fill="none" stroke="#111" stroke-width="1.20" stroke-linejoin="round" stroke-linecap="round"/><path d="M 91 96.46 L 91 98.8" fill="none" stroke="#111" stroke-width="1.20" stroke-linejoin="round" stroke-linecap="round"/><path d="M 87.13919697472146 94.86080302527856 L 85.48456710674493 96.51543289325507" fill="none" stroke="#111" stroke-width="1.20" stroke-linejoin="round" stroke-linecap="round"/><path d="M 85.54 91 L 83.2 91" fill="none" stroke="#111" stroke-width="1.20" stroke-linejoin="round" stroke-linecap="round"/><path d="M 87.13919697472144 87.13919697472146 L 85.48456710674493 85.48456710674493" fill="none" stroke="#111" stroke-width="1.20" stroke-linejoin="round" stroke-linecap="round"/><path d="M 91 85.54 L 91 83.2" fill="none" stroke="#111" stroke-width="1.20" stroke-linejoin="round" stroke-linecap="round"/><path d="M 94.86080302527854 87.13919697472144 L 96.51543289325507 85.48456710674493" fill="none" stroke="#111" stroke-width="1.20" stroke-linejoin="round" stroke-linecap="round"/><path d="M 109.2 83.2 h 15.6 v 15.6 h -15.6 Z" fill="none" stroke="#111" stroke-width="1.20" stroke-linejoin="round" stroke-linecap="round" rx="1.25"/><path d="M 135.2 96.46 L 135.2 89.05 L 143 83.2 L 150.8 89.05 L 150.8 96.46 Z" fill="none" stroke="#111" stroke-width="1.20" stroke-linejoin="round" stroke-linecap="round"/><path d="M 5.2 122.46 L 5.2 115.05 L 13 109.2 L 20.8 115.05 L 20.8 122.46 Z" fill="none" stroke="#111" stroke-width="1.20" stroke-linejoin="round" stroke-linecap="round"/><path d="M 39 109.2 L 46.8 123.63 L 31.2 123.63 Z" fill="none" stroke="#111" stroke-width="1.20" stroke-linejoin="round" stroke-linecap="round"/><path d="M 57.2 120.9 a 3.9 3.9 0 0 1 1.17 -7.409999999999999 a 4.29 4.29 0 0 1 7.409999999999999 -0.78 a 3.9 3.9 0 0 1 7.02 4.29 a 3.12 3.12 0 0 1 -1.56 3.9 Z" fill="none" stroke="#111" stroke-width="1.20" stroke-linejoin="round" stroke-linecap="round"/><circle cx="117" cy="117" r="4.29" fill="none" stroke="#111" stroke-width="1.20" stroke-linejoin="round" stroke-linecap="round"/><path d="M 122.46 117 L 124.8 117" fill="none" stroke="#111" stroke-width="1.20" stroke-linejoin="round" stroke-linecap="round"/><path d="M 120.86080302527856 120.86080302527854 L 122.51543289325507 122.51543289325507" fill="none" stroke="#111" stroke-width="1.20" stroke-linejoin="round" stroke-linecap="round"/><path d="M 117 122.46 L 117 124.8" fill="none" stroke="#111" stroke-width="1.20" stroke-linejoin="round" stroke-linecap="round"/><path d="M 113.13919697472146 120.86080302527856 L 111.48456710674493 122.51543289325507" fill="none" stroke="#111" stroke-width="1.20" stroke-linejoin="round" stroke-linecap="round"/><path d="M 111.54 117 L 109.2 117" fill="none" stroke="#111" stroke-width="1.20" stroke-linejoin="round" stroke-linecap="round"/><path d="M 113.13919697472144 113.13919697472146 L 111.48456710674493 111.48456710674493" fill="none" stroke="#111" stroke-width="1.20" stroke-linejoin="round" stroke-linecap="round"/><path d="M 117 111.54 L 117 109.2" fill="none" stroke="#111" stroke-width="1.20" stroke-linejoin="round" stroke-linecap="round"/><path d="M 120.86080302527854 113.13919697472144 L 122.51543289325507 111.48456710674493" fill="none" stroke="#111" stroke-width="1.20" stroke-linejoin="round" stroke-linecap="round"/><path d="M 5.2 146.9 a 3.9 3.9 0 0 1 1.17 -7.409999999999999 a 4.29 4.29 0 0 1 7.409999999999999 -0.78 a 3.9 3.9 0 0 1 7.02 4.29 a 3.12 3.12 0 0 1 -1.56 3.9 Z" fill="none" stroke="#111" stroke-width="1.20" stroke-linejoin="round" stroke-linecap="round"/><path d="M 31.2 135.2 h 15.6 v 15.6 h -15.6 Z" fill="none" stroke="#111" stroke-width="1.20" stroke-linejoin="round" stroke-linecap="round" rx="1.25"/></g></g>
  <text x="105" y="291" font-size="3" fill="#bbb" text-anchor="middle">Kalmo Kids · demo-log</text>
</svg>