<svg xmlns="http://www.w3.org/2000/svg" width="210mm" height="297mm" viewBox="0 0 210 297" font-family="system-ui, -apple-system, sans-serif">
  <rect width="210" height="297" fill="#fff"/>
  <text x="14" y="20" font-size="6.5" font-weight="600" fill="#111">Logikai rács</text>
  <text x="196" y="20" font-size="3.6" fill="#888" text-anchor="end">Bence  ·  2026. júl. 15.</text>
  <text x="14" y="28" font-size="4.2" fill="#444">Minden sorba és oszlopba minden forma egyszer kerüljön!</text>
  <line x1="14" y1="32" x2="196" y2="32" stroke="#e5e5e5" stroke-width="0.3"/>
  
  <g transform="translate(14.00 40.00) scale(1.1667)"><g ><rect x="0" y="0" width="156" height="156" fill="none" stroke="#111" stroke-width="1.20" stroke-linejoin="round" stroke-linecap="round"/><path d="M 26 0 L 26 156" fill="none" stroke="#111" stroke-width="0.50" stroke-linejoin="round" stroke-linecap="round"/><path d="M 0 26 L 156 26" fill="none" stroke="#111" stroke-width="0.50" stroke-linejoin="round" stroke-linecap="round"/><path d="M 52 0 L 52 156" fill="none" stroke="#111" stroke-width="0.50" stroke-linejoin="round" stroke-linecap="round"/><path d="M 0 52 L 156 52" fill="none" stroke="#111" stroke-width="0.50" stroke-linejoin="round" stroke-linecap="round"/><path d="M 78 0 L 78 156" fill="none" stroke="#111" stroke-width="0.50" stroke-linejoin="round" stroke-linecap="round"/><path d="M 0 78 L 156 78" fill="none" stroke="#111" stroke-width="0.50" stroke-linejoin="round" stroke-linecap="round"/><path d="M 104 0 L 104 156" fill="none" stroke="#111" stroke-width="0.50" stroke-linejoin="round" stroke-linecap="round"/><path d="M 0 104 L 156 104" fill="none" stroke="#111" stroke-width="0.50" stroke-linejoin="round" stroke-linecap="round"/><path d="M 130 0 L 130 156" fill="none" stroke="#111" stroke-width="0.50" stroke-linejoin="round" stroke-linecap="round"/><path d="M 0 130 L 156 130" fill="none" stroke="#111" stroke-width="0.50" stroke-linejoin="round" stroke-linecap="round"/><path d="M 91 31.2 L 98.8 39 L 91 46.8 L 83.2 39 Z" fill="none" stroke="#111" stroke-width="1.20" stroke-linejoin="round" stroke-linecap="round"/><path d="M 146.12 31.98 A 7.8 7.8 0 1 0 146.12 46.019999999999996 A 5.616 5.616 0 1 1 146.12 31.98 Z" fill="none" stroke="#111" stroke-width="1.20" stroke-linejoin="round" stroke-linecap="round"/><path d="M 13 57.2 L 20.8 65 L 13 72.8 L 5.2 65 Z" fill="none" stroke="#111" stroke-width="1.20" stroke-linejoin="round" stroke-linecap="round"/><path d="M 83.2 68.9 a 3.9 3.9 0 0 1 1.17 -7.409999999999999 a 4.29 4.29 0 0 1 7.409999999999999 -0.78 a 3.9 3.9 0 0 1 7.02 4.29 a 3.12 3.12 0 0 1 -1.56 3.9 Z" fill="none" stroke="#111" stroke-width="1.20" stroke-linejoin="round" stroke-linecap="round"/><path d="M 117.00,57.20 L 119.06,62.16 L 124.42,62.59 L 120.34,66.08 L 121.58,71.31 L 117.00,68.51 L 112.42,71.31 L 113.66,66.08 L 109.58,62.59 L 114.94,62.16 Z" fill="none" stroke="#111" stroke-width="1.20" stroke-linejoin="round" stroke-linecap="round"/><path d="M 143 72.8 C 132.08 64.22, 137.54 56.42, 143 62.27 C 148.46 56.42, 153.92 64.22, 143 72.8 Z" fill="none" stroke="#111" stroke-width="1.20" stroke-linejoin="round" stroke-linecap="round"/><path d="M 42.12 83.98 A 7.8 7.8 0 1 0 42.12 98.02 A 5.616 5.616 0 1 1 42.12 83.98 Z" fill="none" stroke="#111" stroke-width="1.20" stroke-linejoin="round" stroke-linecap="round"/><path d="M 65 83.2 L 72.8 91 L 65 98.8 L 57.2 91 Z" fill="none" stroke="#111" stroke-width="1.20" stroke-linejoin="round" stroke-linecap="round"/><path d="M 91.00,83.20 L 93.06,88.16 L 98.42,88.59 L 94.34,92.08 L 95.58,97.31 L 91.00,94.51 L 86.42,97.31 L 87.66,92.08 L 83.58,88.59 L 88.94,88.16 Z" fill="none" stroke="#111" stroke-width="1.20" stroke-linejoin="round" stroke-linecap="round"/><circle cx="117" cy="91" r="7.80" fill="none" stroke="#111" stroke-width="1.20" stroke-linejoin="round" stroke-linecap="round"/><path d="M 65 124.8 C 54.08 116.22, 59.54 108.42, 65 114.27 C 70.46 108.42, 75.92 116.22, 65 124.8 Z" fill="none" stroke="#111" stroke-width="1.20" stroke-linejoin="round" stroke-linecap="round"/><path d="M 120.12 109.98 A 7.8 7.8 0 1 0 120.12 124.02 A 5.616 5.616 0 1 1 120.12 109.98 Z" fill="none" stroke="#111" stroke-width="1.20" stroke-linejoin="round" stroke-linecap="round"/><path d="M 143.00,109.20 L 145.06,114.16 L 150.42,114.59 L 146.34,118.08 L 147.58,123.31 L 143.00,120.51 L 138.42,123.31 L 139.66,118.08 L 135.58,114.59 L 140.94,114.16 Z" fill="none" stroke="#111" stroke-width="1.20" stroke-linejoin="round" stroke-linecap="round"/><path d="M 13.00,135.20 L 15.06,140.16 L 20.42,140.59 L 16.34,144.08 L 17.58,149.31 L 13.00,146.51 L 8.42,149.31 L 9.66,144.08 L 5.58,140.59 L 10.94,140.16 Z" fill="none" stroke="#111" stroke-width="1.20" stroke-linejoin="round" stroke-linecap="round"/><path d="M 39 150.8 C 28.08 142.22, 33.54 134.42, 39 140.27 C 44.46 134.42, 49.92 142.22, 39 150.8 Z" fill="none" stroke="#111" stroke-width="1.20" stroke-linejoin="round" stroke-linecap="round"/><path d="M 57.2 146.9 a 3.9 3.9 0 0 1 1.17 -7.409999999999999 a 4.29 4.29 0 0 1 7.409999999999999 -0.78 a 3.9 3.9 0 0 1 7.02 4.29 a 3.12 3.12 0 0 1 -1.56 3.9 Z" fill="none" stroke="#111" stroke-width="1.20" stroke-linejoin="round" stroke-linecap="round"/></g></g>
  <text x="105" y="291" font-size="3" fill="#bbb" text-anchor="middle">BrainForge Kids · 0b25fe88</text>
</svg>