<svg xmlns="http://www.w3.org/2000/svg" width="210mm" height="297mm" viewBox="0 0 210 297" font-family="system-ui, -apple-system, sans-serif">
  <rect width="210" height="297" fill="#fff"/>
  <text x="14" y="20" font-size="6.5" font-weight="600" fill="#111">Logikai rács</text>
  <text x="196" y="20" font-size="3.6" fill="#888" text-anchor="end">Bence  ·  2026. jan. 1.</text>
  <text x="14" y="28" font-size="4.2" fill="#444">Minden sorba és oszlopba minden forma egyszer kerüljön!</text>
  <line x1="14" y1="32" x2="196" y2="32" stroke="#e5e5e5" stroke-width="0.3"/>
  <text x="196" y="28" font-size="4" fill="#d33" text-anchor="end">Megoldókulcs</text>
  <g transform="translate(14.00 40.00) scale(1.1667)"><g ><rect x="0" y="0" width="156" height="156" fill="none" stroke="#111" stroke-width="1.20" stroke-linejoin="round" stroke-linecap="round"/><path d="M 26 0 L 26 156" fill="none" stroke="#111" stroke-width="0.50" stroke-linejoin="round" stroke-linecap="round"/><path d="M 0 26 L 156 26" fill="none" stroke="#111" stroke-width="0.50" stroke-linejoin="round" stroke-linecap="round"/><path d="M 52 0 L 52 156" fill="none" stroke="#111" stroke-width="0.50" stroke-linejoin="round" stroke-linecap="round"/><path d="M 0 52 L 156 52" fill="none" stroke="#111" stroke-width="0.50" stroke-linejoin="round" stroke-linecap="round"/><path d="M 78 0 L 78 156" fill="none" stroke="#111" stroke-width="0.50" stroke-linejoin="round" stroke-linecap="round"/><path d="M 0 78 L 156 78" fill="none" stroke="#111" stroke-width="0.50" stroke-linejoin="round" stroke-linecap="round"/><path d="M 104 0 L 104 156" fill="none" stroke="#111" stroke-width="0.50" stroke-linejoin="round" stroke-linecap="round"/><path d="M 0 104 L 156 104" fill="none" stroke="#111" stroke-width="0.50" stroke-linejoin="round" stroke-linecap="round"/><path d="M 130 0 L 130 156" fill="none" stroke="#111" stroke-width="0.50" stroke-linejoin="round" stroke-linecap="round"/><path d="M 0 130 L 156 130" fill="none" stroke="#111" stroke-width="0.50" stroke-linejoin="round" stroke-linecap="round"/><path d="M 91 5.2 L 98.8 19.63 L 83.2 19.63 Z" fill="none" stroke="#111" stroke-width="1.20" stroke-linejoin="round" stroke-linecap="round"/><circle cx="143" cy="13" r="4.29" fill="none" stroke="#111" stroke-width="1.20" stroke-linejoin="round" stroke-linecap="round"/><path d="M 148.46 13 L 150.8 13" fill="none" stroke="#111" stroke-width="1.20" stroke-linejoin="round" stroke-linecap="round"/><path d="M 146.86080302527856 16.86080302527855 L 148.51543289325508 18.51543289325507" fill="none" stroke="#111" stroke-width="1.20" stroke-linejoin="round" stroke-linecap="round"/><path d="M 143 18.46 L 143 20.8" fill="none" stroke="#111" stroke-width="1.20" stroke-linejoin="round" stroke-linecap="round"/><path d="M 139.13919697472144 16.86080302527855 L 137.48456710674492 18.51543289325507" fill="none" stroke="#111" stroke-width="1.20" stroke-linejoin="round" stroke-linecap="round"/><path d="M 137.54 13 L 135.2 13.000000000000002" fill="none" stroke="#111" stroke-width="1.20" stroke-linejoin="round" stroke-linecap="round"/><path d="M 139.13919697472144 9.13919697472145 L 137.48456710674492 7.4845671067449295" fill="none" stroke="#111" stroke-width="1.20" stroke-linejoin="round" stroke-linecap="round"/><path d="M 143 7.54 L 143 5.2" fill="none" stroke="#111" stroke-width="1.20" stroke-linejoin="round" stroke-linecap="round"/><path d="M 146.86080302527856 9.13919697472145 L 148.51543289325508 7.484567106744928" fill="none" stroke="#111" stroke-width="1.20" stroke-linejoin="round" stroke-linecap="round"/><path d="M 31.2 44.46 L 31.2 37.05 L 39 31.2 L 46.8 37.05 L 46.8 44.46 Z" fill="none" stroke="#111" stroke-width="1.20" stroke-linejoin="round" stroke-linecap="round"/><path d="M 83.2 42.9 a 3.9 3.9 0 0 1 1.17 -7.409999999999999 a 4.29 4.29 0 0 1 7.409999999999999 -0.78 a 3.9 3.9 0 0 1 7.02 4.29 a 3.12 3.12 0 0 1 -1.56 3.9 Z" fill="none" stroke="#111" stroke-width="1.20" stroke-linejoin="round" stroke-linecap="round"/><path d="M 135.2 31.2 h 15.6 v 15.6 h -15.6 Z" fill="none" stroke="#111" stroke-width="1.20" stroke-linejoin="round" stroke-linecap="round" rx="1.25"/><path d="M 13 57.2 L 20.8 71.63 L 5.2 71.63 Z" fill="none" stroke="#111" stroke-width="1.20" stroke-linejoin="round" stroke-linecap="round"/><path d="M 109.2 70.46 L 109.2 63.05 L 117 57.2 L 124.8 63.05 L 124.8 70.46 Z" fill="none" stroke="#111" stroke-width="1.20" stroke-linejoin="round" stroke-linecap="round"/><circle cx="91" cy="91" r="4.29" fill="none" stroke="#111" stroke-width="1.20" stroke-linejoin="round" stroke-linecap="round"/><path d="M 96.46 91 L 98.8 91" fill="none" stroke="#111" stroke-width="1.20" stroke-linejoin="round" stroke-linecap="round"/><path d="M 94.86080302527856 94.86080302527854 L 96.51543289325507 96.51543289325507" fill="none" stroke="#111" stroke-width="1.20" stroke-linejoin="round" stroke-linecap="round"/><path d="M 91 96.46 L 91 98.8" fill="none" stroke="#111" stroke-width="1.20" stroke-linejoin="round" stroke-linecap="round"/><path d="M 87.13919697472146 94.86080302527856 L 85.48456710674493 96.51543289325507" fill="none" stroke="#111" stroke-width="1.20" stroke-linejoin="round" stroke-linecap="round"/><path d="M 85.54 91 L 83.2 91" fill="none" stroke="#111" stroke-width="1.20" stroke-linejoin="round" stroke-linecap="round"/><path d="M 87.13919697472144 87.13919697472146 L 85.48456710674493 85.48456710674493" fill="none" stroke="#111" stroke-width="1.20" stroke-linejoin="round" stroke-linecap="round"/><path d="M 91 85.54 L 91 83.2" fill="none" stroke="#111" stroke-width="1.20" stroke-linejoin="round" stroke-linecap="round"/><path d="M 94.86080302527854 87.13919697472144 L 96.51543289325507 85.48456710674493" fill="none" stroke="#111" stroke-width="1.20" stroke-linejoin="round" stroke-linecap="round"/><path d="M 109.2 83.2 h 15.6 v 15.6 h -15.6 Z" fill="none" stroke="#111" stroke-width="1.20" stroke-linejoin="round" stroke-linecap="round" rx="1.25"/><path d="M 135.2 96.46 L 135.2 89.05 L 143 83.2 L 150.8 89.05 L 150.8 96.46 Z" fill="none" stroke="#111" stroke-width="1.20" stroke-linejoin="round" stroke-linecap="round"/><path d="M 5.2 122.46 L 5.2 115.05 L 13 109.2 L 20.8 115.05 L 20.8 122.46 Z" fill="none" stroke="#111" stroke-width="1.20" stroke-linejoin="round" stroke-linecap="round"/><path d="M 39 109.2 L 46.8 123.63 L 31.2 123.63 Z" fill="none" stroke="#111" stroke-width="1.20" stroke-linejoin="round" stroke-linecap="round"/><path d="M 57.2 120.9 a 3.9 3.9 0 0 1 1.17 -7.409999999999999 a 4.29 4.29 0 0 1 7.409999999999999 -0.78 a 3.9 3.9 0 0 1 7.02 4.29 a 3.12 3.12 0 0 1 -1.56 3.9 Z" fill="none" stroke="#111" stroke-width="1.20" stroke-linejoin="round" stroke-linecap="round"/><circle cx="117" cy="117" r="4.29" fill="none" stroke="#111" stroke-width="1.20" stroke-linejoin="round" stroke-linecap="round"/><path d="M 122.46 117 L 124.8 117" fill="none" stroke="#111" stroke-width="1.20" stroke-linejoin="round" stroke-linecap="round"/><path d="M 120.86080302527856 120.86080302527854 L 122.51543289325507 122.51543289325507" fill="none" stroke="#111" stroke-width="1.20" stroke-linejoin="round" stroke-linecap="round"/><path d="M 117 122.46 L 117 124.8" fill="none" stroke="#111" stroke-width="1.20" stroke-linejoin="round" stroke-linecap="round"/><path d="M 113.13919697472146 120.86080302527856 L 111.48456710674493 122.51543289325507" fill="none" stroke="#111" stroke-width="1.20" stroke-linejoin="round" stroke-linecap="round"/><path d="M 111.54 117 L 109.2 117" fill="none" stroke="#111" stroke-width="1.20" stroke-linejoin="round" stroke-linecap="round"/><path d="M 113.13919697472144 113.13919697472146 L 111.48456710674493 111.48456710674493" fill="none" stroke="#111" stroke-width="1.20" stroke-linejoin="round" stroke-linecap="round"/><path d="M 117 111.54 L 117 109.2" fill="none" stroke="#111" stroke-width="1.20" stroke-linejoin="round" stroke-linecap="round"/><path d="M 120.86080302527854 113.13919697472144 L 122.51543289325507 111.48456710674493" fill="none" stroke="#111" stroke-width="1.20" stroke-linejoin="round" stroke-linecap="round"/><path d="M 5.2 146.9 a 3.9 3.9 0 0 1 1.17 -7.409999999999999 a 4.29 4.29 0 0 1 7.409999999999999 -0.78 a 3.9 3.9 0 0 1 7.02 4.29 a 3.12 3.12 0 0 1 -1.56 3.9 Z" fill="none" stroke="#111" stroke-width="1.20" stroke-linejoin="round" stroke-linecap="round"/><path d="M 31.2 135.2 h 15.6 v 15.6 h -15.6 Z" fill="none" stroke="#111" stroke-width="1.20" stroke-linejoin="round" stroke-linecap="round" rx="1.25"/><path d="M 5.2 5.2 h 15.6 v 15.6 h -15.6 Z" fill="none" stroke="#d33" stroke-width="1.10" stroke-linejoin="round" stroke-linecap="round" rx="1.25"/><path d="M 39 5.2 L 46.8 13 L 39 20.8 L 31.2 13 Z" fill="none" stroke="#d33" stroke-width="1.10" stroke-linejoin="round" stroke-linecap="round"/><path d="M 57.2 18.46 L 57.2 11.05 L 65 5.2 L 72.8 11.05 L 72.8 18.46 Z" fill="none" stroke="#d33" stroke-width="1.10" stroke-linejoin="round" stroke-linecap="round"/><path d="M 109.2 16.9 a 3.9 3.9 0 0 1 1.17 -7.409999999999999 a 4.29 4.29 0 0 1 7.409999999999999 -0.78 a 3.9 3.9 0 0 1 7.02 4.29 a 3.12 3.12 0 0 1 -1.56 3.9 Z" fill="none" stroke="#d33" stroke-width="1.10" stroke-linejoin="round" stroke-linecap="round"/><circle cx="13" cy="39" r="4.29" fill="none" stroke="#d33" stroke-width="1.10" stroke-linejoin="round" stroke-linecap="round"/><path d="M 18.46 39 L 20.8 39" fill="none" stroke="#d33" stroke-width="1.10" stroke-linejoin="round" stroke-linecap="round"/><path d="M 16.86080302527855 42.86080302527855 L 18.51543289325507 44.51543289325507" fill="none" stroke="#d33" stroke-width="1.10" stroke-linejoin="round" stroke-linecap="round"/><path d="M 13 44.46 L 13 46.8" fill="none" stroke="#d33" stroke-width="1.10" stroke-linejoin="round" stroke-linecap="round"/><path d="M 9.13919697472145 42.86080302527855 L 7.4845671067449295 44.515432893255074" fill="none" stroke="#d33" stroke-width="1.10" stroke-linejoin="round" stroke-linecap="round"/><path d="M 7.54 39 L 5.2 39" fill="none" stroke="#d33" stroke-width="1.10" stroke-linejoin="round" stroke-linecap="round"/><path d="M 9.13919697472145 35.13919697472145 L 7.484567106744928 33.48456710674493" fill="none" stroke="#d33" stroke-width="1.10" stroke-linejoin="round" stroke-linecap="round"/><path d="M 12.999999999999998 33.54 L 12.999999999999998 31.2" fill="none" stroke="#d33" stroke-width="1.10" stroke-linejoin="round" stroke-linecap="round"/><path d="M 16.86080302527855 35.13919697472145 L 18.51543289325507 33.484567106744926" fill="none" stroke="#d33" stroke-width="1.10" stroke-linejoin="round" stroke-linecap="round"/><path d="M 65 31.2 L 72.8 39 L 65 46.8 L 57.2 39 Z" fill="none" stroke="#d33" stroke-width="1.10" stroke-linejoin="round" stroke-linecap="round"/><path d="M 117 31.2 L 124.8 45.63 L 109.2 45.63 Z" fill="none" stroke="#d33" stroke-width="1.10" stroke-linejoin="round" stroke-linecap="round"/><circle cx="39" cy="65" r="4.29" fill="none" stroke="#d33" stroke-width="1.10" stroke-linejoin="round" stroke-linecap="round"/><path d="M 44.46 65 L 46.8 65" fill="none" stroke="#d33" stroke-width="1.10" stroke-linejoin="round" stroke-linecap="round"/><path d="M 42.86080302527855 68.86080302527854 L 44.515432893255074 70.51543289325507" fill="none" stroke="#d33" stroke-width="1.10" stroke-linejoin="round" stroke-linecap="round"/><path d="M 39 70.46 L 39 72.8" fill="none" stroke="#d33" stroke-width="1.10" stroke-linejoin="round" stroke-linecap="round"/><path d="M 35.13919697472145 68.86080302527856 L 33.48456710674493 70.51543289325507" fill="none" stroke="#d33" stroke-width="1.10" stroke-linejoin="round" stroke-linecap="round"/><path d="M 33.54 65 L 31.2 65" fill="none" stroke="#d33" stroke-width="1.10" stroke-linejoin="round" stroke-linecap="round"/><path d="M 35.13919697472145 61.13919697472145 L 33.484567106744926 59.48456710674493" fill="none" stroke="#d33" stroke-width="1.10" stroke-linejoin="round" stroke-linecap="round"/><path d="M 39 59.54 L 39 57.2" fill="none" stroke="#d33" stroke-width="1.10" stroke-linejoin="round" stroke-linecap="round"/><path d="M 42.86080302527855 61.13919697472145 L 44.51543289325507 59.484567106744926" fill="none" stroke="#d33" stroke-width="1.10" stroke-linejoin="round" stroke-linecap="round"/><path d="M 57.2 57.2 h 15.6 v 15.6 h -15.6 Z" fill="none" stroke="#d33" stroke-width="1.10" stroke-linejoin="round" stroke-linecap="round" rx="1.25"/><path d="M 91 57.2 L 98.8 65 L 91 72.8 L 83.2 65 Z" fill="none" stroke="#d33" stroke-width="1.10" stroke-linejoin="round" stroke-linecap="round"/><path d="M 135.2 68.9 a 3.9 3.9 0 0 1 1.17 -7.409999999999999 a 4.29 4.29 0 0 1 7.409999999999999 -0.78 a 3.9 3.9 0 0 1 7.02 4.29 a 3.12 3.12 0 0 1 -1.56 3.9 Z" fill="none" stroke="#d33" stroke-width="1.10" stroke-linejoin="round" stroke-linecap="round"/><path d="M 13 83.2 L 20.8 91 L 13 98.8 L 5.2 91 Z" fill="none" stroke="#d33" stroke-width="1.10" stroke-linejoin="round" stroke-linecap="round"/><path d="M 31.2 94.9 a 3.9 3.9 0 0 1 1.17 -7.409999999999999 a 4.29 4.29 0 0 1 7.409999999999999 -0.78 a 3.9 3.9 0 0 1 7.02 4.29 a 3.12 3.12 0 0 1 -1.56 3.9 Z" fill="none" stroke="#d33" stroke-width="1.10" stroke-linejoin="round" stroke-linecap="round"/><path d="M 65 83.2 L 72.8 97.63 L 57.2 97.63 Z" fill="none" stroke="#d33" stroke-width="1.10" stroke-linejoin="round" stroke-linecap="round"/><path d="M 83.2 109.2 h 15.6 v 15.6 h -15.6 Z" fill="none" stroke="#d33" stroke-width="1.10" stroke-linejoin="round" stroke-linecap="round" rx="1.25"/><path d="M 143 109.2 L 150.8 117 L 143 124.8 L 135.2 117 Z" fill="none" stroke="#d33" stroke-width="1.10" stroke-linejoin="round" stroke-linecap="round"/><circle cx="65" cy="143" r="4.29" fill="none" stroke="#d33" stroke-width="1.10" stroke-linejoin="round" stroke-linecap="round"/><path d="M 70.46 143 L 72.8 143" fill="none" stroke="#d33" stroke-width="1.10" stroke-linejoin="round" stroke-linecap="round"/><path d="M 68.86080302527856 146.86080302527856 L 70.51543289325507 148.51543289325508" fill="none" stroke="#d33" stroke-width="1.10" stroke-linejoin="round" stroke-linecap="round"/><path d="M 65 148.46 L 65 150.8" fill="none" stroke="#d33" stroke-width="1.10" stroke-linejoin="round" stroke-linecap="round"/><path d="M 61.13919697472145 146.86080302527856 L 59.48456710674493 148.51543289325508" fill="none" stroke="#d33" stroke-width="1.10" stroke-linejoin="round" stroke-linecap="round"/><path d="M 59.54 143 L 57.2 143" fill="none" stroke="#d33" stroke-width="1.10" stroke-linejoin="round" stroke-linecap="round"/><path d="M 61.13919697472145 139.13919697472144 L 59.484567106744926 137.48456710674492" fill="none" stroke="#d33" stroke-width="1.10" stroke-linejoin="round" stroke-linecap="round"/><path d="M 65 137.54 L 65 135.2" fill="none" stroke="#d33" stroke-width="1.10" stroke-linejoin="round" stroke-linecap="round"/><path d="M 68.86080302527854 139.13919697472144 L 70.51543289325507 137.48456710674492" fill="none" stroke="#d33" stroke-width="1.10" stroke-linejoin="round" stroke-linecap="round"/><path d="M 83.2 148.46 L 83.2 141.05 L 91 135.2 L 98.8 141.05 L 98.8 148.46 Z" fill="none" stroke="#d33" stroke-width="1.10" stroke-linejoin="round" stroke-linecap="round"/><path d="M 117 135.2 L 124.8 143 L 117 150.8 L 109.2 143 Z" fill="none" stroke="#d33" stroke-width="1.10" stroke-linejoin="round" stroke-linecap="round"/><path d="M 143 135.2 L 150.8 149.63 L 135.2 149.63 Z" fill="none" stroke="#d33" stroke-width="1.10" stroke-linejoin="round" stroke-linecap="round"/></g></g>
  <text x="105" y="291" font-size="3" fill="#bbb" text-anchor="middle">Kalmo Kids · demo-log</text>
</svg>