<svg xmlns="http://www.w3.org/2000/svg" width="210mm" height="297mm" viewBox="0 0 210 297" font-family="system-ui, -apple-system, sans-serif">
  <rect width="210" height="297" fill="#fff"/>
  <text x="14" y="20" font-size="6.5" font-weight="600" fill="#111">Párosítás</text>
  <text x="196" y="20" font-size="3.6" fill="#888" text-anchor="end">Zoé  ·  2026. jan. 1.</text>
  <text x="14" y="28" font-size="4.2" fill="#444">Kösd össze a formákat az árnyékukkal!</text>
  <line x1="14" y1="32" x2="196" y2="32" stroke="#e5e5e5" stroke-width="0.3"/>
  
  <g transform="translate(14.00 40.00) scale(1.1375)"><g ><path d="M 21.50 26.27 L 21.50 21.32 Q 26 13.67 30.50 21.32 L 30.50 26.27 Z" fill="none" stroke="#111" stroke-width="1" stroke-linejoin="round"/><path d="M 21.50 24.02 L 17.45 28.07 L 21.50 26.27 M 30.50 24.02 L 34.55 28.07 L 30.50 26.27" fill="none" stroke="#111" stroke-width="1" stroke-linejoin="round"/><circle cx="26" cy="21.77" r="1.80" fill="none" stroke="#111" stroke-width="1" stroke-linejoin="round"/><path d="M 26,60.38 L 28.38,66.10 L 34.56,66.59 L 29.85,70.63 L 31.29,76.66 L 26,73.42 L 20.71,76.66 L 22.15,70.63 L 17.44,66.59 L 23.62,66.10 Z" fill="none" stroke="#111" stroke-width="1" stroke-linejoin="round"/><circle cx="26" cy="115.63" r="5.58" fill="none" stroke="#111" stroke-width="1" stroke-linejoin="round"/><path d="M 17 117.61 Q 26 122.11 35 117.61 Q 26 113.11 17 117.61 Z" fill="none" stroke="#111" stroke-width="1" stroke-linejoin="round"/><path d="M 29.6 153.775 A 9 9 0 1 0 29.6 169.975 A 6.4799999999999995 6.4799999999999995 0 1 1 29.6 153.775 Z" fill="none" stroke="#111" stroke-width="1" stroke-linejoin="round"/><path d="M 129.50 21.65 L 129.50 16.70 Q 134 9.05 138.50 16.70 L 138.50 21.65 Z" fill="#111" stroke="#111" stroke-width="1" stroke-linejoin="round"/><path d="M 129.50 19.40 L 125.45 23.45 L 129.50 21.65 M 138.50 19.40 L 142.55 23.45 L 138.50 21.65" fill="#111" stroke="#111" stroke-width="1" stroke-linejoin="round"/><circle cx="134" cy="17.15" r="1.80" fill="#111" stroke="#111" stroke-width="1" stroke-linejoin="round"/><path d="M 137.6 47.4 A 9 9 0 1 0 137.6 63.6 A 6.4799999999999995 6.4799999999999995 0 1 1 137.6 47.4 Z" fill="#111" stroke="none"/><circle cx="134" cy="92.50" r="5.58" fill="#111" stroke="#111" stroke-width="1" stroke-linejoin="round"/><path d="M 125 94.48 Q 134 98.98 143 94.48 Q 134 89.98 125 94.48 Z" fill="#111" stroke="#111" stroke-width="1" stroke-linejoin="round"/><path d="M 134,120.50 L 136.38,126.22 L 142.56,126.72 L 137.85,130.75 L 139.29,136.78 L 134,133.55 L 128.71,136.78 L 130.15,130.75 L 125.44,126.72 L 131.62,126.22 Z" fill="#111" stroke="#111" stroke-width="1" stroke-linejoin="round"/><path d="M 134 157.5 L 143 174.15 L 125 174.15 Z" fill="#111" stroke="none"/></g></g>
  <text x="105" y="291" font-size="3" fill="#bbb" text-anchor="middle">Kalmo Kids · demo-mat</text>
</svg>