<svg xmlns="http://www.w3.org/2000/svg" width="210mm" height="297mm" viewBox="0 0 210 297" font-family="system-ui, -apple-system, sans-serif">
  <rect width="210" height="297" fill="#fff"/>
  <text x="14" y="20" font-size="6.5" font-weight="600" fill="#111">Párosítás</text>
  <text x="196" y="20" font-size="3.6" fill="#888" text-anchor="end">Zoé  ·  2026. júl. 15.</text>
  <text x="14" y="28" font-size="4.2" fill="#444">Kösd össze a formákat az árnyékukkal!</text>
  <line x1="14" y1="32" x2="196" y2="32" stroke="#e5e5e5" stroke-width="0.3"/>
  <text x="196" y="28" font-size="4" fill="#d33" text-anchor="end">Megoldókulcs</text>
  <g transform="translate(14.00 40.00) scale(1.1375)"><g ><circle cx="26" cy="23.13" r="9" fill="none" stroke="#111" stroke-width="1" stroke-linejoin="round"/><rect x="17" y="60.38" width="18" height="18" fill="none" stroke="#111" stroke-width="1" stroke-linejoin="round" rx="1.62"/><path d="M 26.00,106.63 L 28.38,112.35 L 34.56,112.84 L 29.85,116.88 L 31.29,122.91 L 26.00,119.67 L 20.71,122.91 L 22.15,116.88 L 17.44,112.84 L 23.62,112.35 Z" fill="none" stroke="#111" stroke-width="1" stroke-linejoin="round"/><path d="M 26 170.875 C 13.4 160.975, 19.7 151.975, 26 158.725 C 32.3 151.975, 38.6 160.975, 26 170.875 Z" fill="none" stroke="#111" stroke-width="1" stroke-linejoin="round"/><rect x="125" y="9.50" width="18" height="18" fill="#111" stroke="none" rx="1.62"/><path d="M 134.00,46.50 L 136.38,52.22 L 142.56,52.72 L 137.85,56.75 L 139.29,62.78 L 134.00,59.55 L 128.71,62.78 L 130.15,56.75 L 125.44,52.72 L 131.62,52.22 Z" fill="#111" stroke="none"/><path d="M 134 101.5 C 121.4 91.6, 127.7 82.6, 134 89.35 C 140.3 82.6, 146.6 91.6, 134 101.5 Z" fill="#111" stroke="none"/><circle cx="134" cy="129.50" r="9" fill="#111" stroke="none"/><path d="M 137.6 158.4 A 9 9 0 1 0 137.6 174.6 A 6.4799999999999995 6.4799999999999995 0 1 1 137.6 158.4 Z" fill="#111" stroke="none"/><path d="M 38 23.125 L 122 129.5" stroke="#d33" stroke-width="0.80" stroke-dasharray="2 1.5" fill="none"/><path d="M 38 69.375 L 122 18.5" stroke="#d33" stroke-width="0.80" stroke-dasharray="2 1.5" fill="none"/><path d="M 38 115.625 L 122 55.5" stroke="#d33" stroke-width="0.80" stroke-dasharray="2 1.5" fill="none"/><path d="M 38 161.875 L 122 92.5" stroke="#d33" stroke-width="0.80" stroke-dasharray="2 1.5" fill="none"/></g></g>
  <text x="105" y="291" font-size="3" fill="#bbb" text-anchor="middle">BrainForge Kids · 780998bb</text>
</svg>