<svg xmlns="http://www.w3.org/2000/svg" width="210mm" height="297mm" viewBox="0 0 210 297" font-family="system-ui, -apple-system, sans-serif">
  <rect width="210" height="297" fill="#fff"/>
  <text x="14" y="20" font-size="6.5" font-weight="600" fill="#111">Párosítás</text>
  <text x="196" y="20" font-size="3.6" fill="#888" text-anchor="end">Zoé  ·  2026. jan. 1.</text>
  <text x="14" y="28" font-size="4.2" fill="#444">Kösd össze a formákat az árnyékukkal!</text>
  <line x1="14" y1="32" x2="196" y2="32" stroke="#e5e5e5" stroke-width="0.3"/>
  
  <g transform="translate(14.00 40.00) scale(1.1375)"><g ><path d="M 26 14.125 L 35 23.125 L 26 32.125 L 17 23.125 Z" fill="none" stroke="#111" stroke-width="1" stroke-linejoin="round"/><path d="M 26.00,60.38 L 28.38,66.10 L 34.56,66.59 L 29.85,70.63 L 31.29,76.66 L 26.00,73.42 L 20.71,76.66 L 22.15,70.63 L 17.44,66.59 L 23.62,66.10 Z" fill="none" stroke="#111" stroke-width="1" stroke-linejoin="round"/><path d="M 29.6 107.525 A 9 9 0 1 0 29.6 123.725 A 6.4799999999999995 6.4799999999999995 0 1 1 29.6 107.525 Z" fill="none" stroke="#111" stroke-width="1" stroke-linejoin="round"/><path d="M 17 168.175 L 17 159.175 L 26 152.875 L 35 159.175 L 35 168.175 Z" fill="none" stroke="#111" stroke-width="1" stroke-linejoin="round"/><path d="M 134.00,9.50 L 136.38,15.22 L 142.56,15.72 L 137.85,19.75 L 139.29,25.78 L 134.00,22.55 L 128.71,25.78 L 130.15,19.75 L 125.44,15.72 L 131.62,15.22 Z" fill="#111" stroke="none"/><path d="M 134 46.5 L 143 55.5 L 134 64.5 L 125 55.5 Z" fill="#111" stroke="none"/><path d="M 137.6 84.4 A 9 9 0 1 0 137.6 100.6 A 6.4799999999999995 6.4799999999999995 0 1 1 137.6 84.4 Z" fill="#111" stroke="none"/><rect x="125" y="120.50" width="18" height="18" fill="#111" stroke="none" rx="1.62"/><path d="M 125 172.8 L 125 163.8 L 134 157.5 L 143 163.8 L 143 172.8 Z" fill="#111" stroke="none"/></g></g>
  <text x="105" y="291" font-size="3" fill="#bbb" text-anchor="middle">Kalmo Kids · demo-mat</text>
</svg>