<svg xmlns="http://www.w3.org/2000/svg" width="210mm" height="297mm" viewBox="0 0 210 297" font-family="system-ui, -apple-system, sans-serif">
  <rect width="210" height="297" fill="#fff"/>
  <text x="14" y="20" font-size="6.5" font-weight="600" fill="#111">Labirintus</text>
  <text x="196" y="20" font-size="3.6" fill="#888" text-anchor="end">Lili  ·  2026. jan. 1.</text>
  <text x="14" y="28" font-size="4.2" fill="#444">Találd meg az utat a ponttól a csillagig!</text>
  <line x1="14" y1="32" x2="196" y2="32" stroke="#e5e5e5" stroke-width="0.3"/>
  
  <g transform="translate(14.00 40.00) scale(1.1375)"><g ><line x1="0" y1="0" x2="11.43" y2="0" stroke="#111" stroke-width="1" stroke-linecap="round"/><line x1="11.43" y1="0" x2="11.43" y2="11.43" stroke="#111" stroke-width="1" stroke-linecap="round"/><line x1="11.43" y1="0" x2="22.86" y2="0" stroke="#111" stroke-width="1" stroke-linecap="round"/><line x1="11.43" y1="11.43" x2="22.86" y2="11.43" stroke="#111" stroke-width="1" stroke-linecap="round"/><line x1="11.43" y1="0" x2="11.43" y2="11.43" stroke="#111" stroke-width="1" stroke-linecap="round"/><line x1="22.86" y1="0" x2="34.29" y2="0" stroke="#111" stroke-width="1" stroke-linecap="round"/><line x1="22.86" y1="11.43" x2="34.29" y2="11.43" stroke="#111" stroke-width="1" stroke-linecap="round"/><line x1="34.29" y1="0" x2="45.71" y2="0" stroke="#111" stroke-width="1" stroke-linecap="round"/><line x1="45.71" y1="0" x2="57.14" y2="0" stroke="#111" stroke-width="1" stroke-linecap="round"/><line x1="45.71" y1="11.43" x2="57.14" y2="11.43" stroke="#111" stroke-width="1" stroke-linecap="round"/><line x1="57.14" y1="0" x2="68.57" y2="0" stroke="#111" stroke-width="1" stroke-linecap="round"/><line x1="68.57" y1="0" x2="68.57" y2="11.43" stroke="#111" stroke-width="1" stroke-linecap="round"/><line x1="57.14" y1="11.43" x2="68.57" y2="11.43" stroke="#111" stroke-width="1" stroke-linecap="round"/><line x1="68.57" y1="0" x2="80" y2="0" stroke="#111" stroke-width="1" stroke-linecap="round"/><line x1="68.57" y1="0" x2="68.57" y2="11.43" stroke="#111" stroke-width="1" stroke-linecap="round"/><line x1="80" y1="0" x2="91.43" y2="0" stroke="#111" stroke-width="1" stroke-linecap="round"/><line x1="80" y1="11.43" x2="91.43" y2="11.43" stroke="#111" stroke-width="1" stroke-linecap="round"/><line x1="91.43" y1="0" x2="102.86" y2="0" stroke="#111" stroke-width="1" stroke-linecap="round"/><line x1="102.86" y1="0" x2="114.29" y2="0" stroke="#111" stroke-width="1" stroke-linecap="round"/><line x1="102.86" y1="11.43" x2="114.29" y2="11.43" stroke="#111" stroke-width="1" stroke-linecap="round"/><line x1="114.29" y1="0" x2="125.71" y2="0" stroke="#111" stroke-width="1" stroke-linecap="round"/><line x1="114.29" y1="11.43" x2="125.71" y2="11.43" stroke="#111" stroke-width="1" stroke-linecap="round"/><line x1="125.71" y1="0" x2="137.14" y2="0" stroke="#111" stroke-width="1" stroke-linecap="round"/><line x1="125.71" y1="11.43" x2="137.14" y2="11.43" stroke="#111" stroke-width="1" stroke-linecap="round"/><line x1="137.14" y1="0" x2="148.57" y2="0" stroke="#111" stroke-width="1" stroke-linecap="round"/><line x1="148.57" y1="0" x2="148.57" y2="11.43" stroke="#111" stroke-width="1" stroke-linecap="round"/><line x1="148.57" y1="0" x2="160" y2="0" stroke="#111" stroke-width="1" stroke-linecap="round"/><line x1="160" y1="0" x2="160" y2="11.43" stroke="#111" stroke-width="1" stroke-linecap="round"/><line x1="148.57" y1="0" x2="148.57" y2="11.43" stroke="#111" stroke-width="1" stroke-linecap="round"/><line x1="0" y1="22.86" x2="11.43" y2="22.86" stroke="#111" stroke-width="1" stroke-linecap="round"/><line x1="0" y1="11.43" x2="0" y2="22.86" stroke="#111" stroke-width="1" stroke-linecap="round"/><line x1="11.43" y1="11.43" x2="22.86" y2="11.43" stroke="#111" stroke-width="1" stroke-linecap="round"/><line x1="11.43" y1="22.86" x2="22.86" y2="22.86" stroke="#111" stroke-width="1" stroke-linecap="round"/><line x1="22.86" y1="11.43" x2="34.29" y2="11.43" stroke="#111" stroke-width="1" stroke-linecap="round"/><line x1="34.29" y1="11.43" x2="34.29" y2="22.86" stroke="#111" stroke-width="1" stroke-linecap="round"/><line x1="34.29" y1="11.43" x2="34.29" y2="22.86" stroke="#111" stroke-width="1" stroke-linecap="round"/><line x1="45.71" y1="11.43" x2="57.14" y2="11.43" stroke="#111" stroke-width="1" stroke-linecap="round"/><line x1="45.71" y1="22.86" x2="57.14" y2="22.86" stroke="#111" stroke-width="1" stroke-linecap="round"/><line x1="57.14" y1="11.43" x2="68.57" y2="11.43" stroke="#111" stroke-width="1" stroke-linecap="round"/><line x1="57.14" y1="22.86" x2="68.57" y2="22.86" stroke="#111" stroke-width="1" stroke-linecap="round"/><line x1="68.57" y1="22.86" x2="80" y2="22.86" stroke="#111" stroke-width="1" stroke-linecap="round"/><line x1="80" y1="11.43" x2="91.43" y2="11.43" stroke="#111" stroke-width="1" stroke-linecap="round"/><line x1="91.43" y1="11.43" x2="91.43" y2="22.86" stroke="#111" stroke-width="1" stroke-linecap="round"/><line x1="80" y1="22.86" x2="91.43" y2="22.86" stroke="#111" stroke-width="1" stroke-linecap="round"/><line x1="102.86" y1="11.43" x2="102.86" y2="22.86" stroke="#111" stroke-width="1" stroke-linecap="round"/><line x1="91.43" y1="11.43" x2="91.43" y2="22.86" stroke="#111" stroke-width="1" stroke-linecap="round"/><line x1="102.86" y1="11.43" x2="114.29" y2="11.43" stroke="#111" stroke-width="1" stroke-linecap="round"/><line x1="102.86" y1="11.43" x2="102.86" y2="22.86" stroke="#111" stroke-width="1" stroke-linecap="round"/><line x1="114.29" y1="11.43" x2="125.71" y2="11.43" stroke="#111" stroke-width="1" stroke-linecap="round"/><line x1="114.29" y1="22.86" x2="125.71" y2="22.86" stroke="#111" stroke-width="1" stroke-linecap="round"/><line x1="125.71" y1="11.43" x2="137.14" y2="11.43" stroke="#111" stroke-width="1" stroke-linecap="round"/><line x1="137.14" y1="11.43" x2="137.14" y2="22.86" stroke="#111" stroke-width="1" stroke-linecap="round"/><line x1="137.14" y1="22.86" x2="148.57" y2="22.86" stroke="#111" stroke-width="1" stroke-linecap="round"/><line x1="137.14" y1="11.43" x2="137.14" y2="22.86" stroke="#111" stroke-width="1" stroke-linecap="round"/><line x1="160" y1="11.43" x2="160" y2="22.86" stroke="#111" stroke-width="1" stroke-linecap="round"/><line x1="0" y1="22.86" x2="11.43" y2="22.86" stroke="#111" stroke-width="1" stroke-linecap="round"/><line x1="0" y1="22.86" x2="0" y2="34.29" stroke="#111" stroke-width="1" stroke-linecap="round"/><line x1="11.43" y1="22.86" x2="22.86" y2="22.86" stroke="#111" stroke-width="1" stroke-linecap="round"/><line x1="11.43" y1="34.29" x2="22.86" y2="34.29" stroke="#111" stroke-width="1" stroke-linecap="round"/><line x1="34.29" y1="22.86" x2="34.29" y2="34.29" stroke="#111" stroke-width="1" stroke-linecap="round"/><line x1="22.86" y1="34.29" x2="34.29" y2="34.29" stroke="#111" stroke-width="1" stroke-linecap="round"/><line x1="34.29" y1="34.29" x2="45.71" y2="34.29" stroke="#111" stroke-width="1" stroke-linecap="round"/><line x1="34.29" y1="22.86" x2="34.29" y2="34.29" stroke="#111" stroke-width="1" stroke-linecap="round"/><line x1="45.71" y1="22.86" x2="57.14" y2="22.86" stroke="#111" stroke-width="1" stroke-linecap="round"/><line x1="57.14" y1="22.86" x2="57.14" y2="34.29" stroke="#111" stroke-width="1" stroke-linecap="round"/><line x1="57.14" y1="22.86" x2="68.57" y2="22.86" stroke="#111" stroke-width="1" stroke-linecap="round"/><line x1="57.14" y1="22.86" x2="57.14" y2="34.29" stroke="#111" stroke-width="1" stroke-linecap="round"/><line x1="68.57" y1="22.86" x2="80" y2="22.86" stroke="#111" stroke-width="1" stroke-linecap="round"/><line x1="80" y1="22.86" x2="80" y2="34.29" stroke="#111" stroke-width="1" stroke-linecap="round"/><line x1="80" y1="22.86" x2="91.43" y2="22.86" stroke="#111" stroke-width="1" stroke-linecap="round"/><line x1="80" y1="22.86" x2="80" y2="34.29" stroke="#111" stroke-width="1" stroke-linecap="round"/><line x1="102.86" y1="22.86" x2="102.86" y2="34.29" stroke="#111" stroke-width="1" stroke-linecap="round"/><line x1="91.43" y1="34.29" x2="102.86" y2="34.29" stroke="#111" stroke-width="1" stroke-linecap="round"/><line x1="114.29" y1="22.86" x2="114.29" y2="34.29" stroke="#111" stroke-width="1" stroke-linecap="round"/><line x1="102.86" y1="22.86" x2="102.86" y2="34.29" stroke="#111" stroke-width="1" stroke-linecap="round"/><line x1="114.29" y1="22.86" x2="125.71" y2="22.86" stroke="#111" stroke-width="1" stroke-linecap="round"/><line x1="125.71" y1="22.86" x2="125.71" y2="34.29" stroke="#111" stroke-width="1" stroke-linecap="round"/><line x1="114.29" y1="22.86" x2="114.29" y2="34.29" stroke="#111" stroke-width="1" stroke-linecap="round"/><line x1="125.71" y1="34.29" x2="137.14" y2="34.29" stroke="#111" stroke-width="1" stroke-linecap="round"/><line x1="125.71" y1="22.86" x2="125.71" y2="34.29" stroke="#111" stroke-width="1" stroke-linecap="round"/><line x1="137.14" y1="22.86" x2="148.57" y2="22.86" stroke="#111" stroke-width="1" stroke-linecap="round"/><line x1="148.57" y1="22.86" x2="148.57" y2="34.29" stroke="#111" stroke-width="1" stroke-linecap="round"/><line x1="160" y1="22.86" x2="160" y2="34.29" stroke="#111" stroke-width="1" stroke-linecap="round"/><line x1="148.57" y1="22.86" x2="148.57" y2="34.29" stroke="#111" stroke-width="1" stroke-linecap="round"/><line x1="0" y1="45.71" x2="11.43" y2="45.71" stroke="#111" stroke-width="1" stroke-linecap="round"/><line x1="0" y1="34.29" x2="0" y2="45.71" stroke="#111" stroke-width="1" stroke-linecap="round"/><line x1="11.43" y1="34.29" x2="22.86" y2="34.29" stroke="#111" stroke-width="1" stroke-linecap="round"/><line x1="22.86" y1="34.29" x2="22.86" y2="45.71" stroke="#111" stroke-width="1" stroke-linecap="round"/><line x1="22.86" y1="34.29" x2="34.29" y2="34.29" stroke="#111" stroke-width="1" stroke-linecap="round"/><line x1="22.86" y1="45.71" x2="34.29" y2="45.71" stroke="#111" stroke-width="1" stroke-linecap="round"/><line x1="22.86" y1="34.29" x2="22.86" y2="45.71" stroke="#111" stroke-width="1" stroke-linecap="round"/><line x1="34.29" y1="34.29" x2="45.71" y2="34.29" stroke="#111" stroke-width="1" stroke-linecap="round"/><line x1="57.14" y1="34.29" x2="57.14" y2="45.71" stroke="#111" stroke-width="1" stroke-linecap="round"/><line x1="45.71" y1="45.71" x2="57.14" y2="45.71" stroke="#111" stroke-width="1" stroke-linecap="round"/><line x1="68.57" y1="34.29" x2="68.57" y2="45.71" stroke="#111" stroke-width="1" stroke-linecap="round"/><line x1="57.14" y1="34.29" x2="57.14" y2="45.71" stroke="#111" stroke-width="1" stroke-linecap="round"/><line x1="68.57" y1="45.71" x2="80" y2="45.71" stroke="#111" stroke-width="1" stroke-linecap="round"/><line x1="68.57" y1="34.29" x2="68.57" y2="45.71" stroke="#111" stroke-width="1" stroke-linecap="round"/><line x1="91.43" y1="34.29" x2="91.43" y2="45.71" stroke="#111" stroke-width="1" stroke-linecap="round"/><line x1="80" y1="45.71" x2="91.43" y2="45.71" stroke="#111" stroke-width="1" stroke-linecap="round"/><line x1="91.43" y1="34.29" x2="102.86" y2="34.29" stroke="#111" stroke-width="1" stroke-linecap="round"/><line x1="91.43" y1="34.29" x2="91.43" y2="45.71" stroke="#111" stroke-width="1" stroke-linecap="round"/><line x1="114.29" y1="34.29" x2="114.29" y2="45.71" stroke="#111" stroke-width="1" stroke-linecap="round"/><line x1="102.86" y1="45.71" x2="114.29" y2="45.71" stroke="#111" stroke-width="1" stroke-linecap="round"/><line x1="114.29" y1="34.29" x2="114.29" y2="45.71" stroke="#111" stroke-width="1" stroke-linecap="round"/><line x1="125.71" y1="34.29" x2="137.14" y2="34.29" stroke="#111" stroke-width="1" stroke-linecap="round"/><line x1="137.14" y1="34.29" x2="137.14" y2="45.71" stroke="#111" stroke-width="1" stroke-linecap="round"/><line x1="137.14" y1="45.71" x2="148.57" y2="45.71" stroke="#111" stroke-width="1" stroke-linecap="round"/><line x1="137.14" y1="34.29" x2="137.14" y2="45.71" stroke="#111" stroke-width="1" stroke-linecap="round"/><line x1="160" y1="34.29" x2="160" y2="45.71" stroke="#111" stroke-width="1" stroke-linecap="round"/><line x1="148.57" y1="45.71" x2="160" y2="45.71" stroke="#111" stroke-width="1" stroke-linecap="round"/><line x1="0" y1="45.71" x2="11.43" y2="45.71" stroke="#111" stroke-width="1" stroke-linecap="round"/><line x1="11.43" y1="45.71" x2="11.43" y2="57.14" stroke="#111" stroke-width="1" stroke-linecap="round"/><line x1="0" y1="45.71" x2="0" y2="57.14" stroke="#111" stroke-width="1" stroke-linecap="round"/><line x1="11.43" y1="57.14" x2="22.86" y2="57.14" stroke="#111" stroke-width="1" stroke-linecap="round"/><line x1="11.43" y1="45.71" x2="11.43" y2="57.14" stroke="#111" stroke-width="1" stroke-linecap="round"/><line x1="22.86" y1="45.71" x2="34.29" y2="45.71" stroke="#111" stroke-width="1" stroke-linecap="round"/><line x1="34.29" y1="45.71" x2="34.29" y2="57.14" stroke="#111" stroke-width="1" stroke-linecap="round"/><line x1="45.71" y1="45.71" x2="45.71" y2="57.14" stroke="#111" stroke-width="1" stroke-linecap="round"/><line x1="34.29" y1="57.14" x2="45.71" y2="57.14" stroke="#111" stroke-width="1" stroke-linecap="round"/><line x1="34.29" y1="45.71" x2="34.29" y2="57.14" stroke="#111" stroke-width="1" stroke-linecap="round"/><line x1="45.71" y1="45.71" x2="57.14" y2="45.71" stroke="#111" stroke-width="1" stroke-linecap="round"/><line x1="45.71" y1="45.71" x2="45.71" y2="57.14" stroke="#111" stroke-width="1" stroke-linecap="round"/><line x1="68.57" y1="45.71" x2="68.57" y2="57.14" stroke="#111" stroke-width="1" stroke-linecap="round"/><line x1="57.14" y1="57.14" x2="68.57" y2="57.14" stroke="#111" stroke-width="1" stroke-linecap="round"/><line x1="68.57" y1="45.71" x2="80" y2="45.71" stroke="#111" stroke-width="1" stroke-linecap="round"/><line x1="68.57" y1="45.71" x2="68.57" y2="57.14" stroke="#111" stroke-width="1" stroke-linecap="round"/><line x1="80" y1="45.71" x2="91.43" y2="45.71" stroke="#111" stroke-width="1" stroke-linecap="round"/><line x1="80" y1="57.14" x2="91.43" y2="57.14" stroke="#111" stroke-width="1" stroke-linecap="round"/><line x1="102.86" y1="45.71" x2="102.86" y2="57.14" stroke="#111" stroke-width="1" stroke-linecap="round"/><line x1="91.43" y1="57.14" x2="102.86" y2="57.14" stroke="#111" stroke-width="1" stroke-linecap="round"/><line x1="102.86" y1="45.71" x2="114.29" y2="45.71" stroke="#111" stroke-width="1" stroke-linecap="round"/><line x1="102.86" y1="45.71" x2="102.86" y2="57.14" stroke="#111" stroke-width="1" stroke-linecap="round"/><line x1="125.71" y1="45.71" x2="125.71" y2="57.14" stroke="#111" stroke-width="1" stroke-linecap="round"/><line x1="114.29" y1="57.14" x2="125.71" y2="57.14" stroke="#111" stroke-width="1" stroke-linecap="round"/><line x1="125.71" y1="57.14" x2="137.14" y2="57.14" stroke="#111" stroke-width="1" stroke-linecap="round"/><line x1="125.71" y1="45.71" x2="125.71" y2="57.14" stroke="#111" stroke-width="1" stroke-linecap="round"/><line x1="137.14" y1="45.71" x2="148.57" y2="45.71" stroke="#111" stroke-width="1" stroke-linecap="round"/><line x1="148.57" y1="45.71" x2="148.57" y2="57.14" stroke="#111" stroke-width="1" stroke-linecap="round"/><line x1="148.57" y1="45.71" x2="160" y2="45.71" stroke="#111" stroke-width="1" stroke-linecap="round"/><line x1="160" y1="45.71" x2="160" y2="57.14" stroke="#111" stroke-width="1" stroke-linecap="round"/><line x1="148.57" y1="45.71" x2="148.57" y2="57.14" stroke="#111" stroke-width="1" stroke-linecap="round"/><line x1="0" y1="57.14" x2="0" y2="68.57" stroke="#111" stroke-width="1" stroke-linecap="round"/><line x1="11.43" y1="57.14" x2="22.86" y2="57.14" stroke="#111" stroke-width="1" stroke-linecap="round"/><line x1="22.86" y1="57.14" x2="22.86" y2="68.57" stroke="#111" stroke-width="1" stroke-linecap="round"/><line x1="22.86" y1="68.57" x2="34.29" y2="68.57" stroke="#111" stroke-width="1" stroke-linecap="round"/><line x1="22.86" y1="57.14" x2="22.86" y2="68.57" stroke="#111" stroke-width="1" stroke-linecap="round"/><line x1="34.29" y1="57.14" x2="45.71" y2="57.14" stroke="#111" stroke-width="1" stroke-linecap="round"/><line x1="34.29" y1="68.57" x2="45.71" y2="68.57" stroke="#111" stroke-width="1" stroke-linecap="round"/><line x1="57.14" y1="57.14" x2="57.14" y2="68.57" stroke="#111" stroke-width="1" stroke-linecap="round"/><line x1="45.71" y1="68.57" x2="57.14" y2="68.57" stroke="#111" stroke-width="1" stroke-linecap="round"/><line x1="57.14" y1="57.14" x2="68.57" y2="57.14" stroke="#111" stroke-width="1" stroke-linecap="round"/><line x1="57.14" y1="57.14" x2="57.14" y2="68.57" stroke="#111" stroke-width="1" stroke-linecap="round"/><line x1="80" y1="57.14" x2="80" y2="68.57" stroke="#111" stroke-width="1" stroke-linecap="round"/><line x1="68.57" y1="68.57" x2="80" y2="68.57" stroke="#111" stroke-width="1" stroke-linecap="round"/><line x1="80" y1="57.14" x2="91.43" y2="57.14" stroke="#111" stroke-width="1" stroke-linecap="round"/><line x1="80" y1="57.14" x2="80" y2="68.57" stroke="#111" stroke-width="1" stroke-linecap="round"/><line x1="91.43" y1="57.14" x2="102.86" y2="57.14" stroke="#111" stroke-width="1" stroke-linecap="round"/><line x1="91.43" y1="68.57" x2="102.86" y2="68.57" stroke="#111" stroke-width="1" stroke-linecap="round"/><line x1="114.29" y1="57.14" x2="114.29" y2="68.57" stroke="#111" stroke-width="1" stroke-linecap="round"/><line x1="102.86" y1="68.57" x2="114.29" y2="68.57" stroke="#111" stroke-width="1" stroke-linecap="round"/><line x1="114.29" y1="57.14" x2="125.71" y2="57.14" stroke="#111" stroke-width="1" stroke-linecap="round"/><line x1="114.29" y1="57.14" x2="114.29" y2="68.57" stroke="#111" stroke-width="1" stroke-linecap="round"/><line x1="125.71" y1="57.14" x2="137.14" y2="57.14" stroke="#111" stroke-width="1" stroke-linecap="round"/><line x1="137.14" y1="57.14" x2="137.14" y2="68.57" stroke="#111" stroke-width="1" stroke-linecap="round"/><line x1="137.14" y1="68.57" x2="148.57" y2="68.57" stroke="#111" stroke-width="1" stroke-linecap="round"/><line x1="137.14" y1="57.14" x2="137.14" y2="68.57" stroke="#111" stroke-width="1" stroke-linecap="round"/><line x1="160" y1="57.14" x2="160" y2="68.57" stroke="#111" stroke-width="1" stroke-linecap="round"/><line x1="11.43" y1="68.57" x2="11.43" y2="80" stroke="#111" stroke-width="1" stroke-linecap="round"/><line x1="0" y1="68.57" x2="0" y2="80" stroke="#111" stroke-width="1" stroke-linecap="round"/><line x1="11.43" y1="68.57" x2="11.43" y2="80" stroke="#111" stroke-width="1" stroke-linecap="round"/><line x1="22.86" y1="68.57" x2="34.29" y2="68.57" stroke="#111" stroke-width="1" stroke-linecap="round"/><line x1="34.29" y1="68.57" x2="45.71" y2="68.57" stroke="#111" stroke-width="1" stroke-linecap="round"/><line x1="34.29" y1="80" x2="45.71" y2="80" stroke="#111" stroke-width="1" stroke-linecap="round"/><line x1="45.71" y1="68.57" x2="57.14" y2="68.57" stroke="#111" stroke-width="1" stroke-linecap="round"/><line x1="57.14" y1="68.57" x2="57.14" y2="80" stroke="#111" stroke-width="1" stroke-linecap="round"/><line x1="45.71" y1="80" x2="57.14" y2="80" stroke="#111" stroke-width="1" stroke-linecap="round"/><line x1="68.57" y1="68.57" x2="68.57" y2="80" stroke="#111" stroke-width="1" stroke-linecap="round"/><line x1="57.14" y1="68.57" x2="57.14" y2="80" stroke="#111" stroke-width="1" stroke-linecap="round"/><line x1="68.57" y1="68.57" x2="80" y2="68.57" stroke="#111" stroke-width="1" stroke-linecap="round"/><line x1="68.57" y1="80" x2="80" y2="80" stroke="#111" stroke-width="1" stroke-linecap="round"/><line x1="68.57" y1="68.57" x2="68.57" y2="80" stroke="#111" stroke-width="1" stroke-linecap="round"/><line x1="91.43" y1="68.57" x2="91.43" y2="80" stroke="#111" stroke-width="1" stroke-linecap="round"/><line x1="91.43" y1="68.57" x2="102.86" y2="68.57" stroke="#111" stroke-width="1" stroke-linecap="round"/><line x1="91.43" y1="68.57" x2="91.43" y2="80" stroke="#111" stroke-width="1" stroke-linecap="round"/><line x1="102.86" y1="68.57" x2="114.29" y2="68.57" stroke="#111" stroke-width="1" stroke-linecap="round"/><line x1="114.29" y1="68.57" x2="114.29" y2="80" stroke="#111" stroke-width="1" stroke-linecap="round"/><line x1="102.86" y1="80" x2="114.29" y2="80" stroke="#111" stroke-width="1" stroke-linecap="round"/><line x1="125.71" y1="68.57" x2="125.71" y2="80" stroke="#111" stroke-width="1" stroke-linecap="round"/><line x1="114.29" y1="68.57" x2="114.29" y2="80" stroke="#111" stroke-width="1" stroke-linecap="round"/><line x1="125.71" y1="80" x2="137.14" y2="80" stroke="#111" stroke-width="1" stroke-linecap="round"/><line x1="125.71" y1="68.57" x2="125.71" y2="80" stroke="#111" stroke-width="1" stroke-linecap="round"/><line x1="137.14" y1="68.57" x2="148.57" y2="68.57" stroke="#111" stroke-width="1" stroke-linecap="round"/><line x1="148.57" y1="68.57" x2="148.57" y2="80" stroke="#111" stroke-width="1" stroke-linecap="round"/><line x1="160" y1="68.57" x2="160" y2="80" stroke="#111" stroke-width="1" stroke-linecap="round"/><line x1="148.57" y1="68.57" x2="148.57" y2="80" stroke="#111" stroke-width="1" stroke-linecap="round"/><line x1="11.43" y1="80" x2="11.43" y2="91.43" stroke="#111" stroke-width="1" stroke-linecap="round"/><line x1="0" y1="91.43" x2="11.43" y2="91.43" stroke="#111" stroke-width="1" stroke-linecap="round"/><line x1="0" y1="80" x2="0" y2="91.43" stroke="#111" stroke-width="1" stroke-linecap="round"/><line x1="22.86" y1="80" x2="22.86" y2="91.43" stroke="#111" stroke-width="1" stroke-linecap="round"/><line x1="11.43" y1="80" x2="11.43" y2="91.43" stroke="#111" stroke-width="1" stroke-linecap="round"/><line x1="34.29" y1="80" x2="34.29" y2="91.43" stroke="#111" stroke-width="1" stroke-linecap="round"/><line x1="22.86" y1="91.43" x2="34.29" y2="91.43" stroke="#111" stroke-width="1" stroke-linecap="round"/><line x1="22.86" y1="80" x2="22.86" y2="91.43" stroke="#111" stroke-width="1" stroke-linecap="round"/><line x1="34.29" y1="80" x2="45.71" y2="80" stroke="#111" stroke-width="1" stroke-linecap="round"/><line x1="34.29" y1="80" x2="34.29" y2="91.43" stroke="#111" stroke-width="1" stroke-linecap="round"/><line x1="45.71" y1="80" x2="57.14" y2="80" stroke="#111" stroke-width="1" stroke-linecap="round"/><line x1="57.14" y1="80" x2="57.14" y2="91.43" stroke="#111" stroke-width="1" stroke-linecap="round"/><line x1="57.14" y1="91.43" x2="68.57" y2="91.43" stroke="#111" stroke-width="1" stroke-linecap="round"/><line x1="57.14" y1="80" x2="57.14" y2="91.43" stroke="#111" stroke-width="1" stroke-linecap="round"/><line x1="68.57" y1="80" x2="80" y2="80" stroke="#111" stroke-width="1" stroke-linecap="round"/><line x1="80" y1="80" x2="80" y2="91.43" stroke="#111" stroke-width="1" stroke-linecap="round"/><line x1="91.43" y1="80" x2="91.43" y2="91.43" stroke="#111" stroke-width="1" stroke-linecap="round"/><line x1="80" y1="80" x2="80" y2="91.43" stroke="#111" stroke-width="1" stroke-linecap="round"/><line x1="91.43" y1="91.43" x2="102.86" y2="91.43" stroke="#111" stroke-width="1" stroke-linecap="round"/><line x1="91.43" y1="80" x2="91.43" y2="91.43" stroke="#111" stroke-width="1" stroke-linecap="round"/><line x1="102.86" y1="80" x2="114.29" y2="80" stroke="#111" stroke-width="1" stroke-linecap="round"/><line x1="125.71" y1="80" x2="125.71" y2="91.43" stroke="#111" stroke-width="1" stroke-linecap="round"/><line x1="114.29" y1="91.43" x2="125.71" y2="91.43" stroke="#111" stroke-width="1" stroke-linecap="round"/><line x1="125.71" y1="80" x2="137.14" y2="80" stroke="#111" stroke-width="1" stroke-linecap="round"/><line x1="137.14" y1="80" x2="137.14" y2="91.43" stroke="#111" stroke-width="1" stroke-linecap="round"/><line x1="125.71" y1="80" x2="125.71" y2="91.43" stroke="#111" stroke-width="1" stroke-linecap="round"/><line x1="137.14" y1="91.43" x2="148.57" y2="91.43" stroke="#111" stroke-width="1" stroke-linecap="round"/><line x1="137.14" y1="80" x2="137.14" y2="91.43" stroke="#111" stroke-width="1" stroke-linecap="round"/><line x1="160" y1="80" x2="160" y2="91.43" stroke="#111" stroke-width="1" stroke-linecap="round"/><line x1="148.57" y1="91.43" x2="160" y2="91.43" stroke="#111" stroke-width="1" stroke-linecap="round"/><line x1="0" y1="91.43" x2="11.43" y2="91.43" stroke="#111" stroke-width="1" stroke-linecap="round"/><line x1="0" y1="91.43" x2="0" y2="102.86" stroke="#111" stroke-width="1" stroke-linecap="round"/><line x1="22.86" y1="91.43" x2="22.86" y2="102.86" stroke="#111" stroke-width="1" stroke-linecap="round"/><line x1="22.86" y1="91.43" x2="34.29" y2="91.43" stroke="#111" stroke-width="1" stroke-linecap="round"/><line x1="22.86" y1="91.43" x2="22.86" y2="102.86" stroke="#111" stroke-width="1" stroke-linecap="round"/><line x1="45.71" y1="91.43" x2="45.71" y2="102.86" stroke="#111" stroke-width="1" stroke-linecap="round"/><line x1="34.29" y1="102.86" x2="45.71" y2="102.86" stroke="#111" stroke-width="1" stroke-linecap="round"/><line x1="45.71" y1="102.86" x2="57.14" y2="102.86" stroke="#111" stroke-width="1" stroke-linecap="round"/><line x1="45.71" y1="91.43" x2="45.71" y2="102.86" stroke="#111" stroke-width="1" stroke-linecap="round"/><line x1="57.14" y1="91.43" x2="68.57" y2="91.43" stroke="#111" stroke-width="1" stroke-linecap="round"/><line x1="68.57" y1="91.43" x2="68.57" y2="102.86" stroke="#111" stroke-width="1" stroke-linecap="round"/><line x1="80" y1="91.43" x2="80" y2="102.86" stroke="#111" stroke-width="1" stroke-linecap="round"/><line x1="68.57" y1="91.43" x2="68.57" y2="102.86" stroke="#111" stroke-width="1" stroke-linecap="round"/><line x1="80" y1="102.86" x2="91.43" y2="102.86" stroke="#111" stroke-width="1" stroke-linecap="round"/><line x1="80" y1="91.43" x2="80" y2="102.86" stroke="#111" stroke-width="1" stroke-linecap="round"/><line x1="91.43" y1="91.43" x2="102.86" y2="91.43" stroke="#111" stroke-width="1" stroke-linecap="round"/><line x1="102.86" y1="91.43" x2="102.86" y2="102.86" stroke="#111" stroke-width="1" stroke-linecap="round"/><line x1="102.86" y1="102.86" x2="114.29" y2="102.86" stroke="#111" stroke-width="1" stroke-linecap="round"/><line x1="102.86" y1="91.43" x2="102.86" y2="102.86" stroke="#111" stroke-width="1" stroke-linecap="round"/><line x1="114.29" y1="91.43" x2="125.71" y2="91.43" stroke="#111" stroke-width="1" stroke-linecap="round"/><line x1="114.29" y1="102.86" x2="125.71" y2="102.86" stroke="#111" stroke-width="1" stroke-linecap="round"/><line x1="125.71" y1="102.86" x2="137.14" y2="102.86" stroke="#111" stroke-width="1" stroke-linecap="round"/><line x1="137.14" y1="91.43" x2="148.57" y2="91.43" stroke="#111" stroke-width="1" stroke-linecap="round"/><line x1="137.14" y1="102.86" x2="148.57" y2="102.86" stroke="#111" stroke-width="1" stroke-linecap="round"/><line x1="148.57" y1="91.43" x2="160" y2="91.43" stroke="#111" stroke-width="1" stroke-linecap="round"/><line x1="160" y1="91.43" x2="160" y2="102.86" stroke="#111" stroke-width="1" stroke-linecap="round"/><line x1="11.43" y1="102.86" x2="11.43" y2="114.29" stroke="#111" stroke-width="1" stroke-linecap="round"/><line x1="0" y1="102.86" x2="0" y2="114.29" stroke="#111" stroke-width="1" stroke-linecap="round"/><line x1="22.86" y1="102.86" x2="22.86" y2="114.29" stroke="#111" stroke-width="1" stroke-linecap="round"/><line x1="11.43" y1="114.29" x2="22.86" y2="114.29" stroke="#111" stroke-width="1" stroke-linecap="round"/><line x1="11.43" y1="102.86" x2="11.43" y2="114.29" stroke="#111" stroke-width="1" stroke-linecap="round"/><line x1="34.29" y1="102.86" x2="34.29" y2="114.29" stroke="#111" stroke-width="1" stroke-linecap="round"/><line x1="22.86" y1="102.86" x2="22.86" y2="114.29" stroke="#111" stroke-width="1" stroke-linecap="round"/><line x1="34.29" y1="102.86" x2="45.71" y2="102.86" stroke="#111" stroke-width="1" stroke-linecap="round"/><line x1="45.71" y1="102.86" x2="45.71" y2="114.29" stroke="#111" stroke-width="1" stroke-linecap="round"/><line x1="34.29" y1="102.86" x2="34.29" y2="114.29" stroke="#111" stroke-width="1" stroke-linecap="round"/><line x1="45.71" y1="102.86" x2="57.14" y2="102.86" stroke="#111" stroke-width="1" stroke-linecap="round"/><line x1="45.71" y1="102.86" x2="45.71" y2="114.29" stroke="#111" stroke-width="1" stroke-linecap="round"/><line x1="68.57" y1="102.86" x2="68.57" y2="114.29" stroke="#111" stroke-width="1" stroke-linecap="round"/><line x1="57.14" y1="114.29" x2="68.57" y2="114.29" stroke="#111" stroke-width="1" stroke-linecap="round"/><line x1="68.57" y1="114.29" x2="80" y2="114.29" stroke="#111" stroke-width="1" stroke-linecap="round"/><line x1="68.57" y1="102.86" x2="68.57" y2="114.29" stroke="#111" stroke-width="1" stroke-linecap="round"/><line x1="80" y1="102.86" x2="91.43" y2="102.86" stroke="#111" stroke-width="1" stroke-linecap="round"/><line x1="91.43" y1="102.86" x2="91.43" y2="114.29" stroke="#111" stroke-width="1" stroke-linecap="round"/><line x1="91.43" y1="114.29" x2="102.86" y2="114.29" stroke="#111" stroke-width="1" stroke-linecap="round"/><line x1="91.43" y1="102.86" x2="91.43" y2="114.29" stroke="#111" stroke-width="1" stroke-linecap="round"/><line x1="102.86" y1="102.86" x2="114.29" y2="102.86" stroke="#111" stroke-width="1" stroke-linecap="round"/><line x1="102.86" y1="114.29" x2="114.29" y2="114.29" stroke="#111" stroke-width="1" stroke-linecap="round"/><line x1="114.29" y1="102.86" x2="125.71" y2="102.86" stroke="#111" stroke-width="1" stroke-linecap="round"/><line x1="125.71" y1="102.86" x2="125.71" y2="114.29" stroke="#111" stroke-width="1" stroke-linecap="round"/><line x1="125.71" y1="102.86" x2="137.14" y2="102.86" stroke="#111" stroke-width="1" stroke-linecap="round"/><line x1="125.71" y1="102.86" x2="125.71" y2="114.29" stroke="#111" stroke-width="1" stroke-linecap="round"/><line x1="137.14" y1="102.86" x2="148.57" y2="102.86" stroke="#111" stroke-width="1" stroke-linecap="round"/><line x1="137.14" y1="114.29" x2="148.57" y2="114.29" stroke="#111" stroke-width="1" stroke-linecap="round"/><line x1="160" y1="102.86" x2="160" y2="114.29" stroke="#111" stroke-width="1" stroke-linecap="round"/><line x1="148.57" y1="114.29" x2="160" y2="114.29" stroke="#111" stroke-width="1" stroke-linecap="round"/><line x1="0" y1="125.71" x2="11.43" y2="125.71" stroke="#111" stroke-width="1" stroke-linecap="round"/><line x1="0" y1="114.29" x2="0" y2="125.71" stroke="#111" stroke-width="1" stroke-linecap="round"/><line x1="11.43" y1="114.29" x2="22.86" y2="114.29" stroke="#111" stroke-width="1" stroke-linecap="round"/><line x1="11.43" y1="125.71" x2="22.86" y2="125.71" stroke="#111" stroke-width="1" stroke-linecap="round"/><line x1="22.86" y1="125.71" x2="34.29" y2="125.71" stroke="#111" stroke-width="1" stroke-linecap="round"/><line x1="45.71" y1="114.29" x2="45.71" y2="125.71" stroke="#111" stroke-width="1" stroke-linecap="round"/><line x1="34.29" y1="125.71" x2="45.71" y2="125.71" stroke="#111" stroke-width="1" stroke-linecap="round"/><line x1="45.71" y1="125.71" x2="57.14" y2="125.71" stroke="#111" stroke-width="1" stroke-linecap="round"/><line x1="45.71" y1="114.29" x2="45.71" y2="125.71" stroke="#111" stroke-width="1" stroke-linecap="round"/><line x1="57.14" y1="114.29" x2="68.57" y2="114.29" stroke="#111" stroke-width="1" stroke-linecap="round"/><line x1="57.14" y1="125.71" x2="68.57" y2="125.71" stroke="#111" stroke-width="1" stroke-linecap="round"/><line x1="68.57" y1="114.29" x2="80" y2="114.29" stroke="#111" stroke-width="1" stroke-linecap="round"/><line x1="68.57" y1="125.71" x2="80" y2="125.71" stroke="#111" stroke-width="1" stroke-linecap="round"/><line x1="80" y1="125.71" x2="91.43" y2="125.71" stroke="#111" stroke-width="1" stroke-linecap="round"/><line x1="91.43" y1="114.29" x2="102.86" y2="114.29" stroke="#111" stroke-width="1" stroke-linecap="round"/><line x1="91.43" y1="125.71" x2="102.86" y2="125.71" stroke="#111" stroke-width="1" stroke-linecap="round"/><line x1="102.86" y1="114.29" x2="114.29" y2="114.29" stroke="#111" stroke-width="1" stroke-linecap="round"/><line x1="102.86" y1="125.71" x2="114.29" y2="125.71" stroke="#111" stroke-width="1" stroke-linecap="round"/><line x1="125.71" y1="114.29" x2="125.71" y2="125.71" stroke="#111" stroke-width="1" stroke-linecap="round"/><line x1="114.29" y1="125.71" x2="125.71" y2="125.71" stroke="#111" stroke-width="1" stroke-linecap="round"/><line x1="125.71" y1="125.71" x2="137.14" y2="125.71" stroke="#111" stroke-width="1" stroke-linecap="round"/><line x1="125.71" y1="114.29" x2="125.71" y2="125.71" stroke="#111" stroke-width="1" stroke-linecap="round"/><line x1="137.14" y1="114.29" x2="148.57" y2="114.29" stroke="#111" stroke-width="1" stroke-linecap="round"/><line x1="137.14" y1="125.71" x2="148.57" y2="125.71" stroke="#111" stroke-width="1" stroke-linecap="round"/><line x1="148.57" y1="114.29" x2="160" y2="114.29" stroke="#111" stroke-width="1" stroke-linecap="round"/><line x1="160" y1="114.29" x2="160" y2="125.71" stroke="#111" stroke-width="1" stroke-linecap="round"/><path d="M 4 6.91 L 4 5.03 Q 5.71 2.11 7.43 5.03 L 7.43 6.91 Z" fill="none" stroke="#111" stroke-width="0.90" stroke-linejoin="round" stroke-linecap="round"/><path d="M 4 6.06 L 2.46 7.60 L 4 6.91 M 7.43 6.06 L 8.97 7.60 L 7.43 6.91" fill="none" stroke="#111" stroke-width="0.90" stroke-linejoin="round" stroke-linecap="round"/><circle cx="5.71" cy="5.20" r="0.69" fill="none" stroke="#111" stroke-width="0.90" stroke-linejoin="round" stroke-linecap="round"/><circle cx="154.29" cy="120" r="2.13" fill="none" stroke="#111" stroke-width="0.90" stroke-linejoin="round" stroke-linecap="round"/><path d="M 150.86 120.75 Q 154.29 122.47 157.71 120.75 Q 154.29 119.04 150.86 120.75 Z" fill="none" stroke="#111" stroke-width="0.90" stroke-linejoin="round" stroke-linecap="round"/></g></g>
  <text x="105" y="291" font-size="3" fill="#bbb" text-anchor="middle">Kalmo Kids · demo-maz</text>
</svg>