<svg xmlns="http://www.w3.org/2000/svg" width="210mm" height="297mm" viewBox="0 0 210 297" font-family="system-ui, -apple-system, sans-serif">
  <rect width="210" height="297" fill="#fff"/>
  <text x="14" y="20" font-size="6.5" font-weight="600" fill="#111">Labirintus</text>
  <text x="196" y="20" font-size="3.6" fill="#888" text-anchor="end">Lili  ·  2026. júl. 8.</text>
  <text x="14" y="28" font-size="4.2" fill="#444">Találd meg az utat a ponttól a csillagig!</text>
  <line x1="14" y1="32" x2="196" y2="32" stroke="#e5e5e5" stroke-width="0.3"/>
  <text x="196" y="28" font-size="4" fill="#d33" text-anchor="end">Megoldókulcs</text>
  <g transform="translate(14.00 40.00) scale(1.1375)"><g ><line x1="0" y1="32.14" x2="11.43" y2="32.14" stroke="#111" stroke-width="1" stroke-linecap="round"/><line x1="11.43" y1="32.14" x2="11.43" y2="43.57" stroke="#111" stroke-width="1" stroke-linecap="round"/><line x1="11.43" y1="32.14" x2="22.86" y2="32.14" stroke="#111" stroke-width="1" stroke-linecap="round"/><line x1="22.86" y1="32.14" x2="22.86" y2="43.57" stroke="#111" stroke-width="1" stroke-linecap="round"/><line x1="11.43" y1="32.14" x2="11.43" y2="43.57" stroke="#111" stroke-width="1" stroke-linecap="round"/><line x1="22.86" y1="32.14" x2="34.29" y2="32.14" stroke="#111" stroke-width="1" stroke-linecap="round"/><line x1="22.86" y1="32.14" x2="22.86" y2="43.57" stroke="#111" stroke-width="1" stroke-linecap="round"/><line x1="34.29" y1="32.14" x2="45.71" y2="32.14" stroke="#111" stroke-width="1" stroke-linecap="round"/><line x1="45.71" y1="32.14" x2="57.14" y2="32.14" stroke="#111" stroke-width="1" stroke-linecap="round"/><line x1="45.71" y1="43.57" x2="57.14" y2="43.57" stroke="#111" stroke-width="1" stroke-linecap="round"/><line x1="57.14" y1="32.14" x2="68.57" y2="32.14" stroke="#111" stroke-width="1" stroke-linecap="round"/><line x1="57.14" y1="43.57" x2="68.57" y2="43.57" stroke="#111" stroke-width="1" stroke-linecap="round"/><line x1="68.57" y1="32.14" x2="80" y2="32.14" stroke="#111" stroke-width="1" stroke-linecap="round"/><line x1="80" y1="32.14" x2="80" y2="43.57" stroke="#111" stroke-width="1" stroke-linecap="round"/><line x1="80" y1="32.14" x2="91.43" y2="32.14" stroke="#111" stroke-width="1" stroke-linecap="round"/><line x1="80" y1="32.14" x2="80" y2="43.57" stroke="#111" stroke-width="1" stroke-linecap="round"/><line x1="91.43" y1="32.14" x2="102.86" y2="32.14" stroke="#111" stroke-width="1" stroke-linecap="round"/><line x1="102.86" y1="32.14" x2="102.86" y2="43.57" stroke="#111" stroke-width="1" stroke-linecap="round"/><line x1="91.43" y1="43.57" x2="102.86" y2="43.57" stroke="#111" stroke-width="1" stroke-linecap="round"/><line x1="102.86" y1="32.14" x2="114.29" y2="32.14" stroke="#111" stroke-width="1" stroke-linecap="round"/><line x1="102.86" y1="32.14" x2="102.86" y2="43.57" stroke="#111" stroke-width="1" stroke-linecap="round"/><line x1="114.29" y1="32.14" x2="125.71" y2="32.14" stroke="#111" stroke-width="1" stroke-linecap="round"/><line x1="125.71" y1="32.14" x2="137.14" y2="32.14" stroke="#111" stroke-width="1" stroke-linecap="round"/><line x1="137.14" y1="32.14" x2="137.14" y2="43.57" stroke="#111" stroke-width="1" stroke-linecap="round"/><line x1="137.14" y1="32.14" x2="148.57" y2="32.14" stroke="#111" stroke-width="1" stroke-linecap="round"/><line x1="137.14" y1="32.14" x2="137.14" y2="43.57" stroke="#111" stroke-width="1" stroke-linecap="round"/><line x1="148.57" y1="32.14" x2="160" y2="32.14" stroke="#111" stroke-width="1" stroke-linecap="round"/><line x1="160" y1="32.14" x2="160" y2="43.57" stroke="#111" stroke-width="1" stroke-linecap="round"/><line x1="148.57" y1="43.57" x2="160" y2="43.57" stroke="#111" stroke-width="1" stroke-linecap="round"/><line x1="11.43" y1="43.57" x2="11.43" y2="55" stroke="#111" stroke-width="1" stroke-linecap="round"/><line x1="0" y1="43.57" x2="0" y2="55" stroke="#111" stroke-width="1" stroke-linecap="round"/><line x1="11.43" y1="55" x2="22.86" y2="55" stroke="#111" stroke-width="1" stroke-linecap="round"/><line x1="11.43" y1="43.57" x2="11.43" y2="55" stroke="#111" stroke-width="1" stroke-linecap="round"/><line x1="34.29" y1="43.57" x2="34.29" y2="55" stroke="#111" stroke-width="1" stroke-linecap="round"/><line x1="22.86" y1="55" x2="34.29" y2="55" stroke="#111" stroke-width="1" stroke-linecap="round"/><line x1="34.29" y1="55" x2="45.71" y2="55" stroke="#111" stroke-width="1" stroke-linecap="round"/><line x1="34.29" y1="43.57" x2="34.29" y2="55" stroke="#111" stroke-width="1" stroke-linecap="round"/><line x1="45.71" y1="43.57" x2="57.14" y2="43.57" stroke="#111" stroke-width="1" stroke-linecap="round"/><line x1="57.14" y1="43.57" x2="57.14" y2="55" stroke="#111" stroke-width="1" stroke-linecap="round"/><line x1="57.14" y1="43.57" x2="68.57" y2="43.57" stroke="#111" stroke-width="1" stroke-linecap="round"/><line x1="68.57" y1="43.57" x2="68.57" y2="55" stroke="#111" stroke-width="1" stroke-linecap="round"/><line x1="57.14" y1="43.57" x2="57.14" y2="55" stroke="#111" stroke-width="1" stroke-linecap="round"/><line x1="80" y1="43.57" x2="80" y2="55" stroke="#111" stroke-width="1" stroke-linecap="round"/><line x1="68.57" y1="43.57" x2="68.57" y2="55" stroke="#111" stroke-width="1" stroke-linecap="round"/><line x1="80" y1="43.57" x2="80" y2="55" stroke="#111" stroke-width="1" stroke-linecap="round"/><line x1="91.43" y1="43.57" x2="102.86" y2="43.57" stroke="#111" stroke-width="1" stroke-linecap="round"/><line x1="102.86" y1="43.57" x2="102.86" y2="55" stroke="#111" stroke-width="1" stroke-linecap="round"/><line x1="114.29" y1="43.57" x2="114.29" y2="55" stroke="#111" stroke-width="1" stroke-linecap="round"/><line x1="102.86" y1="43.57" x2="102.86" y2="55" stroke="#111" stroke-width="1" stroke-linecap="round"/><line x1="125.71" y1="43.57" x2="125.71" y2="55" stroke="#111" stroke-width="1" stroke-linecap="round"/><line x1="114.29" y1="43.57" x2="114.29" y2="55" stroke="#111" stroke-width="1" stroke-linecap="round"/><line x1="137.14" y1="43.57" x2="137.14" y2="55" stroke="#111" stroke-width="1" stroke-linecap="round"/><line x1="125.71" y1="43.57" x2="125.71" y2="55" stroke="#111" stroke-width="1" stroke-linecap="round"/><line x1="137.14" y1="55" x2="148.57" y2="55" stroke="#111" stroke-width="1" stroke-linecap="round"/><line x1="137.14" y1="43.57" x2="137.14" y2="55" stroke="#111" stroke-width="1" stroke-linecap="round"/><line x1="148.57" y1="43.57" x2="160" y2="43.57" stroke="#111" stroke-width="1" stroke-linecap="round"/><line x1="160" y1="43.57" x2="160" y2="55" stroke="#111" stroke-width="1" stroke-linecap="round"/><line x1="0" y1="66.43" x2="11.43" y2="66.43" stroke="#111" stroke-width="1" stroke-linecap="round"/><line x1="0" y1="55" x2="0" y2="66.43" stroke="#111" stroke-width="1" stroke-linecap="round"/><line x1="11.43" y1="55" x2="22.86" y2="55" stroke="#111" stroke-width="1" stroke-linecap="round"/><line x1="22.86" y1="55" x2="22.86" y2="66.43" stroke="#111" stroke-width="1" stroke-linecap="round"/><line x1="22.86" y1="55" x2="34.29" y2="55" stroke="#111" stroke-width="1" stroke-linecap="round"/><line x1="22.86" y1="55" x2="22.86" y2="66.43" stroke="#111" stroke-width="1" stroke-linecap="round"/><line x1="34.29" y1="55" x2="45.71" y2="55" stroke="#111" stroke-width="1" stroke-linecap="round"/><line x1="45.71" y1="55" x2="45.71" y2="66.43" stroke="#111" stroke-width="1" stroke-linecap="round"/><line x1="57.14" y1="55" x2="57.14" y2="66.43" stroke="#111" stroke-width="1" stroke-linecap="round"/><line x1="45.71" y1="55" x2="45.71" y2="66.43" stroke="#111" stroke-width="1" stroke-linecap="round"/><line x1="68.57" y1="55" x2="68.57" y2="66.43" stroke="#111" stroke-width="1" stroke-linecap="round"/><line x1="57.14" y1="55" x2="57.14" y2="66.43" stroke="#111" stroke-width="1" stroke-linecap="round"/><line x1="80" y1="55" x2="80" y2="66.43" stroke="#111" stroke-width="1" stroke-linecap="round"/><line x1="68.57" y1="55" x2="68.57" y2="66.43" stroke="#111" stroke-width="1" stroke-linecap="round"/><line x1="91.43" y1="55" x2="91.43" y2="66.43" stroke="#111" stroke-width="1" stroke-linecap="round"/><line x1="80" y1="55" x2="80" y2="66.43" stroke="#111" stroke-width="1" stroke-linecap="round"/><line x1="91.43" y1="66.43" x2="102.86" y2="66.43" stroke="#111" stroke-width="1" stroke-linecap="round"/><line x1="91.43" y1="55" x2="91.43" y2="66.43" stroke="#111" stroke-width="1" stroke-linecap="round"/><line x1="114.29" y1="55" x2="114.29" y2="66.43" stroke="#111" stroke-width="1" stroke-linecap="round"/><line x1="102.86" y1="66.43" x2="114.29" y2="66.43" stroke="#111" stroke-width="1" stroke-linecap="round"/><line x1="125.71" y1="55" x2="125.71" y2="66.43" stroke="#111" stroke-width="1" stroke-linecap="round"/><line x1="114.29" y1="55" x2="114.29" y2="66.43" stroke="#111" stroke-width="1" stroke-linecap="round"/><line x1="137.14" y1="55" x2="137.14" y2="66.43" stroke="#111" stroke-width="1" stroke-linecap="round"/><line x1="125.71" y1="55" x2="125.71" y2="66.43" stroke="#111" stroke-width="1" stroke-linecap="round"/><line x1="137.14" y1="55" x2="148.57" y2="55" stroke="#111" stroke-width="1" stroke-linecap="round"/><line x1="137.14" y1="55" x2="137.14" y2="66.43" stroke="#111" stroke-width="1" stroke-linecap="round"/><line x1="160" y1="55" x2="160" y2="66.43" stroke="#111" stroke-width="1" stroke-linecap="round"/><line x1="0" y1="66.43" x2="11.43" y2="66.43" stroke="#111" stroke-width="1" stroke-linecap="round"/><line x1="11.43" y1="66.43" x2="11.43" y2="77.86" stroke="#111" stroke-width="1" stroke-linecap="round"/><line x1="0" y1="66.43" x2="0" y2="77.86" stroke="#111" stroke-width="1" stroke-linecap="round"/><line x1="22.86" y1="66.43" x2="22.86" y2="77.86" stroke="#111" stroke-width="1" stroke-linecap="round"/><line x1="11.43" y1="66.43" x2="11.43" y2="77.86" stroke="#111" stroke-width="1" stroke-linecap="round"/><line x1="34.29" y1="66.43" x2="34.29" y2="77.86" stroke="#111" stroke-width="1" stroke-linecap="round"/><line x1="22.86" y1="66.43" x2="22.86" y2="77.86" stroke="#111" stroke-width="1" stroke-linecap="round"/><line x1="34.29" y1="77.86" x2="45.71" y2="77.86" stroke="#111" stroke-width="1" stroke-linecap="round"/><line x1="34.29" y1="66.43" x2="34.29" y2="77.86" stroke="#111" stroke-width="1" stroke-linecap="round"/><line x1="57.14" y1="66.43" x2="57.14" y2="77.86" stroke="#111" stroke-width="1" stroke-linecap="round"/><line x1="45.71" y1="77.86" x2="57.14" y2="77.86" stroke="#111" stroke-width="1" stroke-linecap="round"/><line x1="57.14" y1="66.43" x2="57.14" y2="77.86" stroke="#111" stroke-width="1" stroke-linecap="round"/><line x1="80" y1="66.43" x2="80" y2="77.86" stroke="#111" stroke-width="1" stroke-linecap="round"/><line x1="68.57" y1="77.86" x2="80" y2="77.86" stroke="#111" stroke-width="1" stroke-linecap="round"/><line x1="80" y1="77.86" x2="91.43" y2="77.86" stroke="#111" stroke-width="1" stroke-linecap="round"/><line x1="80" y1="66.43" x2="80" y2="77.86" stroke="#111" stroke-width="1" stroke-linecap="round"/><line x1="91.43" y1="66.43" x2="102.86" y2="66.43" stroke="#111" stroke-width="1" stroke-linecap="round"/><line x1="102.86" y1="66.43" x2="102.86" y2="77.86" stroke="#111" stroke-width="1" stroke-linecap="round"/><line x1="102.86" y1="66.43" x2="114.29" y2="66.43" stroke="#111" stroke-width="1" stroke-linecap="round"/><line x1="102.86" y1="66.43" x2="102.86" y2="77.86" stroke="#111" stroke-width="1" stroke-linecap="round"/><line x1="125.71" y1="66.43" x2="125.71" y2="77.86" stroke="#111" stroke-width="1" stroke-linecap="round"/><line x1="114.29" y1="77.86" x2="125.71" y2="77.86" stroke="#111" stroke-width="1" stroke-linecap="round"/><line x1="125.71" y1="77.86" x2="137.14" y2="77.86" stroke="#111" stroke-width="1" stroke-linecap="round"/><line x1="125.71" y1="66.43" x2="125.71" y2="77.86" stroke="#111" stroke-width="1" stroke-linecap="round"/><line x1="148.57" y1="66.43" x2="148.57" y2="77.86" stroke="#111" stroke-width="1" stroke-linecap="round"/><line x1="137.14" y1="77.86" x2="148.57" y2="77.86" stroke="#111" stroke-width="1" stroke-linecap="round"/><line x1="160" y1="66.43" x2="160" y2="77.86" stroke="#111" stroke-width="1" stroke-linecap="round"/><line x1="148.57" y1="66.43" x2="148.57" y2="77.86" stroke="#111" stroke-width="1" stroke-linecap="round"/><line x1="11.43" y1="77.86" x2="11.43" y2="89.29" stroke="#111" stroke-width="1" stroke-linecap="round"/><line x1="0" y1="77.86" x2="0" y2="89.29" stroke="#111" stroke-width="1" stroke-linecap="round"/><line x1="22.86" y1="77.86" x2="22.86" y2="89.29" stroke="#111" stroke-width="1" stroke-linecap="round"/><line x1="11.43" y1="77.86" x2="11.43" y2="89.29" stroke="#111" stroke-width="1" stroke-linecap="round"/><line x1="22.86" y1="89.29" x2="34.29" y2="89.29" stroke="#111" stroke-width="1" stroke-linecap="round"/><line x1="22.86" y1="77.86" x2="22.86" y2="89.29" stroke="#111" stroke-width="1" stroke-linecap="round"/><line x1="34.29" y1="77.86" x2="45.71" y2="77.86" stroke="#111" stroke-width="1" stroke-linecap="round"/><line x1="34.29" y1="89.29" x2="45.71" y2="89.29" stroke="#111" stroke-width="1" stroke-linecap="round"/><line x1="45.71" y1="77.86" x2="57.14" y2="77.86" stroke="#111" stroke-width="1" stroke-linecap="round"/><line x1="57.14" y1="77.86" x2="57.14" y2="89.29" stroke="#111" stroke-width="1" stroke-linecap="round"/><line x1="57.14" y1="89.29" x2="68.57" y2="89.29" stroke="#111" stroke-width="1" stroke-linecap="round"/><line x1="57.14" y1="77.86" x2="57.14" y2="89.29" stroke="#111" stroke-width="1" stroke-linecap="round"/><line x1="68.57" y1="77.86" x2="80" y2="77.86" stroke="#111" stroke-width="1" stroke-linecap="round"/><line x1="80" y1="77.86" x2="80" y2="89.29" stroke="#111" stroke-width="1" stroke-linecap="round"/><line x1="80" y1="77.86" x2="91.43" y2="77.86" stroke="#111" stroke-width="1" stroke-linecap="round"/><line x1="80" y1="89.29" x2="91.43" y2="89.29" stroke="#111" stroke-width="1" stroke-linecap="round"/><line x1="80" y1="77.86" x2="80" y2="89.29" stroke="#111" stroke-width="1" stroke-linecap="round"/><line x1="102.86" y1="77.86" x2="102.86" y2="89.29" stroke="#111" stroke-width="1" stroke-linecap="round"/><line x1="114.29" y1="77.86" x2="114.29" y2="89.29" stroke="#111" stroke-width="1" stroke-linecap="round"/><line x1="102.86" y1="77.86" x2="102.86" y2="89.29" stroke="#111" stroke-width="1" stroke-linecap="round"/><line x1="114.29" y1="77.86" x2="125.71" y2="77.86" stroke="#111" stroke-width="1" stroke-linecap="round"/><line x1="114.29" y1="89.29" x2="125.71" y2="89.29" stroke="#111" stroke-width="1" stroke-linecap="round"/><line x1="114.29" y1="77.86" x2="114.29" y2="89.29" stroke="#111" stroke-width="1" stroke-linecap="round"/><line x1="125.71" y1="77.86" x2="137.14" y2="77.86" stroke="#111" stroke-width="1" stroke-linecap="round"/><line x1="137.14" y1="77.86" x2="148.57" y2="77.86" stroke="#111" stroke-width="1" stroke-linecap="round"/><line x1="148.57" y1="77.86" x2="148.57" y2="89.29" stroke="#111" stroke-width="1" stroke-linecap="round"/><line x1="137.14" y1="89.29" x2="148.57" y2="89.29" stroke="#111" stroke-width="1" stroke-linecap="round"/><line x1="160" y1="77.86" x2="160" y2="89.29" stroke="#111" stroke-width="1" stroke-linecap="round"/><line x1="148.57" y1="77.86" x2="148.57" y2="89.29" stroke="#111" stroke-width="1" stroke-linecap="round"/><line x1="11.43" y1="89.29" x2="11.43" y2="100.71" stroke="#111" stroke-width="1" stroke-linecap="round"/><line x1="0" y1="89.29" x2="0" y2="100.71" stroke="#111" stroke-width="1" stroke-linecap="round"/><line x1="11.43" y1="100.71" x2="22.86" y2="100.71" stroke="#111" stroke-width="1" stroke-linecap="round"/><line x1="11.43" y1="89.29" x2="11.43" y2="100.71" stroke="#111" stroke-width="1" stroke-linecap="round"/><line x1="22.86" y1="89.29" x2="34.29" y2="89.29" stroke="#111" stroke-width="1" stroke-linecap="round"/><line x1="22.86" y1="100.71" x2="34.29" y2="100.71" stroke="#111" stroke-width="1" stroke-linecap="round"/><line x1="34.29" y1="89.29" x2="45.71" y2="89.29" stroke="#111" stroke-width="1" stroke-linecap="round"/><line x1="34.29" y1="100.71" x2="45.71" y2="100.71" stroke="#111" stroke-width="1" stroke-linecap="round"/><line x1="57.14" y1="89.29" x2="57.14" y2="100.71" stroke="#111" stroke-width="1" stroke-linecap="round"/><line x1="45.71" y1="100.71" x2="57.14" y2="100.71" stroke="#111" stroke-width="1" stroke-linecap="round"/><line x1="57.14" y1="89.29" x2="68.57" y2="89.29" stroke="#111" stroke-width="1" stroke-linecap="round"/><line x1="68.57" y1="89.29" x2="68.57" y2="100.71" stroke="#111" stroke-width="1" stroke-linecap="round"/><line x1="57.14" y1="89.29" x2="57.14" y2="100.71" stroke="#111" stroke-width="1" stroke-linecap="round"/><line x1="68.57" y1="100.71" x2="80" y2="100.71" stroke="#111" stroke-width="1" stroke-linecap="round"/><line x1="68.57" y1="89.29" x2="68.57" y2="100.71" stroke="#111" stroke-width="1" stroke-linecap="round"/><line x1="80" y1="89.29" x2="91.43" y2="89.29" stroke="#111" stroke-width="1" stroke-linecap="round"/><line x1="91.43" y1="89.29" x2="91.43" y2="100.71" stroke="#111" stroke-width="1" stroke-linecap="round"/><line x1="102.86" y1="89.29" x2="102.86" y2="100.71" stroke="#111" stroke-width="1" stroke-linecap="round"/><line x1="91.43" y1="100.71" x2="102.86" y2="100.71" stroke="#111" stroke-width="1" stroke-linecap="round"/><line x1="91.43" y1="89.29" x2="91.43" y2="100.71" stroke="#111" stroke-width="1" stroke-linecap="round"/><line x1="102.86" y1="100.71" x2="114.29" y2="100.71" stroke="#111" stroke-width="1" stroke-linecap="round"/><line x1="102.86" y1="89.29" x2="102.86" y2="100.71" stroke="#111" stroke-width="1" stroke-linecap="round"/><line x1="114.29" y1="89.29" x2="125.71" y2="89.29" stroke="#111" stroke-width="1" stroke-linecap="round"/><line x1="125.71" y1="89.29" x2="125.71" y2="100.71" stroke="#111" stroke-width="1" stroke-linecap="round"/><line x1="137.14" y1="89.29" x2="137.14" y2="100.71" stroke="#111" stroke-width="1" stroke-linecap="round"/><line x1="125.71" y1="89.29" x2="125.71" y2="100.71" stroke="#111" stroke-width="1" stroke-linecap="round"/><line x1="137.14" y1="89.29" x2="148.57" y2="89.29" stroke="#111" stroke-width="1" stroke-linecap="round"/><line x1="137.14" y1="89.29" x2="137.14" y2="100.71" stroke="#111" stroke-width="1" stroke-linecap="round"/><line x1="160" y1="89.29" x2="160" y2="100.71" stroke="#111" stroke-width="1" stroke-linecap="round"/><line x1="148.57" y1="100.71" x2="160" y2="100.71" stroke="#111" stroke-width="1" stroke-linecap="round"/><line x1="0" y1="100.71" x2="0" y2="112.14" stroke="#111" stroke-width="1" stroke-linecap="round"/><line x1="11.43" y1="100.71" x2="22.86" y2="100.71" stroke="#111" stroke-width="1" stroke-linecap="round"/><line x1="11.43" y1="112.14" x2="22.86" y2="112.14" stroke="#111" stroke-width="1" stroke-linecap="round"/><line x1="22.86" y1="100.71" x2="34.29" y2="100.71" stroke="#111" stroke-width="1" stroke-linecap="round"/><line x1="34.29" y1="100.71" x2="45.71" y2="100.71" stroke="#111" stroke-width="1" stroke-linecap="round"/><line x1="45.71" y1="100.71" x2="45.71" y2="112.14" stroke="#111" stroke-width="1" stroke-linecap="round"/><line x1="34.29" y1="112.14" x2="45.71" y2="112.14" stroke="#111" stroke-width="1" stroke-linecap="round"/><line x1="45.71" y1="100.71" x2="57.14" y2="100.71" stroke="#111" stroke-width="1" stroke-linecap="round"/><line x1="45.71" y1="100.71" x2="45.71" y2="112.14" stroke="#111" stroke-width="1" stroke-linecap="round"/><line x1="68.57" y1="100.71" x2="80" y2="100.71" stroke="#111" stroke-width="1" stroke-linecap="round"/><line x1="80" y1="100.71" x2="80" y2="112.14" stroke="#111" stroke-width="1" stroke-linecap="round"/><line x1="80" y1="112.14" x2="91.43" y2="112.14" stroke="#111" stroke-width="1" stroke-linecap="round"/><line x1="80" y1="100.71" x2="80" y2="112.14" stroke="#111" stroke-width="1" stroke-linecap="round"/><line x1="91.43" y1="100.71" x2="102.86" y2="100.71" stroke="#111" stroke-width="1" stroke-linecap="round"/><line x1="91.43" y1="112.14" x2="102.86" y2="112.14" stroke="#111" stroke-width="1" stroke-linecap="round"/><line x1="102.86" y1="100.71" x2="114.29" y2="100.71" stroke="#111" stroke-width="1" stroke-linecap="round"/><line x1="102.86" y1="112.14" x2="114.29" y2="112.14" stroke="#111" stroke-width="1" stroke-linecap="round"/><line x1="125.71" y1="100.71" x2="125.71" y2="112.14" stroke="#111" stroke-width="1" stroke-linecap="round"/><line x1="114.29" y1="112.14" x2="125.71" y2="112.14" stroke="#111" stroke-width="1" stroke-linecap="round"/><line x1="137.14" y1="100.71" x2="137.14" y2="112.14" stroke="#111" stroke-width="1" stroke-linecap="round"/><line x1="125.71" y1="100.71" x2="125.71" y2="112.14" stroke="#111" stroke-width="1" stroke-linecap="round"/><line x1="148.57" y1="100.71" x2="148.57" y2="112.14" stroke="#111" stroke-width="1" stroke-linecap="round"/><line x1="137.14" y1="100.71" x2="137.14" y2="112.14" stroke="#111" stroke-width="1" stroke-linecap="round"/><line x1="148.57" y1="100.71" x2="160" y2="100.71" stroke="#111" stroke-width="1" stroke-linecap="round"/><line x1="160" y1="100.71" x2="160" y2="112.14" stroke="#111" stroke-width="1" stroke-linecap="round"/><line x1="148.57" y1="100.71" x2="148.57" y2="112.14" stroke="#111" stroke-width="1" stroke-linecap="round"/><line x1="11.43" y1="112.14" x2="11.43" y2="123.57" stroke="#111" stroke-width="1" stroke-linecap="round"/><line x1="0" y1="112.14" x2="0" y2="123.57" stroke="#111" stroke-width="1" stroke-linecap="round"/><line x1="11.43" y1="112.14" x2="22.86" y2="112.14" stroke="#111" stroke-width="1" stroke-linecap="round"/><line x1="22.86" y1="112.14" x2="22.86" y2="123.57" stroke="#111" stroke-width="1" stroke-linecap="round"/><line x1="11.43" y1="112.14" x2="11.43" y2="123.57" stroke="#111" stroke-width="1" stroke-linecap="round"/><line x1="22.86" y1="123.57" x2="34.29" y2="123.57" stroke="#111" stroke-width="1" stroke-linecap="round"/><line x1="22.86" y1="112.14" x2="22.86" y2="123.57" stroke="#111" stroke-width="1" stroke-linecap="round"/><line x1="34.29" y1="112.14" x2="45.71" y2="112.14" stroke="#111" stroke-width="1" stroke-linecap="round"/><line x1="34.29" y1="123.57" x2="45.71" y2="123.57" stroke="#111" stroke-width="1" stroke-linecap="round"/><line x1="57.14" y1="112.14" x2="57.14" y2="123.57" stroke="#111" stroke-width="1" stroke-linecap="round"/><line x1="45.71" y1="123.57" x2="57.14" y2="123.57" stroke="#111" stroke-width="1" stroke-linecap="round"/><line x1="68.57" y1="112.14" x2="68.57" y2="123.57" stroke="#111" stroke-width="1" stroke-linecap="round"/><line x1="57.14" y1="112.14" x2="57.14" y2="123.57" stroke="#111" stroke-width="1" stroke-linecap="round"/><line x1="80" y1="112.14" x2="80" y2="123.57" stroke="#111" stroke-width="1" stroke-linecap="round"/><line x1="68.57" y1="112.14" x2="68.57" y2="123.57" stroke="#111" stroke-width="1" stroke-linecap="round"/><line x1="80" y1="112.14" x2="91.43" y2="112.14" stroke="#111" stroke-width="1" stroke-linecap="round"/><line x1="80" y1="123.57" x2="91.43" y2="123.57" stroke="#111" stroke-width="1" stroke-linecap="round"/><line x1="80" y1="112.14" x2="80" y2="123.57" stroke="#111" stroke-width="1" stroke-linecap="round"/><line x1="91.43" y1="112.14" x2="102.86" y2="112.14" stroke="#111" stroke-width="1" stroke-linecap="round"/><line x1="102.86" y1="112.14" x2="102.86" y2="123.57" stroke="#111" stroke-width="1" stroke-linecap="round"/><line x1="102.86" y1="112.14" x2="114.29" y2="112.14" stroke="#111" stroke-width="1" stroke-linecap="round"/><line x1="102.86" y1="112.14" x2="102.86" y2="123.57" stroke="#111" stroke-width="1" stroke-linecap="round"/><line x1="114.29" y1="112.14" x2="125.71" y2="112.14" stroke="#111" stroke-width="1" stroke-linecap="round"/><line x1="114.29" y1="123.57" x2="125.71" y2="123.57" stroke="#111" stroke-width="1" stroke-linecap="round"/><line x1="137.14" y1="112.14" x2="137.14" y2="123.57" stroke="#111" stroke-width="1" stroke-linecap="round"/><line x1="137.14" y1="123.57" x2="148.57" y2="123.57" stroke="#111" stroke-width="1" stroke-linecap="round"/><line x1="137.14" y1="112.14" x2="137.14" y2="123.57" stroke="#111" stroke-width="1" stroke-linecap="round"/><line x1="160" y1="112.14" x2="160" y2="123.57" stroke="#111" stroke-width="1" stroke-linecap="round"/><line x1="11.43" y1="123.57" x2="11.43" y2="135" stroke="#111" stroke-width="1" stroke-linecap="round"/><line x1="0" y1="123.57" x2="0" y2="135" stroke="#111" stroke-width="1" stroke-linecap="round"/><line x1="11.43" y1="135" x2="22.86" y2="135" stroke="#111" stroke-width="1" stroke-linecap="round"/><line x1="11.43" y1="123.57" x2="11.43" y2="135" stroke="#111" stroke-width="1" stroke-linecap="round"/><line x1="22.86" y1="123.57" x2="34.29" y2="123.57" stroke="#111" stroke-width="1" stroke-linecap="round"/><line x1="22.86" y1="135" x2="34.29" y2="135" stroke="#111" stroke-width="1" stroke-linecap="round"/><line x1="34.29" y1="123.57" x2="45.71" y2="123.57" stroke="#111" stroke-width="1" stroke-linecap="round"/><line x1="45.71" y1="123.57" x2="57.14" y2="123.57" stroke="#111" stroke-width="1" stroke-linecap="round"/><line x1="57.14" y1="123.57" x2="57.14" y2="135" stroke="#111" stroke-width="1" stroke-linecap="round"/><line x1="68.57" y1="123.57" x2="68.57" y2="135" stroke="#111" stroke-width="1" stroke-linecap="round"/><line x1="57.14" y1="123.57" x2="57.14" y2="135" stroke="#111" stroke-width="1" stroke-linecap="round"/><line x1="68.57" y1="135" x2="80" y2="135" stroke="#111" stroke-width="1" stroke-linecap="round"/><line x1="68.57" y1="123.57" x2="68.57" y2="135" stroke="#111" stroke-width="1" stroke-linecap="round"/><line x1="80" y1="123.57" x2="91.43" y2="123.57" stroke="#111" stroke-width="1" stroke-linecap="round"/><line x1="80" y1="135" x2="91.43" y2="135" stroke="#111" stroke-width="1" stroke-linecap="round"/><line x1="102.86" y1="123.57" x2="102.86" y2="135" stroke="#111" stroke-width="1" stroke-linecap="round"/><line x1="91.43" y1="135" x2="102.86" y2="135" stroke="#111" stroke-width="1" stroke-linecap="round"/><line x1="114.29" y1="123.57" x2="114.29" y2="135" stroke="#111" stroke-width="1" stroke-linecap="round"/><line x1="102.86" y1="123.57" x2="102.86" y2="135" stroke="#111" stroke-width="1" stroke-linecap="round"/><line x1="114.29" y1="123.57" x2="125.71" y2="123.57" stroke="#111" stroke-width="1" stroke-linecap="round"/><line x1="125.71" y1="123.57" x2="125.71" y2="135" stroke="#111" stroke-width="1" stroke-linecap="round"/><line x1="114.29" y1="123.57" x2="114.29" y2="135" stroke="#111" stroke-width="1" stroke-linecap="round"/><line x1="125.71" y1="123.57" x2="125.71" y2="135" stroke="#111" stroke-width="1" stroke-linecap="round"/><line x1="137.14" y1="123.57" x2="148.57" y2="123.57" stroke="#111" stroke-width="1" stroke-linecap="round"/><line x1="148.57" y1="123.57" x2="148.57" y2="135" stroke="#111" stroke-width="1" stroke-linecap="round"/><line x1="137.14" y1="135" x2="148.57" y2="135" stroke="#111" stroke-width="1" stroke-linecap="round"/><line x1="160" y1="123.57" x2="160" y2="135" stroke="#111" stroke-width="1" stroke-linecap="round"/><line x1="148.57" y1="123.57" x2="148.57" y2="135" stroke="#111" stroke-width="1" stroke-linecap="round"/><line x1="0" y1="146.43" x2="11.43" y2="146.43" stroke="#111" stroke-width="1" stroke-linecap="round"/><line x1="0" y1="135" x2="0" y2="146.43" stroke="#111" stroke-width="1" stroke-linecap="round"/><line x1="11.43" y1="135" x2="22.86" y2="135" stroke="#111" stroke-width="1" stroke-linecap="round"/><line x1="22.86" y1="135" x2="22.86" y2="146.43" stroke="#111" stroke-width="1" stroke-linecap="round"/><line x1="22.86" y1="135" x2="34.29" y2="135" stroke="#111" stroke-width="1" stroke-linecap="round"/><line x1="22.86" y1="135" x2="22.86" y2="146.43" stroke="#111" stroke-width="1" stroke-linecap="round"/><line x1="45.71" y1="135" x2="45.71" y2="146.43" stroke="#111" stroke-width="1" stroke-linecap="round"/><line x1="34.29" y1="146.43" x2="45.71" y2="146.43" stroke="#111" stroke-width="1" stroke-linecap="round"/><line x1="57.14" y1="135" x2="57.14" y2="146.43" stroke="#111" stroke-width="1" stroke-linecap="round"/><line x1="45.71" y1="135" x2="45.71" y2="146.43" stroke="#111" stroke-width="1" stroke-linecap="round"/><line x1="57.14" y1="146.43" x2="68.57" y2="146.43" stroke="#111" stroke-width="1" stroke-linecap="round"/><line x1="57.14" y1="135" x2="57.14" y2="146.43" stroke="#111" stroke-width="1" stroke-linecap="round"/><line x1="68.57" y1="135" x2="80" y2="135" stroke="#111" stroke-width="1" stroke-linecap="round"/><line x1="68.57" y1="146.43" x2="80" y2="146.43" stroke="#111" stroke-width="1" stroke-linecap="round"/><line x1="80" y1="135" x2="91.43" y2="135" stroke="#111" stroke-width="1" stroke-linecap="round"/><line x1="80" y1="146.43" x2="91.43" y2="146.43" stroke="#111" stroke-width="1" stroke-linecap="round"/><line x1="91.43" y1="135" x2="102.86" y2="135" stroke="#111" stroke-width="1" stroke-linecap="round"/><line x1="102.86" y1="135" x2="102.86" y2="146.43" stroke="#111" stroke-width="1" stroke-linecap="round"/><line x1="114.29" y1="135" x2="114.29" y2="146.43" stroke="#111" stroke-width="1" stroke-linecap="round"/><line x1="102.86" y1="135" x2="102.86" y2="146.43" stroke="#111" stroke-width="1" stroke-linecap="round"/><line x1="125.71" y1="135" x2="125.71" y2="146.43" stroke="#111" stroke-width="1" stroke-linecap="round"/><line x1="114.29" y1="135" x2="114.29" y2="146.43" stroke="#111" stroke-width="1" stroke-linecap="round"/><line x1="125.71" y1="146.43" x2="137.14" y2="146.43" stroke="#111" stroke-width="1" stroke-linecap="round"/><line x1="125.71" y1="135" x2="125.71" y2="146.43" stroke="#111" stroke-width="1" stroke-linecap="round"/><line x1="137.14" y1="135" x2="148.57" y2="135" stroke="#111" stroke-width="1" stroke-linecap="round"/><line x1="148.57" y1="135" x2="148.57" y2="146.43" stroke="#111" stroke-width="1" stroke-linecap="round"/><line x1="160" y1="135" x2="160" y2="146.43" stroke="#111" stroke-width="1" stroke-linecap="round"/><line x1="148.57" y1="135" x2="148.57" y2="146.43" stroke="#111" stroke-width="1" stroke-linecap="round"/><line x1="0" y1="146.43" x2="11.43" y2="146.43" stroke="#111" stroke-width="1" stroke-linecap="round"/><line x1="0" y1="157.86" x2="11.43" y2="157.86" stroke="#111" stroke-width="1" stroke-linecap="round"/><line x1="0" y1="146.43" x2="0" y2="157.86" stroke="#111" stroke-width="1" stroke-linecap="round"/><line x1="11.43" y1="157.86" x2="22.86" y2="157.86" stroke="#111" stroke-width="1" stroke-linecap="round"/><line x1="34.29" y1="146.43" x2="34.29" y2="157.86" stroke="#111" stroke-width="1" stroke-linecap="round"/><line x1="22.86" y1="157.86" x2="34.29" y2="157.86" stroke="#111" stroke-width="1" stroke-linecap="round"/><line x1="34.29" y1="146.43" x2="45.71" y2="146.43" stroke="#111" stroke-width="1" stroke-linecap="round"/><line x1="34.29" y1="157.86" x2="45.71" y2="157.86" stroke="#111" stroke-width="1" stroke-linecap="round"/><line x1="34.29" y1="146.43" x2="34.29" y2="157.86" stroke="#111" stroke-width="1" stroke-linecap="round"/><line x1="45.71" y1="157.86" x2="57.14" y2="157.86" stroke="#111" stroke-width="1" stroke-linecap="round"/><line x1="57.14" y1="146.43" x2="68.57" y2="146.43" stroke="#111" stroke-width="1" stroke-linecap="round"/><line x1="57.14" y1="157.86" x2="68.57" y2="157.86" stroke="#111" stroke-width="1" stroke-linecap="round"/><line x1="68.57" y1="146.43" x2="80" y2="146.43" stroke="#111" stroke-width="1" stroke-linecap="round"/><line x1="68.57" y1="157.86" x2="80" y2="157.86" stroke="#111" stroke-width="1" stroke-linecap="round"/><line x1="80" y1="146.43" x2="91.43" y2="146.43" stroke="#111" stroke-width="1" stroke-linecap="round"/><line x1="91.43" y1="146.43" x2="91.43" y2="157.86" stroke="#111" stroke-width="1" stroke-linecap="round"/><line x1="80" y1="157.86" x2="91.43" y2="157.86" stroke="#111" stroke-width="1" stroke-linecap="round"/><line x1="91.43" y1="157.86" x2="102.86" y2="157.86" stroke="#111" stroke-width="1" stroke-linecap="round"/><line x1="91.43" y1="146.43" x2="91.43" y2="157.86" stroke="#111" stroke-width="1" stroke-linecap="round"/><line x1="102.86" y1="157.86" x2="114.29" y2="157.86" stroke="#111" stroke-width="1" stroke-linecap="round"/><line x1="114.29" y1="157.86" x2="125.71" y2="157.86" stroke="#111" stroke-width="1" stroke-linecap="round"/><line x1="125.71" y1="146.43" x2="137.14" y2="146.43" stroke="#111" stroke-width="1" stroke-linecap="round"/><line x1="137.14" y1="146.43" x2="137.14" y2="157.86" stroke="#111" stroke-width="1" stroke-linecap="round"/><line x1="125.71" y1="157.86" x2="137.14" y2="157.86" stroke="#111" stroke-width="1" stroke-linecap="round"/><line x1="137.14" y1="157.86" x2="148.57" y2="157.86" stroke="#111" stroke-width="1" stroke-linecap="round"/><line x1="137.14" y1="146.43" x2="137.14" y2="157.86" stroke="#111" stroke-width="1" stroke-linecap="round"/><line x1="160" y1="146.43" x2="160" y2="157.86" stroke="#111" stroke-width="1" stroke-linecap="round"/><circle cx="5.71" cy="37.86" r="3.20" fill="#111" stroke="#111" stroke-width="0.80"/><path d="M 154.29,148.30 L 155.30,150.74 L 157.94,150.96 L 155.93,152.68 L 156.54,155.25 L 154.29,153.87 L 152.03,155.25 L 152.64,152.68 L 150.63,150.96 L 153.27,150.74 Z" fill="none" stroke="#111" stroke-width="0.80" stroke-linejoin="round"/></g><path d="M 5.714285714285714,37.857142857142854 L 5.714285714285714,49.285714285714285 L 5.714285714285714,60.714285714285715 L 17.142857142857142,60.714285714285715 L 17.142857142857142,72.14285714285712 L 17.142857142857142,83.57142857142857 L 17.142857142857142,94.99999999999999 L 28.571428571428573,94.99999999999999 L 40,94.99999999999999 L 51.42857142857143,94.99999999999999 L 51.42857142857143,83.57142857142857 L 40,83.57142857142857 L 28.571428571428573,83.57142857142857 L 28.571428571428573,72.14285714285712 L 28.571428571428573,60.714285714285715 L 40,60.714285714285715 L 40,72.14285714285712 L 51.42857142857143,72.14285714285712 L 51.42857142857143,60.714285714285715 L 51.42857142857143,49.285714285714285 L 40,49.285714285714285 L 40,37.857142857142854 L 51.42857142857143,37.857142857142854 L 62.85714285714286,37.857142857142854 L 74.28571428571428,37.857142857142854 L 74.28571428571428,49.285714285714285 L 74.28571428571428,60.714285714285715 L 74.28571428571428,72.14285714285712 L 62.85714285714286,72.14285714285712 L 62.85714285714286,83.57142857142857 L 74.28571428571428,83.57142857142857 L 74.28571428571428,94.99999999999999 L 85.71428571428571,94.99999999999999 L 85.71428571428571,106.42857142857142 L 97.14285714285714,106.42857142857142 L 108.57142857142857,106.42857142857142 L 120,106.42857142857142 L 120,94.99999999999999 L 108.57142857142857,94.99999999999999 L 108.57142857142857,83.57142857142857 L 108.57142857142857,72.14285714285712 L 120,72.14285714285712 L 120,60.714285714285715 L 120,49.285714285714285 L 120,37.857142857142854 L 131.42857142857144,37.857142857142854 L 131.42857142857144,49.285714285714285 L 131.42857142857144,60.714285714285715 L 131.42857142857144,72.14285714285712 L 142.85714285714286,72.14285714285712 L 142.85714285714286,60.714285714285715 L 154.2857142857143,60.714285714285715 L 154.2857142857143,72.14285714285712 L 154.2857142857143,83.57142857142857 L 154.2857142857143,94.99999999999999 L 142.85714285714286,94.99999999999999 L 142.85714285714286,106.42857142857142 L 142.85714285714286,117.85714285714285 L 154.2857142857143,117.85714285714285 L 154.2857142857143,129.28571428571428 L 154.2857142857143,140.71428571428572 L 154.2857142857143,152.14285714285717" fill="none" stroke="#d33" stroke-width="0.90" stroke-linejoin="round" stroke-dasharray="2 1.5"/></g>
  <text x="105" y="291" font-size="3" fill="#bbb" text-anchor="middle">BrainForge Kids · a26052f1</text>
</svg>