<svg xmlns="http://www.w3.org/2000/svg" width="210mm" height="297mm" viewBox="0 0 210 297" font-family="system-ui, -apple-system, sans-serif">
  <rect width="210" height="297" fill="#fff"/>
  <text x="14" y="20" font-size="6.5" font-weight="600" fill="#111">Labirintus</text>
  <text x="196" y="20" font-size="3.6" fill="#888" text-anchor="end">Lili  ·  2026. jan. 1.</text>
  <text x="14" y="28" font-size="4.2" fill="#444">Találd meg az utat a ponttól a csillagig!</text>
  <line x1="14" y1="32" x2="196" y2="32" stroke="#e5e5e5" stroke-width="0.3"/>
  <text x="196" y="28" font-size="4" fill="#d33" text-anchor="end">Megoldókulcs</text>
  <g transform="translate(14.00 40.00) scale(1.1375)"><g ><line x1="0" y1="0" x2="11.43" y2="0" stroke="#111" stroke-width="1" stroke-linecap="round"/><line x1="11.43" y1="0" x2="11.43" y2="11.43" stroke="#111" stroke-width="1" stroke-linecap="round"/><line x1="11.43" y1="0" x2="22.86" y2="0" stroke="#111" stroke-width="1" stroke-linecap="round"/><line x1="11.43" y1="11.43" x2="22.86" y2="11.43" stroke="#111" stroke-width="1" stroke-linecap="round"/><line x1="11.43" y1="0" x2="11.43" y2="11.43" stroke="#111" stroke-width="1" stroke-linecap="round"/><line x1="22.86" y1="0" x2="34.29" y2="0" stroke="#111" stroke-width="1" stroke-linecap="round"/><line x1="22.86" y1="11.43" x2="34.29" y2="11.43" stroke="#111" stroke-width="1" stroke-linecap="round"/><line x1="34.29" y1="0" x2="45.71" y2="0" stroke="#111" stroke-width="1" stroke-linecap="round"/><line x1="45.71" y1="0" x2="57.14" y2="0" stroke="#111" stroke-width="1" stroke-linecap="round"/><line x1="45.71" y1="11.43" x2="57.14" y2="11.43" stroke="#111" stroke-width="1" stroke-linecap="round"/><line x1="57.14" y1="0" x2="68.57" y2="0" stroke="#111" stroke-width="1" stroke-linecap="round"/><line x1="68.57" y1="0" x2="68.57" y2="11.43" stroke="#111" stroke-width="1" stroke-linecap="round"/><line x1="57.14" y1="11.43" x2="68.57" y2="11.43" stroke="#111" stroke-width="1" stroke-linecap="round"/><line x1="68.57" y1="0" x2="80" y2="0" stroke="#111" stroke-width="1" stroke-linecap="round"/><line x1="68.57" y1="0" x2="68.57" y2="11.43" stroke="#111" stroke-width="1" stroke-linecap="round"/><line x1="80" y1="0" x2="91.43" y2="0" stroke="#111" stroke-width="1" stroke-linecap="round"/><line x1="80" y1="11.43" x2="91.43" y2="11.43" stroke="#111" stroke-width="1" stroke-linecap="round"/><line x1="91.43" y1="0" x2="102.86" y2="0" stroke="#111" stroke-width="1" stroke-linecap="round"/><line x1="102.86" y1="0" x2="114.29" y2="0" stroke="#111" stroke-width="1" stroke-linecap="round"/><line x1="102.86" y1="11.43" x2="114.29" y2="11.43" stroke="#111" stroke-width="1" stroke-linecap="round"/><line x1="114.29" y1="0" x2="125.71" y2="0" stroke="#111" stroke-width="1" stroke-linecap="round"/><line x1="114.29" y1="11.43" x2="125.71" y2="11.43" stroke="#111" stroke-width="1" stroke-linecap="round"/><line x1="125.71" y1="0" x2="137.14" y2="0" stroke="#111" stroke-width="1" stroke-linecap="round"/><line x1="125.71" y1="11.43" x2="137.14" y2="11.43" stroke="#111" stroke-width="1" stroke-linecap="round"/><line x1="137.14" y1="0" x2="148.57" y2="0" stroke="#111" stroke-width="1" stroke-linecap="round"/><line x1="148.57" y1="0" x2="148.57" y2="11.43" stroke="#111" stroke-width="1" stroke-linecap="round"/><line x1="148.57" y1="0" x2="160" y2="0" stroke="#111" stroke-width="1" stroke-linecap="round"/><line x1="160" y1="0" x2="160" y2="11.43" stroke="#111" stroke-width="1" stroke-linecap="round"/><line x1="148.57" y1="0" x2="148.57" y2="11.43" stroke="#111" stroke-width="1" stroke-linecap="round"/><line x1="0" y1="22.86" x2="11.43" y2="22.86" stroke="#111" stroke-width="1" stroke-linecap="round"/><line x1="0" y1="11.43" x2="0" y2="22.86" stroke="#111" stroke-width="1" stroke-linecap="round"/><line x1="11.43" y1="11.43" x2="22.86" y2="11.43" stroke="#111" stroke-width="1" stroke-linecap="round"/><line x1="11.43" y1="22.86" x2="22.86" y2="22.86" stroke="#111" stroke-width="1" stroke-linecap="round"/><line x1="22.86" y1="11.43" x2="34.29" y2="11.43" stroke="#111" stroke-width="1" stroke-linecap="round"/><line x1="34.29" y1="11.43" x2="34.29" y2="22.86" stroke="#111" stroke-width="1" stroke-linecap="round"/><line x1="34.29" y1="11.43" x2="34.29" y2="22.86" stroke="#111" stroke-width="1" stroke-linecap="round"/><line x1="45.71" y1="11.43" x2="57.14" y2="11.43" stroke="#111" stroke-width="1" stroke-linecap="round"/><line x1="45.71" y1="22.86" x2="57.14" y2="22.86" stroke="#111" stroke-width="1" stroke-linecap="round"/><line x1="57.14" y1="11.43" x2="68.57" y2="11.43" stroke="#111" stroke-width="1" stroke-linecap="round"/><line x1="57.14" y1="22.86" x2="68.57" y2="22.86" stroke="#111" stroke-width="1" stroke-linecap="round"/><line x1="68.57" y1="22.86" x2="80" y2="22.86" stroke="#111" stroke-width="1" stroke-linecap="round"/><line x1="80" y1="11.43" x2="91.43" y2="11.43" stroke="#111" stroke-width="1" stroke-linecap="round"/><line x1="91.43" y1="11.43" x2="91.43" y2="22.86" stroke="#111" stroke-width="1" stroke-linecap="round"/><line x1="80" y1="22.86" x2="91.43" y2="22.86" stroke="#111" stroke-width="1" stroke-linecap="round"/><line x1="102.86" y1="11.43" x2="102.86" y2="22.86" stroke="#111" stroke-width="1" stroke-linecap="round"/><line x1="91.43" y1="11.43" x2="91.43" y2="22.86" stroke="#111" stroke-width="1" stroke-linecap="round"/><line x1="102.86" y1="11.43" x2="114.29" y2="11.43" stroke="#111" stroke-width="1" stroke-linecap="round"/><line x1="102.86" y1="11.43" x2="102.86" y2="22.86" stroke="#111" stroke-width="1" stroke-linecap="round"/><line x1="114.29" y1="11.43" x2="125.71" y2="11.43" stroke="#111" stroke-width="1" stroke-linecap="round"/><line x1="114.29" y1="22.86" x2="125.71" y2="22.86" stroke="#111" stroke-width="1" stroke-linecap="round"/><line x1="125.71" y1="11.43" x2="137.14" y2="11.43" stroke="#111" stroke-width="1" stroke-linecap="round"/><line x1="137.14" y1="11.43" x2="137.14" y2="22.86" stroke="#111" stroke-width="1" stroke-linecap="round"/><line x1="137.14" y1="22.86" x2="148.57" y2="22.86" stroke="#111" stroke-width="1" stroke-linecap="round"/><line x1="137.14" y1="11.43" x2="137.14" y2="22.86" stroke="#111" stroke-width="1" stroke-linecap="round"/><line x1="160" y1="11.43" x2="160" y2="22.86" stroke="#111" stroke-width="1" stroke-linecap="round"/><line x1="0" y1="22.86" x2="11.43" y2="22.86" stroke="#111" stroke-width="1" stroke-linecap="round"/><line x1="0" y1="22.86" x2="0" y2="34.29" stroke="#111" stroke-width="1" stroke-linecap="round"/><line x1="11.43" y1="22.86" x2="22.86" y2="22.86" stroke="#111" stroke-width="1" stroke-linecap="round"/><line x1="11.43" y1="34.29" x2="22.86" y2="34.29" stroke="#111" stroke-width="1" stroke-linecap="round"/><line x1="34.29" y1="22.86" x2="34.29" y2="34.29" stroke="#111" stroke-width="1" stroke-linecap="round"/><line x1="22.86" y1="34.29" x2="34.29" y2="34.29" stroke="#111" stroke-width="1" stroke-linecap="round"/><line x1="34.29" y1="34.29" x2="45.71" y2="34.29" stroke="#111" stroke-width="1" stroke-linecap="round"/><line x1="34.29" y1="22.86" x2="34.29" y2="34.29" stroke="#111" stroke-width="1" stroke-linecap="round"/><line x1="45.71" y1="22.86" x2="57.14" y2="22.86" stroke="#111" stroke-width="1" stroke-linecap="round"/><line x1="57.14" y1="22.86" x2="57.14" y2="34.29" stroke="#111" stroke-width="1" stroke-linecap="round"/><line x1="57.14" y1="22.86" x2="68.57" y2="22.86" stroke="#111" stroke-width="1" stroke-linecap="round"/><line x1="57.14" y1="22.86" x2="57.14" y2="34.29" stroke="#111" stroke-width="1" stroke-linecap="round"/><line x1="68.57" y1="22.86" x2="80" y2="22.86" stroke="#111" stroke-width="1" stroke-linecap="round"/><line x1="80" y1="22.86" x2="80" y2="34.29" stroke="#111" stroke-width="1" stroke-linecap="round"/><line x1="80" y1="22.86" x2="91.43" y2="22.86" stroke="#111" stroke-width="1" stroke-linecap="round"/><line x1="80" y1="22.86" x2="80" y2="34.29" stroke="#111" stroke-width="1" stroke-linecap="round"/><line x1="102.86" y1="22.86" x2="102.86" y2="34.29" stroke="#111" stroke-width="1" stroke-linecap="round"/><line x1="91.43" y1="34.29" x2="102.86" y2="34.29" stroke="#111" stroke-width="1" stroke-linecap="round"/><line x1="114.29" y1="22.86" x2="114.29" y2="34.29" stroke="#111" stroke-width="1" stroke-linecap="round"/><line x1="102.86" y1="22.86" x2="102.86" y2="34.29" stroke="#111" stroke-width="1" stroke-linecap="round"/><line x1="114.29" y1="22.86" x2="125.71" y2="22.86" stroke="#111" stroke-width="1" stroke-linecap="round"/><line x1="125.71" y1="22.86" x2="125.71" y2="34.29" stroke="#111" stroke-width="1" stroke-linecap="round"/><line x1="114.29" y1="22.86" x2="114.29" y2="34.29" stroke="#111" stroke-width="1" stroke-linecap="round"/><line x1="125.71" y1="34.29" x2="137.14" y2="34.29" stroke="#111" stroke-width="1" stroke-linecap="round"/><line x1="125.71" y1="22.86" x2="125.71" y2="34.29" stroke="#111" stroke-width="1" stroke-linecap="round"/><line x1="137.14" y1="22.86" x2="148.57" y2="22.86" stroke="#111" stroke-width="1" stroke-linecap="round"/><line x1="148.57" y1="22.86" x2="148.57" y2="34.29" stroke="#111" stroke-width="1" stroke-linecap="round"/><line x1="160" y1="22.86" x2="160" y2="34.29" stroke="#111" stroke-width="1" stroke-linecap="round"/><line x1="148.57" y1="22.86" x2="148.57" y2="34.29" stroke="#111" stroke-width="1" stroke-linecap="round"/><line x1="0" y1="45.71" x2="11.43" y2="45.71" stroke="#111" stroke-width="1" stroke-linecap="round"/><line x1="0" y1="34.29" x2="0" y2="45.71" stroke="#111" stroke-width="1" stroke-linecap="round"/><line x1="11.43" y1="34.29" x2="22.86" y2="34.29" stroke="#111" stroke-width="1" stroke-linecap="round"/><line x1="22.86" y1="34.29" x2="22.86" y2="45.71" stroke="#111" stroke-width="1" stroke-linecap="round"/><line x1="22.86" y1="34.29" x2="34.29" y2="34.29" stroke="#111" stroke-width="1" stroke-linecap="round"/><line x1="22.86" y1="45.71" x2="34.29" y2="45.71" stroke="#111" stroke-width="1" stroke-linecap="round"/><line x1="22.86" y1="34.29" x2="22.86" y2="45.71" stroke="#111" stroke-width="1" stroke-linecap="round"/><line x1="34.29" y1="34.29" x2="45.71" y2="34.29" stroke="#111" stroke-width="1" stroke-linecap="round"/><line x1="57.14" y1="34.29" x2="57.14" y2="45.71" stroke="#111" stroke-width="1" stroke-linecap="round"/><line x1="45.71" y1="45.71" x2="57.14" y2="45.71" stroke="#111" stroke-width="1" stroke-linecap="round"/><line x1="68.57" y1="34.29" x2="68.57" y2="45.71" stroke="#111" stroke-width="1" stroke-linecap="round"/><line x1="57.14" y1="34.29" x2="57.14" y2="45.71" stroke="#111" stroke-width="1" stroke-linecap="round"/><line x1="68.57" y1="45.71" x2="80" y2="45.71" stroke="#111" stroke-width="1" stroke-linecap="round"/><line x1="68.57" y1="34.29" x2="68.57" y2="45.71" stroke="#111" stroke-width="1" stroke-linecap="round"/><line x1="91.43" y1="34.29" x2="91.43" y2="45.71" stroke="#111" stroke-width="1" stroke-linecap="round"/><line x1="80" y1="45.71" x2="91.43" y2="45.71" stroke="#111" stroke-width="1" stroke-linecap="round"/><line x1="91.43" y1="34.29" x2="102.86" y2="34.29" stroke="#111" stroke-width="1" stroke-linecap="round"/><line x1="91.43" y1="34.29" x2="91.43" y2="45.71" stroke="#111" stroke-width="1" stroke-linecap="round"/><line x1="114.29" y1="34.29" x2="114.29" y2="45.71" stroke="#111" stroke-width="1" stroke-linecap="round"/><line x1="102.86" y1="45.71" x2="114.29" y2="45.71" stroke="#111" stroke-width="1" stroke-linecap="round"/><line x1="114.29" y1="34.29" x2="114.29" y2="45.71" stroke="#111" stroke-width="1" stroke-linecap="round"/><line x1="125.71" y1="34.29" x2="137.14" y2="34.29" stroke="#111" stroke-width="1" stroke-linecap="round"/><line x1="137.14" y1="34.29" x2="137.14" y2="45.71" stroke="#111" stroke-width="1" stroke-linecap="round"/><line x1="137.14" y1="45.71" x2="148.57" y2="45.71" stroke="#111" stroke-width="1" stroke-linecap="round"/><line x1="137.14" y1="34.29" x2="137.14" y2="45.71" stroke="#111" stroke-width="1" stroke-linecap="round"/><line x1="160" y1="34.29" x2="160" y2="45.71" stroke="#111" stroke-width="1" stroke-linecap="round"/><line x1="148.57" y1="45.71" x2="160" y2="45.71" stroke="#111" stroke-width="1" stroke-linecap="round"/><line x1="0" y1="45.71" x2="11.43" y2="45.71" stroke="#111" stroke-width="1" stroke-linecap="round"/><line x1="11.43" y1="45.71" x2="11.43" y2="57.14" stroke="#111" stroke-width="1" stroke-linecap="round"/><line x1="0" y1="45.71" x2="0" y2="57.14" stroke="#111" stroke-width="1" stroke-linecap="round"/><line x1="11.43" y1="57.14" x2="22.86" y2="57.14" stroke="#111" stroke-width="1" stroke-linecap="round"/><line x1="11.43" y1="45.71" x2="11.43" y2="57.14" stroke="#111" stroke-width="1" stroke-linecap="round"/><line x1="22.86" y1="45.71" x2="34.29" y2="45.71" stroke="#111" stroke-width="1" stroke-linecap="round"/><line x1="34.29" y1="45.71" x2="34.29" y2="57.14" stroke="#111" stroke-width="1" stroke-linecap="round"/><line x1="45.71" y1="45.71" x2="45.71" y2="57.14" stroke="#111" stroke-width="1" stroke-linecap="round"/><line x1="34.29" y1="57.14" x2="45.71" y2="57.14" stroke="#111" stroke-width="1" stroke-linecap="round"/><line x1="34.29" y1="45.71" x2="34.29" y2="57.14" stroke="#111" stroke-width="1" stroke-linecap="round"/><line x1="45.71" y1="45.71" x2="57.14" y2="45.71" stroke="#111" stroke-width="1" stroke-linecap="round"/><line x1="45.71" y1="45.71" x2="45.71" y2="57.14" stroke="#111" stroke-width="1" stroke-linecap="round"/><line x1="68.57" y1="45.71" x2="68.57" y2="57.14" stroke="#111" stroke-width="1" stroke-linecap="round"/><line x1="57.14" y1="57.14" x2="68.57" y2="57.14" stroke="#111" stroke-width="1" stroke-linecap="round"/><line x1="68.57" y1="45.71" x2="80" y2="45.71" stroke="#111" stroke-width="1" stroke-linecap="round"/><line x1="68.57" y1="45.71" x2="68.57" y2="57.14" stroke="#111" stroke-width="1" stroke-linecap="round"/><line x1="80" y1="45.71" x2="91.43" y2="45.71" stroke="#111" stroke-width="1" stroke-linecap="round"/><line x1="80" y1="57.14" x2="91.43" y2="57.14" stroke="#111" stroke-width="1" stroke-linecap="round"/><line x1="102.86" y1="45.71" x2="102.86" y2="57.14" stroke="#111" stroke-width="1" stroke-linecap="round"/><line x1="91.43" y1="57.14" x2="102.86" y2="57.14" stroke="#111" stroke-width="1" stroke-linecap="round"/><line x1="102.86" y1="45.71" x2="114.29" y2="45.71" stroke="#111" stroke-width="1" stroke-linecap="round"/><line x1="102.86" y1="45.71" x2="102.86" y2="57.14" stroke="#111" stroke-width="1" stroke-linecap="round"/><line x1="125.71" y1="45.71" x2="125.71" y2="57.14" stroke="#111" stroke-width="1" stroke-linecap="round"/><line x1="114.29" y1="57.14" x2="125.71" y2="57.14" stroke="#111" stroke-width="1" stroke-linecap="round"/><line x1="125.71" y1="57.14" x2="137.14" y2="57.14" stroke="#111" stroke-width="1" stroke-linecap="round"/><line x1="125.71" y1="45.71" x2="125.71" y2="57.14" stroke="#111" stroke-width="1" stroke-linecap="round"/><line x1="137.14" y1="45.71" x2="148.57" y2="45.71" stroke="#111" stroke-width="1" stroke-linecap="round"/><line x1="148.57" y1="45.71" x2="148.57" y2="57.14" stroke="#111" stroke-width="1" stroke-linecap="round"/><line x1="148.57" y1="45.71" x2="160" y2="45.71" stroke="#111" stroke-width="1" stroke-linecap="round"/><line x1="160" y1="45.71" x2="160" y2="57.14" stroke="#111" stroke-width="1" stroke-linecap="round"/><line x1="148.57" y1="45.71" x2="148.57" y2="57.14" stroke="#111" stroke-width="1" stroke-linecap="round"/><line x1="0" y1="57.14" x2="0" y2="68.57" stroke="#111" stroke-width="1" stroke-linecap="round"/><line x1="11.43" y1="57.14" x2="22.86" y2="57.14" stroke="#111" stroke-width="1" stroke-linecap="round"/><line x1="22.86" y1="57.14" x2="22.86" y2="68.57" stroke="#111" stroke-width="1" stroke-linecap="round"/><line x1="22.86" y1="68.57" x2="34.29" y2="68.57" stroke="#111" stroke-width="1" stroke-linecap="round"/><line x1="22.86" y1="57.14" x2="22.86" y2="68.57" stroke="#111" stroke-width="1" stroke-linecap="round"/><line x1="34.29" y1="57.14" x2="45.71" y2="57.14" stroke="#111" stroke-width="1" stroke-linecap="round"/><line x1="34.29" y1="68.57" x2="45.71" y2="68.57" stroke="#111" stroke-width="1" stroke-linecap="round"/><line x1="57.14" y1="57.14" x2="57.14" y2="68.57" stroke="#111" stroke-width="1" stroke-linecap="round"/><line x1="45.71" y1="68.57" x2="57.14" y2="68.57" stroke="#111" stroke-width="1" stroke-linecap="round"/><line x1="57.14" y1="57.14" x2="68.57" y2="57.14" stroke="#111" stroke-width="1" stroke-linecap="round"/><line x1="57.14" y1="57.14" x2="57.14" y2="68.57" stroke="#111" stroke-width="1" stroke-linecap="round"/><line x1="80" y1="57.14" x2="80" y2="68.57" stroke="#111" stroke-width="1" stroke-linecap="round"/><line x1="68.57" y1="68.57" x2="80" y2="68.57" stroke="#111" stroke-width="1" stroke-linecap="round"/><line x1="80" y1="57.14" x2="91.43" y2="57.14" stroke="#111" stroke-width="1" stroke-linecap="round"/><line x1="80" y1="57.14" x2="80" y2="68.57" stroke="#111" stroke-width="1" stroke-linecap="round"/><line x1="91.43" y1="57.14" x2="102.86" y2="57.14" stroke="#111" stroke-width="1" stroke-linecap="round"/><line x1="91.43" y1="68.57" x2="102.86" y2="68.57" stroke="#111" stroke-width="1" stroke-linecap="round"/><line x1="114.29" y1="57.14" x2="114.29" y2="68.57" stroke="#111" stroke-width="1" stroke-linecap="round"/><line x1="102.86" y1="68.57" x2="114.29" y2="68.57" stroke="#111" stroke-width="1" stroke-linecap="round"/><line x1="114.29" y1="57.14" x2="125.71" y2="57.14" stroke="#111" stroke-width="1" stroke-linecap="round"/><line x1="114.29" y1="57.14" x2="114.29" y2="68.57" stroke="#111" stroke-width="1" stroke-linecap="round"/><line x1="125.71" y1="57.14" x2="137.14" y2="57.14" stroke="#111" stroke-width="1" stroke-linecap="round"/><line x1="137.14" y1="57.14" x2="137.14" y2="68.57" stroke="#111" stroke-width="1" stroke-linecap="round"/><line x1="137.14" y1="68.57" x2="148.57" y2="68.57" stroke="#111" stroke-width="1" stroke-linecap="round"/><line x1="137.14" y1="57.14" x2="137.14" y2="68.57" stroke="#111" stroke-width="1" stroke-linecap="round"/><line x1="160" y1="57.14" x2="160" y2="68.57" stroke="#111" stroke-width="1" stroke-linecap="round"/><line x1="11.43" y1="68.57" x2="11.43" y2="80" stroke="#111" stroke-width="1" stroke-linecap="round"/><line x1="0" y1="68.57" x2="0" y2="80" stroke="#111" stroke-width="1" stroke-linecap="round"/><line x1="11.43" y1="68.57" x2="11.43" y2="80" stroke="#111" stroke-width="1" stroke-linecap="round"/><line x1="22.86" y1="68.57" x2="34.29" y2="68.57" stroke="#111" stroke-width="1" stroke-linecap="round"/><line x1="34.29" y1="68.57" x2="45.71" y2="68.57" stroke="#111" stroke-width="1" stroke-linecap="round"/><line x1="34.29" y1="80" x2="45.71" y2="80" stroke="#111" stroke-width="1" stroke-linecap="round"/><line x1="45.71" y1="68.57" x2="57.14" y2="68.57" stroke="#111" stroke-width="1" stroke-linecap="round"/><line x1="57.14" y1="68.57" x2="57.14" y2="80" stroke="#111" stroke-width="1" stroke-linecap="round"/><line x1="45.71" y1="80" x2="57.14" y2="80" stroke="#111" stroke-width="1" stroke-linecap="round"/><line x1="68.57" y1="68.57" x2="68.57" y2="80" stroke="#111" stroke-width="1" stroke-linecap="round"/><line x1="57.14" y1="68.57" x2="57.14" y2="80" stroke="#111" stroke-width="1" stroke-linecap="round"/><line x1="68.57" y1="68.57" x2="80" y2="68.57" stroke="#111" stroke-width="1" stroke-linecap="round"/><line x1="68.57" y1="80" x2="80" y2="80" stroke="#111" stroke-width="1" stroke-linecap="round"/><line x1="68.57" y1="68.57" x2="68.57" y2="80" stroke="#111" stroke-width="1" stroke-linecap="round"/><line x1="91.43" y1="68.57" x2="91.43" y2="80" stroke="#111" stroke-width="1" stroke-linecap="round"/><line x1="91.43" y1="68.57" x2="102.86" y2="68.57" stroke="#111" stroke-width="1" stroke-linecap="round"/><line x1="91.43" y1="68.57" x2="91.43" y2="80" stroke="#111" stroke-width="1" stroke-linecap="round"/><line x1="102.86" y1="68.57" x2="114.29" y2="68.57" stroke="#111" stroke-width="1" stroke-linecap="round"/><line x1="114.29" y1="68.57" x2="114.29" y2="80" stroke="#111" stroke-width="1" stroke-linecap="round"/><line x1="102.86" y1="80" x2="114.29" y2="80" stroke="#111" stroke-width="1" stroke-linecap="round"/><line x1="125.71" y1="68.57" x2="125.71" y2="80" stroke="#111" stroke-width="1" stroke-linecap="round"/><line x1="114.29" y1="68.57" x2="114.29" y2="80" stroke="#111" stroke-width="1" stroke-linecap="round"/><line x1="125.71" y1="80" x2="137.14" y2="80" stroke="#111" stroke-width="1" stroke-linecap="round"/><line x1="125.71" y1="68.57" x2="125.71" y2="80" stroke="#111" stroke-width="1" stroke-linecap="round"/><line x1="137.14" y1="68.57" x2="148.57" y2="68.57" stroke="#111" stroke-width="1" stroke-linecap="round"/><line x1="148.57" y1="68.57" x2="148.57" y2="80" stroke="#111" stroke-width="1" stroke-linecap="round"/><line x1="160" y1="68.57" x2="160" y2="80" stroke="#111" stroke-width="1" stroke-linecap="round"/><line x1="148.57" y1="68.57" x2="148.57" y2="80" stroke="#111" stroke-width="1" stroke-linecap="round"/><line x1="11.43" y1="80" x2="11.43" y2="91.43" stroke="#111" stroke-width="1" stroke-linecap="round"/><line x1="0" y1="91.43" x2="11.43" y2="91.43" stroke="#111" stroke-width="1" stroke-linecap="round"/><line x1="0" y1="80" x2="0" y2="91.43" stroke="#111" stroke-width="1" stroke-linecap="round"/><line x1="22.86" y1="80" x2="22.86" y2="91.43" stroke="#111" stroke-width="1" stroke-linecap="round"/><line x1="11.43" y1="80" x2="11.43" y2="91.43" stroke="#111" stroke-width="1" stroke-linecap="round"/><line x1="34.29" y1="80" x2="34.29" y2="91.43" stroke="#111" stroke-width="1" stroke-linecap="round"/><line x1="22.86" y1="91.43" x2="34.29" y2="91.43" stroke="#111" stroke-width="1" stroke-linecap="round"/><line x1="22.86" y1="80" x2="22.86" y2="91.43" stroke="#111" stroke-width="1" stroke-linecap="round"/><line x1="34.29" y1="80" x2="45.71" y2="80" stroke="#111" stroke-width="1" stroke-linecap="round"/><line x1="34.29" y1="80" x2="34.29" y2="91.43" stroke="#111" stroke-width="1" stroke-linecap="round"/><line x1="45.71" y1="80" x2="57.14" y2="80" stroke="#111" stroke-width="1" stroke-linecap="round"/><line x1="57.14" y1="80" x2="57.14" y2="91.43" stroke="#111" stroke-width="1" stroke-linecap="round"/><line x1="57.14" y1="91.43" x2="68.57" y2="91.43" stroke="#111" stroke-width="1" stroke-linecap="round"/><line x1="57.14" y1="80" x2="57.14" y2="91.43" stroke="#111" stroke-width="1" stroke-linecap="round"/><line x1="68.57" y1="80" x2="80" y2="80" stroke="#111" stroke-width="1" stroke-linecap="round"/><line x1="80" y1="80" x2="80" y2="91.43" stroke="#111" stroke-width="1" stroke-linecap="round"/><line x1="91.43" y1="80" x2="91.43" y2="91.43" stroke="#111" stroke-width="1" stroke-linecap="round"/><line x1="80" y1="80" x2="80" y2="91.43" stroke="#111" stroke-width="1" stroke-linecap="round"/><line x1="91.43" y1="91.43" x2="102.86" y2="91.43" stroke="#111" stroke-width="1" stroke-linecap="round"/><line x1="91.43" y1="80" x2="91.43" y2="91.43" stroke="#111" stroke-width="1" stroke-linecap="round"/><line x1="102.86" y1="80" x2="114.29" y2="80" stroke="#111" stroke-width="1" stroke-linecap="round"/><line x1="125.71" y1="80" x2="125.71" y2="91.43" stroke="#111" stroke-width="1" stroke-linecap="round"/><line x1="114.29" y1="91.43" x2="125.71" y2="91.43" stroke="#111" stroke-width="1" stroke-linecap="round"/><line x1="125.71" y1="80" x2="137.14" y2="80" stroke="#111" stroke-width="1" stroke-linecap="round"/><line x1="137.14" y1="80" x2="137.14" y2="91.43" stroke="#111" stroke-width="1" stroke-linecap="round"/><line x1="125.71" y1="80" x2="125.71" y2="91.43" stroke="#111" stroke-width="1" stroke-linecap="round"/><line x1="137.14" y1="91.43" x2="148.57" y2="91.43" stroke="#111" stroke-width="1" stroke-linecap="round"/><line x1="137.14" y1="80" x2="137.14" y2="91.43" stroke="#111" stroke-width="1" stroke-linecap="round"/><line x1="160" y1="80" x2="160" y2="91.43" stroke="#111" stroke-width="1" stroke-linecap="round"/><line x1="148.57" y1="91.43" x2="160" y2="91.43" stroke="#111" stroke-width="1" stroke-linecap="round"/><line x1="0" y1="91.43" x2="11.43" y2="91.43" stroke="#111" stroke-width="1" stroke-linecap="round"/><line x1="0" y1="91.43" x2="0" y2="102.86" stroke="#111" stroke-width="1" stroke-linecap="round"/><line x1="22.86" y1="91.43" x2="22.86" y2="102.86" stroke="#111" stroke-width="1" stroke-linecap="round"/><line x1="22.86" y1="91.43" x2="34.29" y2="91.43" stroke="#111" stroke-width="1" stroke-linecap="round"/><line x1="22.86" y1="91.43" x2="22.86" y2="102.86" stroke="#111" stroke-width="1" stroke-linecap="round"/><line x1="45.71" y1="91.43" x2="45.71" y2="102.86" stroke="#111" stroke-width="1" stroke-linecap="round"/><line x1="34.29" y1="102.86" x2="45.71" y2="102.86" stroke="#111" stroke-width="1" stroke-linecap="round"/><line x1="45.71" y1="102.86" x2="57.14" y2="102.86" stroke="#111" stroke-width="1" stroke-linecap="round"/><line x1="45.71" y1="91.43" x2="45.71" y2="102.86" stroke="#111" stroke-width="1" stroke-linecap="round"/><line x1="57.14" y1="91.43" x2="68.57" y2="91.43" stroke="#111" stroke-width="1" stroke-linecap="round"/><line x1="68.57" y1="91.43" x2="68.57" y2="102.86" stroke="#111" stroke-width="1" stroke-linecap="round"/><line x1="80" y1="91.43" x2="80" y2="102.86" stroke="#111" stroke-width="1" stroke-linecap="round"/><line x1="68.57" y1="91.43" x2="68.57" y2="102.86" stroke="#111" stroke-width="1" stroke-linecap="round"/><line x1="80" y1="102.86" x2="91.43" y2="102.86" stroke="#111" stroke-width="1" stroke-linecap="round"/><line x1="80" y1="91.43" x2="80" y2="102.86" stroke="#111" stroke-width="1" stroke-linecap="round"/><line x1="91.43" y1="91.43" x2="102.86" y2="91.43" stroke="#111" stroke-width="1" stroke-linecap="round"/><line x1="102.86" y1="91.43" x2="102.86" y2="102.86" stroke="#111" stroke-width="1" stroke-linecap="round"/><line x1="102.86" y1="102.86" x2="114.29" y2="102.86" stroke="#111" stroke-width="1" stroke-linecap="round"/><line x1="102.86" y1="91.43" x2="102.86" y2="102.86" stroke="#111" stroke-width="1" stroke-linecap="round"/><line x1="114.29" y1="91.43" x2="125.71" y2="91.43" stroke="#111" stroke-width="1" stroke-linecap="round"/><line x1="114.29" y1="102.86" x2="125.71" y2="102.86" stroke="#111" stroke-width="1" stroke-linecap="round"/><line x1="125.71" y1="102.86" x2="137.14" y2="102.86" stroke="#111" stroke-width="1" stroke-linecap="round"/><line x1="137.14" y1="91.43" x2="148.57" y2="91.43" stroke="#111" stroke-width="1" stroke-linecap="round"/><line x1="137.14" y1="102.86" x2="148.57" y2="102.86" stroke="#111" stroke-width="1" stroke-linecap="round"/><line x1="148.57" y1="91.43" x2="160" y2="91.43" stroke="#111" stroke-width="1" stroke-linecap="round"/><line x1="160" y1="91.43" x2="160" y2="102.86" stroke="#111" stroke-width="1" stroke-linecap="round"/><line x1="11.43" y1="102.86" x2="11.43" y2="114.29" stroke="#111" stroke-width="1" stroke-linecap="round"/><line x1="0" y1="102.86" x2="0" y2="114.29" stroke="#111" stroke-width="1" stroke-linecap="round"/><line x1="22.86" y1="102.86" x2="22.86" y2="114.29" stroke="#111" stroke-width="1" stroke-linecap="round"/><line x1="11.43" y1="114.29" x2="22.86" y2="114.29" stroke="#111" stroke-width="1" stroke-linecap="round"/><line x1="11.43" y1="102.86" x2="11.43" y2="114.29" stroke="#111" stroke-width="1" stroke-linecap="round"/><line x1="34.29" y1="102.86" x2="34.29" y2="114.29" stroke="#111" stroke-width="1" stroke-linecap="round"/><line x1="22.86" y1="102.86" x2="22.86" y2="114.29" stroke="#111" stroke-width="1" stroke-linecap="round"/><line x1="34.29" y1="102.86" x2="45.71" y2="102.86" stroke="#111" stroke-width="1" stroke-linecap="round"/><line x1="45.71" y1="102.86" x2="45.71" y2="114.29" stroke="#111" stroke-width="1" stroke-linecap="round"/><line x1="34.29" y1="102.86" x2="34.29" y2="114.29" stroke="#111" stroke-width="1" stroke-linecap="round"/><line x1="45.71" y1="102.86" x2="57.14" y2="102.86" stroke="#111" stroke-width="1" stroke-linecap="round"/><line x1="45.71" y1="102.86" x2="45.71" y2="114.29" stroke="#111" stroke-width="1" stroke-linecap="round"/><line x1="68.57" y1="102.86" x2="68.57" y2="114.29" stroke="#111" stroke-width="1" stroke-linecap="round"/><line x1="57.14" y1="114.29" x2="68.57" y2="114.29" stroke="#111" stroke-width="1" stroke-linecap="round"/><line x1="68.57" y1="114.29" x2="80" y2="114.29" stroke="#111" stroke-width="1" stroke-linecap="round"/><line x1="68.57" y1="102.86" x2="68.57" y2="114.29" stroke="#111" stroke-width="1" stroke-linecap="round"/><line x1="80" y1="102.86" x2="91.43" y2="102.86" stroke="#111" stroke-width="1" stroke-linecap="round"/><line x1="91.43" y1="102.86" x2="91.43" y2="114.29" stroke="#111" stroke-width="1" stroke-linecap="round"/><line x1="91.43" y1="114.29" x2="102.86" y2="114.29" stroke="#111" stroke-width="1" stroke-linecap="round"/><line x1="91.43" y1="102.86" x2="91.43" y2="114.29" stroke="#111" stroke-width="1" stroke-linecap="round"/><line x1="102.86" y1="102.86" x2="114.29" y2="102.86" stroke="#111" stroke-width="1" stroke-linecap="round"/><line x1="102.86" y1="114.29" x2="114.29" y2="114.29" stroke="#111" stroke-width="1" stroke-linecap="round"/><line x1="114.29" y1="102.86" x2="125.71" y2="102.86" stroke="#111" stroke-width="1" stroke-linecap="round"/><line x1="125.71" y1="102.86" x2="125.71" y2="114.29" stroke="#111" stroke-width="1" stroke-linecap="round"/><line x1="125.71" y1="102.86" x2="137.14" y2="102.86" stroke="#111" stroke-width="1" stroke-linecap="round"/><line x1="125.71" y1="102.86" x2="125.71" y2="114.29" stroke="#111" stroke-width="1" stroke-linecap="round"/><line x1="137.14" y1="102.86" x2="148.57" y2="102.86" stroke="#111" stroke-width="1" stroke-linecap="round"/><line x1="137.14" y1="114.29" x2="148.57" y2="114.29" stroke="#111" stroke-width="1" stroke-linecap="round"/><line x1="160" y1="102.86" x2="160" y2="114.29" stroke="#111" stroke-width="1" stroke-linecap="round"/><line x1="148.57" y1="114.29" x2="160" y2="114.29" stroke="#111" stroke-width="1" stroke-linecap="round"/><line x1="0" y1="125.71" x2="11.43" y2="125.71" stroke="#111" stroke-width="1" stroke-linecap="round"/><line x1="0" y1="114.29" x2="0" y2="125.71" stroke="#111" stroke-width="1" stroke-linecap="round"/><line x1="11.43" y1="114.29" x2="22.86" y2="114.29" stroke="#111" stroke-width="1" stroke-linecap="round"/><line x1="11.43" y1="125.71" x2="22.86" y2="125.71" stroke="#111" stroke-width="1" stroke-linecap="round"/><line x1="22.86" y1="125.71" x2="34.29" y2="125.71" stroke="#111" stroke-width="1" stroke-linecap="round"/><line x1="45.71" y1="114.29" x2="45.71" y2="125.71" stroke="#111" stroke-width="1" stroke-linecap="round"/><line x1="34.29" y1="125.71" x2="45.71" y2="125.71" stroke="#111" stroke-width="1" stroke-linecap="round"/><line x1="45.71" y1="125.71" x2="57.14" y2="125.71" stroke="#111" stroke-width="1" stroke-linecap="round"/><line x1="45.71" y1="114.29" x2="45.71" y2="125.71" stroke="#111" stroke-width="1" stroke-linecap="round"/><line x1="57.14" y1="114.29" x2="68.57" y2="114.29" stroke="#111" stroke-width="1" stroke-linecap="round"/><line x1="57.14" y1="125.71" x2="68.57" y2="125.71" stroke="#111" stroke-width="1" stroke-linecap="round"/><line x1="68.57" y1="114.29" x2="80" y2="114.29" stroke="#111" stroke-width="1" stroke-linecap="round"/><line x1="68.57" y1="125.71" x2="80" y2="125.71" stroke="#111" stroke-width="1" stroke-linecap="round"/><line x1="80" y1="125.71" x2="91.43" y2="125.71" stroke="#111" stroke-width="1" stroke-linecap="round"/><line x1="91.43" y1="114.29" x2="102.86" y2="114.29" stroke="#111" stroke-width="1" stroke-linecap="round"/><line x1="91.43" y1="125.71" x2="102.86" y2="125.71" stroke="#111" stroke-width="1" stroke-linecap="round"/><line x1="102.86" y1="114.29" x2="114.29" y2="114.29" stroke="#111" stroke-width="1" stroke-linecap="round"/><line x1="102.86" y1="125.71" x2="114.29" y2="125.71" stroke="#111" stroke-width="1" stroke-linecap="round"/><line x1="125.71" y1="114.29" x2="125.71" y2="125.71" stroke="#111" stroke-width="1" stroke-linecap="round"/><line x1="114.29" y1="125.71" x2="125.71" y2="125.71" stroke="#111" stroke-width="1" stroke-linecap="round"/><line x1="125.71" y1="125.71" x2="137.14" y2="125.71" stroke="#111" stroke-width="1" stroke-linecap="round"/><line x1="125.71" y1="114.29" x2="125.71" y2="125.71" stroke="#111" stroke-width="1" stroke-linecap="round"/><line x1="137.14" y1="114.29" x2="148.57" y2="114.29" stroke="#111" stroke-width="1" stroke-linecap="round"/><line x1="137.14" y1="125.71" x2="148.57" y2="125.71" stroke="#111" stroke-width="1" stroke-linecap="round"/><line x1="148.57" y1="114.29" x2="160" y2="114.29" stroke="#111" stroke-width="1" stroke-linecap="round"/><line x1="160" y1="114.29" x2="160" y2="125.71" stroke="#111" stroke-width="1" stroke-linecap="round"/><circle cx="5.71" cy="5.71" r="3.20" fill="#111" stroke="#111" stroke-width="0.80"/><path d="M 154.29,116.16 L 155.30,118.60 L 157.94,118.81 L 155.93,120.53 L 156.54,123.11 L 154.29,121.73 L 152.03,123.11 L 152.64,120.53 L 150.63,118.81 L 153.27,118.60 Z" fill="none" stroke="#111" stroke-width="0.80" stroke-linejoin="round"/></g><path d="M 5.714285714285714,5.714285714285714 L 5.714285714285714,17.142857142857142 L 17.142857142857142,17.142857142857142 L 28.571428571428573,17.142857142857142 L 28.571428571428573,28.571428571428573 L 17.142857142857142,28.571428571428573 L 5.714285714285714,28.571428571428573 L 5.714285714285714,40 L 17.142857142857142,40 L 17.142857142857142,51.42857142857143 L 28.571428571428573,51.42857142857143 L 28.571428571428573,62.85714285714286 L 40,62.85714285714286 L 51.42857142857143,62.85714285714286 L 51.42857142857143,51.42857142857143 L 62.85714285714286,51.42857142857143 L 62.85714285714286,40 L 62.85714285714286,28.571428571428573 L 74.28571428571428,28.571428571428573 L 74.28571428571428,40 L 85.71428571428571,40 L 85.71428571428571,28.571428571428573 L 97.14285714285714,28.571428571428573 L 97.14285714285714,17.142857142857142 L 97.14285714285714,5.714285714285714 L 108.57142857142857,5.714285714285714 L 120,5.714285714285714 L 131.42857142857144,5.714285714285714 L 142.85714285714286,5.714285714285714 L 142.85714285714286,17.142857142857142 L 154.2857142857143,17.142857142857142 L 154.2857142857143,28.571428571428573 L 154.2857142857143,40 L 142.85714285714286,40 L 142.85714285714286,28.571428571428573 L 131.42857142857144,28.571428571428573 L 131.42857142857144,17.142857142857142 L 120,17.142857142857142 L 108.57142857142857,17.142857142857142 L 108.57142857142857,28.571428571428573 L 108.57142857142857,40 L 97.14285714285714,40 L 97.14285714285714,51.42857142857143 L 85.71428571428571,51.42857142857143 L 74.28571428571428,51.42857142857143 L 74.28571428571428,62.85714285714286 L 62.85714285714286,62.85714285714286 L 62.85714285714286,74.28571428571428 L 62.85714285714286,85.71428571428571 L 74.28571428571428,85.71428571428571 L 74.28571428571428,97.14285714285714 L 74.28571428571428,108.57142857142857 L 85.71428571428571,108.57142857142857 L 85.71428571428571,120 L 97.14285714285714,120 L 108.57142857142857,120 L 120,120 L 120,108.57142857142857 L 108.57142857142857,108.57142857142857 L 97.14285714285714,108.57142857142857 L 97.14285714285714,97.14285714285714 L 85.71428571428571,97.14285714285714 L 85.71428571428571,85.71428571428571 L 85.71428571428571,74.28571428571428 L 85.71428571428571,62.85714285714286 L 97.14285714285714,62.85714285714286 L 108.57142857142857,62.85714285714286 L 108.57142857142857,51.42857142857143 L 120,51.42857142857143 L 120,40 L 131.42857142857144,40 L 131.42857142857144,51.42857142857143 L 142.85714285714286,51.42857142857143 L 142.85714285714286,62.85714285714286 L 154.2857142857143,62.85714285714286 L 154.2857142857143,74.28571428571428 L 154.2857142857143,85.71428571428571 L 142.85714285714286,85.71428571428571 L 142.85714285714286,74.28571428571428 L 131.42857142857144,74.28571428571428 L 131.42857142857144,62.85714285714286 L 120,62.85714285714286 L 120,74.28571428571428 L 120,85.71428571428571 L 108.57142857142857,85.71428571428571 L 108.57142857142857,97.14285714285714 L 120,97.14285714285714 L 131.42857142857144,97.14285714285714 L 142.85714285714286,97.14285714285714 L 154.2857142857143,97.14285714285714 L 154.2857142857143,108.57142857142857 L 142.85714285714286,108.57142857142857 L 131.42857142857144,108.57142857142857 L 131.42857142857144,120 L 142.85714285714286,120 L 154.2857142857143,120" fill="none" stroke="#d33" stroke-width="0.90" stroke-linejoin="round" stroke-dasharray="2 1.5"/></g>
  <text x="105" y="291" font-size="3" fill="#bbb" text-anchor="middle">Kalmo Kids · demo-maz</text>
</svg>