<svg xmlns="http://www.w3.org/2000/svg" width="210mm" height="297mm" viewBox="0 0 210 297" font-family="system-ui, -apple-system, sans-serif">
  <rect width="210" height="297" fill="#fff"/>
  <text x="14" y="20" font-size="6.5" font-weight="600" fill="#111">Memóriakártyák</text>
  <text x="196" y="20" font-size="3.6" fill="#888" text-anchor="end">Zoé  ·  2026. júl. 15.</text>
  <text x="14" y="28" font-size="4.2" fill="#444">Vágd ki a kártyákat, és keresd meg a párokat!</text>
  <line x1="14" y1="32" x2="196" y2="32" stroke="#e5e5e5" stroke-width="0.3"/>
  
  <g transform="translate(14.00 40.00) scale(1.0706)"><g ><rect x="1.50" y="1.50" width="39.50" height="39.50" fill="none" stroke="#111" stroke-width="0.50" stroke-dasharray="2 1.5" rx="2"/><circle cx="21.25" cy="21.25" r="6.08" fill="none" stroke="#111" stroke-width="1.10" stroke-linejoin="round" stroke-linecap="round"/><path d="M 28.985 21.25 L 32.3 21.25" fill="none" stroke="#111" stroke-width="1.10" stroke-linejoin="round" stroke-linecap="round"/><path d="M 26.719470952477945 26.719470952477945 L 29.06352993211135 29.06352993211135" fill="none" stroke="#111" stroke-width="1.10" stroke-linejoin="round" stroke-linecap="round"/><path d="M 21.25 28.985 L 21.25 32.3" fill="none" stroke="#111" stroke-width="1.10" stroke-linejoin="round" stroke-linecap="round"/><path d="M 15.780529047522055 26.719470952477945 L 13.43647006788865 29.06352993211135" fill="none" stroke="#111" stroke-width="1.10" stroke-linejoin="round" stroke-linecap="round"/><path d="M 13.515 21.25 L 10.2 21.25" fill="none" stroke="#111" stroke-width="1.10" stroke-linejoin="round" stroke-linecap="round"/><path d="M 15.780529047522053 15.780529047522055 L 13.436470067888648 13.43647006788865" fill="none" stroke="#111" stroke-width="1.10" stroke-linejoin="round" stroke-linecap="round"/><path d="M 21.25 13.515 L 21.249999999999996 10.2" fill="none" stroke="#111" stroke-width="1.10" stroke-linejoin="round" stroke-linecap="round"/><path d="M 26.719470952477945 15.780529047522053 L 29.06352993211135 13.436470067888648" fill="none" stroke="#111" stroke-width="1.10" stroke-linejoin="round" stroke-linecap="round"/><rect x="44" y="1.50" width="39.50" height="39.50" fill="none" stroke="#111" stroke-width="0.50" stroke-dasharray="2 1.5" rx="2"/><path d="M 68.17 11.305 A 11.05 11.05 0 1 0 68.17 31.195 A 7.956 7.956 0 1 1 68.17 11.305 Z" fill="none" stroke="#111" stroke-width="1.10" stroke-linejoin="round" stroke-linecap="round"/><rect x="86.50" y="1.50" width="39.50" height="39.50" fill="none" stroke="#111" stroke-width="0.50" stroke-dasharray="2 1.5" rx="2"/><path d="M 106.25 10.2 L 117.3 30.6425 L 95.2 30.6425 Z" fill="none" stroke="#111" stroke-width="1.10" stroke-linejoin="round" stroke-linecap="round"/><rect x="129" y="1.50" width="39.50" height="39.50" fill="none" stroke="#111" stroke-width="0.50" stroke-dasharray="2 1.5" rx="2"/><circle cx="155.38" cy="21.25" r="4.64" fill="none" stroke="#111" stroke-width="1.10" stroke-linejoin="round" stroke-linecap="round"/><circle cx="152.06" cy="26.99" r="4.64" fill="none" stroke="#111" stroke-width="1.10" stroke-linejoin="round" stroke-linecap="round"/><circle cx="145.44" cy="26.99" r="4.64" fill="none" stroke="#111" stroke-width="1.10" stroke-linejoin="round" stroke-linecap="round"/><circle cx="142.12" cy="21.25" r="4.64" fill="none" stroke="#111" stroke-width="1.10" stroke-linejoin="round" stroke-linecap="round"/><circle cx="145.44" cy="15.51" r="4.64" fill="none" stroke="#111" stroke-width="1.10" stroke-linejoin="round" stroke-linecap="round"/><circle cx="152.06" cy="15.51" r="4.64" fill="none" stroke="#111" stroke-width="1.10" stroke-linejoin="round" stroke-linecap="round"/><circle cx="148.75" cy="21.25" r="3.76" fill="none" stroke="#111" stroke-width="1.10" stroke-linejoin="round" stroke-linecap="round"/><rect x="1.50" y="44" width="39.50" height="39.50" fill="none" stroke="#111" stroke-width="0.50" stroke-dasharray="2 1.5" rx="2"/><path d="M 21.25 74.8 C 5.779999999999999 62.645, 13.515 51.595, 21.25 59.8825 C 28.985 51.595, 36.72 62.645, 21.25 74.8 Z" fill="none" stroke="#111" stroke-width="1.10" stroke-linejoin="round" stroke-linecap="round"/><rect x="44" y="44" width="39.50" height="39.50" fill="none" stroke="#111" stroke-width="0.50" stroke-dasharray="2 1.5" rx="2"/><path d="M 52.7 71.485 L 52.7 60.9875 L 63.75 52.7 L 74.8 60.9875 L 74.8 71.485 Z" fill="none" stroke="#111" stroke-width="1.10" stroke-linejoin="round" stroke-linecap="round"/><rect x="86.50" y="44" width="39.50" height="39.50" fill="none" stroke="#111" stroke-width="0.50" stroke-dasharray="2 1.5" rx="2"/><circle cx="106.25" cy="63.75" r="6.08" fill="none" stroke="#111" stroke-width="1.10" stroke-linejoin="round" stroke-linecap="round"/><path d="M 113.985 63.75 L 117.3 63.75" fill="none" stroke="#111" stroke-width="1.10" stroke-linejoin="round" stroke-linecap="round"/><path d="M 111.71947095247795 69.21947095247795 L 114.06352993211135 71.56352993211135" fill="none" stroke="#111" stroke-width="1.10" stroke-linejoin="round" stroke-linecap="round"/><path d="M 106.25 71.485 L 106.25 74.8" fill="none" stroke="#111" stroke-width="1.10" stroke-linejoin="round" stroke-linecap="round"/><path d="M 100.78052904752205 69.21947095247795 L 98.43647006788865 71.56352993211135" fill="none" stroke="#111" stroke-width="1.10" stroke-linejoin="round" stroke-linecap="round"/><path d="M 98.515 63.75 L 95.2 63.75" fill="none" stroke="#111" stroke-width="1.10" stroke-linejoin="round" stroke-linecap="round"/><path d="M 100.78052904752205 58.28052904752205 L 98.43647006788865 55.93647006788865" fill="none" stroke="#111" stroke-width="1.10" stroke-linejoin="round" stroke-linecap="round"/><path d="M 106.25 56.015 L 106.25 52.7" fill="none" stroke="#111" stroke-width="1.10" stroke-linejoin="round" stroke-linecap="round"/><path d="M 111.71947095247795 58.28052904752205 L 114.06352993211135 55.93647006788865" fill="none" stroke="#111" stroke-width="1.10" stroke-linejoin="round" stroke-linecap="round"/><rect x="129" y="44" width="39.50" height="39.50" fill="none" stroke="#111" stroke-width="0.50" stroke-dasharray="2 1.5" rx="2"/><circle cx="155.38" cy="63.75" r="4.64" fill="none" stroke="#111" stroke-width="1.10" stroke-linejoin="round" stroke-linecap="round"/><circle cx="152.06" cy="69.49" r="4.64" fill="none" stroke="#111" stroke-width="1.10" stroke-linejoin="round" stroke-linecap="round"/><circle cx="145.44" cy="69.49" r="4.64" fill="none" stroke="#111" stroke-width="1.10" stroke-linejoin="round" stroke-linecap="round"/><circle cx="142.12" cy="63.75" r="4.64" fill="none" stroke="#111" stroke-width="1.10" stroke-linejoin="round" stroke-linecap="round"/><circle cx="145.44" cy="58.01" r="4.64" fill="none" stroke="#111" stroke-width="1.10" stroke-linejoin="round" stroke-linecap="round"/><circle cx="152.06" cy="58.01" r="4.64" fill="none" stroke="#111" stroke-width="1.10" stroke-linejoin="round" stroke-linecap="round"/><circle cx="148.75" cy="63.75" r="3.76" fill="none" stroke="#111" stroke-width="1.10" stroke-linejoin="round" stroke-linecap="round"/><rect x="1.50" y="86.50" width="39.50" height="39.50" fill="none" stroke="#111" stroke-width="0.50" stroke-dasharray="2 1.5" rx="2"/><path d="M 10.2 113.985 L 10.2 103.4875 L 21.25 95.2 L 32.3 103.4875 L 32.3 113.985 Z" fill="none" stroke="#111" stroke-width="1.10" stroke-linejoin="round" stroke-linecap="round"/><rect x="44" y="86.50" width="39.50" height="39.50" fill="none" stroke="#111" stroke-width="0.50" stroke-dasharray="2 1.5" rx="2"/><path d="M 63.75 95.2 L 74.8 115.6425 L 52.7 115.6425 Z" fill="none" stroke="#111" stroke-width="1.10" stroke-linejoin="round" stroke-linecap="round"/><rect x="86.50" y="86.50" width="39.50" height="39.50" fill="none" stroke="#111" stroke-width="0.50" stroke-dasharray="2 1.5" rx="2"/><path d="M 106.25 117.3 C 90.78 105.145, 98.515 94.095, 106.25 102.3825 C 113.985 94.095, 121.72 105.145, 106.25 117.3 Z" fill="none" stroke="#111" stroke-width="1.10" stroke-linejoin="round" stroke-linecap="round"/><rect x="129" y="86.50" width="39.50" height="39.50" fill="none" stroke="#111" stroke-width="0.50" stroke-dasharray="2 1.5" rx="2"/><path d="M 153.17 96.305 A 11.05 11.05 0 1 0 153.17 116.195 A 7.956 7.956 0 1 1 153.17 96.305 Z" fill="none" stroke="#111" stroke-width="1.10" stroke-linejoin="round" stroke-linecap="round"/></g></g>
  <text x="105" y="291" font-size="3" fill="#bbb" text-anchor="middle">BrainForge Kids · 64846d2b</text>
</svg>