<svg xmlns="http://www.w3.org/2000/svg" width="210mm" height="297mm" viewBox="0 0 210 297" font-family="system-ui, -apple-system, sans-serif">
  <rect width="210" height="297" fill="#fff"/>
  <text x="14" y="20" font-size="6.5" font-weight="600" fill="#111">Memóriakártyák</text>
  <text x="196" y="20" font-size="3.6" fill="#888" text-anchor="end">Zoé  ·  2026. júl. 15.</text>
  <text x="14" y="28" font-size="4.2" fill="#444">Vágd ki a kártyákat, és keresd meg a párokat!</text>
  <line x1="14" y1="32" x2="196" y2="32" stroke="#e5e5e5" stroke-width="0.3"/>
  <text x="196" y="28" font-size="4" fill="#d33" text-anchor="end">Megoldókulcs</text>
  <g transform="translate(14.00 40.00) scale(1.0706)"><g ><rect x="1.50" y="1.50" width="39.50" height="39.50" fill="none" stroke="#111" stroke-width="0.50" stroke-dasharray="2 1.5" rx="2"/><path d="M 10.2 21.25 L 21.25 10.2 L 32.3 21.25 L 21.25 32.3 Z M 15.1725 21.25 L 21.25 15.1725 L 27.3275 21.25 L 21.25 27.3275 Z" fill="none" stroke="#111" stroke-width="0.70" stroke-linejoin="round" stroke-linecap="round"/><rect x="44" y="1.50" width="39.50" height="39.50" fill="none" stroke="#111" stroke-width="0.50" stroke-dasharray="2 1.5" rx="2"/><path d="M 52.7 21.25 L 63.75 10.2 L 74.8 21.25 L 63.75 32.3 Z M 57.6725 21.25 L 63.75 15.1725 L 69.8275 21.25 L 63.75 27.3275 Z" fill="none" stroke="#111" stroke-width="0.70" stroke-linejoin="round" stroke-linecap="round"/><rect x="86.50" y="1.50" width="39.50" height="39.50" fill="none" stroke="#111" stroke-width="0.50" stroke-dasharray="2 1.5" rx="2"/><path d="M 95.2 21.25 L 106.25 10.2 L 117.3 21.25 L 106.25 32.3 Z M 100.1725 21.25 L 106.25 15.1725 L 112.3275 21.25 L 106.25 27.3275 Z" fill="none" stroke="#111" stroke-width="0.70" stroke-linejoin="round" stroke-linecap="round"/><rect x="129" y="1.50" width="39.50" height="39.50" fill="none" stroke="#111" stroke-width="0.50" stroke-dasharray="2 1.5" rx="2"/><path d="M 137.7 21.25 L 148.75 10.2 L 159.8 21.25 L 148.75 32.3 Z M 142.6725 21.25 L 148.75 15.1725 L 154.8275 21.25 L 148.75 27.3275 Z" fill="none" stroke="#111" stroke-width="0.70" stroke-linejoin="round" stroke-linecap="round"/><rect x="1.50" y="44" width="39.50" height="39.50" fill="none" stroke="#111" stroke-width="0.50" stroke-dasharray="2 1.5" rx="2"/><path d="M 10.2 63.75 L 21.25 52.7 L 32.3 63.75 L 21.25 74.8 Z M 15.1725 63.75 L 21.25 57.6725 L 27.3275 63.75 L 21.25 69.8275 Z" fill="none" stroke="#111" stroke-width="0.70" stroke-linejoin="round" stroke-linecap="round"/><rect x="44" y="44" width="39.50" height="39.50" fill="none" stroke="#111" stroke-width="0.50" stroke-dasharray="2 1.5" rx="2"/><path d="M 52.7 63.75 L 63.75 52.7 L 74.8 63.75 L 63.75 74.8 Z M 57.6725 63.75 L 63.75 57.6725 L 69.8275 63.75 L 63.75 69.8275 Z" fill="none" stroke="#111" stroke-width="0.70" stroke-linejoin="round" stroke-linecap="round"/><rect x="86.50" y="44" width="39.50" height="39.50" fill="none" stroke="#111" stroke-width="0.50" stroke-dasharray="2 1.5" rx="2"/><path d="M 95.2 63.75 L 106.25 52.7 L 117.3 63.75 L 106.25 74.8 Z M 100.1725 63.75 L 106.25 57.6725 L 112.3275 63.75 L 106.25 69.8275 Z" fill="none" stroke="#111" stroke-width="0.70" stroke-linejoin="round" stroke-linecap="round"/><rect x="129" y="44" width="39.50" height="39.50" fill="none" stroke="#111" stroke-width="0.50" stroke-dasharray="2 1.5" rx="2"/><path d="M 137.7 63.75 L 148.75 52.7 L 159.8 63.75 L 148.75 74.8 Z M 142.6725 63.75 L 148.75 57.6725 L 154.8275 63.75 L 148.75 69.8275 Z" fill="none" stroke="#111" stroke-width="0.70" stroke-linejoin="round" stroke-linecap="round"/><rect x="1.50" y="86.50" width="39.50" height="39.50" fill="none" stroke="#111" stroke-width="0.50" stroke-dasharray="2 1.5" rx="2"/><path d="M 10.2 106.25 L 21.25 95.2 L 32.3 106.25 L 21.25 117.3 Z M 15.1725 106.25 L 21.25 100.1725 L 27.3275 106.25 L 21.25 112.3275 Z" fill="none" stroke="#111" stroke-width="0.70" stroke-linejoin="round" stroke-linecap="round"/><rect x="44" y="86.50" width="39.50" height="39.50" fill="none" stroke="#111" stroke-width="0.50" stroke-dasharray="2 1.5" rx="2"/><path d="M 52.7 106.25 L 63.75 95.2 L 74.8 106.25 L 63.75 117.3 Z M 57.6725 106.25 L 63.75 100.1725 L 69.8275 106.25 L 63.75 112.3275 Z" fill="none" stroke="#111" stroke-width="0.70" stroke-linejoin="round" stroke-linecap="round"/><rect x="86.50" y="86.50" width="39.50" height="39.50" fill="none" stroke="#111" stroke-width="0.50" stroke-dasharray="2 1.5" rx="2"/><path d="M 95.2 106.25 L 106.25 95.2 L 117.3 106.25 L 106.25 117.3 Z M 100.1725 106.25 L 106.25 100.1725 L 112.3275 106.25 L 106.25 112.3275 Z" fill="none" stroke="#111" stroke-width="0.70" stroke-linejoin="round" stroke-linecap="round"/><rect x="129" y="86.50" width="39.50" height="39.50" fill="none" stroke="#111" stroke-width="0.50" stroke-dasharray="2 1.5" rx="2"/><path d="M 137.7 106.25 L 148.75 95.2 L 159.8 106.25 L 148.75 117.3 Z M 142.6725 106.25 L 148.75 100.1725 L 154.8275 106.25 L 148.75 112.3275 Z" fill="none" stroke="#111" stroke-width="0.70" stroke-linejoin="round" stroke-linecap="round"/></g></g>
  <text x="105" y="291" font-size="3" fill="#bbb" text-anchor="middle">BrainForge Kids · 64846d2b</text>
</svg>