<svg xmlns="http://www.w3.org/2000/svg" width="210mm" height="297mm" viewBox="0 0 210 297" font-family="system-ui, -apple-system, sans-serif">
  <rect width="210" height="297" fill="#fff"/>
  <text x="14" y="20" font-size="6.5" font-weight="600" fill="#111">Memóriakártyák</text>
  <text x="196" y="20" font-size="3.6" fill="#888" text-anchor="end">Zoé  ·  2026. jan. 1.</text>
  <text x="14" y="28" font-size="4.2" fill="#444">Vágd ki a kártyákat, és keresd meg a párokat!</text>
  <line x1="14" y1="32" x2="196" y2="32" stroke="#e5e5e5" stroke-width="0.3"/>
  
  <g transform="translate(14.00 40.00) scale(1.0706)"><g ><rect x="1.50" y="1.50" width="39.50" height="39.50" fill="none" stroke="#111" stroke-width="0.50" stroke-dasharray="2 1.5" rx="2"/><path d="M 21.25 10.2 L 32.3 21.25 L 21.25 32.3 L 10.2 21.25 Z" fill="none" stroke="#111" stroke-width="1.10" stroke-linejoin="round" stroke-linecap="round"/><rect x="44" y="1.50" width="39.50" height="39.50" fill="none" stroke="#111" stroke-width="0.50" stroke-dasharray="2 1.5" rx="2"/><path d="M 63.75 10.2 L 74.8 21.25 L 63.75 32.3 L 52.7 21.25 Z" fill="none" stroke="#111" stroke-width="1.10" stroke-linejoin="round" stroke-linecap="round"/><rect x="86.50" y="1.50" width="39.50" height="39.50" fill="none" stroke="#111" stroke-width="0.50" stroke-dasharray="2 1.5" rx="2"/><circle cx="106.25" cy="21.25" r="6.08" fill="none" stroke="#111" stroke-width="1.10" stroke-linejoin="round" stroke-linecap="round"/><path d="M 113.985 21.25 L 117.3 21.25" fill="none" stroke="#111" stroke-width="1.10" stroke-linejoin="round" stroke-linecap="round"/><path d="M 111.71947095247795 26.719470952477945 L 114.06352993211135 29.06352993211135" fill="none" stroke="#111" stroke-width="1.10" stroke-linejoin="round" stroke-linecap="round"/><path d="M 106.25 28.985 L 106.25 32.3" fill="none" stroke="#111" stroke-width="1.10" stroke-linejoin="round" stroke-linecap="round"/><path d="M 100.78052904752205 26.719470952477945 L 98.43647006788865 29.06352993211135" fill="none" stroke="#111" stroke-width="1.10" stroke-linejoin="round" stroke-linecap="round"/><path d="M 98.515 21.25 L 95.2 21.25" fill="none" stroke="#111" stroke-width="1.10" stroke-linejoin="round" stroke-linecap="round"/><path d="M 100.78052904752205 15.780529047522055 L 98.43647006788865 13.43647006788865" fill="none" stroke="#111" stroke-width="1.10" stroke-linejoin="round" stroke-linecap="round"/><path d="M 106.25 13.515 L 106.25 10.2" fill="none" stroke="#111" stroke-width="1.10" stroke-linejoin="round" stroke-linecap="round"/><path d="M 111.71947095247795 15.780529047522053 L 114.06352993211135 13.436470067888648" fill="none" stroke="#111" stroke-width="1.10" stroke-linejoin="round" stroke-linecap="round"/><rect x="129" y="1.50" width="39.50" height="39.50" fill="none" stroke="#111" stroke-width="0.50" stroke-dasharray="2 1.5" rx="2"/><path d="M 153.17 11.305 A 11.05 11.05 0 1 0 153.17 31.195 A 7.956 7.956 0 1 1 153.17 11.305 Z" fill="none" stroke="#111" stroke-width="1.10" stroke-linejoin="round" stroke-linecap="round"/><rect x="1.50" y="44" width="39.50" height="39.50" fill="none" stroke="#111" stroke-width="0.50" stroke-dasharray="2 1.5" rx="2"/><path d="M 21.25 74.8 C 5.779999999999999 62.645, 13.515 51.595, 21.25 59.8825 C 28.985 51.595, 36.72 62.645, 21.25 74.8 Z" fill="none" stroke="#111" stroke-width="1.10" stroke-linejoin="round" stroke-linecap="round"/><rect x="44" y="44" width="39.50" height="39.50" fill="none" stroke="#111" stroke-width="0.50" stroke-dasharray="2 1.5" rx="2"/><path d="M 52.7 52.7 h 22.1 v 22.1 h -22.1 Z" fill="none" stroke="#111" stroke-width="1.10" stroke-linejoin="round" stroke-linecap="round" rx="1.77"/><rect x="86.50" y="44" width="39.50" height="39.50" fill="none" stroke="#111" stroke-width="0.50" stroke-dasharray="2 1.5" rx="2"/><path d="M 106.25 74.8 C 90.78 62.645, 98.515 51.595, 106.25 59.8825 C 113.985 51.595, 121.72 62.645, 106.25 74.8 Z" fill="none" stroke="#111" stroke-width="1.10" stroke-linejoin="round" stroke-linecap="round"/><rect x="129" y="44" width="39.50" height="39.50" fill="none" stroke="#111" stroke-width="0.50" stroke-dasharray="2 1.5" rx="2"/><path d="M 137.7 52.7 h 22.1 v 22.1 h -22.1 Z" fill="none" stroke="#111" stroke-width="1.10" stroke-linejoin="round" stroke-linecap="round" rx="1.77"/><rect x="1.50" y="86.50" width="39.50" height="39.50" fill="none" stroke="#111" stroke-width="0.50" stroke-dasharray="2 1.5" rx="2"/><circle cx="21.25" cy="106.25" r="6.08" fill="none" stroke="#111" stroke-width="1.10" stroke-linejoin="round" stroke-linecap="round"/><path d="M 28.985 106.25 L 32.3 106.25" fill="none" stroke="#111" stroke-width="1.10" stroke-linejoin="round" stroke-linecap="round"/><path d="M 26.719470952477945 111.71947095247795 L 29.06352993211135 114.06352993211135" fill="none" stroke="#111" stroke-width="1.10" stroke-linejoin="round" stroke-linecap="round"/><path d="M 21.25 113.985 L 21.25 117.3" fill="none" stroke="#111" stroke-width="1.10" stroke-linejoin="round" stroke-linecap="round"/><path d="M 15.780529047522055 111.71947095247795 L 13.43647006788865 114.06352993211135" fill="none" stroke="#111" stroke-width="1.10" stroke-linejoin="round" stroke-linecap="round"/><path d="M 13.515 106.25 L 10.2 106.25" fill="none" stroke="#111" stroke-width="1.10" stroke-linejoin="round" stroke-linecap="round"/><path d="M 15.780529047522053 100.78052904752205 L 13.436470067888648 98.43647006788865" fill="none" stroke="#111" stroke-width="1.10" stroke-linejoin="round" stroke-linecap="round"/><path d="M 21.25 98.515 L 21.249999999999996 95.2" fill="none" stroke="#111" stroke-width="1.10" stroke-linejoin="round" stroke-linecap="round"/><path d="M 26.719470952477945 100.78052904752205 L 29.06352993211135 98.43647006788865" fill="none" stroke="#111" stroke-width="1.10" stroke-linejoin="round" stroke-linecap="round"/><rect x="44" y="86.50" width="39.50" height="39.50" fill="none" stroke="#111" stroke-width="0.50" stroke-dasharray="2 1.5" rx="2"/><path d="M 52.7 113.985 L 52.7 103.4875 L 63.75 95.2 L 74.8 103.4875 L 74.8 113.985 Z" fill="none" stroke="#111" stroke-width="1.10" stroke-linejoin="round" stroke-linecap="round"/><rect x="86.50" y="86.50" width="39.50" height="39.50" fill="none" stroke="#111" stroke-width="0.50" stroke-dasharray="2 1.5" rx="2"/><path d="M 95.2 113.985 L 95.2 103.4875 L 106.25 95.2 L 117.3 103.4875 L 117.3 113.985 Z" fill="none" stroke="#111" stroke-width="1.10" stroke-linejoin="round" stroke-linecap="round"/><rect x="129" y="86.50" width="39.50" height="39.50" fill="none" stroke="#111" stroke-width="0.50" stroke-dasharray="2 1.5" rx="2"/><path d="M 153.17 96.305 A 11.05 11.05 0 1 0 153.17 116.195 A 7.956 7.956 0 1 1 153.17 96.305 Z" fill="none" stroke="#111" stroke-width="1.10" stroke-linejoin="round" stroke-linecap="round"/></g></g>
  <text x="105" y="291" font-size="3" fill="#bbb" text-anchor="middle">Kalmo Kids · demo-mem</text>
</svg>