<svg xmlns="http://www.w3.org/2000/svg" width="210mm" height="297mm" viewBox="0 0 210 297" font-family="system-ui, -apple-system, sans-serif">
  <rect width="210" height="297" fill="#fff"/>
  <text x="14" y="20" font-size="6.5" font-weight="600" fill="#111">Tükörrajz</text>
  <text x="196" y="20" font-size="3.6" fill="#888" text-anchor="end">Lili  ·  2026. jan. 1.</text>
  <text x="14" y="28" font-size="4.2" fill="#444">Rajzold meg a tükörképet a szaggatott vonal másik oldalán!</text>
  <line x1="14" y1="32" x2="196" y2="32" stroke="#e5e5e5" stroke-width="0.3"/>
  <text x="196" y="28" font-size="4" fill="#d33" text-anchor="end">Megoldókulcs</text>
  <g transform="translate(14.00 40.00) scale(1.1375)"><g ><circle cx="16" cy="16" r="0.45" fill="#d8d8d3"/><circle cx="16" cy="32" r="0.45" fill="#d8d8d3"/><circle cx="16" cy="48" r="0.45" fill="#d8d8d3"/><circle cx="16" cy="64" r="0.45" fill="#d8d8d3"/><circle cx="16" cy="80" r="0.45" fill="#d8d8d3"/><circle cx="16" cy="96" r="0.45" fill="#d8d8d3"/><circle cx="16" cy="112" r="0.45" fill="#d8d8d3"/><circle cx="16" cy="128" r="0.45" fill="#d8d8d3"/><circle cx="16" cy="144" r="0.45" fill="#d8d8d3"/><circle cx="16" cy="160" r="0.45" fill="#d8d8d3"/><circle cx="16" cy="176" r="0.45" fill="#d8d8d3"/><circle cx="32" cy="16" r="0.45" fill="#d8d8d3"/><circle cx="32" cy="32" r="0.45" fill="#d8d8d3"/><circle cx="32" cy="48" r="0.45" fill="#d8d8d3"/><circle cx="32" cy="64" r="0.45" fill="#d8d8d3"/><circle cx="32" cy="80" r="0.45" fill="#d8d8d3"/><circle cx="32" cy="96" r="0.45" fill="#d8d8d3"/><circle cx="32" cy="112" r="0.45" fill="#d8d8d3"/><circle cx="32" cy="128" r="0.45" fill="#d8d8d3"/><circle cx="32" cy="144" r="0.45" fill="#d8d8d3"/><circle cx="32" cy="160" r="0.45" fill="#d8d8d3"/><circle cx="32" cy="176" r="0.45" fill="#d8d8d3"/><circle cx="48" cy="16" r="0.45" fill="#d8d8d3"/><circle cx="48" cy="32" r="0.45" fill="#d8d8d3"/><circle cx="48" cy="48" r="0.45" fill="#d8d8d3"/><circle cx="48" cy="64" r="0.45" fill="#d8d8d3"/><circle cx="48" cy="80" r="0.45" fill="#d8d8d3"/><circle cx="48" cy="96" r="0.45" fill="#d8d8d3"/><circle cx="48" cy="112" r="0.45" fill="#d8d8d3"/><circle cx="48" cy="128" r="0.45" fill="#d8d8d3"/><circle cx="48" cy="144" r="0.45" fill="#d8d8d3"/><circle cx="48" cy="160" r="0.45" fill="#d8d8d3"/><circle cx="48" cy="176" r="0.45" fill="#d8d8d3"/><circle cx="64" cy="16" r="0.45" fill="#d8d8d3"/><circle cx="64" cy="32" r="0.45" fill="#d8d8d3"/><circle cx="64" cy="48" r="0.45" fill="#d8d8d3"/><circle cx="64" cy="64" r="0.45" fill="#d8d8d3"/><circle cx="64" cy="80" r="0.45" fill="#d8d8d3"/><circle cx="64" cy="96" r="0.45" fill="#d8d8d3"/><circle cx="64" cy="112" r="0.45" fill="#d8d8d3"/><circle cx="64" cy="128" r="0.45" fill="#d8d8d3"/><circle cx="64" cy="144" r="0.45" fill="#d8d8d3"/><circle cx="64" cy="160" r="0.45" fill="#d8d8d3"/><circle cx="64" cy="176" r="0.45" fill="#d8d8d3"/><circle cx="80" cy="16" r="0.45" fill="#d8d8d3"/><circle cx="80" cy="32" r="0.45" fill="#d8d8d3"/><circle cx="80" cy="48" r="0.45" fill="#d8d8d3"/><circle cx="80" cy="64" r="0.45" fill="#d8d8d3"/><circle cx="80" cy="80" r="0.45" fill="#d8d8d3"/><circle cx="80" cy="96" r="0.45" fill="#d8d8d3"/><circle cx="80" cy="112" r="0.45" fill="#d8d8d3"/><circle cx="80" cy="128" r="0.45" fill="#d8d8d3"/><circle cx="80" cy="144" r="0.45" fill="#d8d8d3"/><circle cx="80" cy="160" r="0.45" fill="#d8d8d3"/><circle cx="80" cy="176" r="0.45" fill="#d8d8d3"/><circle cx="96" cy="16" r="0.45" fill="#d8d8d3"/><circle cx="96" cy="32" r="0.45" fill="#d8d8d3"/><circle cx="96" cy="48" r="0.45" fill="#d8d8d3"/><circle cx="96" cy="64" r="0.45" fill="#d8d8d3"/><circle cx="96" cy="80" r="0.45" fill="#d8d8d3"/><circle cx="96" cy="96" r="0.45" fill="#d8d8d3"/><circle cx="96" cy="112" r="0.45" fill="#d8d8d3"/><circle cx="96" cy="128" r="0.45" fill="#d8d8d3"/><circle cx="96" cy="144" r="0.45" fill="#d8d8d3"/><circle cx="96" cy="160" r="0.45" fill="#d8d8d3"/><circle cx="96" cy="176" r="0.45" fill="#d8d8d3"/><circle cx="112" cy="16" r="0.45" fill="#d8d8d3"/><circle cx="112" cy="32" r="0.45" fill="#d8d8d3"/><circle cx="112" cy="48" r="0.45" fill="#d8d8d3"/><circle cx="112" cy="64" r="0.45" fill="#d8d8d3"/><circle cx="112" cy="80" r="0.45" fill="#d8d8d3"/><circle cx="112" cy="96" r="0.45" fill="#d8d8d3"/><circle cx="112" cy="112" r="0.45" fill="#d8d8d3"/><circle cx="112" cy="128" r="0.45" fill="#d8d8d3"/><circle cx="112" cy="144" r="0.45" fill="#d8d8d3"/><circle cx="112" cy="160" r="0.45" fill="#d8d8d3"/><circle cx="112" cy="176" r="0.45" fill="#d8d8d3"/><circle cx="128" cy="16" r="0.45" fill="#d8d8d3"/><circle cx="128" cy="32" r="0.45" fill="#d8d8d3"/><circle cx="128" cy="48" r="0.45" fill="#d8d8d3"/><circle cx="128" cy="64" r="0.45" fill="#d8d8d3"/><circle cx="128" cy="80" r="0.45" fill="#d8d8d3"/><circle cx="128" cy="96" r="0.45" fill="#d8d8d3"/><circle cx="128" cy="112" r="0.45" fill="#d8d8d3"/><circle cx="128" cy="128" r="0.45" fill="#d8d8d3"/><circle cx="128" cy="144" r="0.45" fill="#d8d8d3"/><circle cx="128" cy="160" r="0.45" fill="#d8d8d3"/><circle cx="128" cy="176" r="0.45" fill="#d8d8d3"/><circle cx="144" cy="16" r="0.45" fill="#d8d8d3"/><circle cx="144" cy="32" r="0.45" fill="#d8d8d3"/><circle cx="144" cy="48" r="0.45" fill="#d8d8d3"/><circle cx="144" cy="64" r="0.45" fill="#d8d8d3"/><circle cx="144" cy="80" r="0.45" fill="#d8d8d3"/><circle cx="144" cy="96" r="0.45" fill="#d8d8d3"/><circle cx="144" cy="112" r="0.45" fill="#d8d8d3"/><circle cx="144" cy="128" r="0.45" fill="#d8d8d3"/><circle cx="144" cy="144" r="0.45" fill="#d8d8d3"/><circle cx="144" cy="160" r="0.45" fill="#d8d8d3"/><circle cx="144" cy="176" r="0.45" fill="#d8d8d3"/><line x1="80" y1="4" x2="80" y2="186" stroke="#999" stroke-width="0.70" stroke-dasharray="4 2.5"/><path d="M 80 18 C 70.33 19.10, 31.67 22.41, 22 24.61 C 12.33 26.81, 22 29.02, 22 31.22 C 22 33.43, 15.67 35.63, 22 37.83 C 28.33 40.04, 53.17 42.24, 60 44.44 C 66.83 46.65, 59.67 48.85, 63 51.06 C 66.33 53.26, 77.17 56.56, 80 57.67" fill="none" stroke="#111" stroke-width="1.20" stroke-linecap="round"/><path d="M 80 75.67 C 77.67 76.77, 68.33 80.07, 66 82.28 C 63.67 84.48, 69.33 86.69, 66 88.89 C 62.67 91.09, 46.50 93.30, 46 95.50 C 45.50 97.70, 63.83 99.91, 63 102.11 C 62.17 104.31, 38.17 106.52, 41 108.72 C 43.83 110.93, 73.50 114.23, 80 115.33" fill="none" stroke="#111" stroke-width="1.20" stroke-linecap="round"/><path d="M 80 123.33 C 77.67 124.66, 75.33 128.63, 66 131.28 C 56.67 133.93, 32 136.57, 24 139.22 C 16 141.87, 18.33 144.52, 18 147.17 C 17.67 149.81, 21.50 152.46, 22 155.11 C 22.50 157.76, 11.33 160.41, 21 163.06 C 30.67 165.70, 70.17 169.68, 80 171" fill="none" stroke="#111" stroke-width="1.20" stroke-linecap="round"/><path d="M 80 18 C 89.67 19.10, 128.33 22.41, 138 24.61 C 147.67 26.81, 138 29.02, 138 31.22 C 138 33.43, 144.33 35.63, 138 37.83 C 131.67 40.04, 106.83 42.24, 100 44.44 C 93.17 46.65, 100.33 48.85, 97 51.06 C 93.67 53.26, 82.83 56.56, 80 57.67" fill="none" stroke="#d33" stroke-width="1.20" stroke-linecap="round" stroke-dasharray="2 1.5"/><path d="M 80 75.67 C 82.33 76.77, 91.67 80.07, 94 82.28 C 96.33 84.48, 90.67 86.69, 94 88.89 C 97.33 91.09, 113.50 93.30, 114 95.50 C 114.50 97.70, 96.17 99.91, 97 102.11 C 97.83 104.31, 121.83 106.52, 119 108.72 C 116.17 110.93, 86.50 114.23, 80 115.33" fill="none" stroke="#d33" stroke-width="1.20" stroke-linecap="round" stroke-dasharray="2 1.5"/><path d="M 80 123.33 C 82.33 124.66, 84.67 128.63, 94 131.28 C 103.33 133.93, 128 136.57, 136 139.22 C 144 141.87, 141.67 144.52, 142 147.17 C 142.33 149.81, 138.50 152.46, 138 155.11 C 137.50 157.76, 148.67 160.41, 139 163.06 C 129.33 165.70, 89.83 169.68, 80 171" fill="none" stroke="#d33" stroke-width="1.20" stroke-linecap="round" stroke-dasharray="2 1.5"/></g></g>
  <text x="105" y="291" font-size="3" fill="#bbb" text-anchor="middle">BrainForge Kids · demo-mir</text>
</svg>