<svg xmlns="http://www.w3.org/2000/svg" width="210mm" height="297mm" viewBox="0 0 210 297" font-family="system-ui, -apple-system, sans-serif">
  <rect width="210" height="297" fill="#fff"/>
  <text x="14" y="20" font-size="6.5" font-weight="600" fill="#111">Tükörrajz</text>
  <text x="196" y="20" font-size="3.6" fill="#888" text-anchor="end">Lili  ·  2026. júl. 8.</text>
  <text x="14" y="28" font-size="4.2" fill="#444">Rajzold meg a tükörképet a szaggatott vonal másik oldalán!</text>
  <line x1="14" y1="32" x2="196" y2="32" stroke="#e5e5e5" stroke-width="0.3"/>
  
  <g transform="translate(14.00 40.00) scale(1.1375)"><g ><circle cx="16" cy="16" r="0.45" fill="#d8d8d3"/><circle cx="16" cy="32" r="0.45" fill="#d8d8d3"/><circle cx="16" cy="48" r="0.45" fill="#d8d8d3"/><circle cx="16" cy="64" r="0.45" fill="#d8d8d3"/><circle cx="16" cy="80" r="0.45" fill="#d8d8d3"/><circle cx="16" cy="96" r="0.45" fill="#d8d8d3"/><circle cx="16" cy="112" r="0.45" fill="#d8d8d3"/><circle cx="16" cy="128" r="0.45" fill="#d8d8d3"/><circle cx="16" cy="144" r="0.45" fill="#d8d8d3"/><circle cx="16" cy="160" r="0.45" fill="#d8d8d3"/><circle cx="16" cy="176" r="0.45" fill="#d8d8d3"/><circle cx="32" cy="16" r="0.45" fill="#d8d8d3"/><circle cx="32" cy="32" r="0.45" fill="#d8d8d3"/><circle cx="32" cy="48" r="0.45" fill="#d8d8d3"/><circle cx="32" cy="64" r="0.45" fill="#d8d8d3"/><circle cx="32" cy="80" r="0.45" fill="#d8d8d3"/><circle cx="32" cy="96" r="0.45" fill="#d8d8d3"/><circle cx="32" cy="112" r="0.45" fill="#d8d8d3"/><circle cx="32" cy="128" r="0.45" fill="#d8d8d3"/><circle cx="32" cy="144" r="0.45" fill="#d8d8d3"/><circle cx="32" cy="160" r="0.45" fill="#d8d8d3"/><circle cx="32" cy="176" r="0.45" fill="#d8d8d3"/><circle cx="48" cy="16" r="0.45" fill="#d8d8d3"/><circle cx="48" cy="32" r="0.45" fill="#d8d8d3"/><circle cx="48" cy="48" r="0.45" fill="#d8d8d3"/><circle cx="48" cy="64" r="0.45" fill="#d8d8d3"/><circle cx="48" cy="80" r="0.45" fill="#d8d8d3"/><circle cx="48" cy="96" r="0.45" fill="#d8d8d3"/><circle cx="48" cy="112" r="0.45" fill="#d8d8d3"/><circle cx="48" cy="128" r="0.45" fill="#d8d8d3"/><circle cx="48" cy="144" r="0.45" fill="#d8d8d3"/><circle cx="48" cy="160" r="0.45" fill="#d8d8d3"/><circle cx="48" cy="176" r="0.45" fill="#d8d8d3"/><circle cx="64" cy="16" r="0.45" fill="#d8d8d3"/><circle cx="64" cy="32" r="0.45" fill="#d8d8d3"/><circle cx="64" cy="48" r="0.45" fill="#d8d8d3"/><circle cx="64" cy="64" r="0.45" fill="#d8d8d3"/><circle cx="64" cy="80" r="0.45" fill="#d8d8d3"/><circle cx="64" cy="96" r="0.45" fill="#d8d8d3"/><circle cx="64" cy="112" r="0.45" fill="#d8d8d3"/><circle cx="64" cy="128" r="0.45" fill="#d8d8d3"/><circle cx="64" cy="144" r="0.45" fill="#d8d8d3"/><circle cx="64" cy="160" r="0.45" fill="#d8d8d3"/><circle cx="64" cy="176" r="0.45" fill="#d8d8d3"/><circle cx="80" cy="16" r="0.45" fill="#d8d8d3"/><circle cx="80" cy="32" r="0.45" fill="#d8d8d3"/><circle cx="80" cy="48" r="0.45" fill="#d8d8d3"/><circle cx="80" cy="64" r="0.45" fill="#d8d8d3"/><circle cx="80" cy="80" r="0.45" fill="#d8d8d3"/><circle cx="80" cy="96" r="0.45" fill="#d8d8d3"/><circle cx="80" cy="112" r="0.45" fill="#d8d8d3"/><circle cx="80" cy="128" r="0.45" fill="#d8d8d3"/><circle cx="80" cy="144" r="0.45" fill="#d8d8d3"/><circle cx="80" cy="160" r="0.45" fill="#d8d8d3"/><circle cx="80" cy="176" r="0.45" fill="#d8d8d3"/><circle cx="96" cy="16" r="0.45" fill="#d8d8d3"/><circle cx="96" cy="32" r="0.45" fill="#d8d8d3"/><circle cx="96" cy="48" r="0.45" fill="#d8d8d3"/><circle cx="96" cy="64" r="0.45" fill="#d8d8d3"/><circle cx="96" cy="80" r="0.45" fill="#d8d8d3"/><circle cx="96" cy="96" r="0.45" fill="#d8d8d3"/><circle cx="96" cy="112" r="0.45" fill="#d8d8d3"/><circle cx="96" cy="128" r="0.45" fill="#d8d8d3"/><circle cx="96" cy="144" r="0.45" fill="#d8d8d3"/><circle cx="96" cy="160" r="0.45" fill="#d8d8d3"/><circle cx="96" cy="176" r="0.45" fill="#d8d8d3"/><circle cx="112" cy="16" r="0.45" fill="#d8d8d3"/><circle cx="112" cy="32" r="0.45" fill="#d8d8d3"/><circle cx="112" cy="48" r="0.45" fill="#d8d8d3"/><circle cx="112" cy="64" r="0.45" fill="#d8d8d3"/><circle cx="112" cy="80" r="0.45" fill="#d8d8d3"/><circle cx="112" cy="96" r="0.45" fill="#d8d8d3"/><circle cx="112" cy="112" r="0.45" fill="#d8d8d3"/><circle cx="112" cy="128" r="0.45" fill="#d8d8d3"/><circle cx="112" cy="144" r="0.45" fill="#d8d8d3"/><circle cx="112" cy="160" r="0.45" fill="#d8d8d3"/><circle cx="112" cy="176" r="0.45" fill="#d8d8d3"/><circle cx="128" cy="16" r="0.45" fill="#d8d8d3"/><circle cx="128" cy="32" r="0.45" fill="#d8d8d3"/><circle cx="128" cy="48" r="0.45" fill="#d8d8d3"/><circle cx="128" cy="64" r="0.45" fill="#d8d8d3"/><circle cx="128" cy="80" r="0.45" fill="#d8d8d3"/><circle cx="128" cy="96" r="0.45" fill="#d8d8d3"/><circle cx="128" cy="112" r="0.45" fill="#d8d8d3"/><circle cx="128" cy="128" r="0.45" fill="#d8d8d3"/><circle cx="128" cy="144" r="0.45" fill="#d8d8d3"/><circle cx="128" cy="160" r="0.45" fill="#d8d8d3"/><circle cx="128" cy="176" r="0.45" fill="#d8d8d3"/><circle cx="144" cy="16" r="0.45" fill="#d8d8d3"/><circle cx="144" cy="32" r="0.45" fill="#d8d8d3"/><circle cx="144" cy="48" r="0.45" fill="#d8d8d3"/><circle cx="144" cy="64" r="0.45" fill="#d8d8d3"/><circle cx="144" cy="80" r="0.45" fill="#d8d8d3"/><circle cx="144" cy="96" r="0.45" fill="#d8d8d3"/><circle cx="144" cy="112" r="0.45" fill="#d8d8d3"/><circle cx="144" cy="128" r="0.45" fill="#d8d8d3"/><circle cx="144" cy="144" r="0.45" fill="#d8d8d3"/><circle cx="144" cy="160" r="0.45" fill="#d8d8d3"/><circle cx="144" cy="176" r="0.45" fill="#d8d8d3"/><line x1="80" y1="4" x2="80" y2="186" stroke="#999" stroke-width="0.70" stroke-dasharray="4 2.5"/><path d="M 80 17 C 70 18.35, 22.50 22.41, 20 25.11 C 17.50 27.81, 57.17 30.52, 65 33.22 C 72.83 35.93, 70 38.63, 67 41.33 C 64 44.04, 53.83 46.74, 47 49.44 C 40.17 52.15, 20.50 54.85, 26 57.56 C 31.50 60.26, 71 64.31, 80 65.67" fill="none" stroke="#111" stroke-width="1.20" stroke-linecap="round"/><path d="M 80 74.67 C 69 75.80, 22.33 79.19, 14 81.44 C 5.67 83.70, 28.33 85.96, 30 88.22 C 31.67 90.48, 23.67 92.74, 24 95 C 24.33 97.26, 25.33 99.52, 32 101.78 C 38.67 104.04, 56 106.30, 64 108.56 C 72 110.81, 77.33 114.20, 80 115.33" fill="none" stroke="#111" stroke-width="1.20" stroke-linecap="round"/><path d="M 80 129.33 C 69.67 130.74, 28.17 134.96, 18 137.78 C 7.83 140.59, 16.67 143.41, 19 146.22 C 21.33 149.04, 32.83 151.85, 32 154.67 C 31.17 157.48, 8.83 160.30, 14 163.11 C 19.17 165.93, 52 168.74, 63 171.56 C 74 174.37, 77.17 178.59, 80 180" fill="none" stroke="#111" stroke-width="1.20" stroke-linecap="round"/></g></g>
  <text x="105" y="291" font-size="3" fill="#bbb" text-anchor="middle">BrainForge Kids · a5a826bc</text>
</svg>