<svg xmlns="http://www.w3.org/2000/svg" width="210mm" height="297mm" viewBox="0 0 210 297" font-family="system-ui, -apple-system, sans-serif">
  <rect width="210" height="297" fill="#fff"/>
  <text x="14" y="20" font-size="6.5" font-weight="600" fill="#111">Tükörrajz</text>
  <text x="196" y="20" font-size="3.6" fill="#888" text-anchor="end">Lili  ·  2026. júl. 15.</text>
  <text x="14" y="28" font-size="4.2" fill="#444">Rajzold meg a tükörképet a szaggatott vonal másik oldalán!</text>
  <line x1="14" y1="32" x2="196" y2="32" stroke="#e5e5e5" stroke-width="0.3"/>
  
  <g transform="translate(14.00 40.00) scale(1.1375)"><g ><circle cx="16" cy="16" r="0.45" fill="#d8d8d3"/><circle cx="16" cy="32" r="0.45" fill="#d8d8d3"/><circle cx="16" cy="48" r="0.45" fill="#d8d8d3"/><circle cx="16" cy="64" r="0.45" fill="#d8d8d3"/><circle cx="16" cy="80" r="0.45" fill="#d8d8d3"/><circle cx="16" cy="96" r="0.45" fill="#d8d8d3"/><circle cx="16" cy="112" r="0.45" fill="#d8d8d3"/><circle cx="16" cy="128" r="0.45" fill="#d8d8d3"/><circle cx="16" cy="144" r="0.45" fill="#d8d8d3"/><circle cx="16" cy="160" r="0.45" fill="#d8d8d3"/><circle cx="16" cy="176" r="0.45" fill="#d8d8d3"/><circle cx="32" cy="16" r="0.45" fill="#d8d8d3"/><circle cx="32" cy="32" r="0.45" fill="#d8d8d3"/><circle cx="32" cy="48" r="0.45" fill="#d8d8d3"/><circle cx="32" cy="64" r="0.45" fill="#d8d8d3"/><circle cx="32" cy="80" r="0.45" fill="#d8d8d3"/><circle cx="32" cy="96" r="0.45" fill="#d8d8d3"/><circle cx="32" cy="112" r="0.45" fill="#d8d8d3"/><circle cx="32" cy="128" r="0.45" fill="#d8d8d3"/><circle cx="32" cy="144" r="0.45" fill="#d8d8d3"/><circle cx="32" cy="160" r="0.45" fill="#d8d8d3"/><circle cx="32" cy="176" r="0.45" fill="#d8d8d3"/><circle cx="48" cy="16" r="0.45" fill="#d8d8d3"/><circle cx="48" cy="32" r="0.45" fill="#d8d8d3"/><circle cx="48" cy="48" r="0.45" fill="#d8d8d3"/><circle cx="48" cy="64" r="0.45" fill="#d8d8d3"/><circle cx="48" cy="80" r="0.45" fill="#d8d8d3"/><circle cx="48" cy="96" r="0.45" fill="#d8d8d3"/><circle cx="48" cy="112" r="0.45" fill="#d8d8d3"/><circle cx="48" cy="128" r="0.45" fill="#d8d8d3"/><circle cx="48" cy="144" r="0.45" fill="#d8d8d3"/><circle cx="48" cy="160" r="0.45" fill="#d8d8d3"/><circle cx="48" cy="176" r="0.45" fill="#d8d8d3"/><circle cx="64" cy="16" r="0.45" fill="#d8d8d3"/><circle cx="64" cy="32" r="0.45" fill="#d8d8d3"/><circle cx="64" cy="48" r="0.45" fill="#d8d8d3"/><circle cx="64" cy="64" r="0.45" fill="#d8d8d3"/><circle cx="64" cy="80" r="0.45" fill="#d8d8d3"/><circle cx="64" cy="96" r="0.45" fill="#d8d8d3"/><circle cx="64" cy="112" r="0.45" fill="#d8d8d3"/><circle cx="64" cy="128" r="0.45" fill="#d8d8d3"/><circle cx="64" cy="144" r="0.45" fill="#d8d8d3"/><circle cx="64" cy="160" r="0.45" fill="#d8d8d3"/><circle cx="64" cy="176" r="0.45" fill="#d8d8d3"/><circle cx="80" cy="16" r="0.45" fill="#d8d8d3"/><circle cx="80" cy="32" r="0.45" fill="#d8d8d3"/><circle cx="80" cy="48" r="0.45" fill="#d8d8d3"/><circle cx="80" cy="64" r="0.45" fill="#d8d8d3"/><circle cx="80" cy="80" r="0.45" fill="#d8d8d3"/><circle cx="80" cy="96" r="0.45" fill="#d8d8d3"/><circle cx="80" cy="112" r="0.45" fill="#d8d8d3"/><circle cx="80" cy="128" r="0.45" fill="#d8d8d3"/><circle cx="80" cy="144" r="0.45" fill="#d8d8d3"/><circle cx="80" cy="160" r="0.45" fill="#d8d8d3"/><circle cx="80" cy="176" r="0.45" fill="#d8d8d3"/><circle cx="96" cy="16" r="0.45" fill="#d8d8d3"/><circle cx="96" cy="32" r="0.45" fill="#d8d8d3"/><circle cx="96" cy="48" r="0.45" fill="#d8d8d3"/><circle cx="96" cy="64" r="0.45" fill="#d8d8d3"/><circle cx="96" cy="80" r="0.45" fill="#d8d8d3"/><circle cx="96" cy="96" r="0.45" fill="#d8d8d3"/><circle cx="96" cy="112" r="0.45" fill="#d8d8d3"/><circle cx="96" cy="128" r="0.45" fill="#d8d8d3"/><circle cx="96" cy="144" r="0.45" fill="#d8d8d3"/><circle cx="96" cy="160" r="0.45" fill="#d8d8d3"/><circle cx="96" cy="176" r="0.45" fill="#d8d8d3"/><circle cx="112" cy="16" r="0.45" fill="#d8d8d3"/><circle cx="112" cy="32" r="0.45" fill="#d8d8d3"/><circle cx="112" cy="48" r="0.45" fill="#d8d8d3"/><circle cx="112" cy="64" r="0.45" fill="#d8d8d3"/><circle cx="112" cy="80" r="0.45" fill="#d8d8d3"/><circle cx="112" cy="96" r="0.45" fill="#d8d8d3"/><circle cx="112" cy="112" r="0.45" fill="#d8d8d3"/><circle cx="112" cy="128" r="0.45" fill="#d8d8d3"/><circle cx="112" cy="144" r="0.45" fill="#d8d8d3"/><circle cx="112" cy="160" r="0.45" fill="#d8d8d3"/><circle cx="112" cy="176" r="0.45" fill="#d8d8d3"/><circle cx="128" cy="16" r="0.45" fill="#d8d8d3"/><circle cx="128" cy="32" r="0.45" fill="#d8d8d3"/><circle cx="128" cy="48" r="0.45" fill="#d8d8d3"/><circle cx="128" cy="64" r="0.45" fill="#d8d8d3"/><circle cx="128" cy="80" r="0.45" fill="#d8d8d3"/><circle cx="128" cy="96" r="0.45" fill="#d8d8d3"/><circle cx="128" cy="112" r="0.45" fill="#d8d8d3"/><circle cx="128" cy="128" r="0.45" fill="#d8d8d3"/><circle cx="128" cy="144" r="0.45" fill="#d8d8d3"/><circle cx="128" cy="160" r="0.45" fill="#d8d8d3"/><circle cx="128" cy="176" r="0.45" fill="#d8d8d3"/><circle cx="144" cy="16" r="0.45" fill="#d8d8d3"/><circle cx="144" cy="32" r="0.45" fill="#d8d8d3"/><circle cx="144" cy="48" r="0.45" fill="#d8d8d3"/><circle cx="144" cy="64" r="0.45" fill="#d8d8d3"/><circle cx="144" cy="80" r="0.45" fill="#d8d8d3"/><circle cx="144" cy="96" r="0.45" fill="#d8d8d3"/><circle cx="144" cy="112" r="0.45" fill="#d8d8d3"/><circle cx="144" cy="128" r="0.45" fill="#d8d8d3"/><circle cx="144" cy="144" r="0.45" fill="#d8d8d3"/><circle cx="144" cy="160" r="0.45" fill="#d8d8d3"/><circle cx="144" cy="176" r="0.45" fill="#d8d8d3"/><line x1="80" y1="4" x2="80" y2="186" stroke="#999" stroke-width="0.70" stroke-dasharray="4 2.5"/><path d="M 80 10 C 70.33 11.57, 27 16.30, 22 19.44 C 17 22.59, 47.67 25.74, 50 28.89 C 52.33 32.04, 39.33 35.19, 36 38.33 C 32.67 41.48, 27.33 44.63, 30 47.78 C 32.67 50.93, 43.67 54.07, 52 57.22 C 60.33 60.37, 75.33 65.09, 80 66.67" fill="none" stroke="#111" stroke-width="1.20" stroke-linecap="round"/><path d="M 80 69.67 C 77.17 70.99, 73.50 74.96, 63 77.61 C 52.50 80.26, 17.33 82.91, 17 85.56 C 16.67 88.20, 60.67 90.85, 61 93.50 C 61.33 96.15, 25 98.80, 19 101.44 C 13 104.09, 14.83 106.74, 25 109.39 C 35.17 112.04, 70.83 116.01, 80 117.33" fill="none" stroke="#111" stroke-width="1.20" stroke-linecap="round"/><path d="M 80 130.33 C 70.17 131.41, 25.33 134.63, 21 136.78 C 16.67 138.93, 53.67 141.07, 54 143.22 C 54.33 145.37, 29.50 147.52, 23 149.67 C 16.50 151.81, 13.17 153.96, 15 156.11 C 16.83 158.26, 23.17 160.41, 34 162.56 C 44.83 164.70, 72.33 167.93, 80 169" fill="none" stroke="#111" stroke-width="1.20" stroke-linecap="round"/></g></g>
  <text x="105" y="291" font-size="3" fill="#bbb" text-anchor="middle">BrainForge Kids · 33a8c9b4</text>
</svg>