<svg xmlns="http://www.w3.org/2000/svg" width="210mm" height="297mm" viewBox="0 0 210 297" font-family="system-ui, -apple-system, sans-serif">
  <rect width="210" height="297" fill="#fff"/>
  <text x="14" y="20" font-size="6.5" font-weight="600" fill="#111">Sorminták</text>
  <text x="196" y="20" font-size="3.6" fill="#888" text-anchor="end">Zoé  ·  2026. jan. 1.</text>
  <text x="14" y="28" font-size="4.2" fill="#444">Mi következik? Rajzold be a hiányzó formát!</text>
  <line x1="14" y1="32" x2="196" y2="32" stroke="#e5e5e5" stroke-width="0.3"/>
  
  <g transform="translate(14.00 40.00) scale(1.1375)"><g ><rect x="8" y="7" width="18" height="18" fill="none" stroke="#ccc" stroke-width="0.40" rx="2"/><path d="M 17 10.24 L 22.759999999999998 21.759999999999998 L 11.24 21.759999999999998 Z" fill="none" stroke="#111" stroke-width="1.10" stroke-linejoin="round" stroke-linecap="round"/><rect x="30" y="7" width="18" height="18" fill="none" stroke="#ccc" stroke-width="0.40" rx="2"/><circle cx="39" cy="16" r="5.76" fill="none" stroke="#111" stroke-width="1.10" stroke-linejoin="round" stroke-linecap="round"/><rect x="52" y="7" width="18" height="18" fill="none" stroke="#111" stroke-width="0.90" stroke-dasharray="2 1.5" rx="2"/><rect x="74" y="7" width="18" height="18" fill="none" stroke="#ccc" stroke-width="0.40" rx="2"/><circle cx="83" cy="16" r="5.76" fill="none" stroke="#111" stroke-width="1.10" stroke-linejoin="round" stroke-linecap="round"/><rect x="96" y="7" width="18" height="18" fill="none" stroke="#ccc" stroke-width="0.40" rx="2"/><path d="M 105 10.24 L 110.76 21.759999999999998 L 99.24 21.759999999999998 Z" fill="none" stroke="#111" stroke-width="1.10" stroke-linejoin="round" stroke-linecap="round"/><rect x="118" y="7" width="18" height="18" fill="none" stroke="#ccc" stroke-width="0.40" rx="2"/><circle cx="127" cy="16" r="5.76" fill="none" stroke="#111" stroke-width="1.10" stroke-linejoin="round" stroke-linecap="round"/><rect x="8" y="39" width="18" height="18" fill="none" stroke="#ccc" stroke-width="0.40" rx="2"/><circle cx="17" cy="48" r="5.76" fill="none" stroke="#111" stroke-width="1.10" stroke-linejoin="round" stroke-linecap="round"/><rect x="30" y="39" width="18" height="18" fill="none" stroke="#ccc" stroke-width="0.40" rx="2"/><rect x="33.24" y="42.24" width="11.52" height="11.52" fill="none" stroke="#111" stroke-width="1.10" stroke-linejoin="round" stroke-linecap="round" rx="0.86"/><rect x="52" y="39" width="18" height="18" fill="none" stroke="#ccc" stroke-width="0.40" rx="2"/><path d="M 55.24 48 L 66.76 48 M 61 42.24 L 61 53.76" fill="none" stroke="#111" stroke-width="1.10" stroke-linejoin="round" stroke-linecap="round"/><rect x="74" y="39" width="18" height="18" fill="none" stroke="#ccc" stroke-width="0.40" rx="2"/><circle cx="83" cy="48" r="5.76" fill="none" stroke="#111" stroke-width="1.10" stroke-linejoin="round" stroke-linecap="round"/><rect x="96" y="39" width="18" height="18" fill="none" stroke="#ccc" stroke-width="0.40" rx="2"/><rect x="99.24" y="42.24" width="11.52" height="11.52" fill="none" stroke="#111" stroke-width="1.10" stroke-linejoin="round" stroke-linecap="round" rx="0.86"/><rect x="118" y="39" width="18" height="18" fill="none" stroke="#111" stroke-width="0.90" stroke-dasharray="2 1.5" rx="2"/><rect x="8" y="71" width="18" height="18" fill="none" stroke="#ccc" stroke-width="0.40" rx="2"/><path d="M 17 74.24 L 22.759999999999998 80 L 17 85.76 L 11.24 80 Z" fill="none" stroke="#111" stroke-width="1.10" stroke-linejoin="round" stroke-linecap="round"/><rect x="30" y="71" width="18" height="18" fill="none" stroke="#ccc" stroke-width="0.40" rx="2"/><path d="M 39 74.24 L 44.76 80 L 39 85.76 L 33.24 80 Z" fill="none" stroke="#111" stroke-width="1.10" stroke-linejoin="round" stroke-linecap="round"/><rect x="52" y="71" width="18" height="18" fill="none" stroke="#111" stroke-width="0.90" stroke-dasharray="2 1.5" rx="2"/><rect x="74" y="71" width="18" height="18" fill="none" stroke="#ccc" stroke-width="0.40" rx="2"/><rect x="77.24" y="74.24" width="11.52" height="11.52" fill="none" stroke="#111" stroke-width="1.10" stroke-linejoin="round" stroke-linecap="round" rx="0.86"/><rect x="96" y="71" width="18" height="18" fill="none" stroke="#ccc" stroke-width="0.40" rx="2"/><path d="M 105 74.24 L 110.76 80 L 105 85.76 L 99.24 80 Z" fill="none" stroke="#111" stroke-width="1.10" stroke-linejoin="round" stroke-linecap="round"/><rect x="118" y="71" width="18" height="18" fill="none" stroke="#ccc" stroke-width="0.40" rx="2"/><path d="M 127 74.24 L 132.76 80 L 127 85.76 L 121.24 80 Z" fill="none" stroke="#111" stroke-width="1.10" stroke-linejoin="round" stroke-linecap="round"/><rect x="8" y="103" width="18" height="18" fill="none" stroke="#ccc" stroke-width="0.40" rx="2"/><path d="M 17 106.24 L 22.759999999999998 117.76 L 11.24 117.76 Z" fill="none" stroke="#111" stroke-width="1.10" stroke-linejoin="round" stroke-linecap="round"/><rect x="30" y="103" width="18" height="18" fill="none" stroke="#ccc" stroke-width="0.40" rx="2"/><path d="M 39 106.24 L 44.76 117.76 L 33.24 117.76 Z" fill="none" stroke="#111" stroke-width="1.10" stroke-linejoin="round" stroke-linecap="round"/><rect x="52" y="103" width="18" height="18" fill="none" stroke="#111" stroke-width="0.90" stroke-dasharray="2 1.5" rx="2"/><rect x="74" y="103" width="18" height="18" fill="none" stroke="#ccc" stroke-width="0.40" rx="2"/><path d="M 83 117.76 C 74.936 111.424, 78.968 105.664, 83 109.984 C 87.032 105.664, 91.064 111.424, 83 117.76 Z" fill="none" stroke="#111" stroke-width="1.10" stroke-linejoin="round" stroke-linecap="round"/><rect x="96" y="103" width="18" height="18" fill="none" stroke="#ccc" stroke-width="0.40" rx="2"/><path d="M 105 106.24 L 110.76 117.76 L 99.24 117.76 Z" fill="none" stroke="#111" stroke-width="1.10" stroke-linejoin="round" stroke-linecap="round"/><rect x="118" y="103" width="18" height="18" fill="none" stroke="#ccc" stroke-width="0.40" rx="2"/><path d="M 127 106.24 L 132.76 117.76 L 121.24 117.76 Z" fill="none" stroke="#111" stroke-width="1.10" stroke-linejoin="round" stroke-linecap="round"/><rect x="8" y="135" width="18" height="18" fill="none" stroke="#ccc" stroke-width="0.40" rx="2"/><rect x="11.24" y="138.24" width="11.52" height="11.52" fill="none" stroke="#111" stroke-width="1.10" stroke-linejoin="round" stroke-linecap="round" rx="0.86"/><rect x="30" y="135" width="18" height="18" fill="none" stroke="#ccc" stroke-width="0.40" rx="2"/><path d="M 39 149.76 C 30.936 143.424, 34.968 137.664, 39 141.984 C 43.032 137.664, 47.064 143.424, 39 149.76 Z" fill="none" stroke="#111" stroke-width="1.10" stroke-linejoin="round" stroke-linecap="round"/><rect x="52" y="135" width="18" height="18" fill="none" stroke="#ccc" stroke-width="0.40" rx="2"/><path d="M 61 138.24 L 66.76 149.76 L 55.24 149.76 Z" fill="none" stroke="#111" stroke-width="1.10" stroke-linejoin="round" stroke-linecap="round"/><rect x="74" y="135" width="18" height="18" fill="none" stroke="#111" stroke-width="0.90" stroke-dasharray="2 1.5" rx="2"/><rect x="96" y="135" width="18" height="18" fill="none" stroke="#ccc" stroke-width="0.40" rx="2"/><rect x="99.24" y="138.24" width="11.52" height="11.52" fill="none" stroke="#111" stroke-width="1.10" stroke-linejoin="round" stroke-linecap="round" rx="0.86"/><rect x="118" y="135" width="18" height="18" fill="none" stroke="#ccc" stroke-width="0.40" rx="2"/><path d="M 127 149.76 C 118.936 143.424, 122.968 137.664, 127 141.984 C 131.032 137.664, 135.064 143.424, 127 149.76 Z" fill="none" stroke="#111" stroke-width="1.10" stroke-linejoin="round" stroke-linecap="round"/></g></g>
  <text x="105" y="291" font-size="3" fill="#bbb" text-anchor="middle">Kalmo Kids · demo-pat</text>
</svg>