<svg xmlns="http://www.w3.org/2000/svg" width="210mm" height="297mm" viewBox="0 0 210 297" font-family="system-ui, -apple-system, sans-serif">
  <rect width="210" height="297" fill="#fff"/>
  <text x="14" y="20" font-size="6.5" font-weight="600" fill="#111">Sorminták</text>
  <text x="196" y="20" font-size="3.6" fill="#888" text-anchor="end">Zoé  ·  2026. júl. 15.</text>
  <text x="14" y="28" font-size="4.2" fill="#444">Mi következik? Rajzold be a hiányzó formát!</text>
  <line x1="14" y1="32" x2="196" y2="32" stroke="#e5e5e5" stroke-width="0.3"/>
  <text x="196" y="28" font-size="4" fill="#d33" text-anchor="end">Megoldókulcs</text>
  <g transform="translate(14.00 40.00) scale(1.1375)"><g ><rect x="8" y="7" width="18" height="18" fill="none" stroke="#ccc" stroke-width="0.40" rx="2"/><path d="M 17 10.24 L 22.759999999999998 16 L 17 21.759999999999998 L 11.24 16 Z" fill="none" stroke="#111" stroke-width="1.10" stroke-linejoin="round" stroke-linecap="round"/><rect x="30" y="7" width="18" height="18" fill="none" stroke="#ccc" stroke-width="0.40" rx="2"/><path d="M 39 10.24 L 44.76 21.759999999999998 L 33.24 21.759999999999998 Z" fill="none" stroke="#111" stroke-width="1.10" stroke-linejoin="round" stroke-linecap="round"/><rect x="52" y="7" width="18" height="18" fill="none" stroke="#ccc" stroke-width="0.40" rx="2"/><circle cx="61" cy="16" r="5.76" fill="none" stroke="#111" stroke-width="1.10" stroke-linejoin="round" stroke-linecap="round"/><rect x="74" y="7" width="18" height="18" fill="none" stroke="#ccc" stroke-width="0.40" rx="2"/><path d="M 83 10.24 L 88.76 16 L 83 21.759999999999998 L 77.24 16 Z" fill="none" stroke="#111" stroke-width="1.10" stroke-linejoin="round" stroke-linecap="round"/><rect x="96" y="7" width="18" height="18" fill="none" stroke="#ccc" stroke-width="0.40" rx="2"/><path d="M 105 10.24 L 110.76 21.759999999999998 L 99.24 21.759999999999998 Z" fill="none" stroke="#111" stroke-width="1.10" stroke-linejoin="round" stroke-linecap="round"/><rect x="118" y="7" width="18" height="18" fill="none" stroke="#111" stroke-width="0.90" stroke-dasharray="2 1.5" rx="2"/><rect x="8" y="39" width="18" height="18" fill="none" stroke="#ccc" stroke-width="0.40" rx="2"/><circle cx="17" cy="48" r="5.76" fill="none" stroke="#111" stroke-width="1.10" stroke-linejoin="round" stroke-linecap="round"/><rect x="30" y="39" width="18" height="18" fill="none" stroke="#ccc" stroke-width="0.40" rx="2"/><circle cx="39" cy="48" r="5.76" fill="none" stroke="#111" stroke-width="1.10" stroke-linejoin="round" stroke-linecap="round"/><rect x="52" y="39" width="18" height="18" fill="none" stroke="#ccc" stroke-width="0.40" rx="2"/><path d="M 61 53.76 C 52.936 47.424, 56.968 41.664, 61 45.984 C 65.032 41.664, 69.064 47.424, 61 53.76 Z" fill="none" stroke="#111" stroke-width="1.10" stroke-linejoin="round" stroke-linecap="round"/><rect x="74" y="39" width="18" height="18" fill="none" stroke="#111" stroke-width="0.90" stroke-dasharray="2 1.5" rx="2"/><rect x="96" y="39" width="18" height="18" fill="none" stroke="#ccc" stroke-width="0.40" rx="2"/><circle cx="105" cy="48" r="5.76" fill="none" stroke="#111" stroke-width="1.10" stroke-linejoin="round" stroke-linecap="round"/><rect x="118" y="39" width="18" height="18" fill="none" stroke="#ccc" stroke-width="0.40" rx="2"/><circle cx="127" cy="48" r="5.76" fill="none" stroke="#111" stroke-width="1.10" stroke-linejoin="round" stroke-linecap="round"/><rect x="8" y="71" width="18" height="18" fill="none" stroke="#ccc" stroke-width="0.40" rx="2"/><circle cx="17" cy="80" r="5.76" fill="none" stroke="#111" stroke-width="1.10" stroke-linejoin="round" stroke-linecap="round"/><rect x="30" y="71" width="18" height="18" fill="none" stroke="#ccc" stroke-width="0.40" rx="2"/><circle cx="39" cy="80" r="5.76" fill="none" stroke="#111" stroke-width="1.10" stroke-linejoin="round" stroke-linecap="round"/><rect x="52" y="71" width="18" height="18" fill="none" stroke="#ccc" stroke-width="0.40" rx="2"/><path d="M 61 85.76 C 52.936 79.424, 56.968 73.664, 61 77.984 C 65.032 73.664, 69.064 79.424, 61 85.76 Z" fill="none" stroke="#111" stroke-width="1.10" stroke-linejoin="round" stroke-linecap="round"/><rect x="74" y="71" width="18" height="18" fill="none" stroke="#ccc" stroke-width="0.40" rx="2"/><path d="M 83 85.76 C 74.936 79.424, 78.968 73.664, 83 77.984 C 87.032 73.664, 91.064 79.424, 83 85.76 Z" fill="none" stroke="#111" stroke-width="1.10" stroke-linejoin="round" stroke-linecap="round"/><rect x="96" y="71" width="18" height="18" fill="none" stroke="#111" stroke-width="0.90" stroke-dasharray="2 1.5" rx="2"/><rect x="118" y="71" width="18" height="18" fill="none" stroke="#ccc" stroke-width="0.40" rx="2"/><circle cx="127" cy="80" r="5.76" fill="none" stroke="#111" stroke-width="1.10" stroke-linejoin="round" stroke-linecap="round"/><rect x="8" y="103" width="18" height="18" fill="none" stroke="#ccc" stroke-width="0.40" rx="2"/><path d="M 17 117.76 C 8.936 111.424, 12.968 105.664, 17 109.984 C 21.032 105.664, 25.064 111.424, 17 117.76 Z" fill="none" stroke="#111" stroke-width="1.10" stroke-linejoin="round" stroke-linecap="round"/><rect x="30" y="103" width="18" height="18" fill="none" stroke="#ccc" stroke-width="0.40" rx="2"/><circle cx="39" cy="112" r="5.76" fill="none" stroke="#111" stroke-width="1.10" stroke-linejoin="round" stroke-linecap="round"/><rect x="52" y="103" width="18" height="18" fill="none" stroke="#ccc" stroke-width="0.40" rx="2"/><path d="M 61 106.24 L 66.76 112 L 61 117.76 L 55.24 112 Z" fill="none" stroke="#111" stroke-width="1.10" stroke-linejoin="round" stroke-linecap="round"/><rect x="74" y="103" width="18" height="18" fill="none" stroke="#ccc" stroke-width="0.40" rx="2"/><path d="M 83 117.76 C 74.936 111.424, 78.968 105.664, 83 109.984 C 87.032 105.664, 91.064 111.424, 83 117.76 Z" fill="none" stroke="#111" stroke-width="1.10" stroke-linejoin="round" stroke-linecap="round"/><rect x="96" y="103" width="18" height="18" fill="none" stroke="#ccc" stroke-width="0.40" rx="2"/><circle cx="105" cy="112" r="5.76" fill="none" stroke="#111" stroke-width="1.10" stroke-linejoin="round" stroke-linecap="round"/><rect x="118" y="103" width="18" height="18" fill="none" stroke="#111" stroke-width="0.90" stroke-dasharray="2 1.5" rx="2"/><rect x="8" y="135" width="18" height="18" fill="none" stroke="#ccc" stroke-width="0.40" rx="2"/><rect x="11.24" y="138.24" width="11.52" height="11.52" fill="none" stroke="#111" stroke-width="1.10" stroke-linejoin="round" stroke-linecap="round" rx="0.86"/><rect x="30" y="135" width="18" height="18" fill="none" stroke="#ccc" stroke-width="0.40" rx="2"/><path d="M 39 138.24 L 44.76 149.76 L 33.24 149.76 Z" fill="none" stroke="#111" stroke-width="1.10" stroke-linejoin="round" stroke-linecap="round"/><rect x="52" y="135" width="18" height="18" fill="none" stroke="#ccc" stroke-width="0.40" rx="2"/><path d="M 61 149.76 C 52.936 143.424, 56.968 137.664, 61 141.984 C 65.032 137.664, 69.064 143.424, 61 149.76 Z" fill="none" stroke="#111" stroke-width="1.10" stroke-linejoin="round" stroke-linecap="round"/><rect x="74" y="135" width="18" height="18" fill="none" stroke="#ccc" stroke-width="0.40" rx="2"/><path d="M 83 138.24 L 88.76 149.76 L 77.24 149.76 Z" fill="none" stroke="#111" stroke-width="1.10" stroke-linejoin="round" stroke-linecap="round"/><rect x="96" y="135" width="18" height="18" fill="none" stroke="#111" stroke-width="0.90" stroke-dasharray="2 1.5" rx="2"/><rect x="118" y="135" width="18" height="18" fill="none" stroke="#ccc" stroke-width="0.40" rx="2"/><path d="M 127 138.24 L 132.76 149.76 L 121.24 149.76 Z" fill="none" stroke="#111" stroke-width="1.10" stroke-linejoin="round" stroke-linecap="round"/><rect x="118" y="7" width="18" height="18" fill="none" stroke="#111" stroke-width="0.90" stroke-dasharray="2 1.5" rx="2"/><g opacity="0.90" stroke="#d33"><circle cx="127" cy="16" r="5.76" fill="none" stroke="#111" stroke-width="1.10" stroke-linejoin="round" stroke-linecap="round"/></g><rect x="74" y="39" width="18" height="18" fill="none" stroke="#111" stroke-width="0.90" stroke-dasharray="2 1.5" rx="2"/><g opacity="0.90" stroke="#d33"><path d="M 83 53.76 C 74.936 47.424, 78.968 41.664, 83 45.984 C 87.032 41.664, 91.064 47.424, 83 53.76 Z" fill="none" stroke="#111" stroke-width="1.10" stroke-linejoin="round" stroke-linecap="round"/></g><rect x="96" y="71" width="18" height="18" fill="none" stroke="#111" stroke-width="0.90" stroke-dasharray="2 1.5" rx="2"/><g opacity="0.90" stroke="#d33"><circle cx="105" cy="80" r="5.76" fill="none" stroke="#111" stroke-width="1.10" stroke-linejoin="round" stroke-linecap="round"/></g><rect x="118" y="103" width="18" height="18" fill="none" stroke="#111" stroke-width="0.90" stroke-dasharray="2 1.5" rx="2"/><g opacity="0.90" stroke="#d33"><path d="M 127 106.24 L 132.76 112 L 127 117.76 L 121.24 112 Z" fill="none" stroke="#111" stroke-width="1.10" stroke-linejoin="round" stroke-linecap="round"/></g><rect x="96" y="135" width="18" height="18" fill="none" stroke="#111" stroke-width="0.90" stroke-dasharray="2 1.5" rx="2"/><g opacity="0.90" stroke="#d33"><rect x="99.24" y="138.24" width="11.52" height="11.52" fill="none" stroke="#111" stroke-width="1.10" stroke-linejoin="round" stroke-linecap="round" rx="0.86"/></g></g></g>
  <text x="105" y="291" font-size="3" fill="#bbb" text-anchor="middle">BrainForge Kids · 325096cc</text>
</svg>