<svg xmlns="http://www.w3.org/2000/svg" width="210mm" height="297mm" viewBox="0 0 210 297" font-family="system-ui, -apple-system, sans-serif">
  <rect width="210" height="297" fill="#fff"/>
  <text x="14" y="20" font-size="6.5" font-weight="600" fill="#111">Sorminták</text>
  <text x="196" y="20" font-size="3.6" fill="#888" text-anchor="end">Zoé  ·  2026. júl. 8.</text>
  <text x="14" y="28" font-size="4.2" fill="#444">Mi következik? Rajzold be a hiányzó formát!</text>
  <line x1="14" y1="32" x2="196" y2="32" stroke="#e5e5e5" stroke-width="0.3"/>
  <text x="196" y="28" font-size="4" fill="#d33" text-anchor="end">Megoldókulcs</text>
  <g transform="translate(14.00 40.00) scale(1.1375)"><g ><rect x="8" y="7" width="18" height="18" fill="none" stroke="#ccc" stroke-width="0.40" rx="2"/><path d="M 17 21.759999999999998 C 8.936 15.424, 12.968 9.664, 17 13.984 C 21.032 9.664, 25.064 15.424, 17 21.759999999999998 Z" fill="none" stroke="#111" stroke-width="1.10" stroke-linejoin="round" stroke-linecap="round"/><rect x="30" y="7" width="18" height="18" fill="none" stroke="#ccc" stroke-width="0.40" rx="2"/><rect x="33.24" y="10.24" width="11.52" height="11.52" fill="none" stroke="#111" stroke-width="1.10" stroke-linejoin="round" stroke-linecap="round" rx="0.86"/><rect x="52" y="7" width="18" height="18" fill="none" stroke="#111" stroke-width="0.90" stroke-dasharray="2 1.5" rx="2"/><rect x="74" y="7" width="18" height="18" fill="none" stroke="#ccc" stroke-width="0.40" rx="2"/><rect x="77.24" y="10.24" width="11.52" height="11.52" fill="none" stroke="#111" stroke-width="1.10" stroke-linejoin="round" stroke-linecap="round" rx="0.86"/><rect x="96" y="7" width="18" height="18" fill="none" stroke="#ccc" stroke-width="0.40" rx="2"/><path d="M 105 21.759999999999998 C 96.936 15.424, 100.968 9.664, 105 13.984 C 109.032 9.664, 113.064 15.424, 105 21.759999999999998 Z" fill="none" stroke="#111" stroke-width="1.10" stroke-linejoin="round" stroke-linecap="round"/><rect x="118" y="7" width="18" height="18" fill="none" stroke="#ccc" stroke-width="0.40" rx="2"/><rect x="121.24" y="10.24" width="11.52" height="11.52" fill="none" stroke="#111" stroke-width="1.10" stroke-linejoin="round" stroke-linecap="round" rx="0.86"/><rect x="8" y="39" width="18" height="18" fill="none" stroke="#ccc" stroke-width="0.40" rx="2"/><rect x="11.24" y="42.24" width="11.52" height="11.52" fill="none" stroke="#111" stroke-width="1.10" stroke-linejoin="round" stroke-linecap="round" rx="0.86"/><rect x="30" y="39" width="18" height="18" fill="none" stroke="#ccc" stroke-width="0.40" rx="2"/><path d="M 39 42.24 L 44.76 53.76 L 33.24 53.76 Z" fill="none" stroke="#111" stroke-width="1.10" stroke-linejoin="round" stroke-linecap="round"/><rect x="52" y="39" width="18" height="18" fill="none" stroke="#ccc" stroke-width="0.40" rx="2"/><path d="M 55.24 48 L 66.76 48 M 61 42.24 L 61 53.76" fill="none" stroke="#111" stroke-width="1.10" stroke-linejoin="round" stroke-linecap="round"/><rect x="74" y="39" width="18" height="18" fill="none" stroke="#ccc" stroke-width="0.40" rx="2"/><rect x="77.24" y="42.24" width="11.52" height="11.52" fill="none" stroke="#111" stroke-width="1.10" stroke-linejoin="round" stroke-linecap="round" rx="0.86"/><rect x="96" y="39" width="18" height="18" fill="none" stroke="#111" stroke-width="0.90" stroke-dasharray="2 1.5" rx="2"/><rect x="118" y="39" width="18" height="18" fill="none" stroke="#ccc" stroke-width="0.40" rx="2"/><path d="M 121.24 48 L 132.76 48 M 127 42.24 L 127 53.76" fill="none" stroke="#111" stroke-width="1.10" stroke-linejoin="round" stroke-linecap="round"/><rect x="8" y="71" width="18" height="18" fill="none" stroke="#ccc" stroke-width="0.40" rx="2"/><path d="M 17 85.76 C 8.936 79.424, 12.968 73.664, 17 77.984 C 21.032 73.664, 25.064 79.424, 17 85.76 Z" fill="none" stroke="#111" stroke-width="1.10" stroke-linejoin="round" stroke-linecap="round"/><rect x="30" y="71" width="18" height="18" fill="none" stroke="#ccc" stroke-width="0.40" rx="2"/><path d="M 39 85.76 C 30.936 79.424, 34.968 73.664, 39 77.984 C 43.032 73.664, 47.064 79.424, 39 85.76 Z" fill="none" stroke="#111" stroke-width="1.10" stroke-linejoin="round" stroke-linecap="round"/><rect x="52" y="71" width="18" height="18" fill="none" stroke="#111" stroke-width="0.90" stroke-dasharray="2 1.5" rx="2"/><rect x="74" y="71" width="18" height="18" fill="none" stroke="#ccc" stroke-width="0.40" rx="2"/><path d="M 83 74.24 L 88.76 85.76 L 77.24 85.76 Z" fill="none" stroke="#111" stroke-width="1.10" stroke-linejoin="round" stroke-linecap="round"/><rect x="96" y="71" width="18" height="18" fill="none" stroke="#ccc" stroke-width="0.40" rx="2"/><path d="M 105 85.76 C 96.936 79.424, 100.968 73.664, 105 77.984 C 109.032 73.664, 113.064 79.424, 105 85.76 Z" fill="none" stroke="#111" stroke-width="1.10" stroke-linejoin="round" stroke-linecap="round"/><rect x="118" y="71" width="18" height="18" fill="none" stroke="#ccc" stroke-width="0.40" rx="2"/><path d="M 127 85.76 C 118.936 79.424, 122.968 73.664, 127 77.984 C 131.032 73.664, 135.064 79.424, 127 85.76 Z" fill="none" stroke="#111" stroke-width="1.10" stroke-linejoin="round" stroke-linecap="round"/><rect x="8" y="103" width="18" height="18" fill="none" stroke="#ccc" stroke-width="0.40" rx="2"/><path d="M 17 117.76 C 8.936 111.424, 12.968 105.664, 17 109.984 C 21.032 105.664, 25.064 111.424, 17 117.76 Z" fill="none" stroke="#111" stroke-width="1.10" stroke-linejoin="round" stroke-linecap="round"/><rect x="30" y="103" width="18" height="18" fill="none" stroke="#ccc" stroke-width="0.40" rx="2"/><rect x="33.24" y="106.24" width="11.52" height="11.52" fill="none" stroke="#111" stroke-width="1.10" stroke-linejoin="round" stroke-linecap="round" rx="0.86"/><rect x="52" y="103" width="18" height="18" fill="none" stroke="#ccc" stroke-width="0.40" rx="2"/><path d="M 61 106.24 L 66.76 112 L 61 117.76 L 55.24 112 Z" fill="none" stroke="#111" stroke-width="1.10" stroke-linejoin="round" stroke-linecap="round"/><rect x="74" y="103" width="18" height="18" fill="none" stroke="#111" stroke-width="0.90" stroke-dasharray="2 1.5" rx="2"/><rect x="96" y="103" width="18" height="18" fill="none" stroke="#ccc" stroke-width="0.40" rx="2"/><path d="M 105 117.76 C 96.936 111.424, 100.968 105.664, 105 109.984 C 109.032 105.664, 113.064 111.424, 105 117.76 Z" fill="none" stroke="#111" stroke-width="1.10" stroke-linejoin="round" stroke-linecap="round"/><rect x="118" y="103" width="18" height="18" fill="none" stroke="#ccc" stroke-width="0.40" rx="2"/><rect x="121.24" y="106.24" width="11.52" height="11.52" fill="none" stroke="#111" stroke-width="1.10" stroke-linejoin="round" stroke-linecap="round" rx="0.86"/><rect x="8" y="135" width="18" height="18" fill="none" stroke="#ccc" stroke-width="0.40" rx="2"/><path d="M 11.24 144 L 22.759999999999998 144 M 17 138.24 L 17 149.76" fill="none" stroke="#111" stroke-width="1.10" stroke-linejoin="round" stroke-linecap="round"/><rect x="30" y="135" width="18" height="18" fill="none" stroke="#ccc" stroke-width="0.40" rx="2"/><path d="M 33.24 144 L 44.76 144 M 39 138.24 L 39 149.76" fill="none" stroke="#111" stroke-width="1.10" stroke-linejoin="round" stroke-linecap="round"/><rect x="52" y="135" width="18" height="18" fill="none" stroke="#ccc" stroke-width="0.40" rx="2"/><path d="M 61 138.24 L 66.76 149.76 L 55.24 149.76 Z" fill="none" stroke="#111" stroke-width="1.10" stroke-linejoin="round" stroke-linecap="round"/><rect x="74" y="135" width="18" height="18" fill="none" stroke="#ccc" stroke-width="0.40" rx="2"/><path d="M 83 138.24 L 88.76 149.76 L 77.24 149.76 Z" fill="none" stroke="#111" stroke-width="1.10" stroke-linejoin="round" stroke-linecap="round"/><rect x="96" y="135" width="18" height="18" fill="none" stroke="#ccc" stroke-width="0.40" rx="2"/><path d="M 99.24 144 L 110.76 144 M 105 138.24 L 105 149.76" fill="none" stroke="#111" stroke-width="1.10" stroke-linejoin="round" stroke-linecap="round"/><rect x="118" y="135" width="18" height="18" fill="none" stroke="#111" stroke-width="0.90" stroke-dasharray="2 1.5" rx="2"/><rect x="52" y="7" width="18" height="18" fill="none" stroke="#111" stroke-width="0.90" stroke-dasharray="2 1.5" rx="2"/><g opacity="0.90" stroke="#d33"><path d="M 61 10.24 L 66.76 16 L 61 21.759999999999998 L 55.24 16 Z" fill="none" stroke="#111" stroke-width="1.10" stroke-linejoin="round" stroke-linecap="round"/></g><rect x="96" y="39" width="18" height="18" fill="none" stroke="#111" stroke-width="0.90" stroke-dasharray="2 1.5" rx="2"/><g opacity="0.90" stroke="#d33"><path d="M 105 42.24 L 110.76 53.76 L 99.24 53.76 Z" fill="none" stroke="#111" stroke-width="1.10" stroke-linejoin="round" stroke-linecap="round"/></g><rect x="52" y="71" width="18" height="18" fill="none" stroke="#111" stroke-width="0.90" stroke-dasharray="2 1.5" rx="2"/><g opacity="0.90" stroke="#d33"><path d="M 61 74.24 L 66.76 85.76 L 55.24 85.76 Z" fill="none" stroke="#111" stroke-width="1.10" stroke-linejoin="round" stroke-linecap="round"/></g><rect x="74" y="103" width="18" height="18" fill="none" stroke="#111" stroke-width="0.90" stroke-dasharray="2 1.5" rx="2"/><g opacity="0.90" stroke="#d33"><rect x="77.24" y="106.24" width="11.52" height="11.52" fill="none" stroke="#111" stroke-width="1.10" stroke-linejoin="round" stroke-linecap="round" rx="0.86"/></g><rect x="118" y="135" width="18" height="18" fill="none" stroke="#111" stroke-width="0.90" stroke-dasharray="2 1.5" rx="2"/><g opacity="0.90" stroke="#d33"><path d="M 121.24 144 L 132.76 144 M 127 138.24 L 127 149.76" fill="none" stroke="#111" stroke-width="1.10" stroke-linejoin="round" stroke-linecap="round"/></g></g></g>
  <text x="105" y="291" font-size="3" fill="#bbb" text-anchor="middle">BrainForge Kids · e761feb9</text>
</svg>