<svg xmlns="http://www.w3.org/2000/svg" width="59mm" height="26mm" viewBox="0 0 59 26"><path d="M 0.4 0.4 h 25.2 v 25.2 h -25.2 Z" fill="none" stroke="#e8e8e3" stroke-width="0.50" rx="2"/><g transform="translate(0 0) scale(0.6500)"><path d="M 14 34 L 14 20 M 14 22 C 12 16, 13 12, 15 12 M 17 20 L 17 10 M 20 20 L 20 9 M 23 20 L 23 10 M 26 22 L 26 13" fill="none" stroke="#1f2a24" stroke-width="1.40" stroke-linecap="round" stroke-linejoin="round"/><path d="M 14 34 C 14 28, 26 28, 26 34 M 26 22 L 26 28" fill="none" stroke="#1f2a24" stroke-width="1.40" stroke-linecap="round" stroke-linejoin="round"/></g><path d="M 27.5 13 L 31.5 13 M 30 11.6 L 31.5 13 L 30 14.4" fill="none" stroke="#9aa79f" stroke-width="0.70" stroke-linecap="round"/><path d="M 33.4 0.4 h 25.2 v 25.2 h -25.2 Z" fill="none" stroke="#e8e8e3" stroke-width="0.50" rx="2"/><g transform="translate(33 0) scale(0.6500)"><path d="M 14 34 L 14 22 M 17 20 L 17 10 M 20 20 L 20 9 M 23 20 L 23 10 M 26 22 L 26 13" fill="none" stroke="#1f2a24" stroke-width="1.40" stroke-linecap="round" stroke-linejoin="round"/><path d="M 14 34 C 14 28, 26 28, 26 34 M 26 22 L 26 28" fill="none" stroke="#1f2a24" stroke-width="1.40" stroke-linecap="round" stroke-linejoin="round"/><path d="M 14 22 C 13 16, 15 11, 17 10" fill="none" stroke="#1f2a24" stroke-width="1.40" stroke-linecap="round" stroke-linejoin="round"/><circle cx="17" cy="10" r="1.60" fill="none" stroke="#ff6b5e" stroke-width="0.90"/></g></svg>