<svg xmlns="http://www.w3.org/2000/svg" width="26mm" height="26mm" viewBox="0 0 26 26"><path d="M 0.4 0.4 h 25.2 v 25.2 h -25.2 Z" fill="none" stroke="#e8e8e3" stroke-width="0.50" rx="2"/><g transform="translate(0 0) scale(0.6500)"><circle cx="14" cy="18" r="3.20" fill="none" stroke="#1f2a24" stroke-width="1.40" stroke-linecap="round" stroke-linejoin="round"/><path d="M 14 21.2 L 14 30.2" fill="none" stroke="#1f2a24" stroke-width="1.40" stroke-linecap="round" stroke-linejoin="round"/><path d="M 14 23.2 L 17 16.2 L 21 12.2" fill="none" stroke="#1f2a24" stroke-width="1.40" stroke-linecap="round" stroke-linejoin="round"/><path d="M 14 23.2 L 10 27.2 L 9 32.2" fill="none" stroke="#1f2a24" stroke-width="1.40" stroke-linecap="round" stroke-linejoin="round"/><path d="M 14 30.2 L 12 36.2 L 12 42.2" fill="none" stroke="#1f2a24" stroke-width="1.40" stroke-linecap="round" stroke-linejoin="round"/><path d="M 14 30.2 L 17 36.2 L 18 42.2" fill="none" stroke="#1f2a24" stroke-width="1.40" stroke-linecap="round" stroke-linejoin="round"/><circle cx="26" cy="7" r="4" fill="none" stroke="#1f2a24" stroke-width="1.40" stroke-linecap="round" stroke-linejoin="round"/><path d="M 26 11 l -1.2 2 l 2.4 0 Z" fill="none" stroke="#1f2a24" stroke-width="1.40" stroke-linecap="round" stroke-linejoin="round"/><path d="M 24 11 L 22 6 M 23.696335121417523 7.40087371159766 L 22 6 L 21.737739195937422 8.184312081789699" fill="none" stroke="#ff6b5e" stroke-width="1.20" stroke-linecap="round" stroke-linejoin="round"/></g></svg>