<svg xmlns="http://www.w3.org/2000/svg" width="59mm" height="26mm" viewBox="0 0 59 26"><path d="M 0.4 0.4 h 25.2 v 25.2 h -25.2 Z" fill="none" stroke="#e8e8e3" stroke-width="0.50" rx="2"/><g transform="translate(0 0) scale(0.6500)"><circle cx="20" cy="7" r="3.20" fill="none" stroke="#1f2a24" stroke-width="1.40" stroke-linecap="round" stroke-linejoin="round"/><path d="M 20 10.2 L 20 19.2" fill="none" stroke="#1f2a24" stroke-width="1.40" stroke-linecap="round" stroke-linejoin="round"/><path d="M 20 12.2 L 14 16.2 L 19 21.2" fill="none" stroke="#1f2a24" stroke-width="1.40" stroke-linecap="round" stroke-linejoin="round"/><path d="M 20 12.2 L 26 15.2 L 29 20.2" fill="none" stroke="#1f2a24" stroke-width="1.40" stroke-linecap="round" stroke-linejoin="round"/><path d="M 20 19.2 L 16 18.2 L 19 22.2" fill="none" stroke="#1f2a24" stroke-width="1.40" stroke-linecap="round" stroke-linejoin="round"/><path d="M 20 19.2 L 23 25.2 L 23 32.2" fill="none" stroke="#1f2a24" stroke-width="1.40" stroke-linecap="round" stroke-linejoin="round"/><path d="M 26 14 L 17 20 M 18.021361854892515 18.051456964455102 L 17 20 L 19.19148659238472 19.80664407069341" fill="none" stroke="#ff6b5e" stroke-width="1.20" stroke-linecap="round" stroke-linejoin="round"/></g><path d="M 27.5 13 L 31.5 13 M 30 11.6 L 31.5 13 L 30 14.4" fill="none" stroke="#9aa79f" stroke-width="0.70" stroke-linecap="round"/><path d="M 33.4 0.4 h 25.2 v 25.2 h -25.2 Z" fill="none" stroke="#e8e8e3" stroke-width="0.50" rx="2"/><g transform="translate(33 0) scale(0.6500)"><circle cx="20" cy="7" r="3.20" fill="none" stroke="#1f2a24" stroke-width="1.40" stroke-linecap="round" stroke-linejoin="round"/><path d="M 20 10.2 L 20 19.2" fill="none" stroke="#1f2a24" stroke-width="1.40" stroke-linecap="round" stroke-linejoin="round"/><path d="M 20 12.2 L 26 16.2 L 21 21.2" fill="none" stroke="#1f2a24" stroke-width="1.40" stroke-linecap="round" stroke-linejoin="round"/><path d="M 20 12.2 L 14 15.2 L 11 20.2" fill="none" stroke="#1f2a24" stroke-width="1.40" stroke-linecap="round" stroke-linejoin="round"/><path d="M 20 19.2 L 24 18.2 L 21 22.2" fill="none" stroke="#1f2a24" stroke-width="1.40" stroke-linecap="round" stroke-linejoin="round"/><path d="M 20 19.2 L 17 25.2 L 17 32.2" fill="none" stroke="#1f2a24" stroke-width="1.40" stroke-linecap="round" stroke-linejoin="round"/><path d="M 14 14 L 23 20 M 20.80851340761528 19.80664407069341 L 23 20 L 21.978638145107485 18.051456964455102" fill="none" stroke="#ff6b5e" stroke-width="1.20" stroke-linecap="round" stroke-linejoin="round"/></g></svg>