<svg xmlns="http://www.w3.org/2000/svg" width="59mm" height="26mm" viewBox="0 0 59 26"><path d="M 0.4 0.4 h 25.2 v 25.2 h -25.2 Z" fill="none" stroke="#e8e8e3" stroke-width="0.50" rx="2"/><g transform="translate(0 0) scale(0.6500)"><circle cx="16" cy="11" r="3.20" fill="none" stroke="#1f2a24" stroke-width="1.40" stroke-linecap="round" stroke-linejoin="round"/><path d="M 16 14.2 L 16 23.2" fill="none" stroke="#1f2a24" stroke-width="1.40" stroke-linecap="round" stroke-linejoin="round"/><path d="M 16 16.2 L 11 13.2 L 8 9.2" fill="none" stroke="#1f2a24" stroke-width="1.40" stroke-linecap="round" stroke-linejoin="round"/><path d="M 16 16.2 L 21 19.2 L 24 22.2" fill="none" stroke="#1f2a24" stroke-width="1.40" stroke-linecap="round" stroke-linejoin="round"/><path d="M 16 23.2 L 13 28.2 L 10 34.2" fill="none" stroke="#1f2a24" stroke-width="1.40" stroke-linecap="round" stroke-linejoin="round"/><path d="M 16 23.2 L 19 29.2 L 20 35.2" fill="none" stroke="#1f2a24" stroke-width="1.40" stroke-linecap="round" stroke-linejoin="round"/><circle cx="31" cy="8" r="1" fill="none" stroke="#ff6b5e" stroke-width="1.40" stroke-linecap="round" stroke-linejoin="round"/><path d="M 32 8 L 32 3 L 35 4" fill="none" stroke="#ff6b5e" stroke-width="1.10" stroke-linecap="round" stroke-linejoin="round"/></g><path d="M 27.5 13 L 31.5 13 M 30 11.6 L 31.5 13 L 30 14.4" fill="none" stroke="#9aa79f" stroke-width="0.70" stroke-linecap="round"/><path d="M 33.4 0.4 h 25.2 v 25.2 h -25.2 Z" fill="none" stroke="#e8e8e3" stroke-width="0.50" rx="2"/><g transform="translate(33 0) scale(0.6500)"><circle cx="20" cy="11" r="3.20" fill="none" stroke="#1f2a24" stroke-width="1.40" stroke-linecap="round" stroke-linejoin="round"/><path d="M 20 14.2 L 20 23.2" fill="none" stroke="#1f2a24" stroke-width="1.40" stroke-linecap="round" stroke-linejoin="round"/><path d="M 20 16.2 L 15 16.2 L 12 16.2" fill="none" stroke="#1f2a24" stroke-width="1.40" stroke-linecap="round" stroke-linejoin="round"/><path d="M 20 16.2 L 25 16.2 L 28 16.2" fill="none" stroke="#1f2a24" stroke-width="1.40" stroke-linecap="round" stroke-linejoin="round"/><path d="M 20 23.2 L 18 29.2 L 18 35.2" fill="none" stroke="#1f2a24" stroke-width="1.40" stroke-linecap="round" stroke-linejoin="round"/><path d="M 20 23.2 L 22 29.2 L 22 35.2" fill="none" stroke="#1f2a24" stroke-width="1.40" stroke-linecap="round" stroke-linejoin="round"/><path d="M 11 5 L 29 5" fill="none" stroke="#9aa79f" stroke-width="1.10" stroke-linecap="round" stroke-linejoin="round"/><path d="M 14 3 L 14 7 M 26 3 L 26 7" fill="none" stroke="#9aa79f" stroke-width="1.10" stroke-linecap="round" stroke-linejoin="round"/></g></svg>