<svg xmlns="http://www.w3.org/2000/svg" width="26mm" height="26mm" viewBox="0 0 26 26"><path d="M 0.4 0.4 h 25.2 v 25.2 h -25.2 Z" fill="none" stroke="#e8e8e3" stroke-width="0.50" rx="2"/><g transform="translate(0 0) scale(0.6500)"><path d="M 16 30 h 8 v 8 h -8 Z" fill="none" stroke="#1f2a24" stroke-width="1.40" stroke-linecap="round" stroke-linejoin="round"/><path d="M 11 22 h 8 v 8 h -8 Z" fill="none" stroke="#1f2a24" stroke-width="1.40" stroke-linecap="round" stroke-linejoin="round"/><path d="M 19 22 h 8 v 8 h -8 Z" fill="none" stroke="#1f2a24" stroke-width="1.40" stroke-linecap="round" stroke-linejoin="round"/><path d="M 16 14 h 8 v 8 h -8 Z" fill="none" stroke="#1f2a24" stroke-width="1.40" stroke-linecap="round" stroke-linejoin="round"/><circle cx="6" cy="9" r="3.20" fill="none" stroke="#1f2a24" stroke-width="1.40" stroke-linecap="round" stroke-linejoin="round"/><path d="M 6 12.2 L 6 21.2" fill="none" stroke="#1f2a24" stroke-width="1.40" stroke-linecap="round" stroke-linejoin="round"/><path d="M 6 14.2 L 3 16.2 L 1 19.2" fill="none" stroke="#1f2a24" stroke-width="1.40" stroke-linecap="round" stroke-linejoin="round"/><path d="M 6 14.2 L 9 16.2 L 11 18.2" fill="none" stroke="#1f2a24" stroke-width="1.40" stroke-linecap="round" stroke-linejoin="round"/><path d="M 6 21.2 L 5 27.2 L 5 33.2" fill="none" stroke="#1f2a24" stroke-width="1.40" stroke-linecap="round" stroke-linejoin="round"/><path d="M 6 21.2 L 8 24.2 L 10 25.2" fill="none" stroke="#1f2a24" stroke-width="1.40" stroke-linecap="round" stroke-linejoin="round"/><path d="M 9 18 L 15 12 M 14.380613031486059 14.11100918596654 L 15 12 L 12.88899081403346 12.619386968513941" fill="none" stroke="#ff6b5e" stroke-width="1.20" stroke-linecap="round" stroke-linejoin="round"/></g></svg>