<svg xmlns="http://www.w3.org/2000/svg" width="59mm" height="26mm" viewBox="0 0 59 26"><path d="M 0.4 0.4 h 25.2 v 25.2 h -25.2 Z" fill="none" stroke="#e8e8e3" stroke-width="0.50" rx="2"/><g transform="translate(0 0) scale(0.6500)"><circle cx="9" cy="8" r="3.20" fill="none" stroke="#1f2a24" stroke-width="1.40" stroke-linecap="round" stroke-linejoin="round"/><path d="M 9 11.2 L 9 20.2" fill="none" stroke="#1f2a24" stroke-width="1.40" stroke-linecap="round" stroke-linejoin="round"/><path d="M 9 13.2 L 14 11.2 L 18 8.2" fill="none" stroke="#1f2a24" stroke-width="1.40" stroke-linecap="round" stroke-linejoin="round"/><path d="M 9 13.2 L 5 17.2 L 4 22.2" fill="none" stroke="#1f2a24" stroke-width="1.40" stroke-linecap="round" stroke-linejoin="round"/><path d="M 9 20.2 L 7 26.2 L 7 33.2" fill="none" stroke="#1f2a24" stroke-width="1.40" stroke-linecap="round" stroke-linejoin="round"/><path d="M 9 20.2 L 12 26.2 L 13 33.2" fill="none" stroke="#1f2a24" stroke-width="1.40" stroke-linecap="round" stroke-linejoin="round"/><circle cx="20" cy="6" r="2" fill="none" stroke="#1f2a24" stroke-width="1.40" stroke-linecap="round" stroke-linejoin="round"/><path d="M 22 6 C 28 4, 33 10, 34 16" fill="none" stroke="#9aa79f" stroke-width="1.10" stroke-linecap="round" stroke-linejoin="round" stroke-dasharray="2 1.5"/><path d="M 30 20 L 30 26 L 38 26 L 38 20" fill="none" stroke="#1f2a24" stroke-width="1.40" stroke-linecap="round" stroke-linejoin="round"/></g><path d="M 27.5 13 L 31.5 13 M 30 11.6 L 31.5 13 L 30 14.4" fill="none" stroke="#9aa79f" stroke-width="0.70" stroke-linecap="round"/><path d="M 33.4 0.4 h 25.2 v 25.2 h -25.2 Z" fill="none" stroke="#e8e8e3" stroke-width="0.50" rx="2"/><g transform="translate(33 0) scale(0.6500)"><path d="M 30 20 L 30 26 L 38 26 L 38 20" fill="none" stroke="#1f2a24" stroke-width="1.40" stroke-linecap="round" stroke-linejoin="round"/><circle cx="34" cy="23.50" r="2" fill="none" stroke="#1f2a24" stroke-width="1.40" stroke-linecap="round" stroke-linejoin="round"/><circle cx="9" cy="10" r="3.20" fill="none" stroke="#1f2a24" stroke-width="1.40" stroke-linecap="round" stroke-linejoin="round"/><path d="M 9 13.2 L 9 22.2" fill="none" stroke="#1f2a24" stroke-width="1.40" stroke-linecap="round" stroke-linejoin="round"/><path d="M 9 15.2 L 5 19.2 L 5 24.2" fill="none" stroke="#1f2a24" stroke-width="1.40" stroke-linecap="round" stroke-linejoin="round"/><path d="M 9 15.2 L 13 19.2 L 13 24.2" fill="none" stroke="#1f2a24" stroke-width="1.40" stroke-linecap="round" stroke-linejoin="round"/><path d="M 9 22.2 L 7 28.2 L 7 35.2" fill="none" stroke="#1f2a24" stroke-width="1.40" stroke-linecap="round" stroke-linejoin="round"/><path d="M 9 22.2 L 12 28.2 L 13 35.2" fill="none" stroke="#1f2a24" stroke-width="1.40" stroke-linecap="round" stroke-linejoin="round"/><path d="M 12 32 L 4 32 M 5.93068163615882 30.945263815070753 L 4 32 L 5.93068163615882 33.05473618492925" fill="none" stroke="#ff6b5e" stroke-width="1.20" stroke-linecap="round" stroke-linejoin="round"/></g></svg>