<svg xmlns="http://www.w3.org/2000/svg" width="59mm" height="26mm" viewBox="0 0 59 26"><path d="M 0.4 0.4 h 25.2 v 25.2 h -25.2 Z" fill="none" stroke="#e8e8e3" stroke-width="0.50" rx="2"/><g transform="translate(0 0) scale(0.6500)"><path d="M 8 26 h 9 v 9 h -9 Z" fill="none" stroke="#1f2a24" stroke-width="1.40" stroke-linecap="round" stroke-linejoin="round"/><path d="M 8 17 h 9 v 9 h -9 Z" fill="none" stroke="#1f2a24" stroke-width="1.40" stroke-linecap="round" stroke-linejoin="round"/><path d="M 8 8 h 9 v 9 h -9 Z" fill="none" stroke="#1f2a24" stroke-width="1.40" stroke-linecap="round" stroke-linejoin="round"/><path d="M 24 15 C 27 12, 33 12, 36 15 C 33 18, 27 18, 24 15 Z" fill="none" stroke="#1f2a24" stroke-width="1.40" stroke-linecap="round" stroke-linejoin="round"/><circle cx="30" cy="15" r="1.60" fill="none" stroke="#1f2a24" stroke-width="1.40" stroke-linecap="round" stroke-linejoin="round"/></g><path d="M 27.5 13 L 31.5 13 M 30 11.6 L 31.5 13 L 30 14.4" fill="none" stroke="#9aa79f" stroke-width="0.70" stroke-linecap="round"/><path d="M 33.4 0.4 h 25.2 v 25.2 h -25.2 Z" fill="none" stroke="#e8e8e3" stroke-width="0.50" rx="2"/><g transform="translate(33 0) scale(0.6500)"><path d="M 20 26 h 9 v 9 h -9 Z" fill="none" stroke="#1f2a24" stroke-width="1.40" stroke-linecap="round" stroke-linejoin="round"/><path d="M 20 17 h 9 v 9 h -9 Z" fill="none" stroke="#1f2a24" stroke-width="1.40" stroke-linecap="round" stroke-linejoin="round"/><path d="M 20 8 h 9 v 9 h -9 Z" fill="none" stroke="#9aa79f" stroke-width="1.10" stroke-linecap="round" stroke-linejoin="round"/><circle cx="24.50" cy="3" r="2" fill="none" stroke="#1f2a24" stroke-width="1.40" stroke-linecap="round" stroke-linejoin="round"/><path d="M 24.5 5 L 24.5 8" fill="none" stroke="#1f2a24" stroke-width="1.40" stroke-linecap="round" stroke-linejoin="round"/><path d="M 24.5 5.5 L 24.5 8 M 23.445263815070753 6.06931836384118 L 24.5 8 L 25.554736184929247 6.06931836384118" fill="none" stroke="#ff6b5e" stroke-width="1.20" stroke-linecap="round" stroke-linejoin="round"/></g></svg>