<svg xmlns="http://www.w3.org/2000/svg" width="92mm" height="26mm" viewBox="0 0 92 26"><path d="M 0.4 0.4 h 25.2 v 25.2 h -25.2 Z" fill="none" stroke="#e8e8e3" stroke-width="0.50" rx="2"/><g transform="translate(0 0) scale(0.6500)"><path d="M 6.5 32 L 7.7 24 L 12.3 24 L 13.5 32 Z" fill="none" stroke="#1f2a24" stroke-width="1.40" stroke-linecap="round" stroke-linejoin="round"/><path d="M 16.5 32 L 17.7 24 L 22.3 24 L 23.5 32 Z" fill="none" stroke="#1f2a24" stroke-width="1.40" stroke-linecap="round" stroke-linejoin="round"/><path d="M 26.5 32 L 27.7 24 L 32.3 24 L 33.5 32 Z" fill="none" stroke="#1f2a24" stroke-width="1.40" stroke-linecap="round" stroke-linejoin="round"/><circle cx="20" cy="18" r="2.20" fill="none" stroke="#1f2a24" stroke-width="1.40" stroke-linecap="round" stroke-linejoin="round"/><path d="M 20 21 L 20 27 M 18.945263815070753 25.06931836384118 L 20 27 L 21.054736184929247 25.06931836384118" fill="none" stroke="#ff6b5e" stroke-width="1.20" stroke-linecap="round" stroke-linejoin="round"/></g><path d="M 27.5 13 L 31.5 13 M 30 11.6 L 31.5 13 L 30 14.4" fill="none" stroke="#9aa79f" stroke-width="0.70" stroke-linecap="round"/><path d="M 33.4 0.4 h 25.2 v 25.2 h -25.2 Z" fill="none" stroke="#e8e8e3" stroke-width="0.50" rx="2"/><g transform="translate(33 0) scale(0.6500)"><path d="M 6.5 32 L 7.7 24 L 12.3 24 L 13.5 32 Z" fill="none" stroke="#1f2a24" stroke-width="1.40" stroke-linecap="round" stroke-linejoin="round"/><path d="M 16.5 32 L 17.7 24 L 22.3 24 L 23.5 32 Z" fill="none" stroke="#1f2a24" stroke-width="1.40" stroke-linecap="round" stroke-linejoin="round"/><path d="M 26.5 32 L 27.7 24 L 32.3 24 L 33.5 32 Z" fill="none" stroke="#1f2a24" stroke-width="1.40" stroke-linecap="round" stroke-linejoin="round"/><path d="M 12 18 C 15 12, 25 12, 28 18" fill="none" stroke="#9aa79f" stroke-width="1.10" stroke-linecap="round" stroke-linejoin="round" stroke-dasharray="2 1.5"/><path d="M 27 17.4 L 28 18.6 M 25.95373695418843 17.79203493432825 L 28 18.6 L 27.574278517436433 16.441583631621583" fill="none" stroke="#ff6b5e" stroke-width="1.20" stroke-linecap="round" stroke-linejoin="round"/><path d="M 28 22 C 25 27, 15 27, 12 22" fill="none" stroke="#9aa79f" stroke-width="1.10" stroke-linecap="round" stroke-linejoin="round" stroke-dasharray="2 1.5"/><path d="M 13 22.6 L 12 21.4 M 14.04626304581157 22.20796506567175 L 12 21.4 L 12.425721482563567 23.558416368378417" fill="none" stroke="#ff6b5e" stroke-width="1.20" stroke-linecap="round" stroke-linejoin="round"/></g><path d="M 60.5 13 L 64.5 13 M 63 11.6 L 64.5 13 L 63 14.4" fill="none" stroke="#9aa79f" stroke-width="0.70" stroke-linecap="round"/><path d="M 66.4 0.4 h 25.2 v 25.2 h -25.2 Z" fill="none" stroke="#e8e8e3" stroke-width="0.50" rx="2"/><g transform="translate(66 0) scale(0.6500)"><path d="M 6.5 32 L 7.7 24 L 12.3 24 L 13.5 32 Z" fill="none" stroke="#1f2a24" stroke-width="1.40" stroke-linecap="round" stroke-linejoin="round"/><path d="M 16.5 32 L 17.7 24 L 22.3 24 L 23.5 32 Z" fill="none" stroke="#1f2a24" stroke-width="1.40" stroke-linecap="round" stroke-linejoin="round"/><path d="M 26.5 32 L 27.7 24 L 32.3 24 L 33.5 32 Z" fill="none" stroke="#1f2a24" stroke-width="1.40" stroke-linecap="round" stroke-linejoin="round"/><path d="M 30 12 L 22 24" fill="none" stroke="#1f2a24" stroke-width="1.40" stroke-linecap="round" stroke-linejoin="round"/><circle cx="31.50" cy="10.50" r="1.60" fill="none" stroke="#1f2a24" stroke-width="1.40" stroke-linecap="round" stroke-linejoin="round"/><path d="M 17 8 L 19 8 M 18 7 L 18 9" fill="none" stroke="#9aa79f" stroke-width="1.10" stroke-linecap="round" stroke-linejoin="round"/></g></svg>