<svg xmlns="http://www.w3.org/2000/svg" width="59mm" height="26mm" viewBox="0 0 59 26"><path d="M 0.4 0.4 h 25.2 v 25.2 h -25.2 Z" fill="none" stroke="#e8e8e3" stroke-width="0.50" rx="2"/><g transform="translate(0 0) scale(0.6500)"><circle cx="8" cy="16" r="3" fill="none" stroke="#1f2a24" stroke-width="1.40" stroke-linecap="round" stroke-linejoin="round"/><path d="M 11 18 C 17 14, 25 14, 31 18" fill="none" stroke="#1f2a24" stroke-width="1.40" stroke-linecap="round" stroke-linejoin="round"/><path d="M 13 19 L 12 26 L 12 30 M 29 19 L 30 26 L 30 30" fill="none" stroke="#1f2a24" stroke-width="1.40" stroke-linecap="round" stroke-linejoin="round"/><path d="M 18 18 L 17 25 L 17 29 M 24 18 L 25 25 L 25 29" fill="none" stroke="#9aa79f" stroke-width="1.10" stroke-linecap="round" stroke-linejoin="round"/><path d="M 33 24 L 39 24 M 37.06931836384118 25.054736184929247 L 39 24 L 37.06931836384118 22.945263815070753" fill="none" stroke="#ff6b5e" stroke-width="1.20" stroke-linecap="round" stroke-linejoin="round"/></g><path d="M 27.5 13 L 31.5 13 M 30 11.6 L 31.5 13 L 30 14.4" fill="none" stroke="#9aa79f" stroke-width="0.70" stroke-linecap="round"/><path d="M 33.4 0.4 h 25.2 v 25.2 h -25.2 Z" fill="none" stroke="#e8e8e3" stroke-width="0.50" rx="2"/><g transform="translate(33 0) scale(0.6500)"><circle cx="10" cy="20" r="3.20" fill="none" stroke="#1f2a24" stroke-width="1.40" stroke-linecap="round" stroke-linejoin="round"/><path d="M 10 23.2 L 10 28" fill="none" stroke="#1f2a24" stroke-width="1.40" stroke-linecap="round" stroke-linejoin="round"/><path d="M 10 25.2 L 7 30.2 L 7 33.2" fill="none" stroke="#1f2a24" stroke-width="1.40" stroke-linecap="round" stroke-linejoin="round"/><path d="M 10 25.2 L 13 30.2 L 13 33.2" fill="none" stroke="#1f2a24" stroke-width="1.40" stroke-linecap="round" stroke-linejoin="round"/><path d="M 10 28 L 6 29 L 8 33" fill="none" stroke="#1f2a24" stroke-width="1.40" stroke-linecap="round" stroke-linejoin="round"/><path d="M 10 28 L 14 29 L 12 33" fill="none" stroke="#1f2a24" stroke-width="1.40" stroke-linecap="round" stroke-linejoin="round"/><path d="M 14 24 C 20 12, 28 12, 34 24" fill="none" stroke="#9aa79f" stroke-width="1.10" stroke-linecap="round" stroke-linejoin="round" stroke-dasharray="2 1.5"/><path d="M 33 22 L 34.5 24.5 M 32.60224367604455 23.387111445432613 L 34.5 24.5 L 34.41110131018428 22.30179686494877" fill="none" stroke="#ff6b5e" stroke-width="1.20" stroke-linecap="round" stroke-linejoin="round"/></g></svg>