<svg xmlns="http://www.w3.org/2000/svg" width="210mm" height="297mm" viewBox="0 0 210 297" font-family="system-ui, -apple-system, sans-serif">
  <rect width="210" height="297" fill="#fff"/>
  <text x="14" y="20" font-size="6.5" font-weight="600" fill="#111">Gyűjtőlap</text>
  <text x="196" y="20" font-size="3.6" fill="#888" text-anchor="end">Zita  ·  2026. jan. 1.</text>
  <text x="14" y="28" font-size="4.2" fill="#444">Színezz ki vagy ragassz egy matricát egy formára minden elvégzett feladat vagy nap után!</text>
  <line x1="14" y1="32" x2="196" y2="32" stroke="#e5e5e5" stroke-width="0.3"/>
  
  <g transform="translate(14.00 40.00) scale(1.0225)"><g ><path d="M 76.00 222.00 C 81.20 192.00 83.15 154.00 83.80 140.00 L 94.20 140.00 C 94.85 154.00 96.80 192.00 102.00 222.00 Z" fill="none" stroke="#141414" stroke-width="1" stroke-linejoin="round" stroke-linecap="round"/><line x1="65" y1="222" x2="113" y2="222" fill="none" stroke="#141414" stroke-width="1" stroke-linejoin="round" stroke-linecap="round"/><path d="M 89.00 144.00 Q 79.50 102.00 68.00 64.00" fill="none" stroke="#141414" stroke-width="1" stroke-linejoin="round" stroke-linecap="round"/><path d="M 89.00 144.00 Q 83.00 96.00 89.00 52.00" fill="none" stroke="#141414" stroke-width="1" stroke-linejoin="round" stroke-linecap="round"/><path d="M 89.00 144.00 Q 113.00 114.00 131.00 88.00" fill="none" stroke="#141414" stroke-width="1" stroke-linejoin="round" stroke-linecap="round"/><path d="M 159.33 141.40 Q 147.84 139.40 140.67 148.60 Q 152.16 150.60 159.33 141.40 Z" fill="none" stroke="#141414" stroke-width="1" stroke-linejoin="round" stroke-linecap="round"/><line x1="140.67" y1="148.60" x2="159.33" y2="141.40" fill="none" stroke="#141414" stroke-width="0.70" stroke-linejoin="round" stroke-linecap="round"/><path d="M 29.10 98.08 Q 18.25 102.34 16.90 113.92 Q 27.75 109.66 29.10 98.08 Z" fill="none" stroke="#141414" stroke-width="1" stroke-linejoin="round" stroke-linecap="round"/><line x1="16.90" y1="113.92" x2="29.10" y2="98.08" fill="none" stroke="#141414" stroke-width="0.70" stroke-linejoin="round" stroke-linecap="round"/><path d="M 140.00 66.86 Q 129.92 61.00 120.00 67.14 Q 130.08 73.00 140.00 66.86 Z" fill="none" stroke="#141414" stroke-width="1" stroke-linejoin="round" stroke-linecap="round"/><line x1="120.00" y1="67.14" x2="140.00" y2="66.86" fill="none" stroke="#141414" stroke-width="0.70" stroke-linejoin="round" stroke-linecap="round"/><path d="M 63.05 79.48 Q 54.29 87.17 56.95 98.52 Q 65.71 90.83 63.05 79.48 Z" fill="none" stroke="#141414" stroke-width="1" stroke-linejoin="round" stroke-linecap="round"/><line x1="56.95" y1="98.52" x2="63.05" y2="79.48" fill="none" stroke="#141414" stroke-width="0.70" stroke-linejoin="round" stroke-linecap="round"/><path d="M 143.08 94.29 Q 142.78 105.95 152.92 111.71 Q 153.22 100.05 143.08 94.29 Z" fill="none" stroke="#141414" stroke-width="1" stroke-linejoin="round" stroke-linecap="round"/><line x1="152.92" y1="111.71" x2="143.08" y2="94.29" fill="none" stroke="#141414" stroke-width="0.70" stroke-linejoin="round" stroke-linecap="round"/><path d="M 142.34 48.48 Q 130.69 49.00 125.66 59.52 Q 137.31 59.00 142.34 48.48 Z" fill="none" stroke="#141414" stroke-width="1" stroke-linejoin="round" stroke-linecap="round"/><line x1="125.66" y1="59.52" x2="142.34" y2="48.48" fill="none" stroke="#141414" stroke-width="0.70" stroke-linejoin="round" stroke-linecap="round"/><path d="M 151.28 43.50 Q 140.90 48.83 140.72 60.50 Q 151.10 55.17 151.28 43.50 Z" fill="none" stroke="#141414" stroke-width="1" stroke-linejoin="round" stroke-linecap="round"/><line x1="140.72" y1="60.50" x2="151.28" y2="43.50" fill="none" stroke="#141414" stroke-width="0.70" stroke-linejoin="round" stroke-linecap="round"/><path d="M 69.26 138.73 Q 77.64 146.84 88.74 143.27 Q 80.36 135.16 69.26 138.73 Z" fill="none" stroke="#141414" stroke-width="1" stroke-linejoin="round" stroke-linecap="round"/><line x1="88.74" y1="143.27" x2="69.26" y2="138.73" fill="none" stroke="#141414" stroke-width="0.70" stroke-linejoin="round" stroke-linecap="round"/><path d="M 115.54 59.01 Q 110.01 69.28 116.46 78.99 Q 121.99 68.72 115.54 59.01 Z" fill="none" stroke="#141414" stroke-width="1" stroke-linejoin="round" stroke-linecap="round"/><line x1="116.46" y1="78.99" x2="115.54" y2="59.01" fill="none" stroke="#141414" stroke-width="0.70" stroke-linejoin="round" stroke-linecap="round"/><path d="M 144.82 77.44 Q 144.87 89.11 155.18 94.56 Q 155.13 82.89 144.82 77.44 Z" fill="none" stroke="#141414" stroke-width="1" stroke-linejoin="round" stroke-linecap="round"/><line x1="155.18" y1="94.56" x2="144.82" y2="77.44" fill="none" stroke="#141414" stroke-width="0.70" stroke-linejoin="round" stroke-linecap="round"/><path d="M 67.92 137.74 Q 57.25 133.05 48.08 140.26 Q 58.75 144.95 67.92 137.74 Z" fill="none" stroke="#141414" stroke-width="1" stroke-linejoin="round" stroke-linecap="round"/><line x1="48.08" y1="140.26" x2="67.92" y2="137.74" fill="none" stroke="#141414" stroke-width="0.70" stroke-linejoin="round" stroke-linecap="round"/><path d="M 49.00 54.75 Q 58.85 61.00 69.00 55.25 Q 59.15 49.00 49.00 54.75 Z" fill="none" stroke="#141414" stroke-width="1" stroke-linejoin="round" stroke-linecap="round"/><line x1="69.00" y1="55.25" x2="49.00" y2="54.75" fill="none" stroke="#141414" stroke-width="0.70" stroke-linejoin="round" stroke-linecap="round"/><path d="M 117.08 113.87 Q 107.52 120.55 108.92 132.13 Q 118.48 125.45 117.08 113.87 Z" fill="none" stroke="#141414" stroke-width="1" stroke-linejoin="round" stroke-linecap="round"/><line x1="108.92" y1="132.13" x2="117.08" y2="113.87" fill="none" stroke="#141414" stroke-width="0.70" stroke-linejoin="round" stroke-linecap="round"/><path d="M 129.17 111.41 Q 126.24 122.70 134.83 130.59 Q 137.76 119.30 129.17 111.41 Z" fill="none" stroke="#141414" stroke-width="1" stroke-linejoin="round" stroke-linecap="round"/><line x1="134.83" y1="130.59" x2="129.17" y2="111.41" fill="none" stroke="#141414" stroke-width="0.70" stroke-linejoin="round" stroke-linecap="round"/><path d="M 141.49 65.41 Q 143.45 76.91 154.51 80.59 Q 152.55 69.09 141.49 65.41 Z" fill="none" stroke="#141414" stroke-width="1" stroke-linejoin="round" stroke-linecap="round"/><line x1="154.51" y1="80.59" x2="141.49" y2="65.41" fill="none" stroke="#141414" stroke-width="0.70" stroke-linejoin="round" stroke-linecap="round"/><path d="M 68.00 106.74 Q 57.84 101.00 48.00 107.26 Q 58.16 113.00 68.00 106.74 Z" fill="none" stroke="#141414" stroke-width="1" stroke-linejoin="round" stroke-linecap="round"/><line x1="48.00" y1="107.26" x2="68.00" y2="106.74" fill="none" stroke="#141414" stroke-width="0.70" stroke-linejoin="round" stroke-linecap="round"/><path d="M 75.94 21.00 Q 70.00 31.03 76.06 41.00 Q 82.00 30.97 75.94 21.00 Z" fill="none" stroke="#141414" stroke-width="1" stroke-linejoin="round" stroke-linecap="round"/><line x1="76.06" y1="41.00" x2="75.94" y2="21.00" fill="none" stroke="#141414" stroke-width="0.70" stroke-linejoin="round" stroke-linecap="round"/><path d="M 107.90 44.07 Q 109.24 55.66 120.10 59.93 Q 118.76 48.34 107.90 44.07 Z" fill="none" stroke="#141414" stroke-width="1" stroke-linejoin="round" stroke-linecap="round"/><line x1="120.10" y1="59.93" x2="107.90" y2="44.07" fill="none" stroke="#141414" stroke-width="0.70" stroke-linejoin="round" stroke-linecap="round"/><path d="M 67.49 63.85 Q 56.11 61.31 48.51 70.15 Q 59.89 72.69 67.49 63.85 Z" fill="none" stroke="#141414" stroke-width="1" stroke-linejoin="round" stroke-linecap="round"/><line x1="48.51" y1="70.15" x2="67.49" y2="63.85" fill="none" stroke="#141414" stroke-width="0.70" stroke-linejoin="round" stroke-linecap="round"/><path d="M 90.73 78.26 Q 87.16 89.36 95.27 97.74 Q 98.84 86.64 90.73 78.26 Z" fill="none" stroke="#141414" stroke-width="1" stroke-linejoin="round" stroke-linecap="round"/><line x1="95.27" y1="97.74" x2="90.73" y2="78.26" fill="none" stroke="#141414" stroke-width="0.70" stroke-linejoin="round" stroke-linecap="round"/><path d="M 15.41 115.47 Q 17.48 126.95 28.59 130.53 Q 26.52 119.05 15.41 115.47 Z" fill="none" stroke="#141414" stroke-width="1" stroke-linejoin="round" stroke-linecap="round"/><line x1="28.59" y1="130.53" x2="15.41" y2="115.47" fill="none" stroke="#141414" stroke-width="0.70" stroke-linejoin="round" stroke-linecap="round"/></g></g>
  <text x="105" y="291" font-size="3" fill="#bbb" text-anchor="middle">Kalmo Kids · demo-rew</text>
</svg>