<svg xmlns="http://www.w3.org/2000/svg" width="210mm" height="297mm" viewBox="0 0 210 297" font-family="system-ui, -apple-system, sans-serif">
  <rect width="210" height="297" fill="#fff"/>
  <text x="14" y="20" font-size="6.5" font-weight="600" fill="#111">Sorba rendezés</text>
  <text x="196" y="20" font-size="3.6" fill="#888" text-anchor="end">Zoé  ·  2026. jan. 1.</text>
  <text x="14" y="28" font-size="4.2" fill="#444">Mi történik előbb? Számozd meg a képeket 1-től sorban!</text>
  <line x1="14" y1="32" x2="196" y2="32" stroke="#e5e5e5" stroke-width="0.3"/>
  
  <g transform="translate(14.00 40.00) scale(1.0706)"><g ><rect x="4" y="0" width="29.20" height="30.66" fill="none" stroke="#111" stroke-width="0.70" rx="3"/><line x1="8" y1="26.66" x2="29.20" y2="26.66" fill="none" stroke="#111" stroke-width="1" stroke-linejoin="round" stroke-linecap="round"/><rect x="12.47" y="22.86" width="12.26" height="3.00" fill="none" stroke="#111" stroke-width="1" stroke-linejoin="round" stroke-linecap="round" rx="1"/><rect x="12.47" y="19.06" width="12.26" height="3.00" fill="none" stroke="#111" stroke-width="1" stroke-linejoin="round" stroke-linecap="round" rx="1"/><rect x="12.47" y="15.25" width="12.26" height="3.00" fill="none" stroke="#111" stroke-width="1" stroke-linejoin="round" stroke-linecap="round" rx="1"/><rect x="14.10" y="34.66" width="9" height="9" fill="none" stroke="#111" stroke-width="0.70" rx="1.50"/><rect x="37.20" y="0" width="29.20" height="30.66" fill="none" stroke="#111" stroke-width="0.70" rx="3"/><line x1="41.20" y1="26.66" x2="62.40" y2="26.66" fill="none" stroke="#111" stroke-width="1" stroke-linejoin="round" stroke-linecap="round"/><rect x="45.67" y="22.86" width="12.26" height="3.00" fill="none" stroke="#111" stroke-width="1" stroke-linejoin="round" stroke-linecap="round" rx="1"/><rect x="45.67" y="19.06" width="12.26" height="3.00" fill="none" stroke="#111" stroke-width="1" stroke-linejoin="round" stroke-linecap="round" rx="1"/><rect x="47.30" y="34.66" width="9" height="9" fill="none" stroke="#111" stroke-width="0.70" rx="1.50"/><rect x="70.40" y="0" width="29.20" height="30.66" fill="none" stroke="#111" stroke-width="0.70" rx="3"/><line x1="74.40" y1="26.66" x2="95.60" y2="26.66" fill="none" stroke="#111" stroke-width="1" stroke-linejoin="round" stroke-linecap="round"/><rect x="78.87" y="22.86" width="12.26" height="3.00" fill="none" stroke="#111" stroke-width="1" stroke-linejoin="round" stroke-linecap="round" rx="1"/><rect x="78.87" y="19.06" width="12.26" height="3.00" fill="none" stroke="#111" stroke-width="1" stroke-linejoin="round" stroke-linecap="round" rx="1"/><rect x="78.87" y="15.25" width="12.26" height="3.00" fill="none" stroke="#111" stroke-width="1" stroke-linejoin="round" stroke-linecap="round" rx="1"/><rect x="78.87" y="11.45" width="12.26" height="3.00" fill="none" stroke="#111" stroke-width="1" stroke-linejoin="round" stroke-linecap="round" rx="1"/><rect x="78.87" y="7.65" width="12.26" height="3.00" fill="none" stroke="#111" stroke-width="1" stroke-linejoin="round" stroke-linecap="round" rx="1"/><rect x="80.50" y="34.66" width="9" height="9" fill="none" stroke="#111" stroke-width="0.70" rx="1.50"/><rect x="103.60" y="0" width="29.20" height="30.66" fill="none" stroke="#111" stroke-width="0.70" rx="3"/><line x1="107.60" y1="26.66" x2="128.80" y2="26.66" fill="none" stroke="#111" stroke-width="1" stroke-linejoin="round" stroke-linecap="round"/><rect x="112.07" y="22.86" width="12.26" height="3.00" fill="none" stroke="#111" stroke-width="1" stroke-linejoin="round" stroke-linecap="round" rx="1"/><rect x="112.07" y="19.06" width="12.26" height="3.00" fill="none" stroke="#111" stroke-width="1" stroke-linejoin="round" stroke-linecap="round" rx="1"/><rect x="112.07" y="15.25" width="12.26" height="3.00" fill="none" stroke="#111" stroke-width="1" stroke-linejoin="round" stroke-linecap="round" rx="1"/><rect x="112.07" y="11.45" width="12.26" height="3.00" fill="none" stroke="#111" stroke-width="1" stroke-linejoin="round" stroke-linecap="round" rx="1"/><rect x="113.70" y="34.66" width="9" height="9" fill="none" stroke="#111" stroke-width="0.70" rx="1.50"/><rect x="136.80" y="0" width="29.20" height="30.66" fill="none" stroke="#111" stroke-width="0.70" rx="3"/><line x1="140.80" y1="26.66" x2="162" y2="26.66" fill="none" stroke="#111" stroke-width="1" stroke-linejoin="round" stroke-linecap="round"/><rect x="145.27" y="22.86" width="12.26" height="3.00" fill="none" stroke="#111" stroke-width="1" stroke-linejoin="round" stroke-linecap="round" rx="1"/><rect x="146.90" y="34.66" width="9" height="9" fill="none" stroke="#111" stroke-width="0.70" rx="1.50"/><rect x="4" y="49.66" width="29.20" height="30.66" fill="none" stroke="#111" stroke-width="0.70" rx="3"/><path d="M 13.052000000000001 76.32 L 24.148000000000003 76.32 L 25.17 66.36259999999999 L 12.030000000000001 66.36259999999999 Z" fill="#e6eef4" stroke="#88a" stroke-width="0.40"/><path d="M 11.008000000000003 56.405199999999994 L 13.052000000000001 76.32 L 24.148000000000003 76.32 L 26.192 56.405199999999994" fill="none" stroke="#111" stroke-width="1" stroke-linejoin="round" stroke-linecap="round"/><rect x="14.10" y="84.32" width="9" height="9" fill="none" stroke="#111" stroke-width="0.70" rx="1.50"/><rect x="37.20" y="49.66" width="29.20" height="30.66" fill="none" stroke="#111" stroke-width="0.70" rx="3"/><path d="M 46.252 76.32 L 57.348000000000006 76.32 L 58.881 61.3839 L 44.71900000000001 61.3839 Z" fill="#e6eef4" stroke="#88a" stroke-width="0.40"/><path d="M 44.208000000000006 56.405199999999994 L 46.252 76.32 L 57.348000000000006 76.32 L 59.392 56.405199999999994" fill="none" stroke="#111" stroke-width="1" stroke-linejoin="round" stroke-linecap="round"/><rect x="47.30" y="84.32" width="9" height="9" fill="none" stroke="#111" stroke-width="0.70" rx="1.50"/><rect x="70.40" y="49.66" width="29.20" height="30.66" fill="none" stroke="#111" stroke-width="0.70" rx="3"/><path d="M 79.452 76.32 L 90.548 76.32 L 92.592 56.405199999999994 L 77.408 56.405199999999994 Z" fill="#e6eef4" stroke="#88a" stroke-width="0.40"/><path d="M 77.408 56.405199999999994 L 79.452 76.32 L 90.548 76.32 L 92.592 56.405199999999994" fill="none" stroke="#111" stroke-width="1" stroke-linejoin="round" stroke-linecap="round"/><rect x="80.50" y="84.32" width="9" height="9" fill="none" stroke="#111" stroke-width="0.70" rx="1.50"/><rect x="103.60" y="49.66" width="29.20" height="30.66" fill="none" stroke="#111" stroke-width="0.70" rx="3"/><path d="M 112.652 76.32 L 123.748 76.32 L 124.259 71.34129999999999 L 112.141 71.34129999999999 Z" fill="#e6eef4" stroke="#88a" stroke-width="0.40"/><path d="M 110.608 56.405199999999994 L 112.652 76.32 L 123.748 76.32 L 125.792 56.405199999999994" fill="none" stroke="#111" stroke-width="1" stroke-linejoin="round" stroke-linecap="round"/><rect x="113.70" y="84.32" width="9" height="9" fill="none" stroke="#111" stroke-width="0.70" rx="1.50"/><rect x="136.80" y="49.66" width="29.20" height="30.66" fill="none" stroke="#111" stroke-width="0.70" rx="3"/><path d="M 145.852 76.32 L 156.948 76.32 L 157.07064 75.12511199999999 L 145.72936 75.12511199999999 Z" fill="#e6eef4" stroke="#88a" stroke-width="0.40"/><path d="M 143.808 56.405199999999994 L 145.852 76.32 L 156.948 76.32 L 158.99200000000002 56.405199999999994" fill="none" stroke="#111" stroke-width="1" stroke-linejoin="round" stroke-linecap="round"/><rect x="146.90" y="84.32" width="9" height="9" fill="none" stroke="#111" stroke-width="0.70" rx="1.50"/></g></g>
  <text x="105" y="291" font-size="3" fill="#bbb" text-anchor="middle">BrainForge Kids · demo-seq</text>
</svg>