<svg xmlns="http://www.w3.org/2000/svg" width="210mm" height="297mm" viewBox="0 0 210 297" font-family="system-ui, -apple-system, sans-serif">
  <rect width="210" height="297" fill="#fff"/>
  <text x="14" y="20" font-size="6.5" font-weight="600" fill="#111">Tükrös rács</text>
  <text x="196" y="20" font-size="3.6" fill="#888" text-anchor="end">Lili  ·  2026. jan. 1.</text>
  <text x="14" y="28" font-size="4.2" fill="#444">Színezd ki ugyanazokat a négyzeteket a vonal másik oldalán!</text>
  <line x1="14" y1="32" x2="196" y2="32" stroke="#e5e5e5" stroke-width="0.3"/>
  <text x="196" y="28" font-size="4" fill="#d33" text-anchor="end">Megoldókulcs</text>
  <g transform="translate(14.00 40.00) scale(1.1974)"><g ><rect x="15.20" y="33.40" width="15.20" height="15.20" fill="#111"/><rect x="0" y="33.40" width="15.20" height="15.20" fill="#111"/><rect x="30.40" y="33.40" width="15.20" height="15.20" fill="#111"/><rect x="30.40" y="18.20" width="15.20" height="15.20" fill="#111"/><rect x="45.60" y="18.20" width="15.20" height="15.20" fill="#111"/><rect x="45.60" y="33.40" width="15.20" height="15.20" fill="#111"/><rect x="15.20" y="48.60" width="15.20" height="15.20" fill="#111"/><rect x="15.20" y="18.20" width="15.20" height="15.20" fill="#111"/><rect x="60.80" y="33.40" width="15.20" height="15.20" fill="#111"/><path d="M 0 3 L 0 94.19999999999999" stroke="#999" stroke-width="0.35" fill="none"/><path d="M 15.2 3 L 15.2 94.19999999999999" stroke="#999" stroke-width="0.35" fill="none"/><path d="M 30.4 3 L 30.4 94.19999999999999" stroke="#999" stroke-width="0.35" fill="none"/><path d="M 45.599999999999994 3 L 45.599999999999994 94.19999999999999" stroke="#999" stroke-width="0.35" fill="none"/><path d="M 60.8 3 L 60.8 94.19999999999999" stroke="#999" stroke-width="0.35" fill="none"/><path d="M 76 3 L 76 94.19999999999999" stroke="#999" stroke-width="0.35" fill="none"/><path d="M 91.19999999999999 3 L 91.19999999999999 94.19999999999999" stroke="#999" stroke-width="0.35" fill="none"/><path d="M 106.39999999999999 3 L 106.39999999999999 94.19999999999999" stroke="#999" stroke-width="0.35" fill="none"/><path d="M 121.6 3 L 121.6 94.19999999999999" stroke="#999" stroke-width="0.35" fill="none"/><path d="M 136.79999999999998 3 L 136.79999999999998 94.19999999999999" stroke="#999" stroke-width="0.35" fill="none"/><path d="M 152 3 L 152 94.19999999999999" stroke="#999" stroke-width="0.35" fill="none"/><path d="M 0 3 L 152 3" stroke="#999" stroke-width="0.35" fill="none"/><path d="M 0 18.2 L 152 18.2" stroke="#999" stroke-width="0.35" fill="none"/><path d="M 0 33.4 L 152 33.4" stroke="#999" stroke-width="0.35" fill="none"/><path d="M 0 48.599999999999994 L 152 48.599999999999994" stroke="#999" stroke-width="0.35" fill="none"/><path d="M 0 63.8 L 152 63.8" stroke="#999" stroke-width="0.35" fill="none"/><path d="M 0 79 L 152 79" stroke="#999" stroke-width="0.35" fill="none"/><path d="M 0 94.19999999999999 L 152 94.19999999999999" stroke="#999" stroke-width="0.35" fill="none"/><path d="M 76 0 L 76 97.19999999999999" stroke="#111" stroke-width="0.90" stroke-dasharray="3 2" fill="none"/><rect x="121.60" y="33.40" width="15.20" height="15.20" fill="#d33" opacity="0.85"/><rect x="136.80" y="33.40" width="15.20" height="15.20" fill="#d33" opacity="0.85"/><rect x="106.40" y="33.40" width="15.20" height="15.20" fill="#d33" opacity="0.85"/><rect x="106.40" y="18.20" width="15.20" height="15.20" fill="#d33" opacity="0.85"/><rect x="91.20" y="18.20" width="15.20" height="15.20" fill="#d33" opacity="0.85"/><rect x="91.20" y="33.40" width="15.20" height="15.20" fill="#d33" opacity="0.85"/><rect x="121.60" y="48.60" width="15.20" height="15.20" fill="#d33" opacity="0.85"/><rect x="121.60" y="18.20" width="15.20" height="15.20" fill="#d33" opacity="0.85"/><rect x="76" y="33.40" width="15.20" height="15.20" fill="#d33" opacity="0.85"/></g></g>
  <text x="105" y="291" font-size="3" fill="#bbb" text-anchor="middle">BrainForge Kids · demo-sym</text>
</svg>