<svg xmlns="http://www.w3.org/2000/svg" width="210mm" height="297mm" viewBox="0 0 210 297" font-family="system-ui, -apple-system, sans-serif">
  <rect width="210" height="297" fill="#fff"/>
  <text x="14" y="20" font-size="6.5" font-weight="600" fill="#111">Tükrös rács</text>
  <text x="196" y="20" font-size="3.6" fill="#888" text-anchor="end">Lili  ·  2026. júl. 15.</text>
  <text x="14" y="28" font-size="4.2" fill="#444">Színezd ki ugyanazokat a négyzeteket a vonal másik oldalán!</text>
  <line x1="14" y1="32" x2="196" y2="32" stroke="#e5e5e5" stroke-width="0.3"/>
  <text x="196" y="28" font-size="4" fill="#d33" text-anchor="end">Megoldókulcs</text>
  <g transform="translate(14.00 40.00) scale(1.1375)"><g ><rect x="19.20" y="122.90" width="15.20" height="15.20" fill="#111"/><rect x="34.40" y="122.90" width="15.20" height="15.20" fill="#111"/><rect x="4" y="122.90" width="15.20" height="15.20" fill="#111"/><rect x="19.20" y="107.70" width="15.20" height="15.20" fill="#111"/><rect x="4" y="107.70" width="15.20" height="15.20" fill="#111"/><rect x="4" y="92.50" width="15.20" height="15.20" fill="#111"/><rect x="19.20" y="92.50" width="15.20" height="15.20" fill="#111"/><rect x="19.20" y="77.30" width="15.20" height="15.20" fill="#111"/><rect x="34.40" y="107.70" width="15.20" height="15.20" fill="#111"/><path d="M 4 46.900000000000006 L 4 138.1" stroke="#999" stroke-width="0.35" fill="none"/><path d="M 19.2 46.900000000000006 L 19.2 138.1" stroke="#999" stroke-width="0.35" fill="none"/><path d="M 34.4 46.900000000000006 L 34.4 138.1" stroke="#999" stroke-width="0.35" fill="none"/><path d="M 49.599999999999994 46.900000000000006 L 49.599999999999994 138.1" stroke="#999" stroke-width="0.35" fill="none"/><path d="M 64.8 46.900000000000006 L 64.8 138.1" stroke="#999" stroke-width="0.35" fill="none"/><path d="M 80 46.900000000000006 L 80 138.1" stroke="#999" stroke-width="0.35" fill="none"/><path d="M 95.19999999999999 46.900000000000006 L 95.19999999999999 138.1" stroke="#999" stroke-width="0.35" fill="none"/><path d="M 110.39999999999999 46.900000000000006 L 110.39999999999999 138.1" stroke="#999" stroke-width="0.35" fill="none"/><path d="M 125.6 46.900000000000006 L 125.6 138.1" stroke="#999" stroke-width="0.35" fill="none"/><path d="M 140.79999999999998 46.900000000000006 L 140.79999999999998 138.1" stroke="#999" stroke-width="0.35" fill="none"/><path d="M 156 46.900000000000006 L 156 138.1" stroke="#999" stroke-width="0.35" fill="none"/><path d="M 4 46.900000000000006 L 156 46.900000000000006" stroke="#999" stroke-width="0.35" fill="none"/><path d="M 4 62.10000000000001 L 156 62.10000000000001" stroke="#999" stroke-width="0.35" fill="none"/><path d="M 4 77.30000000000001 L 156 77.30000000000001" stroke="#999" stroke-width="0.35" fill="none"/><path d="M 4 92.5 L 156 92.5" stroke="#999" stroke-width="0.35" fill="none"/><path d="M 4 107.7 L 156 107.7" stroke="#999" stroke-width="0.35" fill="none"/><path d="M 4 122.9 L 156 122.9" stroke="#999" stroke-width="0.35" fill="none"/><path d="M 4 138.1 L 156 138.1" stroke="#999" stroke-width="0.35" fill="none"/><path d="M 80 43.900000000000006 L 80 141.1" stroke="#111" stroke-width="0.90" stroke-dasharray="3 2" fill="none"/><rect x="125.60" y="122.90" width="15.20" height="15.20" fill="#d33" opacity="0.85"/><rect x="110.40" y="122.90" width="15.20" height="15.20" fill="#d33" opacity="0.85"/><rect x="140.80" y="122.90" width="15.20" height="15.20" fill="#d33" opacity="0.85"/><rect x="125.60" y="107.70" width="15.20" height="15.20" fill="#d33" opacity="0.85"/><rect x="140.80" y="107.70" width="15.20" height="15.20" fill="#d33" opacity="0.85"/><rect x="140.80" y="92.50" width="15.20" height="15.20" fill="#d33" opacity="0.85"/><rect x="125.60" y="92.50" width="15.20" height="15.20" fill="#d33" opacity="0.85"/><rect x="125.60" y="77.30" width="15.20" height="15.20" fill="#d33" opacity="0.85"/><rect x="110.40" y="107.70" width="15.20" height="15.20" fill="#d33" opacity="0.85"/></g></g>
  <text x="105" y="291" font-size="3" fill="#bbb" text-anchor="middle">BrainForge Kids · 3fa751e6</text>
</svg>