<svg xmlns="http://www.w3.org/2000/svg" width="210mm" height="297mm" viewBox="0 0 210 297" font-family="system-ui, -apple-system, sans-serif">
  <rect width="210" height="297" fill="#fff"/>
  <text x="14" y="20" font-size="6.5" font-weight="600" fill="#111">Vonalvezetés</text>
  <text x="196" y="20" font-size="3.6" fill="#888" text-anchor="end">Bence  ·  2026. jan. 1.</text>
  <text x="14" y="28" font-size="4.2" fill="#444">Indulj a zöld pontról, és rajzold át a vonalakat!</text>
  <line x1="14" y1="32" x2="196" y2="32" stroke="#e5e5e5" stroke-width="0.3"/>
  
  <g transform="translate(14.00 40.00) scale(1.1375)"><g ><path d="M 14 25 C 17.89 22.67, 29.56 11, 37.33 11 C 45.11 11, 52.89 20.33, 60.67 25 C 68.44 29.67, 76.22 39, 84 39 C 91.78 39, 99.56 29.67, 107.33 25 C 115.11 20.33, 122.89 11, 130.67 11 C 138.44 11, 150.11 22.67, 154 25" fill="none" stroke="#555" stroke-width="1.60" stroke-dasharray="3 2.5" stroke-linecap="round" stroke-linejoin="round"/><circle cx="9" cy="25" r="2.60" fill="#2f9e44"/><path d="M 14 75 A 14 14 0 0 1 42.00 75 A 14 14 0 0 1 70.00 75 A 14 14 0 0 1 98.00 75 A 14 14 0 0 1 126.00 75 A 14 14 0 0 1 154.00 75" fill="none" stroke="#555" stroke-width="1.60" stroke-dasharray="3 2.5" stroke-linecap="round" stroke-linejoin="round"/><circle cx="9" cy="75" r="2.60" fill="#2f9e44"/><path d="M 14 125 L 154 125" fill="none" stroke="#555" stroke-width="1.60" stroke-dasharray="3 2.5" stroke-linecap="round" stroke-linejoin="round"/><circle cx="9" cy="125" r="2.60" fill="#2f9e44"/><path d="M 14 175 L 154 175" fill="none" stroke="#555" stroke-width="1.60" stroke-dasharray="3 2.5" stroke-linecap="round" stroke-linejoin="round"/><circle cx="9" cy="175" r="2.60" fill="#2f9e44"/></g></g>
  <text x="105" y="291" font-size="3" fill="#bbb" text-anchor="middle">Kalmo Kids · demo-tra</text>
</svg>