<svg xmlns="http://www.w3.org/2000/svg" width="210mm" height="297mm" viewBox="0 0 210 297" font-family="system-ui, -apple-system, sans-serif">
  <rect width="210" height="297" fill="#fff"/>
  <text x="14" y="20" font-size="6.5" font-weight="600" fill="#111">Vonalvezetés</text>
  <text x="196" y="20" font-size="3.6" fill="#888" text-anchor="end">Bence  ·  2026. júl. 15.</text>
  <text x="14" y="28" font-size="4.2" fill="#444">Indulj a zöld pontról, és rajzold át a vonalakat!</text>
  <line x1="14" y1="32" x2="196" y2="32" stroke="#e5e5e5" stroke-width="0.3"/>
  
  <g transform="translate(14.00 40.00) scale(1.1375)"><g ><path d="M 14 25 A 17.5 14 0 0 1 49.00 25 A 17.5 14 0 0 1 84.00 25 A 17.5 14 0 0 1 119.00 25 A 17.5 14 0 0 1 154.00 25" fill="none" stroke="#555" stroke-width="1.60" stroke-dasharray="3 2.5" stroke-linecap="round" stroke-linejoin="round"/><circle cx="9" cy="25" r="2.60" fill="#2f9e44"/><path d="M 14 75 L 154 75" fill="none" stroke="#555" stroke-width="1.60" stroke-dasharray="3 2.5" stroke-linecap="round" stroke-linejoin="round"/><circle cx="9" cy="75" r="2.60" fill="#2f9e44"/><path d="M 14 125 C 16.92 122.67, 25.67 111, 31.50 111 C 37.33 111, 43.17 120.33, 49 125 C 54.83 129.67, 60.67 139, 66.50 139 C 72.33 139, 78.17 129.67, 84 125 C 89.83 120.33, 95.67 111, 101.50 111 C 107.33 111, 113.17 120.33, 119 125 C 124.83 129.67, 130.67 139, 136.50 139 C 142.33 139, 151.08 127.33, 154 125" fill="none" stroke="#555" stroke-width="1.60" stroke-dasharray="3 2.5" stroke-linecap="round" stroke-linejoin="round"/><circle cx="9" cy="125" r="2.60" fill="#2f9e44"/><path d="M 14 175 L 154 175" fill="none" stroke="#555" stroke-width="1.60" stroke-dasharray="3 2.5" stroke-linecap="round" stroke-linejoin="round"/><circle cx="9" cy="175" r="2.60" fill="#2f9e44"/></g></g>
  <text x="105" y="291" font-size="3" fill="#bbb" text-anchor="middle">BrainForge Kids · 021396e7</text>
</svg>