<svg xmlns="http://www.w3.org/2000/svg" width="210mm" height="297mm" viewBox="0 0 210 297" font-family="system-ui, -apple-system, sans-serif">
  <rect width="210" height="297" fill="#fff"/>
  <text x="14" y="20" font-size="6.5" font-weight="600" fill="#111">Vonalvezetés</text>
  <text x="196" y="20" font-size="3.6" fill="#888" text-anchor="end">Bence  ·  2026. júl. 8.</text>
  <text x="14" y="28" font-size="4.2" fill="#444">Indulj a zöld pontról, és rajzold át a vonalakat!</text>
  <line x1="14" y1="32" x2="196" y2="32" stroke="#e5e5e5" stroke-width="0.3"/>
  
  <g transform="translate(14.00 40.00) scale(1.1375)"><g ><path d="M 14 25 A 14 14 0 0 1 42.00 25 A 14 14 0 0 1 70.00 25 A 14 14 0 0 1 98.00 25 A 14 14 0 0 1 126.00 25 A 14 14 0 0 1 154.00 25" fill="none" stroke="#555" stroke-width="1.60" stroke-dasharray="3 2.5" stroke-linecap="round" stroke-linejoin="round"/><circle cx="9" cy="25" r="2.60" fill="#2f9e44"/><path d="M 14 75 L 154 75" fill="none" stroke="#555" stroke-width="1.60" stroke-dasharray="3 2.5" stroke-linecap="round" stroke-linejoin="round"/><circle cx="9" cy="75" r="2.60" fill="#2f9e44"/><path d="M 14 125 L 154 125" fill="none" stroke="#555" stroke-width="1.60" stroke-dasharray="3 2.5" stroke-linecap="round" stroke-linejoin="round"/><circle cx="9" cy="125" r="2.60" fill="#2f9e44"/><path d="M 14 175 C 17.89 172.67, 29.56 161, 37.33 161 C 45.11 161, 52.89 170.33, 60.67 175 C 68.44 179.67, 76.22 189, 84 189 C 91.78 189, 99.56 179.67, 107.33 175 C 115.11 170.33, 122.89 161, 130.67 161 C 138.44 161, 150.11 172.67, 154 175" fill="none" stroke="#555" stroke-width="1.60" stroke-dasharray="3 2.5" stroke-linecap="round" stroke-linejoin="round"/><circle cx="9" cy="175" r="2.60" fill="#2f9e44"/></g></g>
  <text x="105" y="291" font-size="3" fill="#bbb" text-anchor="middle">BrainForge Kids · 6772f425</text>
</svg>