<svg xmlns="http://www.w3.org/2000/svg" width="210mm" height="297mm" viewBox="0 0 210 297" font-family="system-ui, -apple-system, sans-serif">
  <rect width="210" height="297" fill="#fff"/>
  <text x="14" y="20" font-size="6.5" font-weight="600" fill="#111">Formavadászat</text>
  <text x="196" y="20" font-size="3.6" fill="#888" text-anchor="end">Zoé  ·  2026. jan. 1.</text>
  <text x="14" y="28" font-size="4.2" fill="#444">Keresd meg és karikázd be az összes olyan formát, mint a dobozban!</text>
  <line x1="14" y1="32" x2="196" y2="32" stroke="#e5e5e5" stroke-width="0.3"/>
  
  <g transform="translate(14.00 40.00) scale(1.1375)"><g ><rect x="1" y="1" width="30" height="16" fill="none" stroke="#111" stroke-width="0.60" rx="2.50"/><path d="M 16,2.75 L 17.65,6.73 L 21.94,7.07 L 18.67,9.87 L 19.67,14.06 L 16,11.81 L 12.33,14.06 L 13.33,9.87 L 10.06,7.07 L 14.35,6.73 Z" fill="none" stroke="#111" stroke-width="0.90" stroke-linejoin="round" stroke-linecap="round"/><text x="38" y="11.20" font-size="6.50" font-weight="700" fill="#111">× 9</text><path d="M 1 19.5 L 159 19.5" stroke="#e5e5e0" stroke-width="0.30" fill="none"/><circle cx="11" cy="29.06" r="3.37" fill="none" stroke="#111" stroke-width="0.90" stroke-linejoin="round" stroke-linecap="round"/><path d="M 5.57 30.25 Q 11 32.97 16.43 30.25 Q 11 27.53 5.57 30.25 Z" fill="none" stroke="#111" stroke-width="0.90" stroke-linejoin="round" stroke-linecap="round"/><path d="M 29.28 30.96 L 29.28 27.97 Q 32 23.35 34.72 27.97 L 34.72 30.96 Z" fill="none" stroke="#111" stroke-width="0.90" stroke-linejoin="round" stroke-linecap="round"/><path d="M 29.28 29.60 L 26.84 32.04 L 29.28 30.96 M 34.72 29.60 L 37.16 32.04 L 34.72 30.96" fill="none" stroke="#111" stroke-width="0.90" stroke-linejoin="round" stroke-linecap="round"/><circle cx="32" cy="28.24" r="1.09" fill="none" stroke="#111" stroke-width="0.90" stroke-linejoin="round" stroke-linecap="round"/><path d="M 48.28 34.96 L 48.28 31.97 Q 51 27.35 53.72 31.97 L 53.72 34.96 Z" fill="none" stroke="#111" stroke-width="0.90" stroke-linejoin="round" stroke-linecap="round"/><path d="M 48.28 33.60 L 45.84 36.04 L 48.28 34.96 M 53.72 33.60 L 56.16 36.04 L 53.72 34.96" fill="none" stroke="#111" stroke-width="0.90" stroke-linejoin="round" stroke-linecap="round"/><circle cx="51" cy="32.24" r="1.09" fill="none" stroke="#111" stroke-width="0.90" stroke-linejoin="round" stroke-linecap="round"/><circle cx="72" cy="29.06" r="3.37" fill="none" stroke="#111" stroke-width="0.90" stroke-linejoin="round" stroke-linecap="round"/><path d="M 66.57 30.25 Q 72 32.97 77.43 30.25 Q 72 27.53 66.57 30.25 Z" fill="none" stroke="#111" stroke-width="0.90" stroke-linejoin="round" stroke-linecap="round"/><path d="M 88.28 31.96 L 88.28 28.97 Q 91 24.35 93.72 28.97 L 93.72 31.96 Z" fill="none" stroke="#111" stroke-width="0.90" stroke-linejoin="round" stroke-linecap="round"/><path d="M 88.28 30.60 L 85.84 33.04 L 88.28 31.96 M 93.72 30.60 L 96.16 33.04 L 93.72 31.96" fill="none" stroke="#111" stroke-width="0.90" stroke-linejoin="round" stroke-linecap="round"/><circle cx="91" cy="29.24" r="1.09" fill="none" stroke="#111" stroke-width="0.90" stroke-linejoin="round" stroke-linecap="round"/><path d="M 105.28 32.96 L 105.28 29.97 Q 108 25.35 110.72 29.97 L 110.72 32.96 Z" fill="none" stroke="#111" stroke-width="0.90" stroke-linejoin="round" stroke-linecap="round"/><path d="M 105.28 31.60 L 102.84 34.04 L 105.28 32.96 M 110.72 31.60 L 113.16 34.04 L 110.72 32.96" fill="none" stroke="#111" stroke-width="0.90" stroke-linejoin="round" stroke-linecap="round"/><circle cx="108" cy="30.24" r="1.09" fill="none" stroke="#111" stroke-width="0.90" stroke-linejoin="round" stroke-linecap="round"/><circle cx="129" cy="31.06" r="3.37" fill="none" stroke="#111" stroke-width="0.90" stroke-linejoin="round" stroke-linecap="round"/><path d="M 123.57 32.25 Q 129 34.97 134.43 32.25 Q 129 29.53 123.57 32.25 Z" fill="none" stroke="#111" stroke-width="0.90" stroke-linejoin="round" stroke-linecap="round"/><circle cx="149" cy="31.06" r="3.37" fill="none" stroke="#111" stroke-width="0.90" stroke-linejoin="round" stroke-linecap="round"/><path d="M 143.57 32.25 Q 149 34.97 154.43 32.25 Q 149 29.53 143.57 32.25 Z" fill="none" stroke="#111" stroke-width="0.90" stroke-linejoin="round" stroke-linecap="round"/><path d="M 8.28 52.07 L 8.28 49.08 Q 11 44.46 13.72 49.08 L 13.72 52.07 Z" fill="none" stroke="#111" stroke-width="0.90" stroke-linejoin="round" stroke-linecap="round"/><path d="M 8.28 50.71 L 5.84 53.16 L 8.28 52.07 M 13.72 50.71 L 16.16 53.16 L 13.72 52.07" fill="none" stroke="#111" stroke-width="0.90" stroke-linejoin="round" stroke-linecap="round"/><circle cx="11" cy="49.35" r="1.09" fill="none" stroke="#111" stroke-width="0.90" stroke-linejoin="round" stroke-linecap="round"/><path d="M 30,44.73 L 31.44,48.19 L 35.17,48.49 L 32.33,50.92 L 33.19,54.56 L 30,52.61 L 26.81,54.56 L 27.67,50.92 L 24.83,48.49 L 28.56,48.19 Z" fill="none" stroke="#111" stroke-width="0.90" stroke-linejoin="round" stroke-linecap="round"/><path d="M 49,43.73 L 50.44,47.19 L 54.17,47.49 L 51.33,49.92 L 52.19,53.56 L 49,51.61 L 45.81,53.56 L 46.67,49.92 L 43.83,47.49 L 47.56,47.19 Z" fill="none" stroke="#111" stroke-width="0.90" stroke-linejoin="round" stroke-linecap="round"/><circle cx="69" cy="51.17" r="3.37" fill="none" stroke="#111" stroke-width="0.90" stroke-linejoin="round" stroke-linecap="round"/><path d="M 63.57 52.36 Q 69 55.08 74.43 52.36 Q 69 49.65 63.57 52.36 Z" fill="none" stroke="#111" stroke-width="0.90" stroke-linejoin="round" stroke-linecap="round"/><path d="M 87.28 50.07 L 87.28 47.08 Q 90 42.46 92.72 47.08 L 92.72 50.07 Z" fill="none" stroke="#111" stroke-width="0.90" stroke-linejoin="round" stroke-linecap="round"/><path d="M 87.28 48.71 L 84.84 51.16 L 87.28 50.07 M 92.72 48.71 L 95.16 51.16 L 92.72 50.07" fill="none" stroke="#111" stroke-width="0.90" stroke-linejoin="round" stroke-linecap="round"/><circle cx="90" cy="47.35" r="1.09" fill="none" stroke="#111" stroke-width="0.90" stroke-linejoin="round" stroke-linecap="round"/><path d="M 109.28 53.07 L 109.28 50.08 Q 112 45.46 114.72 50.08 L 114.72 53.07 Z" fill="none" stroke="#111" stroke-width="0.90" stroke-linejoin="round" stroke-linecap="round"/><path d="M 109.28 51.71 L 106.84 54.16 L 109.28 53.07 M 114.72 51.71 L 117.16 54.16 L 114.72 53.07" fill="none" stroke="#111" stroke-width="0.90" stroke-linejoin="round" stroke-linecap="round"/><circle cx="112" cy="50.35" r="1.09" fill="none" stroke="#111" stroke-width="0.90" stroke-linejoin="round" stroke-linecap="round"/><circle cx="130" cy="51.17" r="3.37" fill="none" stroke="#111" stroke-width="0.90" stroke-linejoin="round" stroke-linecap="round"/><path d="M 124.57 52.36 Q 130 55.08 135.43 52.36 Q 130 49.65 124.57 52.36 Z" fill="none" stroke="#111" stroke-width="0.90" stroke-linejoin="round" stroke-linecap="round"/><circle cx="149" cy="48.17" r="3.37" fill="none" stroke="#111" stroke-width="0.90" stroke-linejoin="round" stroke-linecap="round"/><path d="M 143.57 49.36 Q 149 52.08 154.43 49.36 Q 149 46.65 143.57 49.36 Z" fill="none" stroke="#111" stroke-width="0.90" stroke-linejoin="round" stroke-linecap="round"/><circle cx="10" cy="69.28" r="3.37" fill="none" stroke="#111" stroke-width="0.90" stroke-linejoin="round" stroke-linecap="round"/><path d="M 4.57 70.47 Q 10 73.19 15.43 70.47 Q 10 67.76 4.57 70.47 Z" fill="none" stroke="#111" stroke-width="0.90" stroke-linejoin="round" stroke-linecap="round"/><path d="M 26.28 71.18 L 26.28 68.19 Q 29 63.57 31.72 68.19 L 31.72 71.18 Z" fill="none" stroke="#111" stroke-width="0.90" stroke-linejoin="round" stroke-linecap="round"/><path d="M 26.28 69.82 L 23.84 72.27 L 26.28 71.18 M 31.72 69.82 L 34.16 72.27 L 31.72 71.18" fill="none" stroke="#111" stroke-width="0.90" stroke-linejoin="round" stroke-linecap="round"/><circle cx="29" cy="68.46" r="1.09" fill="none" stroke="#111" stroke-width="0.90" stroke-linejoin="round" stroke-linecap="round"/><circle cx="51" cy="65.28" r="3.37" fill="none" stroke="#111" stroke-width="0.90" stroke-linejoin="round" stroke-linecap="round"/><path d="M 45.57 66.47 Q 51 69.19 56.43 66.47 Q 51 63.76 45.57 66.47 Z" fill="none" stroke="#111" stroke-width="0.90" stroke-linejoin="round" stroke-linecap="round"/><circle cx="72" cy="69.28" r="3.37" fill="none" stroke="#111" stroke-width="0.90" stroke-linejoin="round" stroke-linecap="round"/><path d="M 66.57 70.47 Q 72 73.19 77.43 70.47 Q 72 67.76 66.57 70.47 Z" fill="none" stroke="#111" stroke-width="0.90" stroke-linejoin="round" stroke-linecap="round"/><path d="M 89.28 71.18 L 89.28 68.19 Q 92 63.57 94.72 68.19 L 94.72 71.18 Z" fill="none" stroke="#111" stroke-width="0.90" stroke-linejoin="round" stroke-linecap="round"/><path d="M 89.28 69.82 L 86.84 72.27 L 89.28 71.18 M 94.72 69.82 L 97.16 72.27 L 94.72 71.18" fill="none" stroke="#111" stroke-width="0.90" stroke-linejoin="round" stroke-linecap="round"/><circle cx="92" cy="68.46" r="1.09" fill="none" stroke="#111" stroke-width="0.90" stroke-linejoin="round" stroke-linecap="round"/><path d="M 109.28 70.18 L 109.28 67.19 Q 112 62.57 114.72 67.19 L 114.72 70.18 Z" fill="none" stroke="#111" stroke-width="0.90" stroke-linejoin="round" stroke-linecap="round"/><path d="M 109.28 68.82 L 106.84 71.27 L 109.28 70.18 M 114.72 68.82 L 117.16 71.27 L 114.72 70.18" fill="none" stroke="#111" stroke-width="0.90" stroke-linejoin="round" stroke-linecap="round"/><circle cx="112" cy="67.46" r="1.09" fill="none" stroke="#111" stroke-width="0.90" stroke-linejoin="round" stroke-linecap="round"/><circle cx="131" cy="67.28" r="3.37" fill="none" stroke="#111" stroke-width="0.90" stroke-linejoin="round" stroke-linecap="round"/><path d="M 125.57 68.47 Q 131 71.19 136.43 68.47 Q 131 65.76 125.57 68.47 Z" fill="none" stroke="#111" stroke-width="0.90" stroke-linejoin="round" stroke-linecap="round"/><path d="M 149.28 68.18 L 149.28 65.19 Q 152 60.57 154.72 65.19 L 154.72 68.18 Z" fill="none" stroke="#111" stroke-width="0.90" stroke-linejoin="round" stroke-linecap="round"/><path d="M 149.28 66.82 L 146.84 69.27 L 149.28 68.18 M 154.72 66.82 L 157.16 69.27 L 154.72 68.18" fill="none" stroke="#111" stroke-width="0.90" stroke-linejoin="round" stroke-linecap="round"/><circle cx="152" cy="65.46" r="1.09" fill="none" stroke="#111" stroke-width="0.90" stroke-linejoin="round" stroke-linecap="round"/><path d="M 9,80.96 L 10.44,84.41 L 14.17,84.71 L 11.33,87.14 L 12.19,90.78 L 9,88.83 L 5.81,90.78 L 6.67,87.14 L 3.83,84.71 L 7.56,84.41 Z" fill="none" stroke="#111" stroke-width="0.90" stroke-linejoin="round" stroke-linecap="round"/><path d="M 27.28 86.29 L 27.28 83.30 Q 30 78.68 32.72 83.30 L 32.72 86.29 Z" fill="none" stroke="#111" stroke-width="0.90" stroke-linejoin="round" stroke-linecap="round"/><path d="M 27.28 84.93 L 24.84 87.38 L 27.28 86.29 M 32.72 84.93 L 35.16 87.38 L 32.72 86.29" fill="none" stroke="#111" stroke-width="0.90" stroke-linejoin="round" stroke-linecap="round"/><circle cx="30" cy="83.57" r="1.09" fill="none" stroke="#111" stroke-width="0.90" stroke-linejoin="round" stroke-linecap="round"/><path d="M 50,77.96 L 51.44,81.41 L 55.17,81.71 L 52.33,84.14 L 53.19,87.78 L 50,85.83 L 46.81,87.78 L 47.67,84.14 L 44.83,81.71 L 48.56,81.41 Z" fill="none" stroke="#111" stroke-width="0.90" stroke-linejoin="round" stroke-linecap="round"/><circle cx="71" cy="86.39" r="3.37" fill="none" stroke="#111" stroke-width="0.90" stroke-linejoin="round" stroke-linecap="round"/><path d="M 65.57 87.58 Q 71 90.30 76.43 87.58 Q 71 84.87 65.57 87.58 Z" fill="none" stroke="#111" stroke-width="0.90" stroke-linejoin="round" stroke-linecap="round"/><circle cx="90" cy="84.39" r="3.37" fill="none" stroke="#111" stroke-width="0.90" stroke-linejoin="round" stroke-linecap="round"/><path d="M 84.57 85.58 Q 90 88.30 95.43 85.58 Q 90 82.87 84.57 85.58 Z" fill="none" stroke="#111" stroke-width="0.90" stroke-linejoin="round" stroke-linecap="round"/><path d="M 106.28 87.29 L 106.28 84.30 Q 109 79.68 111.72 84.30 L 111.72 87.29 Z" fill="none" stroke="#111" stroke-width="0.90" stroke-linejoin="round" stroke-linecap="round"/><path d="M 106.28 85.93 L 103.84 88.38 L 106.28 87.29 M 111.72 85.93 L 114.16 88.38 L 111.72 87.29" fill="none" stroke="#111" stroke-width="0.90" stroke-linejoin="round" stroke-linecap="round"/><circle cx="109" cy="84.57" r="1.09" fill="none" stroke="#111" stroke-width="0.90" stroke-linejoin="round" stroke-linecap="round"/><circle cx="131" cy="84.39" r="3.37" fill="none" stroke="#111" stroke-width="0.90" stroke-linejoin="round" stroke-linecap="round"/><path d="M 125.57 85.58 Q 131 88.30 136.43 85.58 Q 131 82.87 125.57 85.58 Z" fill="none" stroke="#111" stroke-width="0.90" stroke-linejoin="round" stroke-linecap="round"/><path d="M 151,81.96 L 152.44,85.41 L 156.17,85.71 L 153.33,88.14 L 154.19,91.78 L 151,89.83 L 147.81,91.78 L 148.67,88.14 L 145.83,85.71 L 149.56,85.41 Z" fill="none" stroke="#111" stroke-width="0.90" stroke-linejoin="round" stroke-linecap="round"/><path d="M 5.28 107.40 L 5.28 104.41 Q 8 99.80 10.72 104.41 L 10.72 107.40 Z" fill="none" stroke="#111" stroke-width="0.90" stroke-linejoin="round" stroke-linecap="round"/><path d="M 5.28 106.04 L 2.84 108.49 L 5.28 107.40 M 10.72 106.04 L 13.16 108.49 L 10.72 107.40" fill="none" stroke="#111" stroke-width="0.90" stroke-linejoin="round" stroke-linecap="round"/><circle cx="8" cy="104.69" r="1.09" fill="none" stroke="#111" stroke-width="0.90" stroke-linejoin="round" stroke-linecap="round"/><circle cx="30" cy="105.50" r="3.37" fill="none" stroke="#111" stroke-width="0.90" stroke-linejoin="round" stroke-linecap="round"/><path d="M 24.57 106.70 Q 30 109.41 35.43 106.70 Q 30 103.98 24.57 106.70 Z" fill="none" stroke="#111" stroke-width="0.90" stroke-linejoin="round" stroke-linecap="round"/><circle cx="48" cy="105.50" r="3.37" fill="none" stroke="#111" stroke-width="0.90" stroke-linejoin="round" stroke-linecap="round"/><path d="M 42.57 106.70 Q 48 109.41 53.43 106.70 Q 48 103.98 42.57 106.70 Z" fill="none" stroke="#111" stroke-width="0.90" stroke-linejoin="round" stroke-linecap="round"/><path d="M 70,98.07 L 71.44,101.52 L 75.17,101.82 L 72.33,104.26 L 73.19,107.90 L 70,105.94 L 66.81,107.90 L 67.67,104.26 L 64.83,101.82 L 68.56,101.52 Z" fill="none" stroke="#111" stroke-width="0.90" stroke-linejoin="round" stroke-linecap="round"/><path d="M 87.28 105.40 L 87.28 102.41 Q 90 97.80 92.72 102.41 L 92.72 105.40 Z" fill="none" stroke="#111" stroke-width="0.90" stroke-linejoin="round" stroke-linecap="round"/><path d="M 87.28 104.04 L 84.84 106.49 L 87.28 105.40 M 92.72 104.04 L 95.16 106.49 L 92.72 105.40" fill="none" stroke="#111" stroke-width="0.90" stroke-linejoin="round" stroke-linecap="round"/><circle cx="90" cy="102.69" r="1.09" fill="none" stroke="#111" stroke-width="0.90" stroke-linejoin="round" stroke-linecap="round"/><circle cx="110" cy="102.50" r="3.37" fill="none" stroke="#111" stroke-width="0.90" stroke-linejoin="round" stroke-linecap="round"/><path d="M 104.57 103.70 Q 110 106.41 115.43 103.70 Q 110 100.98 104.57 103.70 Z" fill="none" stroke="#111" stroke-width="0.90" stroke-linejoin="round" stroke-linecap="round"/><path d="M 125.28 103.40 L 125.28 100.41 Q 128 95.80 130.72 100.41 L 130.72 103.40 Z" fill="none" stroke="#111" stroke-width="0.90" stroke-linejoin="round" stroke-linecap="round"/><path d="M 125.28 102.04 L 122.84 104.49 L 125.28 103.40 M 130.72 102.04 L 133.16 104.49 L 130.72 103.40" fill="none" stroke="#111" stroke-width="0.90" stroke-linejoin="round" stroke-linecap="round"/><circle cx="128" cy="100.69" r="1.09" fill="none" stroke="#111" stroke-width="0.90" stroke-linejoin="round" stroke-linecap="round"/><path d="M 145.28 103.40 L 145.28 100.41 Q 148 95.80 150.72 100.41 L 150.72 103.40 Z" fill="none" stroke="#111" stroke-width="0.90" stroke-linejoin="round" stroke-linecap="round"/><path d="M 145.28 102.04 L 142.84 104.49 L 145.28 103.40 M 150.72 102.04 L 153.16 104.49 L 150.72 103.40" fill="none" stroke="#111" stroke-width="0.90" stroke-linejoin="round" stroke-linecap="round"/><circle cx="148" cy="100.69" r="1.09" fill="none" stroke="#111" stroke-width="0.90" stroke-linejoin="round" stroke-linecap="round"/><circle cx="10" cy="120.61" r="3.37" fill="none" stroke="#111" stroke-width="0.90" stroke-linejoin="round" stroke-linecap="round"/><path d="M 4.57 121.81 Q 10 124.52 15.43 121.81 Q 10 119.09 4.57 121.81 Z" fill="none" stroke="#111" stroke-width="0.90" stroke-linejoin="round" stroke-linecap="round"/><path d="M 25.28 121.51 L 25.28 118.52 Q 28 113.91 30.72 118.52 L 30.72 121.51 Z" fill="none" stroke="#111" stroke-width="0.90" stroke-linejoin="round" stroke-linecap="round"/><path d="M 25.28 120.15 L 22.84 122.60 L 25.28 121.51 M 30.72 120.15 L 33.16 122.60 L 30.72 121.51" fill="none" stroke="#111" stroke-width="0.90" stroke-linejoin="round" stroke-linecap="round"/><circle cx="28" cy="118.80" r="1.09" fill="none" stroke="#111" stroke-width="0.90" stroke-linejoin="round" stroke-linecap="round"/><circle cx="50" cy="121.61" r="3.37" fill="none" stroke="#111" stroke-width="0.90" stroke-linejoin="round" stroke-linecap="round"/><path d="M 44.57 122.81 Q 50 125.52 55.43 122.81 Q 50 120.09 44.57 122.81 Z" fill="none" stroke="#111" stroke-width="0.90" stroke-linejoin="round" stroke-linecap="round"/><path d="M 72,114.18 L 73.44,117.63 L 77.17,117.93 L 74.33,120.37 L 75.19,124.01 L 72,122.06 L 68.81,124.01 L 69.67,120.37 L 66.83,117.93 L 70.56,117.63 Z" fill="none" stroke="#111" stroke-width="0.90" stroke-linejoin="round" stroke-linecap="round"/><circle cx="90" cy="121.61" r="3.37" fill="none" stroke="#111" stroke-width="0.90" stroke-linejoin="round" stroke-linecap="round"/><path d="M 84.57 122.81 Q 90 125.52 95.43 122.81 Q 90 120.09 84.57 122.81 Z" fill="none" stroke="#111" stroke-width="0.90" stroke-linejoin="round" stroke-linecap="round"/><circle cx="110" cy="119.61" r="3.37" fill="none" stroke="#111" stroke-width="0.90" stroke-linejoin="round" stroke-linecap="round"/><path d="M 104.57 120.81 Q 110 123.52 115.43 120.81 Q 110 118.09 104.57 120.81 Z" fill="none" stroke="#111" stroke-width="0.90" stroke-linejoin="round" stroke-linecap="round"/><path d="M 127.28 123.51 L 127.28 120.52 Q 130 115.91 132.72 120.52 L 132.72 123.51 Z" fill="none" stroke="#111" stroke-width="0.90" stroke-linejoin="round" stroke-linecap="round"/><path d="M 127.28 122.15 L 124.84 124.60 L 127.28 123.51 M 132.72 122.15 L 135.16 124.60 L 132.72 123.51" fill="none" stroke="#111" stroke-width="0.90" stroke-linejoin="round" stroke-linecap="round"/><circle cx="130" cy="120.80" r="1.09" fill="none" stroke="#111" stroke-width="0.90" stroke-linejoin="round" stroke-linecap="round"/><circle cx="149" cy="123.61" r="3.37" fill="none" stroke="#111" stroke-width="0.90" stroke-linejoin="round" stroke-linecap="round"/><path d="M 143.57 124.81 Q 149 127.52 154.43 124.81 Q 149 122.09 143.57 124.81 Z" fill="none" stroke="#111" stroke-width="0.90" stroke-linejoin="round" stroke-linecap="round"/><circle cx="10" cy="140.72" r="3.37" fill="none" stroke="#111" stroke-width="0.90" stroke-linejoin="round" stroke-linecap="round"/><path d="M 4.57 141.92 Q 10 144.63 15.43 141.92 Q 10 139.20 4.57 141.92 Z" fill="none" stroke="#111" stroke-width="0.90" stroke-linejoin="round" stroke-linecap="round"/><path d="M 28.28 141.62 L 28.28 138.64 Q 31 134.02 33.72 138.64 L 33.72 141.62 Z" fill="none" stroke="#111" stroke-width="0.90" stroke-linejoin="round" stroke-linecap="round"/><path d="M 28.28 140.27 L 25.84 142.71 L 28.28 141.62 M 33.72 140.27 L 36.16 142.71 L 33.72 141.62" fill="none" stroke="#111" stroke-width="0.90" stroke-linejoin="round" stroke-linecap="round"/><circle cx="31" cy="138.91" r="1.09" fill="none" stroke="#111" stroke-width="0.90" stroke-linejoin="round" stroke-linecap="round"/><path d="M 45.28 142.62 L 45.28 139.64 Q 48 135.02 50.72 139.64 L 50.72 142.62 Z" fill="none" stroke="#111" stroke-width="0.90" stroke-linejoin="round" stroke-linecap="round"/><path d="M 45.28 141.27 L 42.84 143.71 L 45.28 142.62 M 50.72 141.27 L 53.16 143.71 L 50.72 142.62" fill="none" stroke="#111" stroke-width="0.90" stroke-linejoin="round" stroke-linecap="round"/><circle cx="48" cy="139.91" r="1.09" fill="none" stroke="#111" stroke-width="0.90" stroke-linejoin="round" stroke-linecap="round"/><circle cx="72" cy="137.72" r="3.37" fill="none" stroke="#111" stroke-width="0.90" stroke-linejoin="round" stroke-linecap="round"/><path d="M 66.57 138.92 Q 72 141.63 77.43 138.92 Q 72 136.20 66.57 138.92 Z" fill="none" stroke="#111" stroke-width="0.90" stroke-linejoin="round" stroke-linecap="round"/><circle cx="88" cy="137.72" r="3.37" fill="none" stroke="#111" stroke-width="0.90" stroke-linejoin="round" stroke-linecap="round"/><path d="M 82.57 138.92 Q 88 141.63 93.43 138.92 Q 88 136.20 82.57 138.92 Z" fill="none" stroke="#111" stroke-width="0.90" stroke-linejoin="round" stroke-linecap="round"/><circle cx="109" cy="139.72" r="3.37" fill="none" stroke="#111" stroke-width="0.90" stroke-linejoin="round" stroke-linecap="round"/><path d="M 103.57 140.92 Q 109 143.63 114.43 140.92 Q 109 138.20 103.57 140.92 Z" fill="none" stroke="#111" stroke-width="0.90" stroke-linejoin="round" stroke-linecap="round"/><path d="M 129.28 141.62 L 129.28 138.64 Q 132 134.02 134.72 138.64 L 134.72 141.62 Z" fill="none" stroke="#111" stroke-width="0.90" stroke-linejoin="round" stroke-linecap="round"/><path d="M 129.28 140.27 L 126.84 142.71 L 129.28 141.62 M 134.72 140.27 L 137.16 142.71 L 134.72 141.62" fill="none" stroke="#111" stroke-width="0.90" stroke-linejoin="round" stroke-linecap="round"/><circle cx="132" cy="138.91" r="1.09" fill="none" stroke="#111" stroke-width="0.90" stroke-linejoin="round" stroke-linecap="round"/><path d="M 148.28 142.62 L 148.28 139.64 Q 151 135.02 153.72 139.64 L 153.72 142.62 Z" fill="none" stroke="#111" stroke-width="0.90" stroke-linejoin="round" stroke-linecap="round"/><path d="M 148.28 141.27 L 145.84 143.71 L 148.28 142.62 M 153.72 141.27 L 156.16 143.71 L 153.72 142.62" fill="none" stroke="#111" stroke-width="0.90" stroke-linejoin="round" stroke-linecap="round"/><circle cx="151" cy="139.91" r="1.09" fill="none" stroke="#111" stroke-width="0.90" stroke-linejoin="round" stroke-linecap="round"/><path d="M 5.28 161.73 L 5.28 158.75 Q 8 154.13 10.72 158.75 L 10.72 161.73 Z" fill="none" stroke="#111" stroke-width="0.90" stroke-linejoin="round" stroke-linecap="round"/><path d="M 5.28 160.38 L 2.84 162.82 L 5.28 161.73 M 10.72 160.38 L 13.16 162.82 L 10.72 161.73" fill="none" stroke="#111" stroke-width="0.90" stroke-linejoin="round" stroke-linecap="round"/><circle cx="8" cy="159.02" r="1.09" fill="none" stroke="#111" stroke-width="0.90" stroke-linejoin="round" stroke-linecap="round"/><circle cx="29" cy="158.83" r="3.37" fill="none" stroke="#111" stroke-width="0.90" stroke-linejoin="round" stroke-linecap="round"/><path d="M 23.57 160.03 Q 29 162.75 34.43 160.03 Q 29 157.31 23.57 160.03 Z" fill="none" stroke="#111" stroke-width="0.90" stroke-linejoin="round" stroke-linecap="round"/><path d="M 45.28 159.73 L 45.28 156.75 Q 48 152.13 50.72 156.75 L 50.72 159.73 Z" fill="none" stroke="#111" stroke-width="0.90" stroke-linejoin="round" stroke-linecap="round"/><path d="M 45.28 158.38 L 42.84 160.82 L 45.28 159.73 M 50.72 158.38 L 53.16 160.82 L 50.72 159.73" fill="none" stroke="#111" stroke-width="0.90" stroke-linejoin="round" stroke-linecap="round"/><circle cx="48" cy="157.02" r="1.09" fill="none" stroke="#111" stroke-width="0.90" stroke-linejoin="round" stroke-linecap="round"/><path d="M 66.28 161.73 L 66.28 158.75 Q 69 154.13 71.72 158.75 L 71.72 161.73 Z" fill="none" stroke="#111" stroke-width="0.90" stroke-linejoin="round" stroke-linecap="round"/><path d="M 66.28 160.38 L 63.84 162.82 L 66.28 161.73 M 71.72 160.38 L 74.16 162.82 L 71.72 161.73" fill="none" stroke="#111" stroke-width="0.90" stroke-linejoin="round" stroke-linecap="round"/><circle cx="69" cy="159.02" r="1.09" fill="none" stroke="#111" stroke-width="0.90" stroke-linejoin="round" stroke-linecap="round"/><circle cx="89" cy="156.83" r="3.37" fill="none" stroke="#111" stroke-width="0.90" stroke-linejoin="round" stroke-linecap="round"/><path d="M 83.57 158.03 Q 89 160.75 94.43 158.03 Q 89 155.31 83.57 158.03 Z" fill="none" stroke="#111" stroke-width="0.90" stroke-linejoin="round" stroke-linecap="round"/><path d="M 109.28 161.73 L 109.28 158.75 Q 112 154.13 114.72 158.75 L 114.72 161.73 Z" fill="none" stroke="#111" stroke-width="0.90" stroke-linejoin="round" stroke-linecap="round"/><path d="M 109.28 160.38 L 106.84 162.82 L 109.28 161.73 M 114.72 160.38 L 117.16 162.82 L 114.72 161.73" fill="none" stroke="#111" stroke-width="0.90" stroke-linejoin="round" stroke-linecap="round"/><circle cx="112" cy="159.02" r="1.09" fill="none" stroke="#111" stroke-width="0.90" stroke-linejoin="round" stroke-linecap="round"/><circle cx="129" cy="156.83" r="3.37" fill="none" stroke="#111" stroke-width="0.90" stroke-linejoin="round" stroke-linecap="round"/><path d="M 123.57 158.03 Q 129 160.75 134.43 158.03 Q 129 155.31 123.57 158.03 Z" fill="none" stroke="#111" stroke-width="0.90" stroke-linejoin="round" stroke-linecap="round"/><path d="M 149,153.40 L 150.44,156.86 L 154.17,157.15 L 151.33,159.59 L 152.19,163.23 L 149,161.28 L 145.81,163.23 L 146.67,159.59 L 143.83,157.15 L 147.56,156.86 Z" fill="none" stroke="#111" stroke-width="0.90" stroke-linejoin="round" stroke-linecap="round"/><path d="M 9,171.51 L 10.44,174.97 L 14.17,175.27 L 11.33,177.70 L 12.19,181.34 L 9,179.39 L 5.81,181.34 L 6.67,177.70 L 3.83,175.27 L 7.56,174.97 Z" fill="none" stroke="#111" stroke-width="0.90" stroke-linejoin="round" stroke-linecap="round"/><circle cx="30" cy="174.94" r="3.37" fill="none" stroke="#111" stroke-width="0.90" stroke-linejoin="round" stroke-linecap="round"/><path d="M 24.57 176.14 Q 30 178.86 35.43 176.14 Q 30 173.42 24.57 176.14 Z" fill="none" stroke="#111" stroke-width="0.90" stroke-linejoin="round" stroke-linecap="round"/><path d="M 49.28 179.85 L 49.28 176.86 Q 52 172.24 54.72 176.86 L 54.72 179.85 Z" fill="none" stroke="#111" stroke-width="0.90" stroke-linejoin="round" stroke-linecap="round"/><path d="M 49.28 178.49 L 46.84 180.93 L 49.28 179.85 M 54.72 178.49 L 57.16 180.93 L 54.72 179.85" fill="none" stroke="#111" stroke-width="0.90" stroke-linejoin="round" stroke-linecap="round"/><circle cx="52" cy="177.13" r="1.09" fill="none" stroke="#111" stroke-width="0.90" stroke-linejoin="round" stroke-linecap="round"/><path d="M 69.28 178.85 L 69.28 175.86 Q 72 171.24 74.72 175.86 L 74.72 178.85 Z" fill="none" stroke="#111" stroke-width="0.90" stroke-linejoin="round" stroke-linecap="round"/><path d="M 69.28 177.49 L 66.84 179.93 L 69.28 178.85 M 74.72 177.49 L 77.16 179.93 L 74.72 178.85" fill="none" stroke="#111" stroke-width="0.90" stroke-linejoin="round" stroke-linecap="round"/><circle cx="72" cy="176.13" r="1.09" fill="none" stroke="#111" stroke-width="0.90" stroke-linejoin="round" stroke-linecap="round"/><path d="M 85.28 177.85 L 85.28 174.86 Q 88 170.24 90.72 174.86 L 90.72 177.85 Z" fill="none" stroke="#111" stroke-width="0.90" stroke-linejoin="round" stroke-linecap="round"/><path d="M 85.28 176.49 L 82.84 178.93 L 85.28 177.85 M 90.72 176.49 L 93.16 178.93 L 90.72 177.85" fill="none" stroke="#111" stroke-width="0.90" stroke-linejoin="round" stroke-linecap="round"/><circle cx="88" cy="175.13" r="1.09" fill="none" stroke="#111" stroke-width="0.90" stroke-linejoin="round" stroke-linecap="round"/><path d="M 107.28 179.85 L 107.28 176.86 Q 110 172.24 112.72 176.86 L 112.72 179.85 Z" fill="none" stroke="#111" stroke-width="0.90" stroke-linejoin="round" stroke-linecap="round"/><path d="M 107.28 178.49 L 104.84 180.93 L 107.28 179.85 M 112.72 178.49 L 115.16 180.93 L 112.72 179.85" fill="none" stroke="#111" stroke-width="0.90" stroke-linejoin="round" stroke-linecap="round"/><circle cx="110" cy="177.13" r="1.09" fill="none" stroke="#111" stroke-width="0.90" stroke-linejoin="round" stroke-linecap="round"/><path d="M 128.28 179.85 L 128.28 176.86 Q 131 172.24 133.72 176.86 L 133.72 179.85 Z" fill="none" stroke="#111" stroke-width="0.90" stroke-linejoin="round" stroke-linecap="round"/><path d="M 128.28 178.49 L 125.84 180.93 L 128.28 179.85 M 133.72 178.49 L 136.16 180.93 L 133.72 179.85" fill="none" stroke="#111" stroke-width="0.90" stroke-linejoin="round" stroke-linecap="round"/><circle cx="131" cy="177.13" r="1.09" fill="none" stroke="#111" stroke-width="0.90" stroke-linejoin="round" stroke-linecap="round"/><circle cx="148" cy="175.94" r="3.37" fill="none" stroke="#111" stroke-width="0.90" stroke-linejoin="round" stroke-linecap="round"/><path d="M 142.57 177.14 Q 148 179.86 153.43 177.14 Q 148 174.42 142.57 177.14 Z" fill="none" stroke="#111" stroke-width="0.90" stroke-linejoin="round" stroke-linecap="round"/></g></g>
  <text x="105" y="291" font-size="3" fill="#bbb" text-anchor="middle">Kalmo Kids · demo-vis</text>
</svg>