<svg xmlns="http://www.w3.org/2000/svg" width="210mm" height="297mm" viewBox="0 0 210 297" font-family="system-ui, -apple-system, sans-serif">
  <rect width="210" height="297" fill="#fff"/>
  <text x="14" y="20" font-size="6.5" font-weight="600" fill="#111">Formavadászat</text>
  <text x="196" y="20" font-size="3.6" fill="#888" text-anchor="end">Zoé  ·  2026. jan. 1.</text>
  <text x="14" y="28" font-size="4.2" fill="#444">Keresd meg és karikázd be az összes olyan formát, mint a dobozban!</text>
  <line x1="14" y1="32" x2="196" y2="32" stroke="#e5e5e5" stroke-width="0.3"/>
  <text x="196" y="28" font-size="4" fill="#d33" text-anchor="end">Megoldókulcs</text>
  <g transform="translate(14.00 40.00) scale(1.1375)"><g ><rect x="1" y="1" width="30" height="16" fill="none" stroke="#111" stroke-width="0.60" rx="2.50"/><path d="M 16 2.751666666666668 L 22.24833333333333 13.998666666666665 L 9.751666666666669 13.998666666666665 Z" fill="none" stroke="#111" stroke-width="0.90" stroke-linejoin="round" stroke-linecap="round"/><text x="38" y="11.20" font-size="6.50" font-weight="700" fill="#111">× 9</text><path d="M 1 19.5 L 159 19.5" stroke="#e5e5e0" stroke-width="0.30" fill="none"/><path d="M 5.566666666666667 29.055555555555557 L 15.346666666666668 23.622222222222224 L 15.346666666666668 34.48888888888889 Z" fill="none" stroke="#111" stroke-width="0.90" stroke-linejoin="round" stroke-linecap="round"/><path d="M 32 34.48888888888889 L 37.43333333333333 24.70888888888889 L 26.566666666666666 24.70888888888889 Z" fill="none" stroke="#111" stroke-width="0.90" stroke-linejoin="round" stroke-linecap="round"/><path d="M 51 38.48888888888889 L 56.43333333333333 28.70888888888889 L 45.56666666666667 28.70888888888889 Z" fill="none" stroke="#111" stroke-width="0.90" stroke-linejoin="round" stroke-linecap="round"/><path d="M 66.56666666666666 29.055555555555557 L 76.34666666666666 23.622222222222224 L 76.34666666666666 34.48888888888889 Z" fill="none" stroke="#111" stroke-width="0.90" stroke-linejoin="round" stroke-linecap="round"/><path d="M 91 35.48888888888889 L 96.43333333333334 25.70888888888889 L 85.56666666666666 25.70888888888889 Z" fill="none" stroke="#111" stroke-width="0.90" stroke-linejoin="round" stroke-linecap="round"/><path d="M 108 36.48888888888889 L 113.43333333333334 26.70888888888889 L 102.56666666666666 26.70888888888889 Z" fill="none" stroke="#111" stroke-width="0.90" stroke-linejoin="round" stroke-linecap="round"/><path d="M 123.56666666666666 31.055555555555557 L 133.34666666666666 25.622222222222224 L 133.34666666666666 36.48888888888889 Z" fill="none" stroke="#111" stroke-width="0.90" stroke-linejoin="round" stroke-linecap="round"/><path d="M 143.56666666666666 31.055555555555557 L 153.34666666666666 25.622222222222224 L 153.34666666666666 36.48888888888889 Z" fill="none" stroke="#111" stroke-width="0.90" stroke-linejoin="round" stroke-linecap="round"/><path d="M 11 55.6 L 16.433333333333334 45.82000000000001 L 5.566666666666667 45.82000000000001 Z" fill="none" stroke="#111" stroke-width="0.90" stroke-linejoin="round" stroke-linecap="round"/><path d="M 30 44.73333333333334 L 35.43333333333333 54.513333333333335 L 24.566666666666666 54.513333333333335 Z" fill="none" stroke="#111" stroke-width="0.90" stroke-linejoin="round" stroke-linecap="round"/><path d="M 49 43.73333333333334 L 54.43333333333333 53.513333333333335 L 43.56666666666667 53.513333333333335 Z" fill="none" stroke="#111" stroke-width="0.90" stroke-linejoin="round" stroke-linecap="round"/><path d="M 63.56666666666667 51.16666666666667 L 73.34666666666666 45.73333333333334 L 73.34666666666666 56.6 Z" fill="none" stroke="#111" stroke-width="0.90" stroke-linejoin="round" stroke-linecap="round"/><path d="M 90 53.6 L 95.43333333333334 43.82000000000001 L 84.56666666666666 43.82000000000001 Z" fill="none" stroke="#111" stroke-width="0.90" stroke-linejoin="round" stroke-linecap="round"/><path d="M 112 56.6 L 117.43333333333334 46.82000000000001 L 106.56666666666666 46.82000000000001 Z" fill="none" stroke="#111" stroke-width="0.90" stroke-linejoin="round" stroke-linecap="round"/><path d="M 130 45.73333333333334 L 135.43333333333334 55.513333333333335 L 124.56666666666666 55.513333333333335 Z" fill="none" stroke="#111" stroke-width="0.90" stroke-linejoin="round" stroke-linecap="round"/><path d="M 143.56666666666666 48.16666666666667 L 153.34666666666666 42.73333333333334 L 153.34666666666666 53.6 Z" fill="none" stroke="#111" stroke-width="0.90" stroke-linejoin="round" stroke-linecap="round"/><path d="M 4.566666666666667 69.27777777777777 L 14.346666666666668 63.84444444444444 L 14.346666666666668 74.71111111111111 Z" fill="none" stroke="#111" stroke-width="0.90" stroke-linejoin="round" stroke-linecap="round"/><path d="M 29 63.84444444444444 L 34.43333333333333 73.62444444444444 L 23.566666666666666 73.62444444444444 Z" fill="none" stroke="#111" stroke-width="0.90" stroke-linejoin="round" stroke-linecap="round"/><path d="M 45.56666666666667 65.27777777777777 L 55.346666666666664 59.84444444444444 L 55.346666666666664 70.71111111111111 Z" fill="none" stroke="#111" stroke-width="0.90" stroke-linejoin="round" stroke-linecap="round"/><path d="M 66.56666666666666 69.27777777777777 L 76.34666666666666 63.84444444444444 L 76.34666666666666 74.71111111111111 Z" fill="none" stroke="#111" stroke-width="0.90" stroke-linejoin="round" stroke-linecap="round"/><path d="M 92 74.71111111111111 L 97.43333333333334 64.93111111111111 L 86.56666666666666 64.93111111111111 Z" fill="none" stroke="#111" stroke-width="0.90" stroke-linejoin="round" stroke-linecap="round"/><path d="M 112 73.71111111111111 L 117.43333333333334 63.93111111111111 L 106.56666666666666 63.93111111111111 Z" fill="none" stroke="#111" stroke-width="0.90" stroke-linejoin="round" stroke-linecap="round"/><path d="M 131 61.84444444444444 L 136.43333333333334 71.62444444444444 L 125.56666666666666 71.62444444444444 Z" fill="none" stroke="#111" stroke-width="0.90" stroke-linejoin="round" stroke-linecap="round"/><path d="M 152 71.71111111111111 L 157.43333333333334 61.93111111111111 L 146.56666666666666 61.93111111111111 Z" fill="none" stroke="#111" stroke-width="0.90" stroke-linejoin="round" stroke-linecap="round"/><path d="M 9 91.82222222222222 L 14.433333333333334 82.04222222222222 L 3.5666666666666673 82.04222222222222 Z" fill="none" stroke="#111" stroke-width="0.90" stroke-linejoin="round" stroke-linecap="round"/><path d="M 30 89.82222222222222 L 35.43333333333333 80.04222222222222 L 24.566666666666666 80.04222222222222 Z" fill="none" stroke="#111" stroke-width="0.90" stroke-linejoin="round" stroke-linecap="round"/><path d="M 44.56666666666667 83.38888888888889 L 54.346666666666664 77.95555555555555 L 54.346666666666664 88.82222222222222 Z" fill="none" stroke="#111" stroke-width="0.90" stroke-linejoin="round" stroke-linecap="round"/><path d="M 65.56666666666666 86.38888888888889 L 75.34666666666666 80.95555555555555 L 75.34666666666666 91.82222222222222 Z" fill="none" stroke="#111" stroke-width="0.90" stroke-linejoin="round" stroke-linecap="round"/><path d="M 84.56666666666666 84.38888888888889 L 94.34666666666666 78.95555555555555 L 94.34666666666666 89.82222222222222 Z" fill="none" stroke="#111" stroke-width="0.90" stroke-linejoin="round" stroke-linecap="round"/><path d="M 109 90.82222222222222 L 114.43333333333334 81.04222222222222 L 103.56666666666666 81.04222222222222 Z" fill="none" stroke="#111" stroke-width="0.90" stroke-linejoin="round" stroke-linecap="round"/><path d="M 125.56666666666666 84.38888888888889 L 135.34666666666666 78.95555555555555 L 135.34666666666666 89.82222222222222 Z" fill="none" stroke="#111" stroke-width="0.90" stroke-linejoin="round" stroke-linecap="round"/><path d="M 145.56666666666666 87.38888888888889 L 155.34666666666666 81.95555555555555 L 155.34666666666666 92.82222222222222 Z" fill="none" stroke="#111" stroke-width="0.90" stroke-linejoin="round" stroke-linecap="round"/><path d="M 8 110.93333333333334 L 13.433333333333334 101.15333333333334 L 2.5666666666666673 101.15333333333334 Z" fill="none" stroke="#111" stroke-width="0.90" stroke-linejoin="round" stroke-linecap="round"/><path d="M 24.566666666666666 105.5 L 34.346666666666664 100.06666666666666 L 34.346666666666664 110.93333333333334 Z" fill="none" stroke="#111" stroke-width="0.90" stroke-linejoin="round" stroke-linecap="round"/><path d="M 42.56666666666667 105.5 L 52.346666666666664 100.06666666666666 L 52.346666666666664 110.93333333333334 Z" fill="none" stroke="#111" stroke-width="0.90" stroke-linejoin="round" stroke-linecap="round"/><path d="M 70 108.93333333333334 L 75.43333333333334 99.15333333333334 L 64.56666666666666 99.15333333333334 Z" fill="none" stroke="#111" stroke-width="0.90" stroke-linejoin="round" stroke-linecap="round"/><path d="M 90 108.93333333333334 L 95.43333333333334 99.15333333333334 L 84.56666666666666 99.15333333333334 Z" fill="none" stroke="#111" stroke-width="0.90" stroke-linejoin="round" stroke-linecap="round"/><path d="M 104.56666666666666 102.5 L 114.34666666666666 97.06666666666666 L 114.34666666666666 107.93333333333334 Z" fill="none" stroke="#111" stroke-width="0.90" stroke-linejoin="round" stroke-linecap="round"/><path d="M 128 106.93333333333334 L 133.43333333333334 97.15333333333334 L 122.56666666666666 97.15333333333334 Z" fill="none" stroke="#111" stroke-width="0.90" stroke-linejoin="round" stroke-linecap="round"/><path d="M 148 106.93333333333334 L 153.43333333333334 97.15333333333334 L 142.56666666666666 97.15333333333334 Z" fill="none" stroke="#111" stroke-width="0.90" stroke-linejoin="round" stroke-linecap="round"/><path d="M 4.566666666666667 120.61111111111111 L 14.346666666666668 115.17777777777778 L 14.346666666666668 126.04444444444445 Z" fill="none" stroke="#111" stroke-width="0.90" stroke-linejoin="round" stroke-linecap="round"/><path d="M 28 125.04444444444445 L 33.43333333333333 115.26444444444445 L 22.566666666666666 115.26444444444445 Z" fill="none" stroke="#111" stroke-width="0.90" stroke-linejoin="round" stroke-linecap="round"/><path d="M 44.56666666666667 121.61111111111111 L 54.346666666666664 116.17777777777778 L 54.346666666666664 127.04444444444445 Z" fill="none" stroke="#111" stroke-width="0.90" stroke-linejoin="round" stroke-linecap="round"/><path d="M 72 125.04444444444445 L 77.43333333333334 115.26444444444445 L 66.56666666666666 115.26444444444445 Z" fill="none" stroke="#111" stroke-width="0.90" stroke-linejoin="round" stroke-linecap="round"/><path d="M 84.56666666666666 121.61111111111111 L 94.34666666666666 116.17777777777778 L 94.34666666666666 127.04444444444445 Z" fill="none" stroke="#111" stroke-width="0.90" stroke-linejoin="round" stroke-linecap="round"/><path d="M 104.56666666666666 119.61111111111111 L 114.34666666666666 114.17777777777778 L 114.34666666666666 125.04444444444445 Z" fill="none" stroke="#111" stroke-width="0.90" stroke-linejoin="round" stroke-linecap="round"/><path d="M 130 127.04444444444445 L 135.43333333333334 117.26444444444445 L 124.56666666666666 117.26444444444445 Z" fill="none" stroke="#111" stroke-width="0.90" stroke-linejoin="round" stroke-linecap="round"/><path d="M 143.56666666666666 123.61111111111111 L 153.34666666666666 118.17777777777778 L 153.34666666666666 129.04444444444445 Z" fill="none" stroke="#111" stroke-width="0.90" stroke-linejoin="round" stroke-linecap="round"/><path d="M 4.566666666666667 140.7222222222222 L 14.346666666666668 135.28888888888886 L 14.346666666666668 146.15555555555554 Z" fill="none" stroke="#111" stroke-width="0.90" stroke-linejoin="round" stroke-linecap="round"/><path d="M 31 145.15555555555554 L 36.43333333333333 135.37555555555554 L 25.566666666666666 135.37555555555554 Z" fill="none" stroke="#111" stroke-width="0.90" stroke-linejoin="round" stroke-linecap="round"/><path d="M 48 146.15555555555554 L 53.43333333333333 136.37555555555554 L 42.56666666666667 136.37555555555554 Z" fill="none" stroke="#111" stroke-width="0.90" stroke-linejoin="round" stroke-linecap="round"/><path d="M 66.56666666666666 137.7222222222222 L 76.34666666666666 132.28888888888886 L 76.34666666666666 143.15555555555554 Z" fill="none" stroke="#111" stroke-width="0.90" stroke-linejoin="round" stroke-linecap="round"/><path d="M 82.56666666666666 137.7222222222222 L 92.34666666666666 132.28888888888886 L 92.34666666666666 143.15555555555554 Z" fill="none" stroke="#111" stroke-width="0.90" stroke-linejoin="round" stroke-linecap="round"/><path d="M 109 134.28888888888886 L 114.43333333333334 144.06888888888886 L 103.56666666666666 144.06888888888886 Z" fill="none" stroke="#111" stroke-width="0.90" stroke-linejoin="round" stroke-linecap="round"/><path d="M 132 145.15555555555554 L 137.43333333333334 135.37555555555554 L 126.56666666666666 135.37555555555554 Z" fill="none" stroke="#111" stroke-width="0.90" stroke-linejoin="round" stroke-linecap="round"/><path d="M 151 146.15555555555554 L 156.43333333333334 136.37555555555554 L 145.56666666666666 136.37555555555554 Z" fill="none" stroke="#111" stroke-width="0.90" stroke-linejoin="round" stroke-linecap="round"/><path d="M 8 165.26666666666665 L 13.433333333333334 155.48666666666665 L 2.5666666666666673 155.48666666666665 Z" fill="none" stroke="#111" stroke-width="0.90" stroke-linejoin="round" stroke-linecap="round"/><path d="M 23.566666666666666 158.83333333333331 L 33.346666666666664 153.39999999999998 L 33.346666666666664 164.26666666666665 Z" fill="none" stroke="#111" stroke-width="0.90" stroke-linejoin="round" stroke-linecap="round"/><path d="M 48 152.39999999999998 L 53.43333333333333 162.17999999999998 L 42.56666666666667 162.17999999999998 Z" fill="none" stroke="#111" stroke-width="0.90" stroke-linejoin="round" stroke-linecap="round"/><path d="M 69 165.26666666666665 L 74.43333333333334 155.48666666666665 L 63.56666666666667 155.48666666666665 Z" fill="none" stroke="#111" stroke-width="0.90" stroke-linejoin="round" stroke-linecap="round"/><path d="M 83.56666666666666 156.83333333333331 L 93.34666666666666 151.39999999999998 L 93.34666666666666 162.26666666666665 Z" fill="none" stroke="#111" stroke-width="0.90" stroke-linejoin="round" stroke-linecap="round"/><path d="M 112 165.26666666666665 L 117.43333333333334 155.48666666666665 L 106.56666666666666 155.48666666666665 Z" fill="none" stroke="#111" stroke-width="0.90" stroke-linejoin="round" stroke-linecap="round"/><path d="M 129 151.39999999999998 L 134.43333333333334 161.17999999999998 L 123.56666666666666 161.17999999999998 Z" fill="none" stroke="#111" stroke-width="0.90" stroke-linejoin="round" stroke-linecap="round"/><path d="M 149 164.26666666666665 L 154.43333333333334 154.48666666666665 L 143.56666666666666 154.48666666666665 Z" fill="none" stroke="#111" stroke-width="0.90" stroke-linejoin="round" stroke-linecap="round"/><path d="M 9 171.5111111111111 L 14.433333333333334 181.2911111111111 L 3.5666666666666673 181.2911111111111 Z" fill="none" stroke="#111" stroke-width="0.90" stroke-linejoin="round" stroke-linecap="round"/><path d="M 24.566666666666666 174.94444444444443 L 34.346666666666664 169.5111111111111 L 34.346666666666664 180.37777777777777 Z" fill="none" stroke="#111" stroke-width="0.90" stroke-linejoin="round" stroke-linecap="round"/><path d="M 52 183.37777777777777 L 57.43333333333333 173.59777777777776 L 46.56666666666667 173.59777777777776 Z" fill="none" stroke="#111" stroke-width="0.90" stroke-linejoin="round" stroke-linecap="round"/><path d="M 72 182.37777777777777 L 77.43333333333334 172.59777777777776 L 66.56666666666666 172.59777777777776 Z" fill="none" stroke="#111" stroke-width="0.90" stroke-linejoin="round" stroke-linecap="round"/><path d="M 88 181.37777777777777 L 93.43333333333334 171.59777777777776 L 82.56666666666666 171.59777777777776 Z" fill="none" stroke="#111" stroke-width="0.90" stroke-linejoin="round" stroke-linecap="round"/><path d="M 110 183.37777777777777 L 115.43333333333334 173.59777777777776 L 104.56666666666666 173.59777777777776 Z" fill="none" stroke="#111" stroke-width="0.90" stroke-linejoin="round" stroke-linecap="round"/><path d="M 131 183.37777777777777 L 136.43333333333334 173.59777777777776 L 125.56666666666666 173.59777777777776 Z" fill="none" stroke="#111" stroke-width="0.90" stroke-linejoin="round" stroke-linecap="round"/><path d="M 142.56666666666666 175.94444444444443 L 152.34666666666666 170.5111111111111 L 152.34666666666666 181.37777777777777 Z" fill="none" stroke="#111" stroke-width="0.90" stroke-linejoin="round" stroke-linecap="round"/><circle cx="30" cy="50.17" r="9.24" fill="none" stroke="#d33" stroke-width="0.80"/><circle cx="49" cy="49.17" r="9.24" fill="none" stroke="#d33" stroke-width="0.80"/><circle cx="130" cy="51.17" r="9.24" fill="none" stroke="#d33" stroke-width="0.80"/><circle cx="29" cy="69.28" r="9.24" fill="none" stroke="#d33" stroke-width="0.80"/><circle cx="131" cy="67.28" r="9.24" fill="none" stroke="#d33" stroke-width="0.80"/><circle cx="109" cy="139.72" r="9.24" fill="none" stroke="#d33" stroke-width="0.80"/><circle cx="48" cy="157.83" r="9.24" fill="none" stroke="#d33" stroke-width="0.80"/><circle cx="129" cy="156.83" r="9.24" fill="none" stroke="#d33" stroke-width="0.80"/><circle cx="9" cy="176.94" r="9.24" fill="none" stroke="#d33" stroke-width="0.80"/></g></g>
  <text x="105" y="291" font-size="3" fill="#bbb" text-anchor="middle">BrainForge Kids · demo-vis</text>
</svg>